<svg width="155" height="50" viewBox="0 0 155 50" fill="none" xmlns="http://www.w3.org/2000/svg">
<g filter="url(#filter0_d_379_6307)">
<path d="M150.96 37.8C150.96 40.11 149.07 42 146.76 42H8.78984C6.47984 42 4.58984 40.11 4.58984 37.8V4.2C4.58984 1.89 6.47984 0 8.78984 0H146.718C149.07 0 150.918 1.89 150.918 4.2L150.96 37.8Z" fill="black"/>
</g>
<path d="M36.7198 20.7891C36.6778 17.2611 39.6178 15.5391 39.7438 15.4551C38.0638 13.0191 35.5018 12.6831 34.6198 12.6831C32.4778 12.4731 30.3778 13.9851 29.2438 13.9851C28.1098 13.9851 26.4298 12.7251 24.5818 12.7671C22.2298 12.8091 20.0458 14.1531 18.8278 16.2951C16.3498 20.5371 18.2398 26.8791 20.5918 30.3651C21.7678 32.0871 23.1958 33.9771 25.0018 33.8931C26.8078 33.8091 27.4378 32.7591 29.6218 32.7591C31.7638 32.7591 32.3938 33.8931 34.2418 33.8511C36.1738 33.8091 37.3498 32.1291 38.5258 30.4071C39.9118 28.4331 40.4578 26.5431 40.4998 26.4171C40.4578 26.4171 36.7618 25.0311 36.7198 20.7891Z" fill="white"/>
<path d="M33.1919 10.3309C34.1579 9.11291 34.8299 7.47491 34.6199 5.83691C33.2339 5.87891 31.4699 6.80291 30.5039 7.97891C29.6219 9.02891 28.8239 10.7089 29.0339 12.3049C30.5879 12.4309 32.2259 11.5489 33.1919 10.3309Z" fill="white"/>
<path d="M62.5919 33.6433H60.1139L58.7279 29.3593H53.9819L52.6799 33.6433H50.2439L54.9479 19.0273H57.8459L62.5919 33.6433ZM58.3079 27.5533L57.0899 23.7313C56.9639 23.3533 56.7119 22.4293 56.3339 20.9593H56.2919C56.1659 21.5893 55.9139 22.5133 55.5779 23.7313L54.3599 27.5533H58.3079Z" fill="white"/>
<path d="M74.6879 28.2666C74.6879 30.0726 74.1839 31.4586 73.2179 32.5086C72.3359 33.4326 71.2859 33.8946 69.9839 33.8946C68.5979 33.8946 67.5899 33.3906 67.0019 32.3826H66.9599V37.9266H64.6079V26.5866C64.6079 25.4526 64.5659 24.3186 64.5239 23.1006H66.5819L66.7079 24.7806H66.7499C67.5479 23.5206 68.7239 22.8906 70.3199 22.8906C71.5799 22.8906 72.5879 23.3946 73.4279 24.3606C74.2679 25.3686 74.6879 26.6286 74.6879 28.2666ZM72.2939 28.3506C72.2939 27.3426 72.0839 26.4606 71.5799 25.8306C71.0759 25.1166 70.4039 24.7806 69.5219 24.7806C68.9339 24.7806 68.4299 24.9906 67.9679 25.3686C67.5059 25.7466 67.1699 26.2506 67.0439 26.8806C66.9599 27.1746 66.9179 27.4266 66.9179 27.5946V29.3586C66.9179 30.1146 67.1699 30.7866 67.6319 31.2906C68.0939 31.7946 68.7239 32.0886 69.4799 32.0886C70.3619 32.0886 71.0339 31.7526 71.5379 31.0806C72.0419 30.3666 72.2939 29.4426 72.2939 28.3506Z" fill="white"/>
<path d="M86.8259 28.2666C86.8259 30.0726 86.3219 31.4586 85.3559 32.5086C84.4739 33.4326 83.4239 33.8946 82.1219 33.8946C80.7359 33.8946 79.7279 33.3906 79.1399 32.3826H79.0979V37.9266H76.7459V26.5866C76.7459 25.4526 76.7039 24.3186 76.6619 23.1006H78.7199L78.8459 24.7806H78.8879C79.6859 23.5206 80.8619 22.8906 82.4579 22.8906C83.7179 22.8906 84.7259 23.3946 85.5659 24.3606C86.4059 25.3686 86.8259 26.6286 86.8259 28.2666ZM84.4319 28.3506C84.4319 27.3426 84.1799 26.4606 83.7179 25.8306C83.2139 25.1166 82.5419 24.7806 81.6599 24.7806C81.0719 24.7806 80.5679 24.9906 80.1059 25.3686C79.6439 25.7466 79.3079 26.2506 79.1819 26.8806C79.0979 27.1746 79.0559 27.4266 79.0559 27.5946V29.3586C79.0559 30.1146 79.3079 30.7866 79.7699 31.2906C80.2319 31.8366 80.8619 32.0886 81.6179 32.0886C82.4999 32.0886 83.1719 31.7526 83.6759 31.0806C84.1799 30.3666 84.4319 29.4426 84.4319 28.3506Z" fill="white"/>
<path d="M100.392 29.5684C100.392 30.8284 99.9718 31.8364 99.0898 32.5924C98.1238 33.4324 96.8218 33.8524 95.0998 33.8524C93.5458 33.8524 92.2438 33.5584 91.3198 32.9284L91.8658 30.9544C92.8738 31.5844 94.0078 31.8784 95.2678 31.8784C96.1498 31.8784 96.8218 31.6684 97.3258 31.2904C97.8298 30.9124 98.0818 30.3664 98.0818 29.6944C98.0818 29.1064 97.8718 28.6024 97.4938 28.1824C97.0738 27.7624 96.4018 27.3844 95.4778 27.0484C92.9158 26.0824 91.6558 24.6964 91.6558 22.8484C91.6558 21.6304 92.1178 20.6644 92.9998 19.9084C93.8818 19.1524 95.0998 18.7744 96.5698 18.7744C97.9138 18.7744 99.0058 19.0264 99.8878 19.4884L99.2998 21.3784C98.4598 20.9164 97.5358 20.7064 96.4858 20.7064C95.6458 20.7064 95.0158 20.9164 94.5538 21.2944C94.1758 21.6724 93.9658 22.0924 93.9658 22.6384C93.9658 23.2264 94.1758 23.6884 94.6378 24.0664C95.0158 24.4024 95.7298 24.7804 96.7798 25.2004C98.0398 25.7044 98.9638 26.2924 99.5518 26.9644C100.098 27.6784 100.392 28.5184 100.392 29.5684Z" fill="white"/>
<path d="M108.12 24.8631H105.516V29.9871C105.516 31.2891 105.978 31.9611 106.902 31.9611C107.322 31.9611 107.658 31.9191 107.952 31.8351L108.036 33.5991C107.574 33.7671 106.986 33.8511 106.23 33.8511C105.306 33.8511 104.592 33.5571 104.046 33.0111C103.542 32.4651 103.248 31.4991 103.248 30.1551V24.8631H101.694V23.0991H103.248V21.1671L105.558 20.4531V23.0991H108.162C108.12 23.0991 108.12 24.8631 108.12 24.8631Z" fill="white"/>
<path d="M119.796 28.3086C119.796 29.9466 119.334 31.2486 118.41 32.2986C117.444 33.3906 116.142 33.8946 114.546 33.8946C112.992 33.8946 111.774 33.3906 110.85 32.3406C109.926 31.2906 109.464 30.0306 109.464 28.4766C109.464 26.8386 109.926 25.4946 110.892 24.4446C111.858 23.3946 113.118 22.8906 114.714 22.8906C116.268 22.8906 117.528 23.3946 118.452 24.4446C119.334 25.4106 119.796 26.7126 119.796 28.3086ZM117.36 28.3506C117.36 27.3846 117.15 26.5446 116.73 25.8306C116.226 24.9906 115.554 24.5706 114.63 24.5706C113.706 24.5706 112.992 24.9906 112.488 25.8306C112.068 26.5446 111.858 27.3846 111.858 28.3926C111.858 29.3586 112.068 30.1986 112.488 30.9126C112.992 31.7526 113.706 32.1726 114.63 32.1726C115.512 32.1726 116.226 31.7526 116.73 30.8706C117.15 30.1986 117.36 29.3586 117.36 28.3506Z" fill="white"/>
<path d="M127.398 25.1586C127.146 25.1166 126.936 25.0746 126.642 25.0746C125.802 25.0746 125.172 25.3686 124.752 25.9986C124.374 26.5446 124.164 27.2586 124.164 28.0986V33.6426H121.812L121.854 26.4186C121.854 25.2006 121.812 24.1086 121.77 23.1006H123.828L123.912 25.1166H123.996C124.248 24.4026 124.626 23.8566 125.172 23.4366C125.676 23.0586 126.264 22.8906 126.852 22.8906C127.062 22.8906 127.272 22.8906 127.44 22.9326C127.398 22.9326 127.398 25.1586 127.398 25.1586Z" fill="white"/>
<path d="M137.898 27.8886C137.898 28.3086 137.856 28.6446 137.814 28.9386H130.8C130.842 29.9886 131.178 30.7866 131.808 31.3326C132.396 31.8366 133.152 32.0886 134.118 32.0886C135.168 32.0886 136.092 31.9206 136.974 31.5846L137.31 33.1806C136.302 33.6006 135.126 33.8526 133.782 33.8526C132.144 33.8526 130.842 33.3906 129.918 32.4246C128.994 31.4586 128.532 30.1566 128.532 28.5606C128.532 26.9646 128.952 25.6626 129.834 24.5706C130.758 23.4366 131.976 22.8906 133.53 22.8906C135.042 22.8906 136.218 23.4366 136.974 24.5706C137.562 25.4526 137.898 26.5446 137.898 27.8886ZM135.672 27.2586C135.672 26.5446 135.546 25.9566 135.21 25.4526C134.79 24.7806 134.202 24.4866 133.362 24.4866C132.606 24.4866 131.976 24.8226 131.514 25.4526C131.136 25.9566 130.884 26.5866 130.8 27.2586H135.672Z" fill="white"/>
<path d="M57.5099 10.0387C57.5099 11.3407 57.1319 12.3067 56.3339 12.9787C55.6199 13.5667 54.6119 13.9027 53.2679 13.9027C52.5959 13.9027 52.0499 13.8607 51.5879 13.8187V6.67874C52.2179 6.59474 52.8479 6.51074 53.5619 6.51074C54.8219 6.51074 55.7879 6.80474 56.4179 7.35074C57.1739 7.98074 57.5099 8.86274 57.5099 10.0387ZM56.3339 10.0387C56.3339 9.19874 56.1239 8.56874 55.6619 8.10674C55.1999 7.64474 54.5699 7.43474 53.7299 7.43474C53.3519 7.43474 53.0579 7.47674 52.8059 7.51874V12.8947C52.9319 12.9367 53.2259 12.9367 53.6039 12.9367C54.4859 12.9367 55.1579 12.6847 55.6619 12.1807C56.0819 11.7187 56.3339 11.0047 56.3339 10.0387Z" fill="white"/>
<path d="M63.978 11.1724C63.978 11.9704 63.768 12.6424 63.306 13.1464C62.844 13.6924 62.214 13.9444 61.416 13.9444C60.66 13.9444 60.03 13.6924 59.61 13.1884C59.148 12.6844 58.938 12.0544 58.938 11.2984C58.938 10.5004 59.19 9.82836 59.652 9.32436C60.114 8.82036 60.744 8.56836 61.542 8.56836C62.298 8.56836 62.928 8.82036 63.39 9.32436C63.768 9.74436 63.978 10.3744 63.978 11.1724ZM62.76 11.1724C62.76 10.7104 62.676 10.2904 62.466 9.95436C62.214 9.53436 61.878 9.32436 61.416 9.32436C60.954 9.32436 60.618 9.53436 60.366 9.95436C60.156 10.2904 60.072 10.7104 60.072 11.2144C60.072 11.6764 60.156 12.0964 60.366 12.4324C60.618 12.8524 60.954 13.0624 61.416 13.0624C61.836 13.0624 62.214 12.8524 62.466 12.4324C62.676 12.0964 62.76 11.6764 62.76 11.1724Z" fill="white"/>
<path d="M72.5878 8.61133L70.9498 13.7773H69.8998L69.2278 11.5093C69.0598 10.9633 68.9338 10.3753 68.8078 9.82933C68.7238 10.4173 68.5558 10.9633 68.3878 11.5093L67.6738 13.7773H66.6238L65.1118 8.61133H66.2878L66.8758 11.0893C67.0018 11.6773 67.1278 12.2233 67.2118 12.7693C67.2958 12.3493 67.4218 11.8033 67.6318 11.1313L68.3878 8.65333H69.3118L70.0258 11.0893C70.1938 11.6773 70.3198 12.2653 70.4458 12.8113H70.4878C70.5718 12.2653 70.6978 11.7193 70.8238 11.0893L71.4538 8.65333L72.5878 8.61133Z" fill="white"/>
<path d="M78.5939 13.7774H77.4599V10.7954C77.4599 9.87135 77.1239 9.40935 76.4099 9.40935C76.0739 9.40935 75.7799 9.53535 75.5699 9.78735C75.3599 10.0394 75.2339 10.3334 75.2339 10.6694V13.7354H74.0999V10.0814C74.0999 9.61935 74.0999 9.11535 74.0579 8.61135H75.0659L75.1079 9.40935H75.1499C75.2759 9.15735 75.4859 8.94735 75.7379 8.77935C76.0319 8.56935 76.4099 8.48535 76.7879 8.48535C77.2919 8.48535 77.6699 8.65335 78.0059 8.94735C78.3839 9.32535 78.5939 9.91335 78.5939 10.6694V13.7774Z" fill="white"/>
<path d="M81.7439 13.7768H80.6099V6.2168H81.7439V13.7768Z" fill="white"/>
<path d="M88.5478 11.1724C88.5478 11.9704 88.3378 12.6424 87.8758 13.1464C87.4138 13.6924 86.7838 13.9444 85.9858 13.9444C85.2298 13.9444 84.5998 13.6924 84.1798 13.1884C83.7178 12.6844 83.5078 12.0544 83.5078 11.2984C83.5078 10.5004 83.7598 9.82836 84.2218 9.32436C84.6838 8.82036 85.3138 8.56836 86.1118 8.56836C86.8678 8.56836 87.4978 8.82036 87.9598 9.32436C88.2958 9.74436 88.5478 10.3744 88.5478 11.1724ZM87.3298 11.1724C87.3298 10.7104 87.2458 10.2904 87.0358 9.95436C86.7838 9.53436 86.4478 9.32436 85.9858 9.32436C85.5238 9.32436 85.1878 9.53436 84.9358 9.95436C84.7258 10.2904 84.6418 10.7104 84.6418 11.2144C84.6418 11.6764 84.7258 12.0964 84.9358 12.4324C85.1878 12.8524 85.5238 13.0624 85.9858 13.0624C86.4058 13.0624 86.7838 12.8524 87.0358 12.4324C87.2458 12.0964 87.3298 11.6764 87.3298 11.1724Z" fill="white"/>
<path d="M94.0919 13.7774H93.0419L92.9579 13.1894H92.9159C92.5799 13.6514 92.0759 13.9034 91.4039 13.9034C90.8999 13.9034 90.5219 13.7354 90.2279 13.4414C89.9759 13.1474 89.8079 12.8114 89.8079 12.3914C89.8079 11.7614 90.0599 11.2574 90.6059 10.9214C91.1519 10.5854 91.8659 10.4174 92.8319 10.4174V10.3334C92.8319 9.66135 92.4539 9.32535 91.7399 9.32535C91.2359 9.32535 90.7739 9.45135 90.3959 9.70335L90.1439 8.94735C90.6059 8.65335 91.2359 8.48535 91.9079 8.48535C93.2519 8.48535 93.9239 9.19935 93.9239 10.6274V12.5174C94.0499 13.0634 94.0499 13.4834 94.0919 13.7774ZM92.9159 12.0134V11.2154C91.6559 11.1734 91.0259 11.5514 91.0259 12.2654C91.0259 12.5174 91.1099 12.7274 91.2359 12.8534C91.4039 12.9794 91.5719 13.0634 91.7819 13.0634C92.0339 13.0634 92.2859 12.9794 92.4959 12.8114C92.7059 12.6434 92.8319 12.4334 92.9159 12.1814C92.9159 12.1394 92.9159 12.0974 92.9159 12.0134Z" fill="white"/>
<path d="M100.644 13.7778H99.636L99.594 12.9378H99.552C99.216 13.5678 98.67 13.9038 97.872 13.9038C97.242 13.9038 96.738 13.6518 96.318 13.1478C95.898 12.6438 95.688 12.0138 95.688 11.2578C95.688 10.4178 95.898 9.74577 96.36 9.24177C96.78 8.73777 97.326 8.52777 97.956 8.52777C98.67 8.52777 99.132 8.77977 99.426 9.24177H99.468V6.25977H100.602V12.4338C100.602 12.8958 100.644 13.3578 100.644 13.7778ZM99.468 11.5938V10.7118C99.468 10.5438 99.468 10.4598 99.426 10.3338C99.342 10.0398 99.216 9.82977 99.006 9.61977C98.796 9.45177 98.544 9.32577 98.25 9.32577C97.83 9.32577 97.494 9.49377 97.242 9.82977C96.99 10.1658 96.864 10.6278 96.864 11.1318C96.864 11.6358 96.99 12.0558 97.2 12.3918C97.452 12.7278 97.788 12.8958 98.208 12.8958C98.586 12.8958 98.88 12.7698 99.132 12.4758C99.342 12.3078 99.468 11.9718 99.468 11.5938Z" fill="white"/>
<path d="M110.514 11.1724C110.514 11.9704 110.304 12.6424 109.842 13.1464C109.38 13.6924 108.75 13.9444 107.952 13.9444C107.196 13.9444 106.566 13.6924 106.146 13.1884C105.684 12.6844 105.474 12.0544 105.474 11.2984C105.474 10.5004 105.726 9.82836 106.188 9.32436C106.65 8.82036 107.28 8.56836 108.078 8.56836C108.834 8.56836 109.464 8.82036 109.926 9.32436C110.304 9.74436 110.514 10.3744 110.514 11.1724ZM109.338 11.1724C109.338 10.7104 109.254 10.2904 109.044 9.95436C108.792 9.53436 108.456 9.32436 107.994 9.32436C107.532 9.32436 107.196 9.53436 106.944 9.95436C106.734 10.2904 106.65 10.7104 106.65 11.2144C106.65 11.6764 106.734 12.0964 106.944 12.4324C107.196 12.8524 107.532 13.0624 107.994 13.0624C108.414 13.0624 108.792 12.8524 109.044 12.4324C109.212 12.0964 109.338 11.6764 109.338 11.1724Z" fill="white"/>
<path d="M116.688 13.7774H115.554V10.7954C115.554 9.87135 115.218 9.40935 114.504 9.40935C114.168 9.40935 113.874 9.53535 113.664 9.78735C113.454 10.0394 113.328 10.3334 113.328 10.6694V13.7354H112.194V10.0814C112.194 9.61935 112.194 9.11535 112.152 8.61135H113.16L113.202 9.40935H113.244C113.37 9.15735 113.58 8.94735 113.832 8.77935C114.126 8.56935 114.504 8.48535 114.882 8.48535C115.344 8.48535 115.764 8.65335 116.1 8.94735C116.52 9.32535 116.688 9.91335 116.688 10.6694V13.7774Z" fill="white"/>
<path d="M124.458 9.45059H123.198V11.9706C123.198 12.6006 123.408 12.9366 123.87 12.9366C124.08 12.9366 124.248 12.9366 124.374 12.8946L124.416 13.7766C124.206 13.8606 123.87 13.9026 123.534 13.9026C123.072 13.9026 122.736 13.7766 122.484 13.4826C122.232 13.1886 122.106 12.7266 122.106 12.0966V9.49259H121.35V8.61059H122.106V7.64459L123.24 7.30859V8.61059H124.5L124.458 9.45059Z" fill="white"/>
<path d="M130.548 13.7768H129.414V10.8368C129.414 9.9128 129.078 9.4508 128.364 9.4508C127.818 9.4508 127.482 9.7028 127.272 10.2488C127.23 10.3748 127.23 10.5008 127.23 10.6688V13.7768H126.096V6.2168H127.23V9.3248H127.272C127.65 8.7368 128.154 8.4848 128.826 8.4848C129.288 8.4848 129.708 8.6528 130.002 8.9468C130.38 9.3248 130.59 9.9128 130.59 10.6688C130.548 10.7108 130.548 13.7768 130.548 13.7768Z" fill="white"/>
<path d="M136.848 10.9633C136.848 11.1733 136.848 11.3413 136.806 11.4673H133.362C133.362 11.9713 133.53 12.3493 133.866 12.6433C134.16 12.8953 134.538 13.0213 135 13.0213C135.504 13.0213 135.966 12.9373 136.386 12.7693L136.554 13.5673C136.05 13.7773 135.504 13.9033 134.832 13.9033C134.034 13.9033 133.404 13.6513 132.942 13.1893C132.48 12.7273 132.27 12.0973 132.27 11.2993C132.27 10.5013 132.48 9.87134 132.9 9.36734C133.362 8.82134 133.95 8.52734 134.706 8.52734C135.462 8.52734 136.008 8.82134 136.386 9.36734C136.68 9.74534 136.848 10.2913 136.848 10.9633ZM135.756 10.6693C135.756 10.3333 135.672 10.0393 135.546 9.78734C135.336 9.45134 135.042 9.32534 134.622 9.32534C134.244 9.32534 133.95 9.49334 133.698 9.78734C133.488 10.0393 133.404 10.3333 133.362 10.6693H135.756Z" fill="white"/>
<defs>
<filter id="filter0_d_379_6307" x="0.589844" y="0" width="154.37" height="50" filterUnits="userSpaceOnUse" color-interpolation-filters="sRGB">
<feFlood flood-opacity="0" result="BackgroundImageFix"/>
<feColorMatrix in="SourceAlpha" type="matrix" values="0 0 0 0 0 0 0 0 0 0 0 0 0 0 0 0 0 0 127 0" result="hardAlpha"/>
<feOffset dy="4"/>
<feGaussianBlur stdDeviation="2"/>
<feComposite in2="hardAlpha" operator="out"/>
<feColorMatrix type="matrix" values="0 0 0 0 0 0 0 0 0 0 0 0 0 0 0 0 0 0 0.1 0"/>
<feBlend mode="normal" in2="BackgroundImageFix" result="effect1_dropShadow_379_6307"/>
<feBlend mode="normal" in="SourceGraphic" in2="effect1_dropShadow_379_6307" result="shape"/>
</filter>
</defs>
</svg>
