<svg width="120" height="120" viewBox="0 0 120 120" fill="none" xmlns="http://www.w3.org/2000/svg">
<path d="M72.1359 6.41918C73.0595 5.44546 73.7796 6.10609 74.5248 6.70097C74.8379 6.95458 75.151 7.45239 75.6018 7.18313C75.9588 6.97022 75.7991 6.45049 75.7333 6.09982C75.4014 4.31831 76.0871 3.28197 77.7277 2.45226C79.5823 1.52528 81.4892 0.706728 83.4386 0.000732422H86.0154C87.5809 1.16232 87.9566 2.93443 88.301 4.67837C88.6642 6.51937 88.564 8.40107 88.6141 10.2703C88.636 11.316 87.7374 11.435 87.2051 11.9328C86.8232 12.1081 86.4318 12.2709 86.0592 12.4713C85.8369 12.5934 85.5207 12.6623 85.5144 13.0036C85.5082 13.3448 85.8275 13.4356 86.0686 13.5014C88.6704 14.2309 88.0693 14.8164 87.5965 16.9298C87.5464 17.1552 87.465 17.3744 87.3961 17.5967C84.6628 17.7 82.3866 18.7113 80.9088 21.094C79.4811 23.4171 78.1504 25.7904 76.801 28.1699C75.2981 30.8124 73.8047 33.4581 72.3456 36.1256C71.4314 37.7944 71.6067 38.8934 72.784 40.0456C73.3225 40.5747 74.0364 40.6217 74.7878 40.9066L72.4302 44.9549C71.4372 45.8945 70.1747 46.4989 68.8202 46.6832C68.3224 46.7552 67.8371 46.9087 67.3455 47.0182C67.0136 47.0934 66.7694 47.2468 66.735 47.6194C66.7145 47.7751 66.7469 47.9331 66.8269 48.0683C66.907 48.2034 67.03 48.3077 67.1764 48.3645C67.3862 48.4647 67.5991 48.5649 67.8026 48.6776C69.0174 49.3289 69.1834 50.0333 68.3255 51.0916C67.621 51.9651 66.8665 52.8011 66.1338 53.6527L62.3015 57.4099C60.4042 58.7624 58.5194 60.1338 56.6032 61.4613C55.8048 62.0155 54.9469 62.4945 53.9012 62.291C53.8574 61.8402 54.136 61.502 54.3176 61.1326C54.7497 60.2622 55.0596 59.3761 54.7528 58.393C54.9156 57.6071 55.379 56.9715 55.7672 56.2984C58.1937 52.1186 60.6327 47.9481 63.0498 43.7746C67.0491 36.8614 71.04 29.9441 75.0226 23.0226C77.2393 19.1716 79.4456 15.3173 81.6414 11.46C82.205 10.4675 82.0391 9.58144 81.2814 9.07736C80.4548 8.5451 79.5562 8.80496 78.93 9.81626C78.2318 10.9403 77.5712 12.0925 76.9106 13.2384L51.9444 56.4925C50.2161 56.7868 49.6024 58.2959 48.6882 59.4794C48.2616 58.7386 48.0381 57.8984 48.0401 57.0435C48.1246 55.9195 48.206 54.7955 48.2905 53.6715C48.4565 52.4817 48.5786 51.2826 48.7977 50.1022C49.4239 46.7458 50.1033 43.4083 51.6156 40.3023C52.2888 39.8578 52.9556 39.9705 53.6257 40.3023C54.7278 41.2635 54.9438 41.2416 55.1912 40.2397C55.1196 39.7806 55.0064 39.3289 54.853 38.8903C53.8542 36.6986 54.255 34.7449 55.4792 32.716C58.3378 27.9539 61.0554 23.104 63.8326 18.2917C66.2152 14.09 68.4445 9.74112 72.1359 6.41918Z" fill="#1F9EF3"/>
<path d="M48.0276 57.0435C48.026 57.8978 48.2484 58.7377 48.6726 59.4793C47.7851 60.9862 46.7856 62.4243 45.6825 63.7813C45.3401 63.6869 44.9744 63.7284 44.6618 63.8971C43.9445 64.2022 43.1736 64.3612 42.3941 64.365C41.6146 64.3687 40.8422 64.2171 40.1219 63.919C38.5223 63.355 36.7723 63.3906 35.1969 64.0192C33.9879 64.485 32.6489 64.485 31.4398 64.0192C29.7069 63.3623 27.7923 63.369 26.064 64.038C24.8934 64.5015 23.5901 64.5015 22.4195 64.038C21.6217 63.7238 20.7722 63.5614 19.9148 63.559C18.8628 63.559 18.127 64.2227 18.0988 65.1495C18.0644 66.189 18.6593 66.715 19.6205 66.8997C20.2279 67.0124 20.8509 66.9968 21.4521 67.2128C23.2535 67.9055 25.2465 67.9133 27.0533 67.2347C28.1645 66.823 29.3863 66.823 30.4974 67.2347C32.3444 67.9157 34.3738 67.9157 36.2208 67.2347C37.29 66.8356 38.4673 66.8356 39.5365 67.2347C40.6345 67.6484 41.8124 67.8058 42.9805 67.695C41.7404 69.7604 40.3737 71.7471 38.8883 73.6438C37.657 73.4258 36.3897 73.5426 35.2189 73.9819C34.0422 74.4319 32.7429 74.443 31.5588 74.0132C29.7489 73.352 27.7622 73.3597 25.9575 74.0351C24.8442 74.4408 23.6223 74.4341 22.5135 74.0164C21.6391 73.681 20.7068 73.5224 19.7708 73.5498C18.7595 73.5999 18.1458 74.1165 18.1051 75.1153C18.0644 76.1141 18.6373 76.6808 19.6392 76.828C20.2194 76.8727 20.7934 76.9776 21.3519 77.141C23.2639 77.8694 25.3793 77.8559 27.2819 77.1035C28.1571 76.738 29.137 76.7112 30.0309 77.0283C31.674 77.6591 33.4584 77.828 35.1907 77.5168C35.3375 77.5586 35.4631 77.6546 35.5421 77.7853C35.6211 77.916 35.6477 78.0717 35.6165 78.2212C33.6661 80.2853 31.4743 82.1071 29.0885 83.6472C28.0302 83.2808 27.0408 83.6472 26.0702 83.9884C24.8936 84.4379 23.5915 84.4312 22.4195 83.9697C21.5853 83.6309 20.6895 83.4699 19.7895 83.4969C18.8753 83.5282 18.2241 83.9947 18.0957 84.959C18.0548 85.1637 18.0561 85.3746 18.0994 85.5788C18.1427 85.7829 18.2271 85.9762 18.3475 86.1467C18.4679 86.3172 18.6218 86.4614 18.7997 86.5705C18.9777 86.6796 19.176 86.7513 19.3825 86.7812C22.3788 87.4701 25.3877 88.2622 28.3871 86.7812C29.6087 88.8621 30.178 91.2615 30.0215 93.6693C28.7745 93.3551 27.4602 93.4405 26.2643 93.9136C24.9799 94.4036 23.56 94.4036 22.2755 93.9136C21.4375 93.5863 20.5357 93.4557 19.6392 93.5316C18.7 93.6255 18.1364 94.1578 18.1145 95.1315C18.0926 96.1052 18.6123 96.697 19.561 96.7909C20.4141 96.8857 21.2542 97.0747 22.0657 97.3545C23.5631 97.815 25.1661 97.8019 26.6557 97.3169C27.3257 97.1134 28.0083 96.9631 28.6846 96.7878C28.791 97.7271 29.0697 98.5787 30.1749 98.7352C31.2113 98.8824 31.7905 98.2061 32.1192 97.3826C32.7454 95.8579 33.9978 95.191 35.4005 94.6368C36.9289 94.0592 38.5234 93.6743 40.147 93.4909C42.1414 93.2467 42.4357 92.943 42.6236 90.8828C42.7269 89.7682 42.7332 88.6316 43.1965 87.5796C43.7225 87.7644 44.2297 87.5483 44.6743 87.373C46.1647 86.775 47.5955 86.8407 49.114 87.3479C50.7604 87.8946 52.5455 87.8526 54.1643 87.229C55.2675 86.7917 56.4928 86.7739 57.6083 87.1789C59.4912 87.8819 61.5646 87.8819 63.4475 87.1789C64.3621 86.804 65.3808 86.7695 66.3186 87.0818C68.551 87.9334 70.7395 87.8364 72.95 87.0818C72.95 92.4264 72.9813 97.7709 72.9249 103.115C72.903 105.398 72.2111 107.455 70.4358 109.064C69.4527 109.957 68.2441 110.317 67.092 110.865C66.8196 110.865 66.5503 110.905 66.2779 110.905H29.2168C27.0146 109.666 24.9502 108.197 23.0582 106.522C18.4558 102.635 14.4908 98.0512 11.3078 92.9367C7.42863 86.7163 4.78485 79.8066 3.52111 72.5855C2.76719 68.4962 2.47001 64.3357 2.63505 60.1807C2.89876 53.62 4.30915 47.1561 6.80235 41.0819C6.94268 40.8083 7.10498 40.5465 7.28764 40.2991C7.71658 40.2991 8.14552 40.2678 8.57446 40.2678H50.3038C50.7327 40.2678 51.1617 40.2929 51.5875 40.3085C50.0909 43.4144 49.3958 46.752 48.7696 50.1084C48.5505 51.2888 48.4284 52.4879 48.2624 53.6777C46.6969 53.5775 45.1596 53.6495 43.6568 54.2162C42.6446 54.5539 41.5444 54.5127 40.5603 54.1004C38.7855 53.4492 36.8371 53.4492 35.0623 54.1004C33.9165 54.5167 32.6608 54.5167 31.515 54.1004C29.7399 53.4508 27.7921 53.4508 26.017 54.1004C24.8741 54.533 23.6125 54.533 22.4696 54.1004C21.5946 53.7605 20.6585 53.6059 19.7207 53.6464C18.7188 53.6965 18.055 54.3164 18.0675 55.2432C18.0832 56.2607 18.6561 56.8493 19.6486 56.9245C20.3076 56.9811 20.9567 57.121 21.5804 57.3409C23.2838 57.9577 25.1496 57.9577 26.853 57.3409C28.1013 56.8648 29.4823 56.8715 30.726 57.3597C32.3889 57.986 34.2228 57.986 35.8858 57.3597C37.1309 56.879 38.5104 56.879 39.7556 57.3597C41.471 57.9815 43.353 57.9637 45.0563 57.3096C46.0022 56.944 47.0318 56.8518 48.0276 57.0435Z" fill="#DDEDFE"/>
<path d="M67.042 110.824C68.1848 110.279 69.4027 109.916 70.3858 109.024C72.1611 107.411 72.853 105.354 72.875 103.075C72.9313 97.7304 72.8969 92.3858 72.9 87.0413C73.803 86.7794 74.7666 86.8178 75.6458 87.1509C76.7576 87.5103 77.9218 87.6807 79.0899 87.655C80.455 87.6894 81.6134 86.8973 82.9629 86.866C84.1151 86.8378 84.8414 86.0519 84.7945 85.1439C84.7413 84.117 83.8552 83.3937 82.6498 83.4783C81.7572 83.5592 80.8797 83.7615 80.0417 84.0794C79.0838 84.4441 78.0252 84.4441 77.0673 84.0794C75.7506 83.5825 74.3409 83.3805 72.9376 83.4877C72.9209 81.3586 72.9042 79.2316 72.8875 77.1068C73.8925 76.6058 74.8631 76.9346 75.8243 77.2414C77.2552 77.6954 78.686 77.9083 80.1826 77.5545C81.3129 77.2946 82.3899 76.8657 83.5734 76.7592C84.3624 76.6872 84.8258 75.9327 84.7726 75.1217C84.7733 74.7223 84.6213 74.3377 84.3477 74.0467C84.0742 73.7557 83.6997 73.5802 83.301 73.5563C82.3298 73.4593 81.3495 73.6012 80.4456 73.9696C79.5095 74.3882 78.4544 74.4582 77.4712 74.1668C75.9922 73.6828 74.4395 73.4634 72.8843 73.5187C72.8843 71.8029 72.8843 70.0747 72.8843 68.3714C72.8843 67.9581 73.019 67.4979 72.6088 67.1754C73.6377 66.7935 74.7729 66.8148 75.7867 67.2349C78.6046 68.3714 81.2221 67.2349 83.8771 66.6337C84.6254 66.4615 84.8915 65.66 84.7507 64.9148C84.6927 64.5217 84.4929 64.1633 84.189 63.9072C83.885 63.6512 83.4979 63.5151 83.1006 63.5247C82.1626 63.4916 81.2283 63.6603 80.3611 64.0194C79.2728 64.4802 78.0481 64.5005 76.9452 64.0758C75.6582 63.6105 74.2851 63.432 72.9219 63.5529L72.8843 57.172C73.8863 56.693 74.8537 56.9654 75.818 57.3035C77.3193 57.8759 78.9631 57.9592 80.5145 57.5415C81.4333 57.2423 82.376 57.0223 83.3323 56.884C83.5401 56.8749 83.7437 56.8227 83.9302 56.7307C84.1167 56.6388 84.282 56.509 84.4157 56.3497C84.5493 56.1904 84.6484 56.0051 84.7066 55.8055C84.7648 55.6058 84.7809 55.3963 84.7538 55.1901C84.6755 54.2508 84.09 53.6528 83.0474 53.6246C82.1127 53.5954 81.1817 53.7563 80.311 54.0974C79.4088 54.4958 78.392 54.5504 77.4524 54.2508C75.9753 53.7652 74.422 53.553 72.8687 53.6246C72.756 50.7348 73.2225 47.8136 72.4053 44.9613L74.7629 40.913C74.0084 40.628 73.2976 40.5811 72.7591 40.052C71.5819 38.8998 71.4065 37.8008 72.3208 36.132C73.7798 33.4644 75.2733 30.8094 76.7761 28.1763C78.1256 25.8061 79.4562 23.4235 80.8839 21.1003C82.3555 18.7176 84.6411 17.7063 87.3713 17.603C86.8014 19.8855 85.7682 21.9864 84.6035 23.9996C81.7084 29.0341 78.8071 34.0635 75.8995 39.0876C75.2482 40.2116 75.2513 40.2179 76.5851 40.2179H89.4846C89.9689 43.545 90.4542 46.8733 90.9405 50.2025C91.4478 53.6841 91.9362 57.1657 92.4591 60.6442C93.0289 64.4702 93.6426 68.29 94.2093 72.1192C94.7259 75.6008 95.1924 79.0918 95.6965 82.5765C96.2882 86.7094 96.9708 90.836 97.478 94.9814C97.9226 98.6164 98.2826 98.9796 101.915 99.1205C104.106 99.205 105.672 100.423 106.717 102.333C106.874 102.618 106.833 103.062 107.306 103.112C107.278 104.274 107.466 105.439 107.087 106.591C106.204 109.287 104.172 110.811 101.338 110.827C97.8318 110.846 94.3241 110.862 90.8153 110.874C87.437 110.874 84.0556 110.874 80.6742 110.874C76.1322 110.866 71.5881 110.849 67.042 110.824Z" fill="#BDC7F6"/>
<path d="M51.5874 40.3025C51.1616 40.2868 50.7326 40.2618 50.3037 40.2618H8.57438C8.14544 40.2618 7.7165 40.2805 7.28756 40.2931C7.21242 39.5823 7.63823 39.0407 7.91375 38.4489C16.311 21.2694 29.7615 10.4582 48.4784 6.33477C56.359 4.59709 64.2552 4.81939 72.1358 6.41931C68.4444 9.74125 66.2152 14.0901 63.7887 18.2981C61.0241 23.1167 58.2939 27.9602 55.4353 32.7224C54.2143 34.7513 53.8135 36.7081 54.8091 38.8967C54.9625 39.3353 55.0757 39.787 55.1473 40.2461L53.5818 40.3087C52.9274 39.9706 52.2574 39.8579 51.5874 40.3025Z" fill="#CB4533"/>
<path d="M89.4847 40.2148H76.6008C75.267 40.2148 75.2639 40.2148 75.9151 39.0845C78.8144 34.0562 81.7158 29.0269 84.6192 23.9965C85.7839 21.9707 86.8109 19.8824 87.3869 17.5999C87.4558 17.3776 87.5372 17.1585 87.5873 16.933C88.0601 14.8196 88.6612 14.2341 86.0594 13.5046C85.8215 13.4389 85.499 13.3669 85.5052 13.0068C85.5115 12.6468 85.8183 12.5967 86.05 12.4746C86.4226 12.2742 86.814 12.1114 87.196 11.936C92.6657 15.0263 97.6659 18.7302 101.936 23.364C110.362 32.5033 115.472 43.2111 116.965 55.5721C118.643 69.5174 115.553 82.3762 107.926 94.158C107.55 94.7372 107.256 95.3884 106.655 95.7986C106.548 94.086 106.454 92.3702 106.342 90.6607C105.745 82.0255 105.144 73.3893 104.538 64.7521C104.188 59.6204 103.89 54.4825 103.536 49.3509C103.186 44.3007 102.76 39.2536 102.437 34.2002C102.253 31.326 100.59 29.15 97.7598 28.5645C95.4554 28.0855 93.0978 28.433 90.7621 28.3829C88.8021 28.3422 87.9036 29.4349 88.1916 31.3417C88.6268 34.2942 89.0526 37.2529 89.4847 40.2148Z" fill="#CB4533"/>
<path d="M89.4846 40.2147C89.0525 37.2528 88.6267 34.294 88.179 31.3353C87.891 29.4285 88.8052 28.3358 90.7495 28.3765C93.0852 28.4266 95.446 28.0791 97.7472 28.5581C100.565 29.1468 102.24 31.3228 102.425 34.1938C102.738 39.2472 103.173 44.2943 103.524 49.3445C103.878 54.4762 104.175 59.6141 104.526 64.7457C105.116 73.385 105.718 82.0212 106.329 90.6543C106.448 92.3638 106.542 94.0796 106.642 95.7922C106.902 98.2281 106.886 100.689 107.303 103.109C106.827 103.059 106.868 102.615 106.711 102.33C105.669 100.42 104.116 99.1987 101.908 99.1173C98.2669 98.9764 97.9163 98.6132 97.4717 94.975C96.9645 90.8296 96.2819 86.703 95.6902 82.5702C95.1861 79.0854 94.7196 75.5944 94.203 72.1128C93.6363 68.2837 93.0226 64.4639 92.4528 60.6379C91.9299 57.1594 91.4415 53.6778 90.9343 50.1961C90.4563 46.8711 89.973 43.5439 89.4846 40.2147Z" fill="#DDEDFE"/>
<path d="M67.0419 110.824C71.588 110.843 76.1321 110.859 80.674 110.874C84.0555 110.874 87.4369 110.874 90.8152 110.874C87.7178 113.046 84.34 114.789 80.7742 116.053C63.3129 122.512 46.5091 121.025 30.3941 111.723C29.962 111.472 29.5738 111.14 29.1667 110.849H66.2278C66.5002 110.865 66.7695 110.836 67.0419 110.824Z" fill="#CB4533"/>
<path d="M51.9443 56.4926L76.9137 13.2416C77.5743 12.0957 78.2349 10.9435 78.9331 9.81949C79.5593 8.80819 80.4579 8.54833 81.2845 9.08059C82.0422 9.56902 82.2238 10.4707 81.6446 11.4632C79.4508 15.3247 77.2445 19.1789 75.0257 23.0258C71.039 29.9452 67.048 36.8626 63.053 43.7778C60.6359 47.9607 58.1968 52.1312 55.7704 56.3016C55.3821 56.9748 54.9187 57.6103 54.7559 58.3931C54.136 57.2753 53.2437 56.5803 51.9443 56.4926Z" fill="#BDC7F6"/>
<path d="M51.9445 56.4924C53.2564 56.5801 54.1519 57.2752 54.7624 58.4023C55.0755 59.3886 54.7624 60.2809 54.3272 61.145C54.1456 61.5145 53.8669 61.8526 53.9108 62.3035H53.9358L53.7605 62.3598C53.358 62.9059 53.0734 63.5296 52.9245 64.1914C52.3902 65.3374 51.8569 66.4854 51.3246 67.6355C50.1638 69.5817 49.1919 71.6345 48.4222 73.7659C47.9338 74.7699 47.4474 75.7749 46.9632 76.781C46.4334 77.6541 46.0128 78.5889 45.7108 79.5644C45.5605 79.5644 45.3758 79.6333 45.2662 79.5644C42.7614 78.1273 40.2035 76.8123 37.8208 75.1811C38.1777 74.6707 38.5378 74.1604 38.8947 73.6469C40.3801 71.7502 41.7468 69.7635 42.9869 67.6981L45.6826 63.7813C46.789 62.4246 47.7916 60.9866 48.6821 59.4794C49.5901 58.2959 50.2037 56.7867 51.9445 56.4924Z" fill="#CB4533"/>
<path d="M48.0277 57.0436C47.0279 56.8496 45.9936 56.9418 45.0439 57.3098C43.346 57.9488 41.4752 57.9577 39.7714 57.3348C38.5262 56.8541 37.1467 56.8541 35.9015 57.3348C34.2386 57.9611 32.4046 57.9611 30.7417 57.3348C29.498 56.8467 28.117 56.84 26.8687 57.316C25.1653 57.9328 23.2996 57.9328 21.5962 57.316C20.971 57.1068 20.322 56.9774 19.6644 56.9309C18.6719 56.8558 18.0989 56.2671 18.0833 55.2496C18.0833 54.3103 18.7345 53.7029 19.7364 53.6528C20.6743 53.6123 21.6103 53.7669 22.4854 54.1068C23.6282 54.5395 24.8899 54.5395 26.0327 54.1068C27.8078 53.4572 29.7556 53.4572 31.5307 54.1068C32.6765 54.5231 33.9322 54.5231 35.0781 54.1068C36.8529 53.4556 38.8012 53.4556 40.576 54.1068C41.5601 54.5191 42.6604 54.5603 43.6725 54.2226C45.1754 53.6559 46.7095 53.5964 48.2782 53.6841C48.1874 54.7956 48.1122 55.9196 48.0277 57.0436Z" fill="#4E6DB3"/>
<path d="M52.9058 64.1916C53.0546 63.5297 53.3393 62.906 53.7417 62.3599C53.8576 62.5102 53.8951 62.432 53.9171 62.3036H53.892C54.9377 62.5071 55.7956 62.0281 56.594 61.4739C58.5102 60.1464 60.395 58.775 62.2924 57.4224C63.4821 57.3535 64.6406 56.5614 65.8272 57.0154C68.0923 57.8906 70.5921 57.946 72.8938 57.1719C72.9063 59.301 72.9178 61.428 72.9282 63.5528C70.9275 64.345 68.9613 64.6706 66.826 63.8127C65.3983 63.2397 63.8109 63.4777 62.355 64.0225C61.1459 64.4883 59.8069 64.4883 58.5978 64.0225C56.7518 63.3299 54.7075 63.3906 52.9058 64.1916Z" fill="#DDEDFE"/>
<path d="M72.8936 57.1719C70.592 57.946 68.0922 57.8906 65.8271 57.0154C64.6404 56.5614 63.482 57.3535 62.2922 57.4224L66.1245 53.6653C68.3819 54.5169 70.6362 54.6765 72.8842 53.6339C74.4375 53.5623 75.9908 53.7745 77.468 54.2601C78.4076 54.5597 79.4244 54.5051 80.3265 54.1067C81.1973 53.7656 82.1282 53.6047 83.063 53.6339C84.1056 53.6559 84.6911 54.2601 84.7693 55.1994C84.7965 55.4056 84.7804 55.6151 84.7222 55.8148C84.664 56.0144 84.5649 56.1997 84.4312 56.359C84.2976 56.5183 84.1322 56.6481 83.9457 56.74C83.7592 56.832 83.5556 56.8842 83.3479 56.8933C82.3916 57.0316 81.4488 57.2516 80.53 57.5508C78.9786 57.9685 77.3349 57.8852 75.8336 57.3128C74.863 56.9653 73.8955 56.6929 72.8936 57.1719Z" fill="#4E6DB3"/>
<path d="M72.8842 53.6184C70.6362 54.661 68.3819 54.5013 66.1245 53.6497C66.8572 52.7981 67.6117 51.9621 68.3162 51.0886C69.1741 50.0303 69.0081 49.3258 67.7933 48.6746C67.5898 48.565 67.3769 48.4648 67.1671 48.3615C67.0207 48.3047 66.8977 48.2003 66.8176 48.0652C66.7376 47.9301 66.7052 47.772 66.7257 47.6163C66.7601 47.2438 67.0043 47.0903 67.3362 47.0152C67.8278 46.9056 68.313 46.7522 68.8109 46.6802C70.1653 46.4959 71.4279 45.8914 72.4209 44.9519C73.2349 47.8073 72.7715 50.7285 72.8842 53.6184Z" fill="#DDEDFE"/>
<path d="M53.5977 40.3087L55.1631 40.2461C54.9158 41.2762 54.6998 41.2762 53.5977 40.3087Z" fill="#DDEDFE"/>
<path d="M29.0884 83.6473C31.4743 82.1072 33.6661 80.2855 35.6165 78.2214C35.9662 78.1688 36.3231 78.2444 36.6215 78.4343C38.2684 79.3986 39.9466 80.3129 41.5715 81.3148C42.4231 81.8408 43.4031 82.1821 44.0763 82.9773C43.9461 83.1449 43.8573 83.3408 43.817 83.5492C43.7768 83.7575 43.7862 83.9725 43.8446 84.1765C43.4849 85.2698 43.2548 86.4015 43.1589 87.5485C42.6955 88.6005 42.6893 89.7402 42.5859 90.8517C42.3981 92.9118 42.1038 93.2155 40.1094 93.4597C38.4818 93.6401 36.8831 94.0229 35.3503 94.5994C33.9414 95.1442 32.6828 95.8205 32.0691 97.3452C31.7403 98.1687 31.1611 98.845 30.1248 98.6978C29.0195 98.5413 28.7409 97.7022 28.6344 96.7535C29.0321 95.6921 30.0809 94.9188 29.9933 93.6476C30.1498 91.2398 29.5805 88.8403 28.3589 86.7595C27.7139 85.0719 27.7922 84.7213 29.0884 83.6473Z" fill="#CB4533"/>
<path d="M43.1589 87.5421C43.2548 86.3951 43.485 85.2634 43.8446 84.1701C45.7451 83.2558 47.6863 83.331 49.6212 83.9947C50.7587 84.4223 52.0117 84.4279 53.1529 84.0104C54.917 83.346 56.8606 83.3349 58.6321 83.9791C59.8054 84.4222 61.1001 84.4222 62.2734 83.9791C63.7637 83.428 65.4044 83.1744 66.8477 83.7537C68.9893 84.6084 70.943 84.2389 72.9406 83.4781C74.3438 83.371 75.7536 83.573 77.0703 84.0699C78.0282 84.4346 79.0868 84.4346 80.0447 84.0699C80.8827 83.752 81.7601 83.5497 82.6528 83.4687C83.8488 83.3842 84.7442 84.0949 84.7975 85.1344C84.8444 86.0424 84.1181 86.8282 82.9659 86.8564C81.6164 86.8877 80.4611 87.6799 79.0929 87.6454C77.9247 87.6712 76.7606 87.5008 75.6488 87.1413C74.7696 86.8083 73.806 86.7699 72.903 87.0317C70.6925 87.7832 68.504 87.8802 66.2716 87.0317C65.3338 86.7195 64.3151 86.7539 63.4005 87.1288C61.5176 87.8318 59.4442 87.8318 57.5613 87.1288C56.4458 86.7238 55.2205 86.7417 54.1173 87.1789C52.4985 87.8025 50.7134 87.8446 49.067 87.2979C47.5485 86.7907 46.1177 86.7249 44.6274 87.3229C44.1921 87.5108 43.6849 87.7268 43.1589 87.5421Z" fill="#4E6DB3"/>
<path d="M45.6826 63.7813L42.9618 67.6887C41.7937 67.7995 40.6157 67.6421 39.5177 67.2285C38.4485 66.8293 37.2713 66.8293 36.2021 67.2285C34.355 67.9095 32.3257 67.9095 30.4787 67.2285C29.3676 66.8168 28.1457 66.8168 27.0346 67.2285C25.2278 67.907 23.2348 67.8992 21.4334 67.2065C20.8322 66.9811 20.2092 66.9968 19.6018 66.8934C18.6406 66.7119 18.0363 66.1827 18.0801 65.1432C18.1083 64.204 18.8441 63.5621 19.8961 63.5527C20.7535 63.5551 21.603 63.7176 22.4008 64.0318C23.5714 64.4952 24.8747 64.4952 26.0453 64.0318C27.7736 63.3628 29.6881 63.3561 31.4211 64.013C32.6302 64.4788 33.9692 64.4788 35.1782 64.013C36.7536 63.3843 38.5036 63.3487 40.1032 63.9128C40.8235 64.2109 41.5959 64.3625 42.3754 64.3587C43.1549 64.3549 43.9258 64.1959 44.6431 63.8909C44.9618 63.7192 45.3351 63.6798 45.6826 63.7813Z" fill="#4E6DB3"/>
<path d="M38.86 73.6534C38.5031 74.1668 38.1431 74.6772 37.7861 75.1875C35.5945 74.5801 34.7491 75.3441 35.1749 77.5483C33.4467 77.8572 31.6669 77.6883 30.0276 77.0599C29.1337 76.7427 28.1539 76.7695 27.2786 77.135C25.376 77.8875 23.2607 77.9009 21.3486 77.1726C20.7901 77.0092 20.2162 76.9042 19.636 76.8595C18.6341 76.7186 18.0705 76.1581 18.1018 75.1468C18.1331 74.1355 18.7562 73.6158 19.7675 73.5814C20.7032 73.5465 21.6365 73.6976 22.5133 74.026C23.6222 74.4437 24.844 74.4504 25.9574 74.0447C27.7621 73.3693 29.7488 73.3616 31.5587 74.0228C32.7428 74.4526 34.0421 74.4415 35.2187 73.9915C36.3809 73.5573 37.6378 73.4406 38.86 73.6534Z" fill="#4E6DB3"/>
<path d="M35.175 77.5481C34.7492 75.3565 35.5945 74.58 37.7862 75.1874C40.1688 76.8155 42.7331 78.1305 45.2316 79.5707C45.3412 79.6334 45.5259 79.5707 45.6762 79.5707C45.8158 79.7998 45.9772 80.0148 46.1584 80.2126C46.7845 80.7699 46.7845 81.4086 46.4715 82.1099C46.1584 82.8113 45.6856 83.0116 44.9874 82.9553C44.6793 82.9433 44.3707 82.9517 44.0638 82.9803C43.3906 82.1851 42.4106 81.8438 41.559 81.3178C39.934 80.3159 38.2558 79.4017 36.609 78.4373C36.3106 78.2474 35.9537 78.1718 35.6039 78.2244C35.6273 78.0788 35.5966 77.9296 35.5176 77.805C35.4386 77.6805 35.3167 77.5891 35.175 77.5481Z" fill="#FEFEFE"/>
<path d="M30.0058 93.6475C30.0935 94.9187 29.0446 95.692 28.647 96.7534C27.9707 96.9256 27.2882 97.0665 26.6181 97.2794C25.1289 97.7654 23.5258 97.7796 22.0282 97.3201C21.2166 97.0404 20.3766 96.8514 19.5234 96.7566C18.5841 96.672 18.0581 96.0552 18.0769 95.0972C18.0957 94.1391 18.6561 93.5912 19.6017 93.4973C20.5009 93.4189 21.4062 93.5485 22.2473 93.8761C23.5318 94.3662 24.9517 94.3662 26.2362 93.8761C27.4375 93.4055 28.7565 93.3256 30.0058 93.6475Z" fill="#4E6DB3"/>
<path d="M29.0884 83.6473C27.7985 84.7212 27.7202 85.0719 28.3777 86.7782C25.3783 88.2654 22.3694 87.4733 19.3731 86.7782C19.1674 86.7471 18.9701 86.6746 18.7932 86.565C18.6164 86.4554 18.4636 86.311 18.3442 86.1407C18.2247 85.9703 18.1411 85.7775 18.0984 85.5738C18.0557 85.3702 18.0548 85.16 18.0957 84.956C18.2146 83.9917 18.8753 83.5252 19.7895 83.4939C20.6895 83.4669 21.5853 83.6279 22.4195 83.9667C23.5914 84.4282 24.8936 84.4349 26.0702 83.9854C27.0345 83.6567 28.0239 83.281 29.0884 83.6473Z" fill="#4E6DB3"/>
<path d="M44.0764 82.9708C44.3834 82.9422 44.692 82.9338 45.0001 82.9458C45.6983 83.0022 46.2086 82.7705 46.4841 82.1004C46.7597 81.4304 46.7753 80.7604 46.171 80.2031C45.9877 80.0055 45.8242 79.7906 45.6826 79.5612C45.9846 78.5857 46.4052 77.6509 46.935 76.7778C47.3164 76.8406 47.693 76.9295 48.0621 77.044C50.1756 77.8974 52.5361 77.9064 54.6559 77.069C55.5834 76.7347 56.6027 76.7615 57.5114 77.1442C59.41 77.9019 61.5271 77.9019 63.4257 77.1442C64.2398 76.8311 65.1164 76.6839 65.9305 76.997C68.1552 77.8699 70.6206 77.9088 72.8718 77.1066C72.8906 79.2335 72.9073 81.3605 72.9219 83.4875C70.9244 84.2483 68.9706 84.6177 66.8291 83.763C65.3763 83.1837 63.7451 83.4499 62.2547 83.9884C61.0814 84.4315 59.7868 84.4315 58.6134 83.9884C56.8419 83.3442 54.8983 83.3554 53.1343 84.0197C51.9931 84.4372 50.74 84.4316 49.6026 84.0041C47.6676 83.3403 45.7265 83.2652 43.826 84.1794C43.7686 83.9725 43.7614 83.755 43.8049 83.5448C43.8485 83.3346 43.9416 83.1378 44.0764 82.9708Z" fill="#DDEDFE"/>
<path d="M48.4033 73.7628C49.177 71.631 50.1531 69.5781 51.3182 67.6324C52.2763 67.8547 53.178 67.5917 54.0609 67.2786C55.2811 66.8324 56.6198 66.8324 57.84 67.2786C59.5765 67.9148 61.4831 67.9092 63.2158 67.263C64.201 66.8532 65.2998 66.8077 66.3155 67.1346C68.3417 67.8955 70.5704 67.9232 72.615 67.2129C73.0251 67.526 72.8874 67.9956 72.8905 68.4089C72.8905 70.1246 72.8905 71.8529 72.8905 73.5562C70.8804 74.3389 68.8954 74.5831 66.7726 73.8004C65.3324 73.2681 63.7826 73.4873 62.3141 74.0195C61.1384 74.4611 59.8424 74.4611 58.6666 74.0195C56.8982 73.3683 54.9558 73.3683 53.1874 74.0195C52.0429 74.425 50.7939 74.425 49.6494 74.0195C49.2397 73.9087 48.8235 73.823 48.4033 73.7628Z" fill="#DDEDFE"/>
<path d="M48.4034 73.763C48.8259 73.826 49.2441 73.9149 49.6558 74.0291C50.8002 74.4345 52.0493 74.4345 53.1937 74.0291C54.9621 73.3779 56.9046 73.3779 58.6729 74.0291C59.8487 74.4706 61.1447 74.4706 62.3205 74.0291C63.7889 73.4937 65.3387 73.2777 66.7789 73.8099C68.9017 74.5927 70.8867 74.3484 72.8968 73.5657C74.452 73.5104 76.0047 73.7298 77.4837 74.2138C78.4669 74.5052 79.5219 74.4352 80.4581 74.0166C81.362 73.6482 82.3422 73.5063 83.3135 73.6033C83.7122 73.6272 84.0866 73.8027 84.3602 74.0937C84.6338 74.3847 84.7858 74.7693 84.785 75.1687C84.8477 75.9797 84.3749 76.7342 83.5859 76.8062C82.4024 76.9127 81.3253 77.3416 80.1951 77.6015C78.6985 77.9428 77.2676 77.7299 75.8368 77.2884C74.8756 76.9753 73.905 76.6622 72.8999 77.1538C70.6487 77.956 68.1834 77.9171 65.9586 77.0442C65.1352 76.7311 64.2585 76.8814 63.4539 77.1913C61.5552 77.9491 59.4381 77.9491 57.5395 77.1913C56.6309 76.8087 55.6115 76.7818 54.6841 77.1162C52.5642 77.9535 50.2037 77.9446 48.0903 77.0911C47.7211 76.9767 47.3445 76.8878 46.9631 76.825C47.4349 75.7897 47.9149 74.769 48.4034 73.763Z" fill="#4E6DB3"/>
<path d="M72.6086 67.1972C70.5641 67.9075 68.3354 67.8799 66.3091 67.119C65.2935 66.7921 64.1946 66.8376 63.2095 67.2473C61.4766 67.903 59.5662 67.9163 57.8243 67.2849C56.6041 66.8386 55.2654 66.8386 54.0452 67.2849C53.1623 67.598 52.2606 67.861 51.3025 67.6387C51.8348 66.4928 52.3681 65.3447 52.9024 64.1946C54.7058 63.3949 56.7514 63.3364 58.5976 64.0318C59.8067 64.4976 61.1457 64.4976 62.3548 64.0318C63.8106 63.4871 65.398 63.2491 66.8258 63.8221C68.9611 64.6799 70.9273 64.3543 72.928 63.5622C74.2917 63.4488 75.6638 63.6347 76.9481 64.107C78.051 64.5317 79.2757 64.5115 80.364 64.0506C81.2312 63.6915 82.1655 63.5228 83.1036 63.5559C83.5009 63.5463 83.888 63.6824 84.1919 63.9385C84.4958 64.1945 84.6956 64.5529 84.7536 64.9461C84.8945 65.6912 84.6283 66.4928 83.88 66.665C81.225 67.2912 78.5919 68.4026 75.7897 67.2661C74.7761 66.8422 73.6396 66.8175 72.6086 67.1972Z" fill="#4E6DB3"/>
<path d="M53.917 62.3035C53.8951 62.4318 53.8575 62.5101 53.7417 62.3598L53.917 62.3035Z" fill="#1F9EF3"/>
</svg>
