<svg width="34" height="34" viewBox="0 0 34 34" fill="none" xmlns="http://www.w3.org/2000/svg">
<path d="M12.75 25.1459C12.1692 25.1459 11.6875 24.6642 11.6875 24.0834V18.1475L10.6675 19.1675C10.2567 19.5784 9.57667 19.5784 9.16584 19.1675C8.755 18.7567 8.755 18.0767 9.16584 17.6659L11.9992 14.8325C12.2967 14.535 12.7642 14.4359 13.1608 14.6059C13.5575 14.7617 13.8125 15.1584 13.8125 15.5834V24.0834C13.8125 24.6642 13.3308 25.1459 12.75 25.1459Z" fill="white"/>
<path d="M15.5833 19.4792C15.3142 19.4792 15.045 19.38 14.8325 19.1675L11.9992 16.3342C11.5883 15.9234 11.5883 15.2434 11.9992 14.8325C12.41 14.4217 13.09 14.4217 13.5008 14.8325L16.3342 17.6659C16.745 18.0767 16.745 18.7567 16.3342 19.1675C16.1217 19.38 15.8525 19.4792 15.5833 19.4792Z" fill="white"/>
<path d="M21.25 32.2291H12.75C5.0575 32.2291 1.77083 28.9424 1.77083 21.2499V12.7499C1.77083 5.05742 5.0575 1.77075 12.75 1.77075H19.8333C20.4142 1.77075 20.8958 2.25242 20.8958 2.83325C20.8958 3.41409 20.4142 3.89575 19.8333 3.89575H12.75C6.21916 3.89575 3.89583 6.21909 3.89583 12.7499V21.2499C3.89583 27.7808 6.21916 30.1041 12.75 30.1041H21.25C27.7808 30.1041 30.1042 27.7808 30.1042 21.2499V14.1666C30.1042 13.5858 30.5858 13.1041 31.1667 13.1041C31.7475 13.1041 32.2292 13.5858 32.2292 14.1666V21.2499C32.2292 28.9424 28.9425 32.2291 21.25 32.2291Z" fill="white"/>
<path d="M31.1667 15.2292H25.5C20.655 15.2292 18.7708 13.345 18.7708 8.50002V2.83336C18.7708 2.40836 19.0258 2.01169 19.4225 1.85586C19.8192 1.68586 20.2725 1.78502 20.5842 2.08252L31.9175 13.4159C32.215 13.7134 32.3142 14.1809 32.1442 14.5775C31.9742 14.9742 31.5917 15.2292 31.1667 15.2292ZM20.8958 5.39752V8.50002C20.8958 12.155 21.845 13.1042 25.5 13.1042H28.6025L20.8958 5.39752Z" fill="white"/>
</svg>
