<svg width="34" height="34" viewBox="0 0 34 34" fill="none" xmlns="http://www.w3.org/2000/svg">
<path d="M12.7497 25.1459C12.1689 25.1459 11.6872 24.6642 11.6872 24.0834V18.1475L10.6672 19.1675C10.2564 19.5784 9.57638 19.5784 9.16555 19.1675C8.75471 18.7567 8.75471 18.0767 9.16555 17.6659L11.9989 14.8325C12.2964 14.535 12.7639 14.4359 13.1605 14.6059C13.5572 14.7617 13.8122 15.1584 13.8122 15.5834V24.0834C13.8122 24.6642 13.3305 25.1459 12.7497 25.1459Z" fill="url(#paint0_linear_217_5749)"/>
<path d="M15.5837 19.4792C15.3145 19.4792 15.0454 19.38 14.8329 19.1675L11.9995 16.3342C11.5887 15.9234 11.5887 15.2434 11.9995 14.8325C12.4104 14.4217 13.0904 14.4217 13.5012 14.8325L16.3345 17.6659C16.7454 18.0767 16.7454 18.7567 16.3345 19.1675C16.122 19.38 15.8529 19.4792 15.5837 19.4792Z" fill="url(#paint1_linear_217_5749)"/>
<path d="M21.2497 32.2291H12.7497C5.05717 32.2291 1.77051 28.9424 1.77051 21.2499V12.7499C1.77051 5.05742 5.05717 1.77075 12.7497 1.77075H19.833C20.4138 1.77075 20.8955 2.25242 20.8955 2.83325C20.8955 3.41409 20.4138 3.89575 19.833 3.89575H12.7497C6.21884 3.89575 3.89551 6.21909 3.89551 12.7499V21.2499C3.89551 27.7808 6.21884 30.1041 12.7497 30.1041H21.2497C27.7805 30.1041 30.1038 27.7808 30.1038 21.2499V14.1666C30.1038 13.5858 30.5855 13.1041 31.1663 13.1041C31.7472 13.1041 32.2288 13.5858 32.2288 14.1666V21.2499C32.2288 28.9424 28.9422 32.2291 21.2497 32.2291Z" fill="url(#paint2_linear_217_5749)"/>
<path d="M31.1663 15.2292H25.4997C20.6547 15.2292 18.7705 13.345 18.7705 8.50002V2.83336C18.7705 2.40836 19.0255 2.01169 19.4222 1.85586C19.8188 1.68586 20.2722 1.78502 20.5838 2.08252L31.9172 13.4159C32.2147 13.7134 32.3138 14.1809 32.1438 14.5775C31.9738 14.9742 31.5913 15.2292 31.1663 15.2292ZM20.8955 5.39752V8.50002C20.8955 12.155 21.8447 13.1042 25.4997 13.1042H28.6022L20.8955 5.39752Z" fill="url(#paint3_linear_217_5749)"/>
<defs>
<linearGradient id="paint0_linear_217_5749" x1="13.8122" y1="20.2633" x2="8.85742" y2="20.2633" gradientUnits="userSpaceOnUse">
<stop stop-color="#555DFD"/>
<stop offset="1" stop-color="#379FFE"/>
</linearGradient>
<linearGradient id="paint1_linear_217_5749" x1="16.6427" y1="17.2018" x2="11.6914" y2="17.2018" gradientUnits="userSpaceOnUse">
<stop stop-color="#555DFD"/>
<stop offset="1" stop-color="#379FFE"/>
</linearGradient>
<linearGradient id="paint2_linear_217_5749" x1="32.2288" y1="18.2296" x2="1.77051" y2="18.2296" gradientUnits="userSpaceOnUse">
<stop stop-color="#555DFD"/>
<stop offset="1" stop-color="#379FFE"/>
</linearGradient>
<linearGradient id="paint3_linear_217_5749" x1="32.2268" y1="9.04433" x2="18.7705" y2="9.04433" gradientUnits="userSpaceOnUse">
<stop stop-color="#555DFD"/>
<stop offset="1" stop-color="#379FFE"/>
</linearGradient>
</defs>
</svg>
