<svg width="121" height="120" viewBox="0 0 121 120" fill="none" xmlns="http://www.w3.org/2000/svg">
<g clip-path="url(#clip0_379_6305)">
<path d="M60.5024 120.005C93.6408 120.005 120.505 93.1408 120.505 60.0024C120.505 26.864 93.6408 0 60.5024 0C27.364 0 0.5 26.864 0.5 60.0024C0.5 93.1408 27.364 120.005 60.5024 120.005Z" fill="#616161"/>
<path d="M60.5024 98.1845C39.4121 98.1845 22.3204 81.0927 22.3204 60.0024C22.3204 38.9121 39.4121 21.8204 60.5024 21.8204C71.0427 21.8204 80.587 26.0945 87.5011 33.0037L102.93 17.5752C92.0702 6.71582 77.0671 0 60.5024 0C27.3633 0 0.5 26.8633 0.5 60.0024C0.5 93.1415 27.3633 120.005 60.5024 120.005C77.072 120.005 92.0702 113.289 102.934 102.434L87.5059 87.0059C80.587 93.9103 71.0427 98.1845 60.5024 98.1845Z" fill="#9E9E9E"/>
<path d="M98.6844 60.0024H79.591C79.591 49.4621 71.0427 40.9089 60.4975 40.9089C49.9524 40.9089 41.4089 49.4572 41.4089 60.0024C41.4089 65.1372 43.4396 69.7933 46.7419 73.2309L46.7274 73.2455L70.3658 96.8838L70.3706 96.8886C86.6743 92.5371 98.6844 77.6743 98.6844 60.0024Z" fill="#424242"/>
<path d="M120.5 60.0024H98.6796C98.6796 77.6744 86.6646 92.5372 70.3706 96.8887L87.2206 113.739C106.947 103.909 120.5 83.5392 120.5 60.0024Z" fill="#616161"/>
<path d="M60.5024 119.318C27.4793 119.318 0.6934 92.6387 0.504835 59.6592C0.504835 59.7752 0.5 59.8864 0.5 60.0025C0.5 93.1416 27.3633 120.005 60.5024 120.005C93.6415 120.005 120.505 93.1416 120.505 60.0025C120.505 59.8864 120.5 59.7752 120.5 59.6592C120.311 92.6387 93.5207 119.318 60.5024 119.318Z" fill="#212121" fill-opacity="0.1"/>
<path d="M70.3755 96.8887L70.9073 97.4206C86.9305 92.895 98.6844 78.1676 98.6844 60.6842V60.0024C98.6844 77.6744 86.6695 92.5372 70.3755 96.8887Z" fill="white" fill-opacity="0.05"/>
<path d="M109.595 54.5464H60.5003C57.4881 54.5464 55.0464 56.9881 55.0464 60.0003C55.0464 63.0125 57.4881 65.4542 60.5003 65.4542H109.59C112.602 65.4542 115.044 63.0125 115.044 60.0003C115.049 56.9881 112.607 54.5464 109.595 54.5464Z" fill="#9E9E9E"/>
<path opacity="0.5" d="M109.595 54.5464H60.5003C57.4881 54.5464 55.0464 56.9881 55.0464 60.0003C55.0464 63.0125 57.4881 65.4542 60.5003 65.4542H109.59C112.602 65.4542 115.044 63.0125 115.044 60.0003C115.049 56.9881 112.607 54.5464 109.595 54.5464Z" fill="#BDBDBD"/>
<path d="M11.4078 64.0929C13.6669 64.0929 15.4982 62.2616 15.4982 60.0025C15.4982 57.7434 13.6669 55.9121 11.4078 55.9121C9.14872 55.9121 7.31738 57.7434 7.31738 60.0025C7.31738 62.2616 9.14872 64.0929 11.4078 64.0929Z" fill="#BDBDBD"/>
<path d="M60.5025 14.9982C62.7616 14.9982 64.5929 13.1669 64.5929 10.9078C64.5929 8.64872 62.7616 6.81738 60.5025 6.81738C58.2434 6.81738 56.4121 8.64872 56.4121 10.9078C56.4121 13.1669 58.2434 14.9982 60.5025 14.9982Z" fill="#BDBDBD"/>
<path d="M60.5025 113.183C62.7616 113.183 64.5929 111.351 64.5929 109.092C64.5929 106.833 62.7616 105.002 60.5025 105.002C58.2434 105.002 56.4121 106.833 56.4121 109.092C56.4121 111.351 58.2434 113.183 60.5025 113.183Z" fill="#BDBDBD"/>
<path d="M25.7291 29.3776C27.9882 29.3776 29.8195 27.5463 29.8195 25.2872C29.8195 23.0281 27.9882 21.1968 25.7291 21.1968C23.47 21.1968 21.6387 23.0281 21.6387 25.2872C21.6387 27.5463 23.47 29.3776 25.7291 29.3776Z" fill="#BDBDBD"/>
<path d="M25.7291 98.8661C27.9882 98.8661 29.8195 97.0348 29.8195 94.7757C29.8195 92.5166 27.9882 90.6853 25.7291 90.6853C23.47 90.6853 21.6387 92.5166 21.6387 94.7757C21.6387 97.0348 23.47 98.8661 25.7291 98.8661Z" fill="#BDBDBD"/>
<path d="M95.2757 98.8661C97.5348 98.8661 99.3661 97.0348 99.3661 94.7757C99.3661 92.5166 97.5348 90.6853 95.2757 90.6853C93.0166 90.6853 91.1853 92.5166 91.1853 94.7757C91.1853 97.0348 93.0166 98.8661 95.2757 98.8661Z" fill="#757575"/>
<path d="M60.5025 55.2303H109.592C112.488 55.2303 114.858 57.4931 115.027 60.3458C115.032 60.2297 115.046 60.1185 115.046 60.0025C115.046 56.9903 112.604 54.5486 109.592 54.5486H60.5025C57.4903 54.5486 55.0486 56.9903 55.0486 60.0025C55.0486 60.1185 55.0534 60.2297 55.0679 60.3458C55.2372 57.4931 57.6015 55.2303 60.5025 55.2303Z" fill="white" fill-opacity="0.2"/>
<path d="M115.027 60.3408C114.848 63.1886 112.484 65.4563 109.592 65.4563H60.5025C57.6063 65.4563 55.2372 63.1935 55.0679 60.3408C55.0534 60.4569 55.0486 60.5681 55.0486 60.6793C55.0486 63.6915 57.4903 66.1332 60.5025 66.1332H109.592C112.604 66.1332 115.046 63.6915 115.046 60.6793C115.046 60.5681 115.041 60.4569 115.027 60.3408Z" fill="#212121" fill-opacity="0.2"/>
<path d="M60.5023 22.502C71.0427 22.502 80.587 26.7762 87.501 33.6854L103.263 17.9136C103.147 17.7976 103.036 17.6815 102.925 17.5703L87.501 32.9988C80.587 26.0896 71.0427 21.8154 60.5023 21.8154C39.4121 21.8154 22.3203 38.9072 22.3203 59.9975C22.3203 60.1135 22.3251 60.2247 22.3251 60.3408C22.5089 39.41 39.5281 22.502 60.5023 22.502Z" fill="#212121" fill-opacity="0.1"/>
<path d="M60.5024 120.005C93.6408 120.005 120.505 93.1408 120.505 60.0024C120.505 26.864 93.6408 0 60.5024 0C27.364 0 0.5 26.864 0.5 60.0024C0.5 93.1408 27.364 120.005 60.5024 120.005Z" fill="url(#paint0_radial_379_6305)"/>
</g>
<defs>
<radialGradient id="paint0_radial_379_6305" cx="0" cy="0" r="1" gradientUnits="userSpaceOnUse" gradientTransform="translate(18.0961 17.4594) scale(119.798)">
<stop stop-color="white" stop-opacity="0.1"/>
<stop offset="1" stop-color="white" stop-opacity="0"/>
</radialGradient>
<clipPath id="clip0_379_6305">
<rect width="120" height="120" fill="white" transform="translate(0.5)"/>
</clipPath>
</defs>
</svg>
