<svg width="255" height="54" viewBox="0 0 255 54" fill="none" xmlns="http://www.w3.org/2000/svg">
<path d="M43.4831 40.7C38.3306 45.8823 31.3559 48.8402 24.0517 48.9406C16.7155 49.1273 9.38816 48.9762 2.03417 49.0206C0.923296 49.0206 0.661127 48.6604 0.878858 47.6198C1.24323 45.8409 1.48318 44.062 1.82088 42.2832C2.53629 38.5476 4.60695 36.8043 8.39726 36.7954C16.9229 36.7954 25.4499 36.7954 33.9785 36.7954C34.5047 36.8117 35.0315 36.7969 35.5559 36.7509C37.5111 36.5152 38.9774 35.1099 39.4707 32.9886C40.8659 26.9968 42.2538 21.0035 43.6342 15.0087C44.3763 11.7401 43.1454 10.2058 39.835 10.1969H33.1342V10.1124H11.9343C11.3843 10.1124 10.841 9.99227 10.3422 9.76049C9.84338 9.5287 9.40109 9.19081 9.04615 8.77038C8.69121 8.34995 8.43218 7.8571 8.28711 7.32619C8.14204 6.79527 8.11443 6.23908 8.20619 5.69638L8.9527 1.30703C9.11266 0.386471 9.52147 0.0529373 10.4324 0.0529373C18.0352 0.0796202 25.6514 -0.138293 33.2409 0.15522C39.2618 0.386472 44.7051 2.42772 48.602 7.39965C50.9029 10.3302 52.1992 13.9247 52.299 17.6503C52.6456 26.5847 49.904 34.3895 43.4831 40.7Z" fill="url(#paint0_linear_392_9609)"/>
<g opacity="0.5">
<path d="M53.9262 18.5403C54.6407 20.5672 54.9274 22.7202 54.7681 24.8634C54.294 32.2632 51.9145 38.9098 46.7435 44.3821C41.5725 49.8545 35.2848 52.2029 27.9027 53.4525C20.0775 54.0772 9.02647 53.6386 1.18353 53.7759C0.0314585 53.7759 -0.119199 53.2708 0.0669049 52.3004C0.443543 50.3552 0.41696 50.3419 2.42422 50.3419C8.23332 50.3419 17.2372 50.2931 23.0507 50.2754C30.4683 50.2497 37.624 47.5306 43.1869 42.6239C48.7497 37.7171 52.341 30.9569 53.2926 23.6005L53.9262 18.5403Z" fill="#989EAB"/>
</g>
<path d="M23.0198 18.6216L6.48175 18.6904L4.53271 28.4626C4.5327 28.4748 4.53524 28.4869 4.54018 28.4982C4.54512 28.5094 4.55235 28.5196 4.56144 28.5281C4.57054 28.5365 4.5813 28.5431 4.59307 28.5474C4.60485 28.5516 4.61739 28.5535 4.62995 28.553H23.0198C24.3724 28.553 25.6697 28.0298 26.6261 27.0985C27.5826 26.1673 28.12 24.9043 28.12 23.5873C28.12 22.2703 27.5826 21.0072 26.6261 20.076C25.6697 19.1448 24.3724 18.6216 23.0198 18.6216ZM22.3215 26.367C21.7575 26.3679 21.2059 26.2058 20.7366 25.9014C20.2672 25.5969 19.9011 25.1637 19.6847 24.6567C19.4683 24.1496 19.4112 23.5914 19.5207 23.0528C19.6302 22.5141 19.9013 22.0191 20.2998 21.6306C20.6983 21.242 21.2062 20.9772 21.7593 20.8698C22.3124 20.7623 22.8858 20.817 23.4069 21.027C23.9281 21.2369 24.3735 21.5927 24.687 22.0492C25.0004 22.5057 25.1677 23.0425 25.1677 23.5916C25.1666 24.3225 24.8694 25.0234 24.3406 25.5423C23.8119 26.0611 23.0942 26.3559 22.3436 26.3627L22.3215 26.367Z" fill="url(#paint1_linear_392_9609)"/>
<path d="M67.5197 30.0927L67.0492 30.0514L66.5787 30.0927L66.032 30.0169L65.5961 30.0514L65.3055 30.0169H64.9802L64.4682 29.9481L64.2468 29.9067H63.9561L63.707 29.9481H62.6137L62.1017 29.8723L61.811 29.8034V28.97V28.6394L61.9979 28.2055L62.0671 27.7027L62.1086 27.4823L62.2124 26.9795L62.2885 26.6145L62.3577 26.3252V26.0359L62.4338 25.5263V25.237L62.5099 24.8375L62.7313 24.5482L62.8005 24.1901V23.9008L62.9113 23.3911L62.9805 23.1019L63.022 22.6335V22.4131L63.1673 22.1652V21.3662L63.278 20.8565V20.5673L63.3887 20.0645V19.8096L63.4579 19.3344L63.534 19.0864L63.6447 18.6525L63.6793 18.4321L63.8247 17.9982V17.275L63.9008 17.0202L63.97 16.7998L64.0807 16.297L64.1499 16.0766L64.3367 15.0641L64.4405 14.8093L64.5166 14.5613V14.3065V14.0861V13.8313L64.5927 13.3973V13.1494L64.7034 12.7155V12.4951L64.7796 12.0612L64.9249 11.6272V11.1176L64.9595 10.8283L65.0287 10.0707L65.1048 9.63676L65.2847 8.94801L65.3608 8.69317V8.47966V8.2248L65.4715 7.75646L65.5407 7.24679L65.6168 6.81287L65.7206 6.59246L65.7621 6.34452V5.91061L65.8313 5.65577L65.9421 5.29073L66.0182 5.18053L66.1289 4.78794L66.4887 4.67773H66.7447L67.1807 4.71218L67.4367 4.74661L68.018 4.67773H68.3086L69.1113 4.71218L69.8032 4.67773H71.0349L71.4363 4.71218L71.6508 4.67773H72.2389L72.5296 4.71218L72.8548 4.74661L73.4014 4.82237H73.6574L73.9481 4.93257L74.4532 5.07722H74.4947L74.7092 5.14608L75.332 5.32516L75.5119 5.43537L75.6572 5.51112L76.024 5.72465L76.2731 5.91061L76.4945 6.08969L77.0412 6.81287L77.3318 7.24679L77.4771 7.42587L77.657 7.75646L77.8023 8.25925L78.0238 8.80337L78.1691 9.05821L78.2729 9.67119V9.92602L78.4597 10.4357L78.4182 10.6837L78.4943 11.4137V11.8821L78.3836 12.0956L78.4943 12.6053L78.5358 12.8257L78.4943 13.0736L78.5704 13.3285L78.5358 13.5833V13.7968L78.4251 14.3822V14.6302L78.349 15.2501V15.5049V16.5174L78.1691 17.0959V17.3508L78.0238 18.0395L77.9476 18.5836L77.8784 19.417L77.8023 19.7063L77.6916 19.9956V20.3606L77.4771 21.1182L77.4356 21.5935L77.3664 22.0274L77.2557 22.2822L76.9996 22.7506L76.9304 22.9641L76.8889 23.3636L76.6744 23.8388L76.6398 24.0523L76.4945 24.562L76.2385 25.0648L75.9824 25.7536L75.8025 26.1186L75.5119 26.4079L75.4704 26.6283L75.2905 26.8762L75.1106 27.0966L74.8546 27.5305L74.3425 28.1435L73.8374 28.543L73.5121 28.8323L73.2907 28.9769L72.8202 29.1973L72.4188 29.3695L72.0521 29.6174L71.547 29.7621L71.1802 29.8379L70.599 29.9067L70.1976 30.0514H69.0697L68.8137 30.0927H68.6338L68.3778 30.1271L67.5197 30.0927ZM69.305 25.2026L69.6717 25.0924L69.9624 24.9477L70.3568 24.7342L70.5436 24.5896L70.8342 24.3003L71.0903 24.011L71.1941 23.7906L71.3394 23.5358L71.4847 23.1776L71.6715 22.8126L71.8514 22.3442L72.0729 21.6555L72.1767 21.256L72.2874 20.7463L72.4327 20.278V20.0645L72.5088 19.8785L72.578 19.665L72.6887 19.2311L72.7233 18.9762L72.7994 18.5079L72.8686 17.9982L72.9447 17.4541L72.9793 17.1992L73.0554 16.91L73.2354 16.4072V15.8975L73.3461 15.1399L73.3807 14.9195L73.4568 14.1619L73.4153 13.3973L73.4568 12.3504L73.3807 11.3724L73.3461 11.0831L73.1246 10.4701L72.8686 9.9949L72.6541 9.81582L72.4742 9.67119L71.8514 9.49213L71.2702 9.41635H70.7996H70.4744L70.3637 9.70564L70.253 9.96047V10.1809L70.1769 10.4288L70.0731 10.9729L69.9278 11.4826L69.8517 11.951L69.7825 12.4606L69.7063 13.2527V13.4731L69.6302 13.7279V13.9828V14.272L69.5195 14.4856V14.706L69.4157 15.2088L69.3396 15.7873V16.0421L69.2289 16.5518L69.1597 16.7653L69.049 17.275V17.4885L68.9383 17.9982L68.8691 18.253L68.9037 18.4666L68.8275 18.7214L68.6822 19.665V20.1333V20.3537L68.5023 20.8565V21.1045L68.3916 21.6486L68.2463 22.296L68.2117 22.5509L68.0664 23.0605L67.9903 23.5978V24.1419L67.8796 24.7618L67.8104 25.0855L68.3155 25.2301L69.305 25.2026Z" fill="url(#paint2_linear_392_9609)"/>
<path d="M83.3799 30.0721H82.4307L82.1743 30.0377H80.248L79.9224 29.9689L79.8115 29.6385L79.9224 29.3151L79.9917 28.9916L80.0679 28.448L80.1372 27.8699L80.2827 27.3262L80.3173 26.7481L80.4282 26.4591V26.1287L80.5044 25.881V25.6264L80.5737 25.3373L80.6083 25.0827L80.6499 24.5734L80.7192 24.1054L80.8647 23.8164L80.9409 23.2383V22.9837L81.0102 22.6946L81.0864 22.2267V22.0409L81.2319 21.6073V21.394L81.3359 20.926L81.4468 20.6714V20.4167L81.5576 19.873L81.6338 19.6184L81.7793 18.8614V18.3177L81.9248 17.8085L81.9941 17.2717L82.105 17.017V16.728L82.1396 16.4734V16.2187L82.2851 16.0054L82.5069 14.9181L82.6177 14.629L82.687 14.3744V14.161L82.7979 13.6518L82.9434 13.1081L82.978 12.0965L83.0889 11.8418L83.1236 11.0848L83.2691 10.8646L83.3453 10.5756L83.3799 10.3209L83.3453 10.1076L83.3799 9.85295L83.5254 9.38498L83.5947 8.87572L83.7056 8.66238V8.40773L83.8164 8.15311L83.7818 7.93288L83.8511 7.68514L83.8927 7.21028L83.9619 6.99694L83.9966 6.77672L84.0382 6.30875L84.0728 6.08852L83.9966 5.8339L84.1075 5.40033L84.2183 5.18699L84.253 4.96676L84.544 4.75343H85.1676L85.3824 4.71902L85.6387 4.75343L86.0753 4.71902H86.3316L86.6227 4.75343H86.983L87.7867 4.71902L90.5167 4.67773L91.3551 4.71902L91.6461 4.75343L92.7063 4.71902H93.5031L93.8357 4.67773L94.196 4.71902L94.5216 4.75343L94.7087 5.00805L94.5979 5.40033V5.62056L94.5216 6.52209V6.74232L94.4177 6.99694L94.3761 7.25157V7.46491L94.2653 8.00859V8.29762L94.1198 8.80001L94.0851 9.02024L93.9743 9.4882L93.614 9.52949H92.0827L91.6461 9.56392H89.2764L88.4034 9.59832L88.2925 10.0319L88.2579 10.2865V10.8027L88.147 11.016V11.305L88.0431 11.9932L87.9669 12.5025L87.856 13.0049L87.7867 13.2595L87.8214 13.5485L87.7105 13.9133L87.6412 14.5602H88.2925L89.5675 14.6015L90.2603 14.5258H91.2096L91.5006 14.6015L91.7154 14.8905L91.6461 15.3241V15.62L91.5699 16.0192L91.466 16.5215L91.3898 16.7762L91.2789 17.3199V17.5745L91.175 17.8635L91.0988 18.3659L90.9879 18.944L90.9186 19.4533L90.8424 19.5221H90.4821L89.9347 19.5634H89.609L88.6944 19.5978L88.0777 19.5634H87.6759L87.2047 19.5978H86.8721L86.7266 19.9969L86.6227 20.4649L86.4702 21.4766L86.3663 21.8413L86.2901 22.1647V22.5295L86.2139 22.7841L86.1099 23.431L85.9644 24.3738V24.6629L86.1099 24.8074L86.6157 24.8762H88.7637L89.2764 24.9175H90.0802H91.0988L91.3551 25.0207L91.3135 25.3167L91.2789 25.4612L91.2096 25.8535L91.168 26.1425L91.0225 26.9408V27.4088L90.9532 27.6634L90.877 27.8836L90.8424 28.1383L90.7315 28.6751L90.6969 29.2944L90.6207 29.6179L90.5167 30.017H87.0523L86.4702 30.0514L85.9991 30.017L85.7773 30.0514H85.0152L84.4331 30.0858L84.1421 30.1271L83.3799 30.0721Z" fill="url(#paint3_linear_392_9609)"/>
<path d="M94.0407 30.0652L93.611 29.9964L93.4678 29.6316V29.2394L93.611 28.9503L93.5769 28.4411L93.611 28.2208V27.9731L93.686 27.5739L93.8293 27.2849V27.0647L93.8702 26.81L93.9043 26.3421V26.053L94.0476 25.5438L94.1908 25.1859V24.8556L94.2658 24.6422L94.2999 24.133L94.4091 23.8095V23.5205L94.4773 23.3003V23.0525L94.6205 22.6189V22.1097L94.6956 21.6417L94.8729 21.1324L94.9821 20.5544L94.9411 20.2997L95.0161 19.7561L95.1253 19.5014V18.9991L95.2685 17.9874L95.4118 17.5126V17.2648L95.5209 16.7555L95.555 16.2876L95.6983 15.8127L95.8415 15.3792L95.9097 15.1245L96.0188 14.691V14.2368L96.0939 13.7344L96.1962 13.4797L96.2712 12.9705L96.3394 12.7227L96.4145 12.2479V12.0345V11.7799V11.5253L96.4486 11.2706L96.6327 10.6926V10.4379L96.7351 10.2246L96.776 9.71532L96.8783 9.24735L96.9533 9.02712L96.9874 8.73809L97.0215 8.2701L97.0625 7.87096L97.2057 7.61633V7.35482L97.349 6.70791L97.4172 6.23306L97.4922 6.05412L97.4513 5.62058L97.4922 5.36593L97.5604 4.93238L97.9901 4.75345L99.75 4.67773L101.039 4.71905L101.974 4.75345H106.169L106.742 4.78785H107.171L107.635 4.93238L107.744 5.22141L107.676 5.47604V5.87521L107.601 6.34317V6.52211L107.492 7.14148L107.39 7.60945L107.349 7.82967V8.04301L107.205 8.7312L107.096 9.48822L106.776 9.67403L106.455 9.63274L105.882 9.70845L105.2 9.63274L104.695 9.59833L103.768 9.63274L102.294 9.67403H101.94L101.865 9.96308L101.83 10.3622L101.789 10.61L101.687 11.1536L101.578 11.6629V11.8418L101.435 12.709L101.292 12.998V13.287L101.217 13.5417V13.7619V14.0165L101.148 14.4501L101.039 14.8079L101.435 14.8424L103.01 14.8837L103.44 14.8424L103.945 14.8079H104.334L104.838 14.8424L104.948 15.2415L104.914 15.5306L104.804 15.8196V16.1086L104.661 16.6179V16.7968L104.552 17.2304V17.4506L104.511 17.7053L104.409 18.1732V18.6068L104.266 19.0747L104.156 19.584L103.938 20.0176H103.583L103.188 19.9832H101.899L101.073 20.052L100.214 19.9832L100.105 20.5613L100.03 20.926L99.9614 21.394L99.8523 21.8963V22.0822L99.6886 22.4951L99.7227 22.7084L99.6136 23.1764L99.5112 23.7201L99.4021 24.1536L99.2589 24.6285V24.8762L99.1906 25.1308L99.1497 25.6401V25.8535L99.0815 26.3627L99.0065 26.7963L98.9724 27.0509L98.7541 27.4845L98.72 27.7391V27.9524V28.2071V28.4617L98.6109 28.8953L98.5427 29.3288L98.3994 29.7968L98.0379 30.0514L97.7855 30.017L97.54 30.0514L96.6805 30.1271L95.9575 30.0858L95.746 30.1271H94.3477L94.0407 30.0652Z" fill="url(#paint4_linear_392_9609)"/>
<path d="M110.114 30.0927H109.081L108.577 30.0169H108.292L108.04 30.0514L107.652 30.0169L107.401 29.9825L107.115 30.0169L106.829 29.9481L106.544 29.6932L106.503 29.1491L106.687 28.6394L106.721 28.1022L106.789 27.8474L106.863 27.3377V27.0484L106.972 26.5043L107.006 26.2495L107.081 25.9602V25.7122L107.224 25.237L107.19 25.0235L107.299 24.3692L107.401 23.9697L107.475 23.646L107.584 23.3223L107.652 22.9917L107.727 22.5577V22.3098L107.795 22.055V21.8346L107.87 21.5797L107.836 21.3318L108.088 20.5328L108.156 19.9887V19.7752L108.23 19.5204V19.2655L108.264 19.0451L108.339 18.5423V18.0326L108.482 17.5299V17.275L108.55 16.7653L108.693 16.4761V16.0077L108.768 15.5738L108.87 15.0986L109.053 14.5958L109.155 13.8313V13.3285L109.264 13.0736L109.339 12.564V12.3504V12.0956L109.482 11.6617L109.516 11.4482L109.625 10.9729L109.659 10.7181L109.801 10.2497V9.9949V9.70564L109.835 9.23727L109.91 9.05821L109.978 8.54852L110.087 8.08017V7.85977L110.162 7.64625V7.21234L110.237 6.81287L110.38 6.4134L110.448 5.86928L110.522 5.64888L110.556 5.40094L110.808 5.0359L111.06 4.9257L111.271 4.78104L111.522 4.74661L112.059 4.71218L112.379 4.74661H112.882L113.127 4.71218H115.025L115.276 4.67773L115.671 4.78104L115.814 5.14608L115.773 5.35961V5.83483L115.705 5.94504V6.33763V6.55804L115.596 6.70267V7.02638L115.487 7.21234L115.419 7.71513L115.276 8.03885V8.32813V8.54852V8.80337L115.236 9.01689L115.059 9.96047L114.991 10.3599L114.916 10.5735L114.848 11.0074L114.807 11.2622V11.6961L114.773 11.951L114.698 12.4193L114.589 12.8601L114.487 13.3285L114.447 13.5075L114.345 14.0172L114.236 14.3409V14.6646L114.202 14.9195L114.161 15.2088V15.4636L114.093 15.9319L113.984 16.297L113.807 17.3852L113.665 17.888L113.556 18.1429V18.4321L113.447 18.9005L113.379 19.3757L113.304 19.8096L113.161 20.3124V20.6017L113.018 21.1114V21.4006L112.95 21.9103L112.91 22.0894V22.5991L112.733 22.9572L112.767 23.3567L112.665 23.9008L112.624 24.1901L112.481 24.6584V24.9477L112.379 25.4574L112.304 25.9602L112.229 26.4354V26.6902L112.127 27.0828L111.985 27.9576L111.876 28.4259L111.801 28.9356L111.699 29.4039L111.658 29.6932L111.556 30.0169L111.162 30.1271H110.23L110.114 30.0927Z" fill="url(#paint5_linear_392_9609)"/>
<path d="M125.629 30.692L125.154 30.7268L124.896 30.692L124.568 30.6502L123.724 30.3995L123.431 30.3646L122.88 30.2114L122.622 30.0651L122.112 29.7378L121.449 29.1875L120.933 28.6024L120.828 28.4213L120.64 28.2402L120.535 28.0173L120.347 27.7596L120.054 27.286V27.0631L119.942 26.8123L119.907 26.5895L119.838 26.4084L119.761 26.1855V25.9278L119.684 25.7118V25.1964L119.649 24.9805L119.538 24.2491L119.614 23.9914V23.2949L119.719 22.9257V22.6332V22.3825L119.796 21.5745L119.942 21.0591V20.7665L120.012 20.2581V20.0003L120.159 19.4849L120.089 19.3038L120.159 18.8302L120.235 18.5725L120.34 17.9108L120.452 17.472V16.9844L120.563 16.5456V16.2879L120.675 16.065L120.745 15.8142V15.5913L120.821 15.3336V15.1177L121.038 14.7485L121.114 14.4908V13.9824L121.184 13.5435L121.296 13.2858L121.331 13.0629L121.407 12.5545L121.554 11.6351L121.735 11.3843L121.805 10.9037L122.028 10.4301L122.14 10.1724L122.287 9.73356L122.468 9.21814L122.691 8.77932L122.838 8.52856L123.166 8.04798L123.201 7.79025L123.347 7.57433L123.64 7.10069L123.933 6.65493L124.191 6.47383L124.373 6.25791L124.889 5.70765L125.364 5.37331L125.657 5.26883L125.915 5.08078L126.354 4.83002L126.794 4.60715L127.345 4.46086L127.568 4.42604L128.12 4.27978L128.482 4.23799L129.145 4.13349L129.655 4.0917L130.094 4.05688L130.757 4.0917L130.98 4.13349L131.378 4.16833L131.971 4.23799L132.264 4.34941L132.557 4.38425L132.773 4.46086L133.325 4.71859L134.022 5.15738L134.315 5.33849L134.497 5.56138L134.902 5.88875L135.306 6.25791L135.488 6.47383L135.599 6.73154L135.816 7.20517L135.927 7.42806L136.004 7.64398L136.074 7.90169L136.185 8.45195L136.255 9.14848L136.297 9.44103V9.69874L136.255 10.1724L136.22 10.3953L136.255 10.8689V11.1266L136.22 11.6002L136.15 11.858L136.109 12.0739L136.15 12.3316V12.7008L136.109 12.9167L136.039 13.4321L136.004 13.9824L135.962 14.5674L135.892 14.8252L135.816 15.4102L135.857 15.7724L135.669 16.1764L135.704 16.6152L135.557 17.0958L135.488 17.5695L135.376 18.0431L135.341 18.4819L135.229 18.9625L135.118 19.1784L135.013 19.8401V20.1675L134.936 20.4252L134.867 20.9406L134.755 21.1566L134.385 22.4382L134.427 22.6611L134.239 23.0999L134.127 23.3158V23.7198L133.946 24.1238L133.834 24.5626V24.8203L133.722 25.2243L133.541 25.475L133.506 25.8442L133.248 26.3526L132.955 27.0143L132.773 27.272L132.439 27.7457L132.292 27.9686L132.111 28.1845L132.041 28.4074L131.594 28.8462L131.378 29.0273L131.197 29.2502L130.757 29.5775L130.317 29.8701L130.164 29.9815L129.327 30.3089L129.069 30.3507L128.775 30.4204L128.259 30.5318H128.001L127.596 30.6432L126.794 30.7477L125.629 30.692ZM126.766 25.8163L127.282 25.67L127.61 25.5238L128.127 25.1546L128.378 24.6392L128.601 24.1307L128.671 23.873V23.5805L128.782 23.0302L128.859 22.7725L128.929 22.264L129.041 21.9715L129.076 21.4561L129.187 21.1983L129.299 20.7247V20.4322L129.41 20.2093V19.9167L129.376 19.8123L129.48 19.4779L129.592 18.9277L129.669 18.0849L129.773 17.7575L129.885 17.465L129.962 16.7685L130.073 16.5525L130.031 15.9257L130.178 15.3824L130.255 14.9366L130.324 14.6441L130.401 14.3933L130.366 14.1356L130.401 13.655L130.471 13.3624L130.583 12.854L130.659 12.5197V12.046L130.729 11.3913L130.764 10.9107L130.841 10.4022L130.694 9.6639L130.548 9.44798L130.29 9.12061L129.703 8.8629H129.006L128.713 8.93953L128.127 9.15545L127.757 9.48282L127.506 9.88679L127.352 10.3256L127.213 10.5833L126.989 11.057L126.913 11.3147L126.843 11.6072L126.62 12.3804V12.45V12.8052L126.508 13.3207L126.473 13.5366L126.326 14.052L126.215 14.5674L126.11 15.1525L126.068 15.4102L125.999 15.661L125.922 16.2113L125.81 16.5038L125.664 17.0889L125.594 17.3466L125.517 17.862V18.1128V18.3705V18.663L125.412 18.9207L125.224 19.4361L125.266 19.7287L125.189 19.9864L125.224 20.1327L125.154 20.46V20.7526L125.078 21.0103V21.3028L124.973 21.8531V22.1038L124.861 22.3616L124.973 22.6193L124.931 23.0581L124.784 23.4272L124.896 23.678V24.7088L125.008 24.9596L125.078 25.1059L125.301 25.4402L125.482 25.6213L125.775 25.7327L126.068 25.8024L126.292 25.8442L126.766 25.8163Z" fill="white"/>
<path d="M137.445 30.0927L137.184 30.0582L136.522 30.0927L136.297 29.9133V29.2236L136.41 29.0098V28.7547L136.522 28.2443V28.0236L136.628 27.5132L136.741 26.9684L136.853 26.4994V26.2442L136.966 25.8097V25.5545L137.001 25.3407L137.149 24.5062L137.262 24.2855V23.8165L137.304 23.5613L137.374 23.3475L137.522 22.8716L137.564 22.6578L137.6 22.2233V22.0371L137.783 21.6785V21.2785L137.86 21.0647V20.8095L137.966 20.5888L138.008 20.0439L138.114 19.2853L138.226 19.0301L138.262 18.7404L138.304 18.2301L138.374 17.9818V17.7611L138.452 17.5059L138.487 17.2921L138.6 16.7817V16.4921L138.677 15.9472L138.783 15.3679L138.895 14.8989V14.4644L138.938 13.9954L139.008 13.7402L139.121 13.485L139.156 13.016V12.7954L139.304 12.216L139.346 11.816L139.304 11.6712L139.417 11.2022L139.452 10.9815L139.494 10.3332L139.564 10.0366L139.677 9.53313L139.79 9.20898L139.825 8.76757L139.895 8.51929V8.22961L139.973 7.97443L140.008 7.71925V7.50545L140.086 7.25027L140.233 6.67094L140.269 6.41576V6.12608L140.381 5.61572L140.417 5.32604L140.564 4.85706L140.86 4.71223H142.79L143.269 4.67773L143.747 4.71223L143.973 4.67773H146.452L146.712 4.71223L147.269 4.67773H148.008L148.564 4.74671H148.86L149.346 4.82256L150.121 4.92603L150.712 5.03638L150.973 5.11224L151.233 5.29156L151.487 5.40192L151.973 5.65019L152.304 5.94675L152.452 6.12608L152.677 6.41576L152.895 6.67094L153.008 6.96059L153.233 7.4296L153.304 7.68478L153.452 8.08478L153.487 8.48481L153.529 8.73309L153.635 9.1331V9.49865V10.0366V10.2918L153.677 10.6918L153.635 11.0918L153.564 11.4918V11.747L153.487 12.5401L153.416 13.0505L153.304 13.3057L153.269 13.5954L153.156 13.8437L153.121 14.0644L153.043 14.2851L152.93 14.7885L152.818 15.0782L152.635 15.5886L152.339 16.2783L152.156 16.6714L151.895 17.1128L151.529 17.6783L151.304 17.899L151.043 18.3335L150.712 18.6232L150.452 18.9887L150.269 19.237L149.79 19.6025L149.6 19.8232L149.085 20.0715L148.712 20.1819L148.233 20.4026L147.642 20.5819L147.198 20.6509L146.712 20.6922L146.198 20.7612L145.163 20.8371L144.459 20.7957H143.642L143.086 20.7612V20.8371L143.05 21.0923L142.938 21.3819V21.8509L142.86 22.0302V22.5061L142.825 22.7199L142.79 22.9751L142.712 23.1889L142.677 23.4441V23.6648L142.564 24.1683L142.452 24.4993L142.381 24.9338L142.304 25.189L142.198 25.6235L142.156 25.8718L142.05 26.127V26.4925L141.938 27.0374V27.5408L141.79 27.7615V28.0236L141.748 28.2788L141.677 28.4926L141.642 28.7478L141.529 29.0374V29.3616L141.487 29.6513L141.381 30.0858L141.121 30.1271H138.156L137.445 30.0927ZM144.811 16.1748L145.219 16.0989L145.924 16.03L146.184 15.9196L146.776 15.4851L147.184 15.1196L147.445 14.7265L147.593 14.5058L147.776 14.0023L147.846 13.6712L147.994 13.3471L148.142 12.7333L148.29 11.7125L148.367 10.7746V10.1538L148.219 9.71934L148.008 9.40209L147.607 9.11241L147.269 9.03655L146.269 9.00208L145.416 9.03655L145.163 9.11241L144.973 9.54691L144.902 9.72624L144.867 10.0918L144.79 10.7056L144.719 10.9608L144.607 11.3953L144.494 12.1195L144.416 12.485L144.311 13.0643L144.269 13.4988V13.7885L144.198 14.1126L144.015 15.023V15.3472L143.902 15.8575V16.1817L144.811 16.1748Z" fill="white"/>
<path d="M156.61 30.0516H156.359L156.041 29.763L156.115 29.2271V28.4644L156.366 27.7086L156.434 27.4544L156.468 26.9116L156.543 26.6986L156.576 26.1902V25.9291L156.753 25.4275L156.793 25.1733L156.753 24.8847L156.936 24.1221V23.8679L157.044 23.435L157.146 22.8922L157.221 22.6449L157.255 22.3906L157.329 21.9166L157.397 21.7036V21.1951L157.58 20.8378L157.505 20.4737L157.539 20.2195L157.614 19.9721L157.79 19.4637L157.933 18.9209L158.007 18.6667L157.933 18.4193L158.109 17.9796L158.183 17.7666V17.2582L158.292 16.9009V16.5711L158.36 16.3237L158.502 16.1039V15.8496L158.644 15.6229L158.753 15.0801L158.712 14.8259L158.895 14.4274V14.0701L158.963 13.8846V13.5617L158.997 13.3143L159.072 13.0601L159.248 12.4829L159.282 12.2631V12.0501L159.323 11.7959V11.576L159.424 11.1088L159.499 10.8546L159.573 10.3118V9.73463H157.648L157.146 9.70028L156.895 9.73463H156.61L156.258 9.70028H155.973L155.648 9.59035L155.539 9.26742L155.614 8.83456L155.722 8.54599V8.25741L155.681 8.0032L155.831 7.49476L155.898 7.28175L155.932 6.77332L156.075 6.30611L156.183 6.08624V5.58468V5.36481L156.366 4.9663L156.685 4.71896L156.936 4.67773H157.858L158.041 4.71896H158.292L158.536 4.67773H161.174L161.424 4.71896H162.211L164.489 4.67773L165.025 4.71896L165.771 4.67773L166.096 4.71896H168.307L168.802 4.7533L169.12 4.82202L169.195 5.1106V5.31671L169.161 5.57093L169.086 5.85951V6.11373L169.052 6.32672L168.978 6.58094V6.79393L168.91 7.23367L168.835 7.48101L168.802 7.70088V8.13374L168.659 8.60095L168.585 8.85517L168.551 9.36362L168.408 9.68653L168.056 9.72089L167.73 9.68653H167.303L166.984 9.72089H166.625L165.133 9.68653L164.808 9.72089L164.74 9.97511L164.774 10.195L164.666 10.4423V10.6622L164.598 10.8752L164.523 11.3493L164.489 11.6035L164.347 12.2493L164.204 12.5379L164.272 12.7234L164.096 13.225L163.954 13.6922V13.9121L163.92 14.3449V14.5648V14.8122L163.737 15.2519L163.669 15.7878L163.594 16.042L163.486 16.5505L163.384 16.7635V17.0177L163.343 17.4849L163.242 17.9177L163.099 18.172L163.059 18.6804L162.991 18.8934V19.1133L162.882 19.6217L162.774 20.1576L162.706 20.4874V20.8447L162.672 21.0646L162.597 21.2776V21.5318L162.455 21.9647L162.414 22.2189V22.4387V22.6861L162.313 23.1945L162.204 23.7717L162.062 24.2389L162.028 24.4931L161.919 24.9603L161.743 25.723L161.669 26.0115L161.56 26.52L161.601 26.8086L161.418 27.5987L161.207 28.6087L161.133 29.1172L161.031 29.6256L160.957 29.8386L160.529 30.0172H157.431L156.997 30.1271L156.61 30.0516Z" fill="white"/>
<path d="M171.097 30.0927H170.002L169.472 30.0169H169.172L168.914 30.0514L168.499 30.0169L168.235 29.9825L167.934 30.0169L167.634 29.9481L167.333 29.6932V29.1491L167.519 28.6394L167.555 28.1022L167.634 27.8474L167.705 27.3377L167.741 27.0484L167.855 26.5043L167.898 26.2495L167.97 25.9602L168.006 25.7122L168.156 25.237L168.12 25.0235L168.235 24.3692L168.349 23.9697L168.421 23.646L168.535 23.3223L168.607 22.9917L168.685 22.5577V22.3098L168.757 22.055L168.8 21.8346L168.871 21.5797L168.836 21.3318L169.1 20.5328L169.172 19.9887V19.7752L169.251 19.5204V19.2655L169.286 19.0451L169.365 18.5423V18.0326L169.515 17.5299V17.275L169.587 16.7653L169.737 16.4761V16.0077L169.816 15.5738L169.93 15.0986L170.116 14.5958L170.231 13.8313V13.3285L170.338 13.0736L170.417 12.564L170.453 12.3504L170.417 12.0956L170.567 11.6617L170.603 11.4482L170.717 10.9729L170.753 10.7181L170.903 10.2497L170.868 9.9949L170.903 9.70564L170.939 9.23727L171.018 9.05821L171.097 8.54852L171.204 8.08017L171.247 7.85977L171.318 7.64625V7.21234L171.397 6.81287L171.547 6.4134L171.619 5.86928L171.698 5.64888L171.733 5.40094L171.998 5.0359L172.263 4.9257L172.485 4.78104L172.75 4.74661L173.315 4.71218L173.651 4.74661H174.181L174.445 4.71218H176.434L176.699 4.67773L177.114 4.78104L177.264 5.14608V5.35961V5.83483L177.186 5.94504L177.15 6.33763L177.186 6.55804L177.071 6.70267V7.02638L176.964 7.21234L176.885 7.71513L176.735 8.03885V8.32813L176.699 8.54852V8.80337L176.656 9.01689L176.47 9.96047L176.399 10.3599L176.32 10.5735L176.248 11.0074L176.205 11.2622L176.17 11.6961L176.134 11.951L176.055 12.4193L175.948 12.8601L175.833 13.3285L175.798 13.5075L175.683 14.0172L175.569 14.3409V14.6646L175.533 14.9195L175.497 15.2088V15.4636L175.418 15.9319L175.304 16.297L175.139 17.3852L174.989 17.888L174.875 18.1429V18.4321L174.76 18.9005L174.689 19.3757L174.61 19.8096L174.46 20.3124V20.6017L174.309 21.1114V21.4006L174.238 21.9103V22.0894V22.5991L174.045 22.9572L174.088 23.3567L173.973 23.9008L173.937 24.1901L173.787 24.6584V24.9477L173.673 25.4574L173.594 25.9602L173.522 26.4354V26.6902L173.408 27.0828L173.258 27.9576L173.143 28.4259L173.072 28.9356L172.957 29.4039L172.921 29.6932L172.807 30.0169L172.392 30.1271H171.412L171.097 30.0927Z" fill="white"/>
<path d="M179.104 30.024H178.111L177.6 29.9897L177.454 29.8797L177.265 29.6667V29.4124L177.307 28.8695L177.342 28.6564L177.265 28.3265L177.377 28.0035L177.412 27.7492L177.454 27.2819L177.558 26.8832L177.635 26.4503L177.705 26.196L177.817 25.6943L177.852 25.4056V25.1513L177.964 24.8971L178.006 24.6084L178.041 24.0998L178.153 23.5981L178.223 23.3095L178.258 23.0208L178.3 22.8009L178.335 22.2992L178.405 22.0793L178.482 21.5363L178.517 20.959L178.664 20.4161V20.1274L178.741 19.6257L178.922 18.8972V18.5742L178.957 18.3612L179.069 17.9213L179.034 17.7083L179.139 17.3852L179.216 17.0966L179.293 16.6567V16.2238V15.9764L179.363 15.7564L179.405 15.5021L179.475 15.0348V14.8149L179.587 14.5675L179.699 14.1345V13.6603L179.776 13.193L179.846 12.973L179.923 12.4713L179.958 12.2514L180.028 11.7497L180.07 11.461L180.175 10.9868L180.252 10.7325L180.321 10.5195V10.2652L180.363 10.0453L180.58 8.96626V8.71885L180.622 8.25152L180.692 7.81854L180.804 7.41991V7.16563L180.916 6.69829L180.881 6.40965L180.951 6.15535L180.986 5.75674L181.133 5.43373V5.17944L181.357 4.74647L181.727 4.71211H182.238L182.938 4.67773L183.56 4.71211H184.19L184.847 4.67773L185.582 4.71211H186.064L186.281 5.03513L186.393 6.04538L186.47 6.29969L186.54 6.80826V7.02131L186.652 7.52988L186.687 8.14155L186.799 8.71885L186.876 9.19307L186.911 9.69478L186.981 9.94906V10.2377L187.128 10.9937L187.17 11.2136L187.24 11.7222V11.9696L187.275 12.2239L187.386 12.4438L187.428 12.9112V13.1311L187.463 13.5984L187.575 14.107V14.3544L187.68 14.863L187.827 16.0932L187.974 16.5949V16.8148L188.016 17.0691V17.3165L188.086 17.5364L188.163 18.0038L188.31 18.6911H188.415L188.897 17.7908L189.009 17.6052L189.156 17.3921L189.45 16.8148L189.555 16.5605L189.814 16.052L190.038 15.6946L190.296 15.3716V15.1516L190.548 14.6087L190.772 14.2857L190.919 13.9214L191.178 13.4541L191.395 13.2342L191.695 12.8424L192.031 12.3751L192.178 12.1552L192.213 11.9421L192.577 11.3992L193.318 9.95592L193.465 9.73601L193.976 8.72573L194.2 8.25838L194.493 7.74981L194.752 7.3512L194.969 6.91822L195.116 6.70517L195.228 6.5196L195.298 6.37528L195.34 6.16223L195.487 5.9423L195.669 5.50932L195.927 5.15195L196.109 4.7877L196.991 4.71897L197.872 4.75334L198.467 4.71897L199.712 4.7877L200.446 4.75334L200.782 4.96639L200.852 5.22068L200.74 5.68801L200.67 5.90794L200.635 6.41651L200.593 6.56083V6.80826L200.558 7.02819L200.523 7.28247L200.481 7.39244V7.89413L200.411 8.11406V8.36148L200.222 8.8357V9.12434L200.11 9.62605L200.04 9.84598L200.006 10.2789L200.04 10.4989L199.894 10.7463V11.3648L199.782 11.5779L199.6 12.0521L199.565 12.2651L199.488 12.7737V13.351L199.341 13.6397V13.9627V14.1826L199.299 14.4369L199.229 14.6499L199.117 15.1173L199.047 15.6259L198.935 16.0588L198.893 16.2788L198.858 16.5262L198.753 16.9591L198.711 17.3578L198.676 17.9007L198.53 18.155V18.4093L198.565 18.6636L198.53 18.8766L198.495 19.1309L198.46 19.344L198.348 19.8182L198.159 20.0725L198.271 20.3611L198.201 20.9041L198.089 21.4057V21.6257L198.012 22.093L197.83 22.636L197.795 22.8902L197.683 23.4332L197.648 23.6806L197.613 23.9693L197.536 24.4778L197.466 24.6909L197.389 25.1995L197.354 25.4881L197.242 25.9554L197.207 26.2097L197.131 26.4296L197.096 26.897L197.061 27.1513V27.4056L196.949 27.8729L196.914 28.1616L196.802 28.6701L196.69 29.1375L196.62 29.6048L196.508 29.9347L195.99 30.079H195.585L194.486 30.0378H192.864L192.353 30.079L192.171 30.0378H191.912L191.653 29.8591L191.576 29.4605L191.542 29.2131L191.576 28.9932L191.688 28.4846L191.723 28.2372L191.8 27.6942L191.87 27.4056L191.947 26.897L192.024 26.3541L192.129 25.8524L192.276 25.3781L192.318 24.9108L192.465 24.4778L192.57 24.0105V23.5019L192.647 23.0346L192.759 22.7803L192.794 22.3473L192.829 22.1274V21.8731L192.941 21.4814L192.975 21.2271V21.0071L193.052 20.7529L193.346 19.344L193.458 18.6979L193.57 18.1894L193.605 17.9763L193.675 17.722L193.822 16.8561H193.717L192.612 18.9866L191.765 20.8284L191.29 21.9143L190.478 23.392L189.485 25.5225L189.226 25.9554L189.044 26.3197L188.639 26.3953H188.422L188.086 26.3197L187.282 26.3953L186.582 26.2853L186.246 26.2441L185.806 26.031L185.771 25.7768L185.589 25.1651L185.554 24.8764L185.477 24.6222L185.442 24.3335V24.0792L185.365 23.8249L185.295 23.2133L185.218 22.4573L185.148 22.2374L185.036 21.7288L184.959 21.2614L184.742 19.7426L184.665 18.9866L184.595 18.4436L184.553 18.1894L184.518 17.9763L184.372 16.3131H184.225L184.043 17.7908V18.2237L183.896 18.8079L183.749 20.1412L183.714 20.3955L183.637 20.6085V21.2958V21.5501L183.56 22.0174L183.525 22.2374L183.455 22.4916L183.378 22.9933L183.308 23.4332V23.6806L183.266 24.1892L183.196 24.6909V24.9108L183.05 25.3438L183.008 25.6324L182.973 25.9554L182.903 26.5396L182.826 27.0413L182.602 27.275L182.49 27.708V28.1753L182.455 28.6426L182.343 28.8969L182.308 29.1169V29.4742L182.084 29.8729L181.644 30.0515H180.503L180.321 30.0928L180.063 30.1271L179.104 30.024Z" fill="white"/>
<path d="M204.011 30.1065H202.929L202.402 30.0307H202.103L201.84 30.0651L201.427 30.0307L201.164 29.9962L200.865 30.0307L200.566 29.9618L200.267 29.7068L200.231 29.1624L200.416 28.6524L200.459 28.1149L200.53 27.8599L200.608 27.35V27.0605L200.722 26.5161L200.758 26.2612L200.829 25.9717L200.872 25.7236L201.071 25.2481L201.028 25.0345L201.142 24.3798L201.256 23.9801L201.327 23.6563L201.441 23.3324L201.52 23.0016L201.591 22.5674V22.3194L201.669 22.0644L201.705 21.8439L201.783 21.5889L201.74 21.3408L202.004 20.5414L202.082 19.997V19.7834L202.153 19.5284L202.189 19.2734L202.231 19.0529L202.303 18.5498V18.0399L202.452 17.5368V17.2818L202.53 16.7719L202.68 16.4825V16.0139L202.751 15.5797L202.865 15.1042L203.05 14.6011L203.164 13.8362V13.3331L203.278 13.0782L203.349 12.5682L203.392 12.3546L203.349 12.0996L203.499 11.6655L203.541 11.4519L203.648 10.9764L203.691 10.7214L203.84 10.2528L203.798 9.99778L203.84 9.70836L203.876 9.23974L203.947 9.06058L204.026 8.55062L204.139 8.08202V7.86149L204.218 7.64786L204.253 7.21371L204.325 6.81403L204.474 6.41434L204.552 5.86993L204.624 5.6494L204.666 5.40133L204.923 5.03609L205.186 4.92583L205.414 4.7811L205.677 4.74665L206.233 4.7122L206.574 4.74665H207.094L207.357 4.7122H209.344L209.6 4.67773L210.013 4.7811L210.162 5.14633L210.127 5.35998V5.83546L210.056 5.94572L210.013 6.33853L210.056 6.55905L209.942 6.70377V7.02765L209.828 7.21371L209.757 7.71678L209.614 8.02V8.30944L209.579 8.52994V8.78492V8.99856L209.394 9.94266L209.315 10.3423L209.244 10.556L209.166 10.9901L209.13 11.2451V11.6793L209.087 11.9342L209.016 12.4028L208.902 12.8439L208.788 13.3125L208.753 13.4917L208.639 14.0016L208.532 14.3255V14.6494L208.489 14.9044L208.454 15.1938V15.4488L208.375 15.9174L208.19 16.2895L207.998 17.3783L207.849 17.8814L207.742 18.1364V18.4258L207.628 18.8944L207.55 19.3699L207.478 19.804L207.329 20.3071V20.5965L207.179 21.1065V21.3959L207.101 21.9059L207.066 22.0851V22.595L206.88 22.9534L206.916 23.353L206.802 23.8975L206.767 24.1869L206.617 24.6555V24.9449L206.503 25.4549L206.432 25.9579L206.354 26.4334V26.6884L206.24 27.0812L206.09 27.9564L205.983 28.425L205.905 28.935L205.791 29.4036V29.693L205.677 30.0169L205.264 30.1271H204.275L204.011 30.1065Z" fill="white"/>
<path d="M216.692 30.0373H212.094L211.657 29.9267L211.185 30.0373H210.928L210.671 30.0718L210.414 30.0373H209.907L209.504 30.0027L209.213 29.9682L209.032 29.6018L208.921 29.277L209.032 28.5098L209.067 28.2955V27.4592L209.178 27.0583L209.282 26.5883L209.796 25.8211L210.018 25.4616L210.164 25.2405L210.233 25.0607L210.379 24.8811L210.601 24.5147L210.963 23.8996L211.143 23.5332L211.331 23.0978L211.476 22.8075L211.622 22.5932L211.733 22.3375L211.983 21.9021L212.129 21.7154L212.206 21.5012L212.969 20.34L213.226 19.863L213.518 19.4622L213.594 19.2825L213.775 18.7779L213.956 18.4461L214.324 17.831L215.379 15.9786L215.601 15.5431L215.712 15.3634L215.893 14.9211L216.004 14.7068L216.331 14.3405L216.4 14.1262L216.733 13.5041L216.949 13.1447L217.06 12.9236L217.282 12.5227L217.428 12.3084L217.643 11.873L217.754 11.6932L217.9 11.3615L218.115 11.1057L218.226 10.8915L218.518 10.456L218.851 9.91V9.58515L218.56 9.5091L218.115 9.54368H215.671L215.087 9.5091H214.796L214.212 9.47455L213.518 9.5091L213.226 9.47455L212.935 9.5091L212.421 9.47455L212.317 9.21882L212.386 9.0391V8.5691V8.31337L212.463 8.09219V7.87792L212.497 7.62219L212.608 7.15216V6.931L212.685 6.67527L212.719 6.46098V6.20525L212.865 5.72833L213.011 5.14773L213.233 4.78833L213.449 4.67773H214.983L215.601 4.75375H219.178L219.511 4.82288H221.226L222.393 4.75375L222.685 4.78833H223.233H223.49H223.705L224.219 4.85745L224.511 4.89892L224.726 5.00259L224.948 5.14773L225.025 5.7698L225.06 6.0601L224.948 6.38496L224.914 6.70982V7.18674L224.837 7.65674L224.803 7.94704L224.726 8.31337V8.65204L224.691 8.90778L224.476 9.34323L224.039 10.2556L223.928 10.691L223.817 10.9399L223.705 11.1265L223.414 11.5619L223.344 11.7762L223.122 12.1771L223.011 12.3983L222.976 12.654L222.796 12.9443L222.719 13.1586L222.171 14.2506L221.879 14.6861L221.81 14.9004L221.664 15.087L221.296 15.7367L221.192 15.9579L221.046 16.1721L220.969 16.3933L220.754 16.8633L220.601 17.119L220.532 17.3402L220.386 17.5545L220.275 17.7757L220.164 18.1005L219.983 18.3908L219.837 18.612L219.657 18.7917L219.546 19.006L219.4 19.2271L219.289 19.4414L219.143 19.6626L219.032 19.8838L218.962 20.098L218.782 20.3192L218.705 20.5335L218.344 21.1901L218.011 21.8398L217.754 22.2822L217.608 22.4965L217.317 22.8973L217.247 23.1116L216.99 23.5471L216.879 23.7682L216.768 24.024L216.553 24.4594L216.407 24.6737L216.261 25.0055L216.518 25.1161L217.317 25.1852L217.574 25.2197H218.344L218.594 25.1506L218.851 25.2197H219.108L219.622 25.2612H219.914L220.455 25.2197H220.712L220.969 25.2612L221.518 25.2957L221.775 25.3303H222.469L222.796 25.51V25.9869L222.685 26.6366V26.8924L222.615 27.1136V27.3278L222.539 27.5836L222.504 28.019L222.428 28.489L222.358 28.7448L222.317 28.966L222.247 29.1802V29.436L222.171 29.7262L222.136 29.982L221.768 30.0165H217.282L217.025 30.1271L216.692 30.0373Z" fill="white"/>
<path d="M228.034 30.0721H227.076L226.824 30.0377H224.88L224.551 29.9689L224.439 29.6387L224.551 29.3153L224.621 28.9919L224.698 28.4484L224.768 27.8705L224.88 27.3201V26.7421L224.991 26.4532V26.1229L225.068 25.8753V25.6207L225.138 25.3317L225.173 25.0772L225.215 24.568L225.285 24.1002L225.432 23.8112L225.509 23.2333V22.9787L225.579 22.6898L225.656 22.2219V22.0362L225.803 21.6027L225.768 21.3894L225.873 20.9216L225.985 20.667L226.02 20.4125L226.132 19.869L226.208 19.6144L226.355 18.8576V18.3141L226.502 17.8049L226.572 17.2683L226.684 17.0137L226.719 16.7248L226.761 16.4702V16.2156L226.908 16.0023L227.125 14.9153L227.237 14.6263L227.307 14.3718L227.272 14.1585L227.383 13.6494L227.53 13.1058L227.565 12.0945L227.677 11.8399L227.712 11.0831L227.859 10.8629L227.936 10.574L227.971 10.3194L227.936 10.1061L227.971 9.85155L228.118 9.38371L228.195 8.87459L228.3 8.66131V8.40675L228.412 8.15219L228.377 7.93202L228.447 7.68432L228.488 7.2096L228.558 6.99632V6.77617L228.6 6.30831L228.635 6.08816L228.558 5.83358L228.67 5.40016L228.782 5.18685V4.96671L229.076 4.75343H229.705L229.922 4.71901L230.181 4.75343L230.622 4.71901H230.88L231.174 4.75343H231.538L232.349 4.71901L235.105 4.67773L235.951 4.71901L236.245 4.75343L237.315 4.71901H238.119L238.455 4.67773L238.819 4.71901L239.147 4.75343L239.336 5.00799L239.224 5.40016V5.6203L239.147 6.52159V6.74176L239.042 6.99632L239 7.25088L238.965 7.46418L238.854 8.00769V8.29666L238.707 8.79889V9.01906L238.595 9.4869L238.231 9.5282H236.769L236.329 9.56259H233.972L233.091 9.59699L232.979 10.0304L232.944 10.285V10.8079L232.832 11.0212V11.3101L232.727 11.9981L232.65 12.5073L232.538 13.0095L232.468 13.2641L232.503 13.553L232.391 13.9177L232.321 14.5644H232.979L234.266 14.6057L234.965 14.53H235.923L236.217 14.6057L236.441 14.8947L236.364 15.3281V15.6239L236.287 16.023L236.182 16.5252L236.105 16.7798L235.993 17.3233V17.5779L235.888 17.8669L235.811 18.3691L235.699 18.947L235.629 19.4561L235.552 19.525H235.189L234.636 19.5662H234.307L233.384 19.6006L232.762 19.5662H232.356L231.881 19.6006H231.545L231.398 19.9997L231.293 20.4675L231.146 21.4789L231.034 21.8435L230.957 22.1669L230.922 22.5315L230.845 22.7861L230.741 23.4328L230.594 24.3754V24.6644L230.741 24.8088L231.251 24.8777H233.419L233.937 24.9189H234.748H235.776L236.035 25.0221L235.993 25.318L235.958 25.4624L235.888 25.8546L235.846 26.1436L235.699 26.9417V27.4095L235.629 27.6641L235.552 27.8842L235.517 28.1388L235.406 28.6754V29.2947L235.336 29.618L235.224 30.0171H231.727L231.139 30.0515L230.664 30.0171L230.44 30.0515H229.67L229.083 30.0859L228.789 30.1271L228.034 30.0721Z" fill="white"/>
<path d="M243.846 30.1271L243.366 30.0858L242.892 30.1271L242.342 30.0513L241.903 30.0858L241.611 30.0513H241.284L240.768 29.9823L240.546 29.9409H240.253L240.003 29.9823H238.902L238.387 29.9065L238.095 29.8375V29.003L238.13 28.6719L238.318 28.2374L238.387 27.7339L238.422 27.5132L238.533 27.0098L238.596 26.6442L238.666 26.3546V26.0649L238.742 25.5545V25.2649L238.819 24.8649L238.965 24.5752L239.035 24.2165V23.9269L239.146 23.4165L239.216 23.1268L239.258 22.6578L239.292 22.4371L239.439 22.1889V21.3888L239.55 20.8785L239.585 20.5888L239.696 20.0853L239.731 19.8301L239.801 19.3542L239.877 19.106L239.989 18.6715L240.023 18.4508L240.17 18.0163V17.2921L240.246 17.0369L240.316 16.8162L240.427 16.3127L240.497 16.092L240.685 15.0782L240.789 14.823L240.866 14.5747L240.901 14.3195V14.0988L240.936 13.8437L241.012 13.4092V13.1609L241.124 12.7264V12.5057L241.2 12.0712L241.346 11.6367V11.1263L241.381 10.8366L241.451 10.078L241.527 9.64348L241.708 8.95379L241.785 8.69861V8.48481L241.82 8.22961L241.931 7.76063L242.001 7.25027L242.077 6.81576L242.182 6.59506L242.224 6.34678L242.258 5.91228L242.328 5.6571L242.439 5.29156L242.516 5.18121L242.627 4.78809L242.99 4.67773H243.247L243.686 4.71223L243.943 4.74671L244.528 4.67773H244.821L245.628 4.71223L246.325 4.67773H247.237L247.641 4.71223L247.857 4.67773H248.448L248.741 4.71223L249.068 4.74671L249.618 4.82256H249.876L250.168 4.93291L250.676 5.07776H250.753L250.969 5.14672L251.596 5.32604L251.777 5.43639L251.923 5.51225L252.285 5.72607L252.542 5.91228L252.765 6.0916L253.315 6.81576L253.608 7.25027L253.754 7.4296L253.935 7.76063L254.081 8.26411L254.304 8.80897L254.45 9.06415L254.555 9.67796V9.93314L254.743 10.4435L254.701 10.6918L254.777 11.4229V11.8918L254.666 12.1057L254.777 12.616L254.812 12.8367L254.777 13.085L254.854 13.3402L254.812 13.5954V13.8092L254.708 14.3954V14.6437L254.631 15.2644L254.596 15.5196V16.5334L254.415 17.1128V17.3679L254.269 18.0576L254.193 18.6025L254.123 19.437L254.046 19.7267L253.935 20.0164L253.9 20.3819L253.684 21.1405L253.643 21.6164L253.573 22.0509L253.462 22.3061L253.204 22.7751L253.134 22.9889L253.093 23.3889L252.877 23.8648L252.842 24.0786L252.696 24.589L252.438 25.0924L252.18 25.7821L251.999 26.1477L251.707 26.4373L251.665 26.658L251.484 26.9063L251.303 27.127L251.045 27.5615L250.53 28.1753L250.022 28.5753L249.695 28.865L249.472 29.0098L248.998 29.2306L248.595 29.3409L248.226 29.5892L247.717 29.734L247.348 29.8099L246.763 29.8789L246.36 30.0237H245.225L244.967 30.0651H244.786L244.528 30.0996L243.846 30.1271ZM245.635 25.2304L246.004 25.12L246.297 24.9752L246.694 24.7614L246.882 24.6166L247.174 24.3269L247.432 24.0372L247.536 23.8165L247.682 23.5613L247.829 23.2027L248.017 22.8372L248.198 22.3682L248.42 21.6785L248.525 21.2785L248.636 20.7681L248.783 20.2991L248.817 20.0853L248.894 19.8991L248.964 19.6853L249.075 19.2508L249.11 18.9956L249.186 18.5266L249.256 18.0163L249.333 17.4714L249.367 17.2162L249.444 16.9266L249.625 16.4231V15.9127L249.736 15.1541L249.771 14.9334L249.848 14.1747L249.806 13.4092L249.848 12.3608L249.771 11.3815L249.736 11.0918L249.514 10.478L249.256 10.0021L249.04 9.82278L248.859 9.67796L248.232 9.49865L247.648 9.40209H247.174H246.84L246.736 9.69176L246.624 9.94694V10.1676L246.548 10.4159L246.443 10.9608L246.297 11.4711L246.22 11.9401L246.151 12.4505L246.074 13.2436L246.039 13.4643L245.963 13.7195V13.9747L245.928 14.2644L245.816 14.4782V14.6989L245.712 15.2023L245.635 15.7817V16.0369L245.524 16.5472L245.454 16.761L245.343 17.2714V17.4852L245.232 17.9956L245.162 18.2507L245.197 18.4646L245.12 18.7197L244.974 19.6646V20.1336L244.939 20.3543L244.758 20.8578V21.1267L244.647 21.6716L244.5 22.3199L244.466 22.5751L244.319 23.0855L244.243 23.6234L244.208 24.1683L244.097 24.789L244.027 25.1131L244.535 25.258L245.635 25.2304Z" fill="white"/>
<path d="M73.3129 37.4578L67.5961 45.6574L66.9009 49.7417H63.9091L64.6229 45.6574L61.811 37.4578H65.2064L66.7023 42.4607L69.9362 37.4578H73.3129Z" fill="#FEAD05"/>
<path d="M108.073 37.4578L105.92 49.7417H102.946L105.1 37.4578H108.073Z" fill="#FEAD05"/>
<path d="M143.324 39.8227L142.889 42.3925H147.023L146.626 44.6333H142.467L142.001 47.3644H146.675L146.26 49.7417H138.612L140.766 37.4578H148.413L147.998 39.8227H143.324Z" fill="#FEAD05"/>
<path d="M181.957 47.4575H185.917L185.52 49.7293H178.586L180.74 37.4453H183.714L181.957 47.4575Z" fill="#FEAD05"/>
<path d="M228.337 46.7809C227.659 47.71 226.764 48.4583 225.73 48.9597C224.62 49.4918 223.403 49.7595 222.173 49.7418H217.536L219.69 37.4578H224.327C225.343 37.4319 226.353 37.6333 227.281 38.0475C228.059 38.4024 228.709 38.9874 229.144 39.7234C229.574 40.5009 229.789 41.3798 229.764 42.2683C229.765 42.7058 229.723 43.1423 229.64 43.5718C229.458 44.7274 229.012 45.8254 228.337 46.7809ZM225.233 46.1602C226.012 45.5002 226.52 44.5766 226.661 43.5656C226.713 43.2913 226.742 43.0131 226.748 42.7339C226.77 42.3633 226.708 41.9924 226.566 41.6493C226.424 41.3062 226.206 41 225.928 40.7538C225.267 40.2524 224.447 40.0057 223.619 40.0586H222.21L220.969 47.0789H222.378C223.408 47.1231 224.42 46.7997 225.233 46.1664V46.1602Z" fill="#FEAD05"/>
<defs>
<linearGradient id="paint0_linear_392_9609" x1="52.3281" y1="26.4981" x2="0.808594" y2="26.4981" gradientUnits="userSpaceOnUse">
<stop stop-color="#555DFD"/>
<stop offset="1" stop-color="#379FFE"/>
</linearGradient>
<linearGradient id="paint1_linear_392_9609" x1="4.35318" y1="23.3831" x2="27.2067" y2="23.3831" gradientUnits="userSpaceOnUse">
<stop stop-color="#FEB74D"/>
<stop offset="1" stop-color="#FE9A05"/>
</linearGradient>
<linearGradient id="paint2_linear_392_9609" x1="78.5704" y1="18.4299" x2="61.811" y2="18.4299" gradientUnits="userSpaceOnUse">
<stop stop-color="#555DFD"/>
<stop offset="1" stop-color="#379FFE"/>
</linearGradient>
<linearGradient id="paint3_linear_392_9609" x1="94.7087" y1="18.4299" x2="79.8115" y2="18.4299" gradientUnits="userSpaceOnUse">
<stop stop-color="#555DFD"/>
<stop offset="1" stop-color="#379FFE"/>
</linearGradient>
<linearGradient id="paint4_linear_392_9609" x1="107.744" y1="18.4299" x2="93.4678" y2="18.4299" gradientUnits="userSpaceOnUse">
<stop stop-color="#555DFD"/>
<stop offset="1" stop-color="#379FFE"/>
</linearGradient>
<linearGradient id="paint5_linear_392_9609" x1="115.814" y1="18.4299" x2="106.503" y2="18.4299" gradientUnits="userSpaceOnUse">
<stop stop-color="#555DFD"/>
<stop offset="1" stop-color="#379FFE"/>
</linearGradient>
</defs>
</svg>
