<svg width="151" height="50" viewBox="0 0 151 50" fill="none" xmlns="http://www.w3.org/2000/svg">
<g filter="url(#filter0_d_379_6337)">
<path fill-rule="evenodd" clip-rule="evenodd" d="M141.086 42H9.33204C6.39204 42 4.04004 39.648 4.04004 36.75V5.25C4.04004 2.352 6.39204 0 9.33204 0H141.128C144.026 0 146.42 2.352 146.42 5.25V36.75C146.378 39.648 143.984 42 141.086 42Z" fill="black"/>
</g>
<path d="M79.01 13.9026C78.044 13.9026 77.246 13.5666 76.616 12.8946C75.986 12.2646 75.65 11.3826 75.65 10.5006C75.65 9.53463 75.986 8.73663 76.616 8.10663C77.246 7.43463 78.044 7.09863 79.01 7.09863C79.934 7.09863 80.732 7.43463 81.404 8.10663C82.034 8.77863 82.37 9.57663 82.37 10.5006C82.37 11.4666 82.034 12.2646 81.404 12.8946C80.774 13.5666 79.976 13.9026 79.01 13.9026ZM50.744 13.9026C49.82 13.9026 49.022 13.5666 48.35 12.9366C47.678 12.3066 47.342 11.4666 47.342 10.5006C47.342 9.53463 47.678 8.73663 48.35 8.06463C48.98 7.43463 49.82 7.09863 50.744 7.09863C51.206 7.09863 51.668 7.18263 52.088 7.39263C52.508 7.56063 52.844 7.81263 53.096 8.10663L53.138 8.19063L52.424 8.90463L52.34 8.82063C51.92 8.35863 51.416 8.10663 50.702 8.10663C50.072 8.10663 49.526 8.31663 49.064 8.77863C48.602 9.24063 48.392 9.82863 48.392 10.5426C48.392 11.2566 48.644 11.8446 49.064 12.3066C49.526 12.7686 50.072 12.9786 50.702 12.9786C51.374 12.9786 51.962 12.7686 52.382 12.3066C52.634 12.0546 52.802 11.6766 52.844 11.2146H50.576V10.2486H53.81V10.3326C53.852 10.5006 53.852 10.6686 53.852 10.8366C53.852 11.7606 53.6 12.4746 53.054 13.0206C52.508 13.5666 51.71 13.9026 50.744 13.9026ZM88.334 13.7346H87.326L84.26 8.82063L84.302 9.70263V13.7346H83.294V7.26663H84.428L84.47 7.30863L87.368 11.9286L87.326 11.0466V7.26663H88.334V13.7346ZM71.492 13.7346H70.484V8.23263H68.72V7.26663H73.256V8.23263H71.492V13.7346ZM67.88 13.7346H66.872V7.26663H67.88V13.7346ZM62.168 13.7346H61.16V8.23263H59.396V7.26663H63.932V8.23263H62.168V13.7346ZM58.766 13.7346H54.86V7.26663H58.766V8.23263H55.91V10.0386H58.514V11.0046H55.91V12.8106H58.766V13.7346ZM77.372 12.2226C77.834 12.6846 78.38 12.8946 79.01 12.8946C79.682 12.8946 80.186 12.6846 80.648 12.2226C81.11 11.7606 81.32 11.1726 81.32 10.5006C81.32 9.82863 81.11 9.19863 80.648 8.77863C80.186 8.31663 79.64 8.10663 79.01 8.10663C78.338 8.10663 77.834 8.31663 77.372 8.77863C76.91 9.24063 76.7 9.82863 76.7 10.5006C76.7 11.1726 76.952 11.8026 77.372 12.2226Z" fill="white"/>
<path fill-rule="evenodd" clip-rule="evenodd" d="M75.5661 22.8476C73.0881 22.8476 71.0721 24.7376 71.0721 27.2996C71.0721 29.8616 73.0881 31.7516 75.5661 31.7516C78.0441 31.7516 80.0601 29.8616 80.0601 27.2996C80.0601 24.7376 78.0441 22.8476 75.5661 22.8476ZM75.5661 29.9876C74.2221 29.9876 73.0461 28.8536 73.0461 27.2996C73.0461 25.7036 74.2221 24.6116 75.5661 24.6116C76.9101 24.6116 78.0861 25.7036 78.0861 27.2996C78.0861 28.8956 76.9521 29.9876 75.5661 29.9876ZM65.8221 22.8476C63.3441 22.8476 61.3281 24.7376 61.3281 27.2996C61.3281 29.8616 63.3441 31.7516 65.8221 31.7516C68.3001 31.7516 70.3161 29.8616 70.3161 27.2996C70.2741 24.7376 68.2581 22.8476 65.8221 22.8476ZM65.8221 29.9876C64.4781 29.9876 63.3021 28.8536 63.3021 27.2996C63.3021 25.7036 64.4781 24.6116 65.8221 24.6116C67.1661 24.6116 68.3421 25.7036 68.3421 27.2996C68.3421 28.8956 67.1661 29.9876 65.8221 29.9876ZM54.1881 24.1916V26.0816H58.7241C58.5981 27.1316 58.2201 27.9296 57.7161 28.4756C57.0441 29.1476 56.0361 29.8616 54.2301 29.8616C51.4581 29.8616 49.2741 27.5936 49.2741 24.8216C49.2741 22.0496 51.4581 19.7816 54.2301 19.7816C55.7421 19.7816 56.8341 20.3696 57.6321 21.1256L58.9761 19.7816C57.8421 18.6896 56.3301 17.8496 54.2301 17.8496C50.4081 17.8496 47.1741 20.9576 47.1741 24.7796C47.1741 28.6016 50.3661 31.7096 54.2301 31.7096C56.2881 31.7096 57.8421 31.0376 59.0601 29.7776C60.3201 28.5176 60.6981 26.7536 60.6981 25.3256C60.6981 24.8636 60.6561 24.4856 60.6141 24.1496L54.1881 24.1916ZM101.732 25.6616C101.354 24.6536 100.22 22.8056 97.9101 22.8056C95.6001 22.8056 93.7101 24.6116 93.7101 27.2576C93.7101 29.7776 95.6001 31.7096 98.1621 31.7096C100.22 31.7096 101.396 30.4496 101.9 29.7356L100.388 28.7276C99.8841 29.4836 99.1701 29.9456 98.2041 29.9456C97.1961 29.9456 96.4821 29.4836 96.0201 28.6016L101.984 26.1236C101.942 26.1656 101.732 25.6616 101.732 25.6616ZM95.6421 27.1736C95.6001 25.4516 96.9861 24.5696 97.9941 24.5696C98.7921 24.5696 99.4221 24.9476 99.6321 25.5356L95.6421 27.1736ZM90.8121 31.4996H92.7861V18.3956H90.8121V31.4996ZM87.5781 23.8556H87.4941C87.0321 23.3096 86.1921 22.8476 85.1421 22.8476C82.9161 22.8476 80.8581 24.8216 80.8581 27.3416C80.8581 29.8616 82.9161 31.7936 85.1421 31.7936C86.1921 31.7936 87.0741 31.3316 87.4941 30.7856H87.5781V31.4156C87.5781 33.1376 86.6541 34.0196 85.1841 34.0196C83.9661 34.0196 83.2521 33.1376 82.9161 32.4236L81.1941 33.1376C81.6981 34.3136 83.0001 35.7836 85.1421 35.7836C87.4521 35.7836 89.3841 34.4396 89.3841 31.1216V23.0996H87.5361L87.5781 23.8556ZM85.3521 29.9876C84.0081 29.9876 82.8741 28.8536 82.8741 27.2996C82.8741 25.7036 84.0081 24.5696 85.3521 24.5696C86.6961 24.5696 87.7461 25.7036 87.7461 27.2996C87.7461 28.8956 86.6961 29.9876 85.3521 29.9876ZM110.93 18.3956H106.226V31.4996H108.2V26.5436H110.93C113.114 26.5436 115.214 24.9896 115.214 22.4696C115.214 19.9496 113.114 18.3956 110.93 18.3956ZM110.972 24.6956H108.2V20.2016H110.972C112.442 20.2016 113.282 21.4196 113.282 22.4696C113.282 23.4776 112.442 24.6956 110.972 24.6956ZM123.11 22.8056C121.682 22.8056 120.212 23.4356 119.624 24.8216L121.346 25.5356C121.724 24.8216 122.396 24.5696 123.152 24.5696C124.16 24.5696 125.21 25.1576 125.21 26.2496V26.3756C124.874 26.1656 124.076 25.8716 123.152 25.8716C121.262 25.8716 119.372 26.8796 119.372 28.8116C119.372 30.5756 120.926 31.7096 122.606 31.7096C123.908 31.7096 124.664 31.1216 125.084 30.4076H125.168V31.4996H127.058V26.4596C127.058 24.1076 125.336 22.8056 123.11 22.8056ZM122.858 29.9876C122.228 29.9876 121.304 29.6936 121.304 28.8536C121.304 27.8456 122.438 27.4676 123.362 27.4676C124.244 27.4676 124.622 27.6356 125.168 27.9296C125.042 29.1056 124.034 29.9876 122.858 29.9876ZM133.988 23.0996L131.72 28.8116H131.636L129.326 23.0996H127.226L130.712 31.0376L128.696 35.4476H130.754L136.13 23.0996H133.988ZM116.306 31.4996H118.28V18.3956H116.306V31.4996Z" fill="white"/>
<g clip-path="url(#clip0_379_6337)">
<path d="M25.423 20.3601L14.1042 32.2223V32.2305C14.2324 32.6817 14.462 33.0977 14.7756 33.4466C15.0892 33.7955 15.4784 34.0681 15.9135 34.2434C16.3486 34.4188 16.8181 34.4924 17.286 34.4585C17.7539 34.4245 18.2078 34.2841 18.6131 34.0478L18.6496 34.0261L31.3887 26.7676L25.423 20.3601Z" fill="#EA4335"/>
<path d="M36.8746 18.3437H36.8638L31.3629 15.1956L25.1655 20.6313L31.386 26.7718L36.8556 23.6548C37.3397 23.4014 37.7454 23.0207 38.0291 22.5538C38.3129 22.0869 38.4638 21.5514 38.4658 21.005C38.4677 20.4586 38.3206 19.9221 38.0402 19.4531C37.7598 18.9842 37.3568 18.6006 36.8746 18.3437Z" fill="#FBBC04"/>
<path d="M14.1029 9.71216C14.0333 9.96514 13.9983 10.2263 13.9985 10.4887V31.4498C14.0009 31.712 14.0359 31.9729 14.1029 32.2264L25.8106 20.6691L14.1029 9.71216Z" fill="#4285F4"/>
<path d="M25.5072 20.97L31.3631 15.1887L18.6389 7.90168C18.1609 7.61892 17.6155 7.47006 17.0601 7.47072C16.3901 7.46824 15.7378 7.68621 15.2039 8.09104C14.6701 8.49587 14.2841 9.06507 14.1057 9.7109C14.1057 9.7109 14.1057 9.7109 14.1057 9.7109L25.5072 20.97Z" fill="#34A853"/>
</g>
<defs>
<filter id="filter0_d_379_6337" x="0.0400391" y="0" width="150.38" height="50" filterUnits="userSpaceOnUse" color-interpolation-filters="sRGB">
<feFlood flood-opacity="0" result="BackgroundImageFix"/>
<feColorMatrix in="SourceAlpha" type="matrix" values="0 0 0 0 0 0 0 0 0 0 0 0 0 0 0 0 0 0 127 0" result="hardAlpha"/>
<feOffset dy="4"/>
<feGaussianBlur stdDeviation="2"/>
<feComposite in2="hardAlpha" operator="out"/>
<feColorMatrix type="matrix" values="0 0 0 0 0 0 0 0 0 0 0 0 0 0 0 0 0 0 0.1 0"/>
<feBlend mode="normal" in2="BackgroundImageFix" result="effect1_dropShadow_379_6337"/>
<feBlend mode="normal" in="SourceGraphic" in2="effect1_dropShadow_379_6337" result="shape"/>
</filter>
<clipPath id="clip0_379_6337">
<rect width="24.4671" height="27" fill="white" transform="translate(14 7.4707)"/>
</clipPath>
</defs>
</svg>
