<svg width="263" height="260" viewBox="0 0 263 260" fill="none" xmlns="http://www.w3.org/2000/svg">
<path d="M88.4627 39.2375L85.1154 37.2394C84.5015 36.8304 83.7789 36.6154 83.0413 36.6222C82.3033 36.629 81.5844 36.8575 80.9778 37.2779L6.24285 80.4274C3.06893 82.2654 0.460449 87.1869 0.460449 91.4213V157.033C0.460449 159.333 1.23138 160.945 2.44574 161.64L6.00513 163.792L88.4627 39.2375Z" fill="black"/>
<path d="M6.03666 164.113C5.97774 164.114 5.91976 164.098 5.86956 164.068L2.31018 161.909C0.95456 161.138 0.170654 159.34 0.170654 157.033V91.4206C0.170654 87.0905 2.82424 82.0339 6.08165 80.1512L80.8173 37.0015C81.471 36.5531 82.2434 36.3094 83.0361 36.3015C83.8291 36.2935 84.6066 36.5215 85.2698 36.9565L88.6234 38.9611C88.6607 38.984 88.6926 39.0141 88.717 39.0496C88.7426 39.085 88.7606 39.1251 88.7702 39.1676C88.7798 39.2101 88.7809 39.254 88.7734 39.2969C88.766 39.3398 88.75 39.3806 88.7255 39.4172L6.30013 163.972C6.2713 164.015 6.23216 164.051 6.18621 164.076C6.14026 164.101 6.08888 164.113 6.03666 164.113ZM83.085 36.9437C82.3967 36.9816 81.7311 37.2034 81.1577 37.5861L6.42223 80.7298C3.33819 82.5093 0.832453 87.3159 0.832453 91.4471V157.058C0.832453 159.146 1.4749 160.727 2.65714 161.383L5.95316 163.38L88.0257 39.3787L84.9677 37.5476C84.404 37.1846 83.7547 36.9763 83.085 36.9437Z" fill="black"/>
<path d="M72.5873 46.2656V20.5658C72.5873 2.49883 59.898 -4.82565 44.2533 4.2079C28.6084 13.2413 15.9255 35.2148 15.9255 53.2817V78.9821L23.2115 74.7732V48.1674C23.2115 34.7521 32.6305 18.4327 44.2533 11.725C55.8761 5.01733 65.2951 10.44 65.2951 23.8747V50.4805L72.5873 46.2656Z" fill="black"/>
<path d="M15.9194 79.297C15.8636 79.2966 15.8087 79.2835 15.7588 79.2587C15.7103 79.229 15.6701 79.1877 15.6418 79.1385C15.6137 79.0888 15.5987 79.0328 15.5981 78.9757V53.2759C15.5981 35.1317 28.3839 12.9977 44.0929 3.92563C51.7643 -0.501158 58.9924 -1.21433 64.4471 1.94033C69.9019 5.095 72.9089 11.6999 72.9089 20.5727V46.2727C72.9085 46.3287 72.8935 46.3837 72.8654 46.4322C72.8372 46.4807 72.7968 46.521 72.7483 46.549L65.4559 50.7572C65.4071 50.7855 65.3517 50.8004 65.2953 50.8004C65.2389 50.8004 65.1835 50.7855 65.1347 50.7572C65.0861 50.7292 65.0457 50.689 65.0175 50.6405C64.9894 50.592 64.9744 50.537 64.9741 50.481V23.8753C64.9741 17.5017 62.8409 12.7664 58.9731 10.5305C55.1052 8.29466 49.9333 8.82148 44.4142 12.0019C32.9007 18.6517 23.533 34.8747 23.533 48.168V74.7738C23.5338 74.8309 23.5194 74.8873 23.4912 74.937C23.4629 74.9867 23.4219 75.0279 23.3724 75.0565L16.08 79.265C16.0301 79.2884 15.9748 79.3001 15.9194 79.297ZM56.9043 0.642473C53.0493 0.642473 48.8281 1.92746 44.4142 4.49744C28.8786 13.4925 16.2406 35.3373 16.2406 53.2887V78.4365L22.8905 74.5811V48.1616C22.8905 34.6691 32.4059 18.1891 44.0929 11.4429C49.8175 8.13405 55.2145 7.58786 59.2943 9.96511C63.3742 12.3424 65.6166 17.2575 65.6166 23.8688V49.9157L72.2664 46.0607V20.5599C72.2664 11.944 69.3751 5.52546 64.1259 2.49938C61.9266 1.24931 59.4338 0.608317 56.9043 0.642473Z" fill="black"/>
<path d="M75.0864 47.2808V21.581C75.0864 3.51388 62.403 -3.81049 46.7582 5.22305C31.1134 14.2565 18.4241 36.2299 18.4241 54.2969V79.9969L25.7164 75.7885V49.1827C25.7164 35.7673 35.1354 19.4479 46.7582 12.7403C58.381 6.03259 67.8 11.4552 67.8 24.8899V51.4957L75.0864 47.2808Z" fill="#C2D6FE"/>
<path d="M18.424 80.3129C18.3682 80.3122 18.3132 80.2987 18.2634 80.2735C18.2145 80.2445 18.1741 80.203 18.1464 80.1533C18.1182 80.1041 18.1032 80.0484 18.1028 79.9917V54.2914C18.1028 36.1473 30.8884 14.0134 46.5974 4.94135C54.2689 0.514458 61.497 -0.198715 66.9518 2.95595C72.4066 6.11062 75.4075 12.7154 75.4075 21.5884V47.2882C75.4066 47.3442 75.3916 47.399 75.3639 47.4477C75.3352 47.4962 75.2948 47.5365 75.2469 47.5645L67.9605 51.7729C67.9117 51.8011 67.8563 51.8159 67.7999 51.8159C67.7435 51.8159 67.6881 51.8011 67.6392 51.7729C67.5898 51.7458 67.5488 51.7058 67.5205 51.6571C67.4922 51.6084 67.4777 51.5529 67.4786 51.4966V24.8908C67.4786 18.5172 65.3456 13.7821 61.4777 11.5462C57.6099 9.31028 52.4313 9.8371 46.9188 13.0175C35.4052 19.6673 26.0376 35.8904 26.0376 49.1836V75.7894C26.0379 75.8456 26.0232 75.9009 25.9949 75.9494C25.9667 75.998 25.926 76.0381 25.877 76.0656L18.5846 80.281C18.5344 80.3044 18.4793 80.315 18.424 80.3129ZM59.4089 1.6582C55.554 1.6582 51.3327 2.94319 46.9188 5.51317C31.3831 14.5081 18.7452 36.3529 18.7452 54.3108V79.4577L25.395 75.6031V49.1836C25.395 35.6912 34.904 19.2111 46.5974 12.4649C52.3221 9.15605 57.7191 8.60987 61.7989 10.9871C65.8788 13.3644 68.1212 18.2795 68.1212 24.8908V50.9377L74.7646 47.0827V21.5627C74.7646 12.9468 71.8798 6.52831 66.6306 3.50213C64.4298 2.25713 61.9372 1.62068 59.4089 1.6582Z" fill="black"/>
<path d="M84.8326 120.41L9.96903 163.631C6.82723 165.443 4.27661 163.522 4.27661 159.333V93.7402C4.27661 89.5005 6.84659 84.5779 10.059 82.7474L84.7943 39.5972C87.9682 37.7661 90.5763 39.7129 90.5763 43.947V109.559C90.5188 113.728 87.9746 118.599 84.8326 120.41Z" fill="#C2D6FE"/>
<path d="M7.70754 164.632C7.13977 164.637 6.58099 164.49 6.08846 164.208C4.73274 163.431 3.95532 161.638 3.95532 159.332V93.7391C3.95532 89.409 6.60891 84.3524 9.87281 82.4697L84.6081 39.3198C86.0919 38.4588 87.5437 38.3495 88.6946 39.0178C90.0561 39.8016 90.84 41.5878 90.84 43.9458V109.558C90.84 113.843 88.2191 118.841 84.9931 120.705L10.1297 163.926C9.39789 164.369 8.56277 164.612 7.70754 164.632ZM87.0555 39.2105C86.3031 39.2368 85.5704 39.4582 84.9293 39.853L10.194 83.0026C7.10999 84.7832 4.59787 89.5887 4.59787 93.7199V159.332C4.59787 161.414 5.24031 162.988 6.40968 163.649C7.33495 164.189 8.54272 164.08 9.80846 163.354L84.6719 120.133C87.7171 118.373 90.1975 113.618 90.1975 109.538V43.9264C90.1975 41.819 89.5551 40.2257 88.3734 39.5511C87.9713 39.3247 87.517 39.2073 87.0555 39.2105Z" fill="black"/>
<path d="M57.0643 83.0748C57.0643 75.827 51.0762 73.6489 44.497 79.6626C41.3667 82.525 39.1762 86.268 38.2135 90.3991C36.5173 97.6978 39.5434 101.81 44.1887 101.02L38.6633 127.362C38.5812 127.743 38.6119 128.14 38.7515 128.504C38.891 128.869 39.1336 129.185 39.4498 129.414C39.7659 129.642 40.1416 129.774 40.5312 129.793C40.9208 129.812 41.3076 129.718 41.6444 129.52L55.6316 121.451C56.0166 121.225 56.3166 120.879 56.4852 120.465C56.6536 120.052 56.681 119.594 56.5631 119.163L50.5365 97.4149C54.3272 93.6953 57.0643 87.9569 57.0643 83.0748Z" fill="black"/>
<path d="M40.6355 130.093C40.2884 130.091 39.9461 130.012 39.6332 129.861C39.3206 129.711 39.045 129.493 38.826 129.223C38.6074 128.953 38.4512 128.638 38.3686 128.301C38.2859 127.964 38.2789 127.613 38.3482 127.273L43.7837 101.399C42.9646 101.511 42.1309 101.428 41.3496 101.158C40.5684 100.888 39.8616 100.438 39.2862 99.8443C37.4422 97.9169 36.9604 94.5058 37.937 90.3225C38.9013 86.1182 41.1247 82.3079 44.3106 79.3999C47.7673 76.2393 51.2816 75.1021 53.948 76.2778C56.1518 77.2482 57.4175 79.7148 57.4175 83.0493C57.4175 87.8368 54.8475 93.606 50.9283 97.4607L56.9036 119.029C57.0428 119.528 57.0124 120.058 56.817 120.538C56.6218 121.017 56.2724 121.418 55.8241 121.677L41.837 129.753C41.4746 129.973 41.0594 130.09 40.6355 130.093ZM44.1885 100.699C44.2752 100.7 44.3582 100.734 44.4197 100.795C44.4577 100.832 44.4855 100.878 44.5002 100.929C44.5148 100.979 44.5159 101.033 44.5032 101.084L38.9778 127.427C38.9288 127.666 38.932 127.913 38.9872 128.151C39.0423 128.388 39.1482 128.612 39.2975 128.805C39.4467 128.998 39.636 129.157 39.8522 129.27C40.0684 129.383 40.3065 129.449 40.5503 129.461C40.8764 129.479 41.2004 129.401 41.4836 129.239L55.4707 121.163C55.7975 120.975 56.0522 120.683 56.1945 120.334C56.3365 119.985 56.3577 119.598 56.2546 119.236L50.2215 97.4798C50.2069 97.4243 50.2076 97.3659 50.2234 97.3107C50.2393 97.2554 50.2697 97.2054 50.3115 97.165C54.1665 93.4199 56.7364 87.7591 56.7364 83.0823C56.7364 80.0169 55.6121 77.7619 53.6524 76.8951C51.2624 75.841 47.9214 76.9716 44.709 79.9084C41.6207 82.7208 39.4625 86.4072 38.5217 90.4768C37.6158 94.3835 38.0463 97.634 39.7167 99.4082C40.2813 99.9816 40.9835 100.401 41.7563 100.625C42.5289 100.85 43.3464 100.874 44.1307 100.693L44.1885 100.699Z" fill="black"/>
<path d="M202.914 23.7501L198.044 20.9475C196.511 20.0405 194.506 20.104 192.312 21.3737L68.6719 92.7529C63.8559 95.5376 59.9558 102.984 59.9558 109.405V249.08C59.9558 252.454 61.0441 254.858 62.7675 255.983L67.5653 258.758L202.914 23.7501Z" fill="#545FFD"/>
<path d="M67.5653 259.184C67.485 259.187 67.4057 259.165 67.3385 259.121L62.5406 256.355C60.5724 255.067 59.5022 252.482 59.5022 249.054V109.378C59.5022 102.821 63.5111 95.1837 68.4451 92.3363L192.085 20.9566C194.334 19.6506 196.538 19.4965 198.28 20.5304L203.141 23.333C203.194 23.361 203.241 23.3994 203.278 23.4462C203.315 23.493 203.343 23.547 203.359 23.605C203.385 23.7216 203.369 23.844 203.313 23.9497L67.9553 258.957C67.8954 259.06 67.7977 259.135 67.6832 259.166L67.5653 259.184ZM195.749 20.7935C194.613 20.8313 193.506 21.1659 192.538 21.7639L68.8986 93.1436C64.2185 95.8644 60.4093 103.121 60.4093 109.406V249.08C60.4093 252.146 61.3162 254.522 63.0214 255.602L67.393 258.142L202.297 23.9407L197.817 21.3648C197.192 20.9909 196.478 20.7935 195.749 20.7935Z" fill="black"/>
<path d="M197.264 187.125L73.6247 258.504C68.8177 261.279 64.9177 258.332 64.9177 251.919V112.244C64.9177 105.823 68.8177 98.3765 73.6247 95.5919L197.264 24.2126C202.08 21.4373 205.981 24.385 205.981 30.7974V170.473C205.981 176.894 202.08 184.34 197.264 187.125Z" fill="white"/>
<path d="M70.1599 260C69.2978 260.009 68.4489 259.787 67.7021 259.356C65.6432 258.168 64.4641 255.456 64.4641 251.919V112.244C64.4641 105.696 68.473 98.0492 73.3979 95.2018L197.065 23.8495C199.305 22.5525 201.491 22.3892 203.223 23.3869C205.282 24.575 206.461 27.2871 206.461 30.8244V170.499C206.461 177.048 202.453 184.694 197.518 187.541L73.8785 258.921C72.7561 259.603 71.473 259.975 70.1599 260ZM200.692 23.65C199.546 23.6882 198.43 24.026 197.455 24.6296L73.8514 96.0272C69.1714 98.748 65.3711 106.004 65.3711 112.28V251.956C65.3711 255.157 66.3869 257.588 68.1555 258.613C69.5885 259.438 71.4479 259.275 73.3979 258.15L197.065 186.725C201.745 184.005 205.554 176.748 205.554 170.472V30.797C205.554 27.5954 204.538 25.1646 202.77 24.1398C202.134 23.7931 201.416 23.6239 200.692 23.65Z" fill="black"/>
<path d="M184.167 153.693V166.283L86.7207 222.516V209.927C86.7207 189.855 100.815 165.485 118.193 155.408C122.31 157.53 129.14 156.75 135.425 152.96C141.711 149.168 148.622 141.931 152.658 135.5C170.072 125.487 184.167 133.622 184.167 153.693ZM152.227 123.296C161.49 107.254 161.49 89.9141 152.227 84.5671C142.966 79.2202 127.95 87.8899 118.689 103.932C109.426 119.974 109.426 137.313 118.688 142.66C127.95 148.007 142.965 139.337 152.227 123.296Z" fill="url(#paint0_linear_110_2057)"/>
<path d="M252.447 190.535L149.338 250.043C145.958 247.61 143.607 247.2 143.607 243.04V181.419C143.607 176.797 146.409 171.464 149.858 169.471L251.523 110.79C254.042 109.525 255.735 109.306 260.484 112.449V180.477C260.461 185.076 255.902 188.542 252.447 190.535Z" fill="black"/>
<path d="M149.339 250.355C149.279 250.355 149.221 250.336 149.171 250.303C148.478 249.806 147.819 249.384 147.229 249.009C144.879 247.512 143.318 246.519 143.318 243.064V181.42C143.318 176.728 146.207 171.257 149.714 169.223L251.356 110.543C253.973 109.225 255.729 108.965 260.599 112.206C260.64 112.233 260.674 112.268 260.697 112.31C260.72 112.353 260.732 112.401 260.732 112.449V180.477C260.732 185.1 256.296 188.641 252.575 190.784L149.465 250.292C149.43 250.325 149.386 250.347 149.339 250.355ZM254.487 110.201C253.468 110.242 252.476 110.534 251.599 111.051L150.002 169.72C146.635 171.667 143.896 176.913 143.896 181.42V243.064C143.896 246.201 145.271 247.073 147.542 248.524C148.12 248.871 148.697 249.263 149.356 249.725L252.303 190.287C255.89 188.213 260.172 184.828 260.172 180.466V112.599C257.515 110.854 255.88 110.201 254.498 110.201H254.487Z" fill="black"/>
<path d="M255.855 190.432L153.266 249.65C149.8 251.644 147.015 249.529 147.015 244.925V183.58C147.015 178.958 149.811 173.632 153.266 171.638L255.855 112.437C259.322 110.444 262.106 112.558 262.106 117.163V178.507C262.106 183.078 259.304 188.427 255.855 190.432Z" fill="url(#paint1_linear_110_2057)"/>
<path d="M150.783 250.691C150.174 250.692 149.577 250.532 149.049 250.228C147.581 249.384 146.738 247.45 146.738 244.925V183.581C146.738 178.895 149.627 173.424 153.133 171.384L255.723 112.155C257.318 111.236 258.872 111.12 260.102 111.825C261.564 112.674 262.414 114.61 262.414 117.135V178.479C262.414 183.164 259.525 188.635 256.018 190.669L153.411 249.899C152.62 250.389 151.713 250.662 150.783 250.691ZM258.34 111.947C257.511 111.973 256.704 112.219 256 112.657L153.411 171.887C150.043 173.828 147.305 179.08 147.305 183.581V244.925C147.305 247.236 148.039 248.969 149.32 249.731C150.361 250.309 151.712 250.217 153.122 249.403L255.711 190.172C259.08 188.226 261.818 182.98 261.818 178.479V117.135C261.818 114.824 261.084 113.091 259.802 112.328C259.357 112.073 258.852 111.942 258.34 111.947Z" fill="black"/>
<path d="M174.053 215.274L158.125 224.472C157.114 225.05 156.294 224.438 156.294 223.086V221.052C156.303 220.366 156.474 219.691 156.792 219.083C157.111 218.475 157.567 217.95 158.125 217.551L174.053 208.341C175.065 207.764 175.885 208.382 175.885 209.728V211.727C175.882 212.422 175.715 213.105 175.396 213.721C175.078 214.338 174.617 214.87 174.053 215.274ZM199.18 200.749L183.251 209.941C182.24 210.519 181.42 209.906 181.42 208.554V206.556C181.431 205.87 181.602 205.196 181.92 204.588C182.238 203.98 182.694 203.455 183.251 203.054L199.18 193.863C200.19 193.285 201.01 193.897 201.01 195.244V197.249C201 197.934 200.829 198.608 200.511 199.215C200.193 199.823 199.737 200.349 199.18 200.749ZM224.305 186.243L208.377 195.434C207.366 196.013 206.546 195.4 206.546 194.048V192.049C206.556 191.364 206.728 190.689 207.046 190.081C207.364 189.473 207.82 188.948 208.377 188.548L224.305 179.356C225.317 178.779 226.137 179.391 226.137 180.743V182.742C226.126 183.428 225.955 184.102 225.637 184.709C225.319 185.317 224.863 185.843 224.305 186.243ZM249.432 171.736L233.503 180.928C232.492 181.506 231.672 180.893 231.672 179.548V177.543C231.683 176.857 231.854 176.183 232.172 175.575C232.49 174.967 232.946 174.442 233.503 174.041L249.432 164.85C250.442 164.271 251.262 164.884 251.262 166.236V168.235C251.252 168.921 251.081 169.595 250.763 170.203C250.445 170.811 249.989 171.336 249.432 171.736Z" fill="white"/>
<path d="M169.674 196.157L161.118 201.097C159.633 201.952 158.438 201.045 158.438 199.07V190.149C158.438 188.173 159.633 185.879 161.118 185.024L169.674 180.079C171.159 179.224 172.361 180.13 172.361 182.107V191.009C172.373 193.009 171.159 195.302 169.674 196.157Z" fill="white"/>
<path d="M158.438 198.919C158.386 198.919 158.336 198.906 158.291 198.88C158.246 198.855 158.209 198.819 158.184 198.774C158.164 198.741 158.152 198.705 158.146 198.668C158.142 198.629 158.144 198.591 158.155 198.555C158.164 198.518 158.183 198.484 158.206 198.454C158.23 198.424 158.259 198.4 158.293 198.381L172.216 190.339C172.282 190.301 172.361 190.291 172.434 190.31C172.508 190.33 172.571 190.378 172.61 190.443C172.648 190.511 172.658 190.59 172.638 190.664C172.619 190.738 172.571 190.802 172.506 190.842L158.581 198.878C158.539 198.905 158.489 198.919 158.438 198.919ZM158.438 194.898C158.387 194.898 158.336 194.885 158.291 194.86C158.246 194.834 158.209 194.798 158.184 194.753C158.146 194.686 158.137 194.608 158.157 194.534C158.177 194.461 158.226 194.398 158.293 194.361L172.216 186.319C172.283 186.281 172.362 186.272 172.435 186.292C172.51 186.313 172.572 186.361 172.61 186.428C172.629 186.461 172.642 186.497 172.647 186.535C172.655 186.591 172.646 186.648 172.621 186.7C172.595 186.751 172.555 186.793 172.506 186.821L158.582 194.858C158.539 194.884 158.489 194.898 158.438 194.898ZM158.438 190.877C158.387 190.877 158.336 190.864 158.291 190.839C158.246 190.814 158.209 190.777 158.184 190.733C158.146 190.666 158.137 190.587 158.157 190.514C158.177 190.44 158.226 190.378 158.293 190.34L172.216 182.303C172.282 182.275 172.356 182.27 172.424 182.292C172.492 182.314 172.549 182.36 172.585 182.421C172.621 182.483 172.633 182.556 172.618 182.626C172.604 182.696 172.563 182.758 172.506 182.8L158.582 190.842C158.537 190.865 158.488 190.876 158.438 190.877Z" fill="black"/>
<path d="M165.399 196.932C164.243 197.597 163.319 196.892 163.319 195.366V188.214C163.319 186.683 164.25 184.91 165.399 184.245C166.555 183.587 167.473 184.291 167.473 185.816V192.969C167.473 194.476 166.543 196.274 165.399 196.932Z" fill="white"/>
<path d="M164.572 197.469C164.335 197.472 164.101 197.41 163.897 197.29C163.596 197.074 163.357 196.782 163.205 196.445C163.053 196.106 162.992 195.735 163.03 195.366V188.214C163.037 187.384 163.242 186.569 163.63 185.835C164.017 185.101 164.574 184.471 165.254 183.997C165.493 183.832 165.772 183.734 166.062 183.715C166.351 183.696 166.642 183.755 166.9 183.886C167.197 184.106 167.431 184.399 167.58 184.736C167.729 185.073 167.787 185.443 167.75 185.81V192.963C167.75 194.603 166.774 196.43 165.531 197.174C165.243 197.356 164.912 197.457 164.572 197.469ZM166.219 184.285C165.978 184.296 165.745 184.37 165.543 184.499C164.474 185.111 163.607 186.81 163.607 188.214V195.366C163.574 195.634 163.609 195.905 163.712 196.154C163.813 196.404 163.975 196.624 164.185 196.793C164.357 196.87 164.546 196.9 164.734 196.881C164.922 196.862 165.101 196.793 165.254 196.684C165.842 196.257 166.323 195.699 166.659 195.054C166.994 194.41 167.174 193.695 167.183 192.969V185.81C167.217 185.543 167.182 185.271 167.08 185.022C166.979 184.772 166.816 184.552 166.606 184.384C166.488 184.317 166.354 184.283 166.219 184.285ZM178.016 185.838C177.94 185.889 177.848 185.911 177.757 185.902C177.52 185.873 177.444 185.567 177.589 185.208C177.717 184.903 177.786 184.575 177.791 184.244C177.807 183.978 177.729 183.714 177.572 183.499C177.509 183.35 177.492 183.186 177.522 183.029C177.552 182.87 177.627 182.725 177.739 182.609C177.971 182.302 178.282 182.21 178.427 182.401C178.674 182.766 178.795 183.202 178.774 183.643C178.761 184.208 178.644 184.767 178.427 185.289C178.353 185.511 178.209 185.704 178.016 185.838ZM179.883 186.053C179.806 186.102 179.715 186.125 179.624 186.122C179.386 186.122 179.311 185.782 179.45 185.429C179.772 184.662 179.946 183.841 179.964 183.009C179.992 182.361 179.812 181.721 179.45 181.182C179.391 181.032 179.376 180.869 179.407 180.71C179.436 180.552 179.512 180.405 179.624 180.287C179.86 179.987 180.172 179.9 180.311 180.091C180.771 180.781 181 181.601 180.964 182.431C180.942 183.495 180.72 184.546 180.311 185.527C180.228 185.743 180.078 185.927 179.883 186.053ZM181.685 186.278C181.608 186.329 181.517 186.354 181.424 186.347C181.188 186.347 181.113 186.007 181.257 185.649C181.773 184.42 182.052 183.105 182.077 181.773C182.127 180.732 181.839 179.705 181.257 178.843C181.195 178.694 181.178 178.531 181.207 178.373C181.237 178.215 181.313 178.069 181.424 177.953C181.656 177.653 181.968 177.561 182.113 177.751C182.802 178.771 183.14 179.988 183.077 181.217C183.045 182.786 182.718 184.334 182.113 185.782C182.024 185.987 181.875 186.161 181.685 186.278Z" fill="black"/>
<path d="M183.517 186.498C183.442 186.549 183.352 186.571 183.262 186.561C183.025 186.561 182.951 186.226 183.089 185.868C183.806 184.179 184.198 182.37 184.244 180.536C184.304 179.099 183.899 177.68 183.089 176.492C183.03 176.342 183.015 176.179 183.046 176.021C183.076 175.864 183.152 175.718 183.262 175.602C183.5 175.302 183.806 175.209 183.95 175.399C184.848 176.741 185.293 178.334 185.221 179.947C185.178 182.013 184.747 184.053 183.95 185.96C183.867 186.182 183.714 186.37 183.517 186.498ZM183.303 225.28L157.334 240.302C156.755 240.631 156.294 240.302 156.294 239.516V239.077C156.299 238.687 156.397 238.305 156.578 237.96C156.758 237.614 157.017 237.316 157.334 237.09L183.303 222.068C183.88 221.733 184.343 222.068 184.343 222.854V223.293C184.339 223.683 184.242 224.067 184.061 224.411C183.88 224.757 183.621 225.055 183.303 225.28Z" fill="black"/>
<path d="M66.4949 219.01C78.6847 197.897 78.6847 175.074 66.4939 168.036C54.3034 160.998 34.539 172.409 22.349 193.522C10.159 214.636 10.1594 237.458 22.35 244.496C34.5405 251.534 54.3049 240.124 66.4949 219.01Z" fill="#467CFD"/>
<path d="M30.4793 246.8C27.5981 246.836 24.7591 246.106 22.2535 244.683C16.297 241.244 13.0151 234.008 13.0151 224.311C13.0151 204.375 27.0598 180.049 44.3446 170.08C52.7501 165.232 60.6511 164.457 66.6076 167.895C72.5641 171.333 75.846 178.57 75.846 188.266C75.846 208.203 61.8012 232.529 44.5356 242.497C39.5687 245.375 34.7891 246.8 30.4793 246.8ZM58.3703 166.164C54.1255 166.164 49.4146 167.589 44.5242 170.413C27.3655 180.32 13.4049 204.498 13.4049 224.311C13.4049 233.863 16.618 240.985 22.4521 244.355C28.2863 247.724 36.0575 246.945 44.3331 242.166C61.4917 232.258 75.4524 208.081 75.4524 188.266C75.4524 178.715 72.2393 171.594 66.4052 168.224C63.9544 166.836 61.1787 166.125 58.3626 166.164H58.3703Z" fill="black"/>
<path d="M68.7445 220.574C80.9334 199.462 80.9334 176.643 68.7449 169.606C56.5562 162.569 36.7942 173.979 24.6052 195.09C12.4163 216.202 12.4161 239.022 24.6048 246.059C36.7935 253.096 56.5556 241.686 68.7445 220.574Z" fill="#C2D6FE"/>
<path d="M32.7329 248.362C29.8519 248.402 27.0126 247.672 24.507 246.25C18.5505 242.811 15.2686 235.575 15.2686 225.878C15.2686 205.945 29.3134 181.62 46.5752 171.651C54.9806 166.803 62.8817 166.028 68.8381 169.465C74.7945 172.904 78.0763 180.141 78.0763 189.837C78.0763 209.77 64.0317 234.096 46.747 244.061C41.8184 246.903 37.0387 248.362 32.7329 248.362ZM60.6237 167.747C56.379 167.747 51.6681 169.172 46.7776 171.995C29.6191 181.902 15.6621 206.079 15.6621 225.89C15.6621 235.441 18.8753 242.562 24.7095 245.929C30.5436 249.295 38.3111 248.523 46.5865 243.743C63.7452 233.836 77.7062 209.66 77.7062 189.849C77.7062 180.298 74.4928 173.175 68.6586 169.81C66.2086 168.415 63.4312 167.699 60.6123 167.735L60.6237 167.747Z" fill="black"/>
<path d="M45.4444 225.147C45.1602 225.336 44.8414 225.467 44.5064 225.533C44.1714 225.599 43.8266 225.598 43.4921 225.529L31.8658 222.339C30.4025 221.957 30.0931 219.745 31.1704 217.434C32.2479 215.122 34.3072 213.579 35.7553 213.995L44.7376 216.455L59.1187 185.638C60.1999 183.346 62.2554 181.782 63.7034 182.199C65.1515 182.616 65.4724 184.793 64.395 187.105L48.0922 222.068C47.601 223.14 46.8625 224.08 45.9373 224.811C45.7797 224.932 45.6151 225.045 45.4444 225.147Z" fill="url(#paint2_linear_110_2057)"/>
<defs>
<linearGradient id="paint0_linear_110_2057" x1="184.167" y1="158.385" x2="86.7207" y2="158.385" gradientUnits="userSpaceOnUse">
<stop stop-color="#555DFD"/>
<stop offset="1" stop-color="#379FFE"/>
</linearGradient>
<linearGradient id="paint1_linear_110_2057" x1="262.106" y1="186.644" x2="147.015" y2="186.644" gradientUnits="userSpaceOnUse">
<stop stop-color="#555DFD"/>
<stop offset="1" stop-color="#379FFE"/>
</linearGradient>
<linearGradient id="paint2_linear_110_2057" x1="65.034" y1="205.611" x2="30.5283" y2="205.611" gradientUnits="userSpaceOnUse">
<stop stop-color="#555DFD"/>
<stop offset="1" stop-color="#379FFE"/>
</linearGradient>
</defs>
</svg>
