<svg width="260" height="260" viewBox="0 0 260 260" fill="none" xmlns="http://www.w3.org/2000/svg">
<g clip-path="url(#clip0_110_2008)">
<path d="M90.8212 0.495605C86.4472 3.15023 86.4067 10.9636 81.9619 13.5311C81.6079 13.7831 81.1998 13.9488 80.7702 14.0149C80.3415 14.081 79.9027 14.0455 79.4897 13.9114L80.6701 13.4756L76.0419 10.7338C75.2497 10.187 74.3224 10.0127 72.9755 10.7892C68.4903 13.3805 68.4903 21.3048 64.0052 23.896C63.6295 24.1675 63.1909 24.3391 62.7307 24.3945C62.2704 24.45 61.8037 24.3875 61.3742 24.213L62.4677 23.69L58.1966 21.1622C57.4041 20.5599 56.4294 20.3698 55.0269 21.1622C50.5417 23.7535 50.5417 31.6777 46.0566 34.269C44.8045 34.99 43.9091 34.895 43.1642 34.4354L44.4479 34.0233L40.1292 31.4479C39.3368 30.917 38.4175 30.7506 37.0862 31.5193C32.6011 34.1104 32.6011 42.0348 28.116 44.6261C27.7162 44.9222 27.2412 45.1 26.7452 45.1392C26.2492 45.1784 25.7522 45.0774 25.3108 44.8479L26.5469 44.4042L22.2441 41.8525C21.4516 41.282 20.5086 41.0601 19.1377 41.8525C14.6605 44.4359 14.6605 52.3601 10.1674 54.9514C9.57533 55.3477 8.86325 55.5243 8.15462 55.4506L8.73312 54.8087L4.44607 52.2888C4.20715 52.0917 3.94005 51.9314 3.65366 51.8134C3.2581 51.6849 2.83849 51.6481 2.42661 51.7058C2.01473 51.7635 1.62137 51.9141 1.2763 52.1462C1.20156 52.7032 1.16187 53.2642 1.15747 53.8261V250.325C1.15747 253.305 2.19553 255.079 4.04986 256.102L8.32105 258.694L95.4888 3.27704L90.8212 0.495605Z" fill="black"/>
<path d="M8.3132 259.113C8.2399 259.111 8.16856 259.089 8.10716 259.049L3.83598 256.467C1.76774 255.341 0.753418 253.297 0.753418 250.349V53.8735C0.757919 53.293 0.800231 52.7132 0.880237 52.1381C0.888816 52.0774 0.911108 52.0194 0.945422 51.9686C0.979737 51.9178 1.02517 51.8755 1.07828 51.8449C1.46895 51.5942 1.90989 51.4323 2.36997 51.3707C2.83004 51.3091 3.29803 51.3492 3.7409 51.4883C4.07318 51.6196 4.38324 51.8013 4.66012 52.0271L8.8917 54.4996C8.9427 54.5299 8.98626 54.5713 9.01917 54.6206C9.05208 54.67 9.07351 54.7261 9.08187 54.7848C9.09818 54.8723 9.08121 54.9628 9.03427 55.0384C9.3479 54.9471 9.64877 54.8167 9.92976 54.6501C12.0614 53.4218 13.0994 50.9256 14.2564 48.3106C15.4133 45.6956 16.5466 42.93 18.9001 41.575C19.4113 41.2068 20.0253 41.0087 20.6553 41.0087C21.2852 41.0087 21.8993 41.2068 22.4105 41.575L26.7134 44.1266C26.7773 44.1661 26.829 44.2226 26.8626 44.2898C26.8962 44.3569 26.9104 44.4322 26.9037 44.507C26.8984 44.5618 26.8815 44.6149 26.8542 44.6627C26.8268 44.7105 26.7897 44.752 26.7451 44.7844C27.145 44.7051 27.5283 44.5577 27.8782 44.3485C30.01 43.1123 31.048 40.6161 32.197 38.0091C33.346 35.402 34.4951 32.6364 36.8487 31.2734C37.3508 30.9071 37.9539 30.7052 38.5753 30.6952C39.1967 30.6853 39.8059 30.8679 40.3194 31.2179L44.6144 33.7775C44.679 33.8163 44.7312 33.8727 44.7649 33.94C44.7986 34.0074 44.8124 34.083 44.8047 34.1579C44.7961 34.2278 44.7698 34.2945 44.7282 34.3513C44.6865 34.4082 44.631 34.4535 44.5669 34.4827C45.0096 34.4103 45.4344 34.2543 45.8189 34.0232C47.9426 32.787 48.9886 30.2988 50.1376 27.6838C51.2868 25.0687 52.4358 22.3031 54.7893 20.948C55.3098 20.559 55.9422 20.3488 56.592 20.3488C57.2418 20.3488 57.8742 20.559 58.3947 20.948L62.6264 23.4521C62.6887 23.488 62.7399 23.5401 62.7748 23.603C62.8097 23.6658 62.8269 23.7369 62.8245 23.8087C62.8181 23.9153 62.7696 24.0151 62.6898 24.086C63.07 24.0034 63.4341 23.8589 63.7675 23.6581C65.8912 22.4299 66.9372 19.9337 68.0862 17.3187C69.235 14.7037 70.376 11.9381 72.738 10.5752C73.2443 10.207 73.8526 10.0054 74.4786 9.99829C75.1047 9.99119 75.7174 10.179 76.2319 10.5356L80.8287 13.2694C80.8928 13.3065 80.9457 13.3612 80.9817 13.4271C81.0166 13.493 81.0323 13.5674 81.0267 13.6419C81.2664 13.5504 81.4993 13.4419 81.7244 13.317C83.8478 12.0808 84.8931 9.59247 86.0432 6.97746C87.1921 4.36245 88.2926 1.69196 90.5757 0.313167C90.6366 0.276009 90.7065 0.256348 90.7777 0.256348C90.849 0.256348 90.9189 0.276009 90.9797 0.313167L95.6552 3.10248C95.7322 3.14985 95.7912 3.22152 95.8229 3.30616C95.8544 3.39089 95.8566 3.48384 95.8296 3.57003L8.66181 258.978C8.64138 259.033 8.6096 259.084 8.56852 259.126C8.52767 259.168 8.4785 259.201 8.42415 259.224C8.37973 259.195 8.34191 259.158 8.3132 259.113ZM1.63304 52.4551C1.57755 52.9286 1.54843 53.4048 1.54583 53.8815V250.325C1.54583 253.035 2.4016 254.763 4.23219 255.753L8.09917 258.131L94.9733 3.49082L90.7896 0.99463C88.8563 2.27845 87.8413 4.65569 86.7712 7.16763C85.6381 9.8065 84.4734 12.5483 82.1205 13.9034C81.7158 14.1862 81.2508 14.3708 80.7623 14.4425C80.274 14.5141 79.7758 14.4706 79.3073 14.3155C79.2308 14.2878 79.1648 14.2371 79.1183 14.1704C79.0712 14.1039 79.0461 14.0244 79.0462 13.943C79.0462 13.8616 79.071 13.7822 79.1183 13.7156C79.1644 13.649 79.2308 13.5983 79.3073 13.5705L79.7034 13.428L75.7965 11.1061C75.2417 10.7177 74.4653 10.3929 73.1262 11.1694C70.9949 12.3978 69.9563 14.8938 68.8074 17.5089C67.6583 20.1239 66.5093 22.8894 64.1558 24.2446C63.7258 24.5497 63.2252 24.7403 62.7011 24.7986C62.1771 24.8568 61.6468 24.7807 61.1603 24.5775C61.0928 24.5451 61.0355 24.4946 60.9949 24.4316C60.9543 24.3687 60.9321 24.2956 60.9305 24.2207C60.9316 24.1447 60.9536 24.0705 60.9941 24.0062C61.0347 23.9419 61.0922 23.89 61.1603 23.8563L61.5804 23.6581L57.9511 21.5106C57.3329 21.0511 56.5484 20.7182 55.1775 21.5106C53.0538 22.7389 52.0077 25.2351 50.8587 27.8501C49.7097 30.4651 48.5607 33.2228 46.2072 34.5857C45.7316 34.9303 45.1662 35.1293 44.5796 35.1588C43.9931 35.1884 43.4106 35.0471 42.9028 34.7521C42.839 34.7111 42.7881 34.6529 42.7558 34.5843C42.7236 34.5156 42.7114 34.4392 42.7205 34.3639C42.7303 34.2899 42.7607 34.2201 42.8084 34.1626C42.8561 34.1051 42.919 34.0622 42.9899 34.0389L43.4495 33.8885L39.8836 31.7647C39.3369 31.3923 38.5602 31.0753 37.2369 31.844C35.1132 33.0722 34.0672 35.5605 32.9182 38.1834C31.7692 40.8064 30.6281 43.564 28.2666 44.927C27.81 45.2521 27.2729 45.4454 26.7139 45.4859C26.1549 45.5264 25.5955 45.4126 25.0968 45.1568C25.0306 45.1187 24.9763 45.063 24.9399 44.9958C24.9036 44.9287 24.8865 44.8527 24.8908 44.7765C24.8997 44.7014 24.9287 44.6302 24.9747 44.5702C25.0207 44.5102 25.0821 44.4638 25.1523 44.4357L25.6041 44.2772L22.046 42.1693H21.9905C21.4596 41.781 20.6672 41.4324 19.3121 42.2168C17.1884 43.4452 16.1424 45.9412 15.0013 48.5563C13.8602 51.1714 12.7032 53.937 10.3418 55.2999C9.67389 55.7423 8.87164 55.9359 8.07543 55.8467C8.00435 55.8346 7.93768 55.804 7.88207 55.7582C7.82645 55.7123 7.78383 55.6526 7.75844 55.5851C7.73568 55.5179 7.73103 55.4459 7.74496 55.3764C7.75888 55.3068 7.7909 55.2422 7.83777 55.1889L8.09129 54.9037L4.2242 52.6374C4.00145 52.4544 3.75319 52.3049 3.48726 52.1936C3.17943 52.0965 2.85416 52.0674 2.53399 52.1085C2.21383 52.1495 1.90641 52.2597 1.63304 52.4313V52.4551Z" fill="black"/>
<path d="M95.5753 4.83007V201.266C95.5753 206.686 91.8912 213.208 87.3429 215.831L14.0664 258.139C9.52581 260.761 5.83301 258.502 5.83301 253.083V56.6391C5.83346 56.0771 5.87318 55.5157 5.95195 54.9592C10.3182 52.5819 10.3657 60.3239 14.8113 57.7565C19.2568 55.189 19.2964 47.2409 23.7816 44.6576C28.2667 42.0742 28.2667 49.9907 32.7598 47.3994C37.2529 44.8082 37.245 36.8838 41.7222 34.2925C46.1994 31.7014 46.2153 39.6256 50.6925 37.0423C55.1697 34.4591 55.1856 26.5267 59.6707 23.9356C64.1559 21.3443 64.1559 29.2685 68.6488 26.6774C73.142 24.0861 73.1262 16.1617 77.6194 13.5706C82.1126 10.9793 82.1047 18.9036 86.5979 16.3123C91.0911 13.721 91.0911 5.93148 95.4572 3.27686C95.5387 3.79052 95.5782 4.30998 95.5753 4.83007Z" fill="#C2D6FE"/>
<path d="M10.4761 259.652C9.64273 259.67 8.82056 259.458 8.09884 259.041C6.35546 258.035 5.39673 255.928 5.39673 253.107V56.6393C5.39864 56.0589 5.43836 55.4792 5.51556 54.904C5.52556 54.8427 5.54928 54.7845 5.58497 54.7337C5.62065 54.6829 5.66735 54.6409 5.72159 54.6107C8.17018 53.2636 9.50936 54.8564 10.587 56.1322C11.6648 57.408 12.6157 58.5095 14.5492 57.4159C16.6809 56.1877 17.719 53.6915 18.868 51.0765C20.017 48.4615 21.166 45.6959 23.5195 44.3408C26.0474 42.8748 27.4104 44.4994 28.5039 45.799C29.5974 47.0985 30.5405 48.1762 32.4661 47.0827C34.5898 45.8464 35.6359 43.3504 36.7849 40.7432C37.9339 38.1361 39.075 35.3705 41.4285 34.0076C43.9643 32.5495 45.3272 34.166 46.4208 35.4736C47.5143 36.7811 48.4494 37.8508 50.3829 36.7573C52.5145 35.5211 53.5527 33.0329 54.7096 30.4179C55.8666 27.8029 56.9998 25.0452 59.3612 23.6822C61.8891 22.2162 63.26 23.8407 64.3535 25.1403C65.447 26.4398 66.3821 27.5175 68.3156 26.424C70.4392 25.1957 71.4857 22.6995 72.6267 20.0845C73.7677 17.4695 74.9245 14.704 77.2864 13.3409C79.8138 11.8829 81.1765 13.4995 82.2703 14.799C83.364 16.0986 84.307 17.1764 86.2323 16.0827C88.3636 14.8545 89.4022 12.3583 90.559 9.74332C91.7158 7.1283 92.8095 4.45782 95.0837 3.07903C95.14 3.04414 95.203 3.02355 95.2694 3.01939C95.3346 3.01511 95.3999 3.02738 95.4595 3.05495C95.5203 3.0824 95.5721 3.12437 95.6114 3.17704C95.6508 3.2297 95.6767 3.29125 95.6857 3.3564C95.7654 3.88092 95.8052 4.41071 95.805 4.94123V201.266C95.805 206.813 92.0252 213.493 87.3734 216.171L14.0975 258.479C13.0077 259.167 11.7625 259.571 10.4761 259.652ZM6.30797 55.2051C6.25248 55.6786 6.22336 56.1548 6.22076 56.6315V253.107C6.22076 255.634 7.01329 257.496 8.52678 258.361C10.0404 259.224 11.8391 258.986 13.8599 257.814L87.1359 215.53C91.565 212.97 95.1715 206.592 95.1715 201.266V3.97452C93.443 5.29783 92.4843 7.54837 91.4705 9.91773C90.3452 12.5645 89.1805 15.2983 86.8186 16.6534C84.2834 18.1194 82.9207 16.5028 81.8269 15.1952C80.7331 13.8878 79.798 12.818 77.8648 13.9195C75.7324 15.1478 74.6949 17.6439 73.5382 20.259C72.3803 22.874 71.2471 25.6395 68.8942 26.9946C66.3583 28.4606 64.9954 26.836 63.9018 25.5365C62.8083 24.2369 61.8732 23.1592 59.9396 24.2528C57.808 25.481 56.7699 27.9772 55.6209 30.5922C54.4718 33.2072 53.3228 35.9649 50.9613 37.3278C48.4335 38.7859 47.0785 37.1694 45.985 35.8698C44.8914 34.5702 43.9484 33.4528 42.0229 34.586C39.8992 35.8143 38.8531 38.3025 37.712 40.9254C36.5708 43.5484 35.414 46.3061 33.0605 47.669C30.5247 49.135 29.1616 47.5106 28.0681 46.211C26.9745 44.9115 26.0394 43.8337 24.1059 44.9273C21.9822 46.1556 20.9362 48.6517 19.7872 51.2667C18.6382 53.8818 17.4971 56.6472 15.1356 58.0103C12.6078 59.4684 11.2448 57.8518 10.1433 56.5522C9.04181 55.2527 8.07509 54.3413 6.30797 55.2129V55.2051Z" fill="black"/>
<path d="M31.8953 67.8679C31.7556 67.8684 31.6184 67.832 31.4973 67.7624C31.3762 67.6928 31.2757 67.5925 31.2058 67.4716C31.1025 67.2897 31.0753 67.0742 31.1303 66.8723C31.1852 66.6704 31.3178 66.4984 31.4991 66.3939L69.3216 44.5546C69.5028 44.4599 69.7137 44.4388 69.9101 44.4958C70.1063 44.5529 70.2729 44.6835 70.3752 44.8603C70.4775 45.0372 70.5076 45.2467 70.4592 45.4453C70.4102 45.6439 70.2865 45.8159 70.1138 45.9255L32.2915 67.7649C32.1707 67.8333 32.0341 67.8689 31.8953 67.8679ZM36.5389 71.252C36.3635 71.2531 36.1926 71.196 36.0532 71.0896C35.9137 70.9833 35.8134 70.8336 35.7681 70.6641C35.7228 70.4947 35.735 70.315 35.8028 70.1532C35.8706 69.9914 35.9901 69.8566 36.1427 69.7701L63.6084 53.9215C63.7896 53.8257 64.0008 53.804 64.1977 53.8606C64.3946 53.9173 64.5619 54.0481 64.6644 54.2255C64.767 54.4029 64.7968 54.6132 64.7476 54.8121C64.6985 55.011 64.5742 55.1832 64.4008 55.2924L36.9351 71.141C36.8151 71.2122 36.6785 71.2505 36.5389 71.252ZM31.8958 80.7055C31.7204 80.7064 31.5497 80.6494 31.4099 80.5434C31.2706 80.4369 31.1704 80.2874 31.1248 80.1181C31.0796 79.9485 31.0918 79.7687 31.1596 79.6068C31.2274 79.445 31.347 79.3101 31.4996 79.2235L69.3227 57.3921C69.5037 57.2881 69.7184 57.2597 69.9202 57.3131C70.1218 57.3667 70.294 57.4976 70.3996 57.6774C70.4525 57.7674 70.4874 57.8669 70.5009 57.9702C70.5152 58.0734 70.5091 58.1785 70.4829 58.2794C70.456 58.3802 70.4097 58.4748 70.3467 58.5579C70.2837 58.6409 70.2049 58.7106 70.1149 58.763L32.292 80.594C32.1723 80.6659 32.0355 80.7044 31.8958 80.7055ZM14.9141 119.337C14.8494 119.336 14.786 119.32 14.7292 119.289C14.6724 119.258 14.624 119.214 14.5882 119.16C14.5524 119.106 14.5303 119.045 14.5238 118.98C14.5174 118.916 14.5267 118.851 14.5511 118.791C14.5836 118.711 14.6415 118.644 14.7159 118.6L51.6748 97.2672C51.7197 97.2345 51.7708 97.212 51.825 97.2008C51.8793 97.1884 51.9353 97.1884 51.9896 97.1996C52.0439 97.212 52.0951 97.2345 52.14 97.2672C52.185 97.2987 52.2225 97.3403 52.2504 97.3887C52.2925 97.4608 52.3107 97.5444 52.3023 97.6275C52.2939 97.7106 52.2594 97.7889 52.2037 97.8512C52.1668 97.8928 52.1215 97.9266 52.071 97.9491L15.1121 119.289C15.0509 119.32 14.9829 119.337 14.9141 119.337ZM78.039 82.893C77.9524 82.8918 77.8691 82.8626 77.8005 82.8097C77.7322 82.7567 77.6832 82.6828 77.661 82.5993C77.6385 82.516 77.6441 82.4271 77.6767 82.3472C77.7082 82.2673 77.7667 82.1998 77.841 82.1559L85.7652 77.5997C85.8574 77.5468 85.9655 77.5322 86.0679 77.5592C86.1702 77.5862 86.258 77.6515 86.312 77.7415C86.339 77.7865 86.3559 77.8371 86.3627 77.8889C86.3694 77.9407 86.3649 77.9936 86.3514 78.0431C86.3379 78.0937 86.3132 78.141 86.2805 78.1815C86.2479 78.222 86.2074 78.2557 86.1612 78.2805L78.2371 82.8446C78.1763 82.8772 78.1077 82.893 78.039 82.893ZM14.9141 128.608C14.8494 128.607 14.786 128.591 14.7292 128.56C14.6724 128.529 14.624 128.485 14.5882 128.431C14.5524 128.377 14.5303 128.316 14.5238 128.251C14.5174 128.187 14.5267 128.122 14.5511 128.062C14.5836 127.982 14.6415 127.915 14.7159 127.871L48.3862 108.432C48.4311 108.399 48.4822 108.377 48.5364 108.366C48.5907 108.354 48.6467 108.354 48.7009 108.366C48.7553 108.377 48.8065 108.399 48.8514 108.432C48.8963 108.465 48.934 108.506 48.9619 108.554C48.9898 108.602 49.0071 108.655 49.0132 108.71C49.0192 108.765 49.0135 108.821 48.9967 108.874C48.9797 108.926 48.952 108.976 48.9151 109.017C48.8782 109.058 48.8329 109.091 48.7824 109.114L15.1121 128.552C15.0529 128.59 14.9841 128.609 14.9141 128.608ZM78.039 92.1641C77.9524 92.1629 77.8691 92.1337 77.8005 92.0808C77.7322 92.0278 77.6832 91.9539 77.661 91.8704C77.6385 91.7871 77.6441 91.6982 77.6767 91.6183C77.7082 91.5384 77.7667 91.4709 77.841 91.427L85.7652 86.8708C85.8574 86.8179 85.9655 86.8033 86.0679 86.8303C86.1702 86.8573 86.258 86.9226 86.312 87.0126C86.3638 87.1049 86.3762 87.2129 86.348 87.3142C86.3199 87.4143 86.2524 87.4998 86.1612 87.5516L78.2371 92.1089C78.1786 92.1461 78.1088 92.1652 78.039 92.1641ZM14.9143 137.871C14.8452 137.871 14.7774 137.852 14.7177 137.817C14.6579 137.783 14.6083 137.733 14.5736 137.673C14.5212 137.582 14.5067 137.473 14.5334 137.371C14.5601 137.268 14.6257 137.18 14.7161 137.126L53.7196 114.613C53.7644 114.581 53.8156 114.558 53.8699 114.547C53.924 114.534 53.98 114.534 54.0343 114.546C54.0885 114.558 54.1397 114.581 54.1847 114.613C54.2296 114.645 54.2673 114.686 54.2951 114.735C54.3372 114.807 54.3553 114.89 54.3469 114.974C54.3385 115.057 54.304 115.135 54.2483 115.197C54.2114 115.239 54.1664 115.273 54.1158 115.295L15.1123 137.816C15.0531 137.853 14.9843 137.872 14.9143 137.871ZM78.039 101.419C77.9704 101.419 77.9029 101.4 77.8421 101.365C77.7825 101.332 77.733 101.281 77.6981 101.221C77.646 101.13 77.6318 101.021 77.6585 100.919C77.6852 100.817 77.7507 100.729 77.841 100.674L85.7652 96.1183C85.8574 96.0654 85.9655 96.0519 86.0679 96.0789C86.1691 96.107 86.2558 96.1734 86.3087 96.2645C86.3604 96.3557 86.3751 96.4648 86.348 96.5661C86.3203 96.6683 86.2531 96.7554 86.1612 96.808L78.2371 101.364C78.1786 101.401 78.1099 101.421 78.039 101.419ZM14.9141 147.142C14.8275 147.142 14.7437 147.113 14.6754 147.06C14.6071 147.007 14.5579 146.933 14.5355 146.85C14.513 146.766 14.5185 146.678 14.5511 146.598C14.5836 146.517 14.6415 146.45 14.7159 146.405L45.6206 128.577C45.6654 128.551 45.7148 128.534 45.7661 128.527C45.8174 128.52 45.8695 128.524 45.9195 128.537C46.0203 128.563 46.1066 128.628 46.1595 128.718C46.2119 128.811 46.2264 128.919 46.1997 129.021C46.173 129.124 46.1074 129.211 46.0168 129.265L15.1121 147.095C15.051 147.127 14.983 147.143 14.9141 147.142ZM78.039 110.699C77.9524 110.698 77.8691 110.669 77.8005 110.616C77.7322 110.563 77.6832 110.489 77.661 110.406C77.6385 110.323 77.6441 110.234 77.6767 110.154C77.7082 110.074 77.7667 110.006 77.841 109.962L85.7652 105.405C85.8574 105.353 85.9655 105.339 86.0679 105.366C86.1702 105.392 86.258 105.458 86.312 105.548C86.3632 105.64 86.3761 105.748 86.3478 105.849C86.3196 105.95 86.2525 106.035 86.1612 106.087L78.2371 110.651C78.1763 110.683 78.1077 110.699 78.039 110.699ZM14.9141 156.415C14.8494 156.414 14.786 156.397 14.7292 156.367C14.6724 156.336 14.624 156.292 14.5882 156.238C14.5524 156.184 14.5303 156.122 14.5238 156.058C14.5174 155.994 14.5267 155.929 14.5511 155.869C14.5836 155.789 14.6415 155.721 14.7159 155.678L41.2702 140.344C41.3152 140.318 41.3652 140.3 41.417 140.293C41.4687 140.286 41.5214 140.291 41.5717 140.304C41.622 140.319 41.669 140.342 41.7097 140.375C41.7506 140.408 41.7844 140.448 41.8091 140.494C41.8609 140.585 41.875 140.692 41.8483 140.793C41.8216 140.894 41.7563 140.98 41.6664 141.033L15.1121 156.358C15.0529 156.397 14.9841 156.416 14.9141 156.415ZM78.039 119.971C77.9524 119.969 77.8691 119.94 77.8005 119.887C77.7322 119.834 77.6832 119.76 77.661 119.677C77.6385 119.594 77.6441 119.505 77.6767 119.425C77.7082 119.345 77.7667 119.277 77.841 119.234L85.7652 114.669C85.8563 114.617 85.9655 114.602 86.0667 114.63C86.1691 114.657 86.2558 114.725 86.3087 114.816C86.3604 114.907 86.375 115.016 86.3469 115.117C86.3199 115.22 86.2535 115.306 86.1612 115.358L78.2371 119.915C78.1786 119.953 78.1088 119.972 78.039 119.971ZM14.9143 165.686C14.8451 165.686 14.7772 165.667 14.7175 165.632C14.6578 165.597 14.6082 165.547 14.5736 165.488C14.5212 165.396 14.5067 165.287 14.5334 165.185C14.5601 165.083 14.6257 164.995 14.7161 164.941L43.6636 148.228C43.755 148.176 43.8635 148.162 43.9654 148.189C44.0672 148.217 44.1539 148.283 44.2065 148.375C44.2589 148.467 44.273 148.575 44.2455 148.677C44.2181 148.779 44.1512 148.865 44.0598 148.918L15.1123 165.607C15.0539 165.649 14.9859 165.676 14.9143 165.686ZM78.039 129.242C77.9704 129.242 77.9029 129.223 77.8421 129.188C77.7825 129.153 77.733 129.103 77.6981 129.044C77.6462 128.952 77.6321 128.843 77.6588 128.741C77.6854 128.639 77.7508 128.551 77.841 128.497L85.7652 123.941C85.8102 123.908 85.8619 123.885 85.9159 123.873C85.9699 123.862 86.0262 123.862 86.0802 123.873C86.1342 123.884 86.186 123.907 86.231 123.939C86.276 123.972 86.3132 124.014 86.3413 124.062C86.3694 124.109 86.3863 124.162 86.3919 124.217C86.3987 124.272 86.3931 124.329 86.3762 124.382C86.3593 124.435 86.3312 124.483 86.294 124.525C86.258 124.566 86.2119 124.599 86.1612 124.621L78.2371 129.187C78.1763 129.22 78.1088 129.239 78.039 129.242ZM14.9141 174.949C14.8276 174.948 14.7438 174.919 14.6754 174.866C14.6068 174.813 14.5576 174.739 14.5354 174.655C14.5129 174.572 14.5184 174.483 14.551 174.403C14.5836 174.323 14.6415 174.256 14.7159 174.212L48.3862 154.774C48.4312 154.742 48.4823 154.719 48.5364 154.707C48.5907 154.695 48.6467 154.695 48.7009 154.707C48.7553 154.718 48.8065 154.74 48.8514 154.773C48.8963 154.806 48.934 154.847 48.9619 154.896C49.004 154.968 49.0221 155.051 49.0137 155.134C49.0053 155.217 48.9708 155.296 48.9151 155.358C48.8782 155.4 48.8329 155.432 48.7824 155.456L15.1121 174.894C15.0529 174.931 14.9841 174.95 14.9141 174.949ZM78.039 138.505C77.9524 138.505 77.8691 138.476 77.8005 138.423C77.7322 138.37 77.6832 138.296 77.661 138.212C77.6385 138.129 77.6441 138.04 77.6767 137.96C77.7082 137.88 77.7667 137.813 77.841 137.769L85.7652 133.212C85.8563 133.16 85.9632 133.146 86.0645 133.172C86.1646 133.199 86.2513 133.265 86.3042 133.355C86.3559 133.445 86.3705 133.553 86.3435 133.654C86.3165 133.754 86.2513 133.841 86.1612 133.894L78.2371 138.45C78.1786 138.488 78.1088 138.507 78.039 138.505ZM14.9141 184.22C14.8275 184.22 14.7437 184.191 14.6754 184.138C14.6071 184.085 14.5579 184.011 14.5355 183.928C14.513 183.844 14.5185 183.756 14.5511 183.675C14.5836 183.594 14.6415 183.528 14.7159 183.483L39.416 169.22C39.4605 169.193 39.51 169.175 39.5614 169.168C39.6129 169.161 39.6652 169.164 39.7155 169.177C39.7657 169.191 39.8129 169.213 39.854 169.246C39.895 169.278 39.9294 169.317 39.9549 169.362C40.0072 169.454 40.0215 169.562 39.9948 169.665C39.9684 169.767 39.9028 169.855 39.8122 169.909L15.1121 184.173C15.0521 184.208 14.9833 184.225 14.9141 184.22ZM78.039 147.777C77.9704 147.776 77.9029 147.758 77.8421 147.723C77.7825 147.688 77.733 147.639 77.6981 147.579C77.6462 147.487 77.6321 147.379 77.6588 147.277C77.6854 147.175 77.7508 147.087 77.841 147.032L85.7652 142.476C85.8563 142.423 85.9632 142.41 86.0645 142.435C86.1646 142.462 86.2513 142.528 86.3042 142.618C86.357 142.71 86.3717 142.818 86.3447 142.92C86.3177 143.023 86.2524 143.111 86.1612 143.165L78.2371 147.721C78.1786 147.759 78.1099 147.778 78.039 147.777ZM14.9141 193.484C14.8494 193.484 14.786 193.467 14.7292 193.436C14.6724 193.406 14.624 193.361 14.5882 193.308C14.5524 193.254 14.5303 193.192 14.5238 193.128C14.5174 193.063 14.5267 192.999 14.5511 192.939C14.5836 192.859 14.6415 192.791 14.7159 192.747L39.416 178.483C39.4608 178.451 39.512 178.428 39.5662 178.416C39.6204 178.405 39.6765 178.405 39.7307 178.416C39.7851 178.427 39.8365 178.45 39.8814 178.482C39.9264 178.515 39.9639 178.557 39.9915 178.605C40.0336 178.677 40.0517 178.761 40.0434 178.844C40.035 178.927 40.0004 179.005 39.9448 179.067C39.9079 179.109 39.8627 179.142 39.8122 179.165L15.1121 193.428C15.0516 193.463 14.9836 193.482 14.9141 193.484ZM78.039 157.04C77.9524 157.039 77.8691 157.01 77.8005 156.957C77.732 156.904 77.6829 156.83 77.661 156.747C77.6385 156.663 77.6441 156.574 77.6767 156.495C77.7082 156.415 77.7667 156.347 77.841 156.303L85.7652 151.747C85.8102 151.714 85.8608 151.692 85.9159 151.68C85.9699 151.668 86.0262 151.668 86.0802 151.68C86.1342 151.691 86.186 151.713 86.231 151.746C86.2749 151.779 86.3132 151.82 86.3413 151.869C86.3683 151.916 86.3863 151.97 86.3919 152.025C86.3987 152.08 86.3931 152.135 86.3762 152.188C86.3593 152.241 86.3312 152.289 86.294 152.331C86.2569 152.373 86.2119 152.405 86.1612 152.429L78.2371 156.993C78.1763 157.025 78.1077 157.04 78.039 157.04ZM14.9141 202.755C14.8276 202.754 14.7438 202.725 14.6754 202.672C14.6068 202.619 14.5576 202.545 14.5354 202.462C14.5129 202.378 14.5183 202.29 14.5509 202.21C14.5835 202.13 14.6415 202.062 14.7159 202.018L37.4111 188.919C37.4559 188.887 37.5071 188.864 37.5613 188.853C37.6156 188.842 37.6716 188.84 37.7258 188.853C37.7801 188.864 37.8313 188.887 37.8763 188.919C37.9212 188.952 37.9588 188.993 37.9867 189.041C38.0145 189.089 38.032 189.142 38.038 189.197C38.0442 189.252 38.0386 189.308 38.0217 189.361C38.0048 189.413 37.9769 189.462 37.9399 189.503C37.903 189.545 37.8578 189.579 37.8073 189.601L15.1121 202.7C15.0529 202.737 14.9841 202.757 14.9141 202.755ZM78.039 166.311C77.9524 166.31 77.8691 166.282 77.8005 166.229C77.7324 166.176 77.6835 166.102 77.661 166.019C77.6385 165.934 77.6441 165.847 77.6767 165.766C77.7082 165.686 77.7667 165.619 77.841 165.574L85.7652 161.01C85.8566 160.958 85.9653 160.943 86.0672 160.971C86.1691 160.998 86.256 161.065 86.3087 161.157C86.3604 161.249 86.375 161.357 86.3469 161.459C86.3199 161.561 86.2535 161.647 86.1612 161.7L78.2371 166.256C78.1786 166.293 78.1088 166.313 78.039 166.311ZM14.9147 238.217C14.6529 238.217 14.3981 238.131 14.1903 237.972C13.9825 237.813 13.8331 237.589 13.7653 237.336C13.6974 237.083 13.7151 236.815 13.8156 236.573C13.9159 236.331 14.0933 236.129 14.3204 235.998L37.0156 222.891C37.1509 222.813 37.3002 222.762 37.4551 222.742C37.61 222.722 37.7673 222.732 37.9182 222.773C38.2228 222.855 38.4825 223.054 38.6401 223.328C38.7182 223.463 38.7688 223.612 38.7891 223.767C38.8094 223.922 38.7991 224.079 38.7586 224.23C38.7181 224.381 38.6483 224.522 38.5532 224.646C38.4581 224.77 38.3395 224.873 38.2042 224.951L15.5407 238.051C15.3524 238.165 15.1351 238.223 14.9147 238.217ZM78.0402 201.773C77.778 201.773 77.5237 201.688 77.3155 201.528C77.1075 201.369 76.9579 201.145 76.8901 200.892C76.8223 200.639 76.8402 200.371 76.9408 200.129C77.0409 199.887 77.2187 199.685 77.446 199.554L85.3702 194.99C85.5052 194.912 85.6549 194.862 85.809 194.84C85.9641 194.82 86.1217 194.831 86.2726 194.872C86.4234 194.912 86.5641 194.982 86.689 195.077C86.8128 195.172 86.9163 195.29 86.9939 195.425C87.0722 195.561 87.123 195.71 87.1434 195.865C87.1639 196.02 87.1536 196.177 87.1132 196.328C87.0727 196.479 87.0029 196.62 86.9073 196.744C86.8128 196.868 86.6935 196.972 86.5585 197.05L78.6343 201.607C78.4543 201.715 78.2495 201.772 78.0402 201.773ZM14.9143 212.027C14.8451 212.027 14.7771 212.008 14.7173 211.973C14.6574 211.939 14.6078 211.889 14.5736 211.829C14.5211 211.737 14.5067 211.629 14.5334 211.527C14.5601 211.425 14.6257 211.337 14.7161 211.283L45.6208 193.453C45.6661 193.427 45.716 193.411 45.7675 193.405C45.8191 193.399 45.8714 193.403 45.9214 193.417C46.0225 193.445 46.1082 193.511 46.1597 193.604C46.2117 193.694 46.2259 193.801 46.1992 193.902C46.1726 194.003 46.1071 194.089 46.0171 194.142L15.1123 211.971C15.0531 212.01 14.9843 212.029 14.9143 212.027ZM78.039 175.582C77.9704 175.582 77.9029 175.564 77.8421 175.53C77.7822 175.495 77.7326 175.445 77.6981 175.384C77.6462 175.293 77.632 175.184 77.6587 175.083C77.6854 174.981 77.7508 174.893 77.841 174.839L85.7652 170.281C85.8563 170.23 85.9632 170.215 86.0645 170.242C86.1646 170.269 86.2513 170.334 86.3042 170.424C86.357 170.517 86.3717 170.625 86.3447 170.727C86.3177 170.829 86.2524 170.917 86.1612 170.971L78.2371 175.527C78.1763 175.561 78.1088 175.58 78.039 175.582ZM17.8977 105.423C18.1099 105.054 18.1092 104.655 17.896 104.532C17.6828 104.409 17.3379 104.61 17.1255 104.979C16.9133 105.349 16.9141 105.747 17.1274 105.87C17.3406 105.992 17.6855 105.792 17.8977 105.423ZM17.9763 107.354C18.1885 106.986 18.1885 106.589 17.9763 106.466C17.764 106.344 17.4198 106.543 17.2076 106.911C16.9954 107.278 16.9954 107.675 17.2076 107.797C17.4198 107.92 17.7639 107.722 17.9763 107.354ZM20.1028 106.117C20.315 105.751 20.315 105.353 20.1028 105.231C19.8906 105.108 19.5465 105.306 19.3341 105.674C19.1219 106.042 19.1219 106.439 19.3341 106.562C19.5463 106.685 19.8904 106.485 20.1028 106.117ZM22.2417 104.883C22.4539 104.515 22.454 104.118 22.2417 103.995C22.0295 103.874 21.6854 104.072 21.4731 104.44C21.2608 104.808 21.2608 105.205 21.473 105.327C21.6854 105.449 22.0295 105.251 22.2417 104.883ZM24.3744 103.66C24.5868 103.292 24.5868 102.895 24.3745 102.772C24.1622 102.649 23.8181 102.848 23.6059 103.215C23.3936 103.583 23.3936 103.981 23.6059 104.103C23.8181 104.226 24.1622 104.027 24.3744 103.66ZM26.5134 102.416C26.7257 102.048 26.7257 101.651 26.5134 101.529C26.3012 101.406 25.9571 101.605 25.7448 101.973C25.5326 102.34 25.5326 102.738 25.7448 102.86C25.957 102.982 26.3012 102.784 26.5134 102.416ZM28.6477 101.192C28.86 100.825 28.86 100.428 28.6477 100.305C28.4355 100.183 28.0914 100.381 27.8791 100.749C27.6668 101.117 27.6668 101.514 27.8791 101.637C28.0913 101.759 28.4355 101.56 28.6477 101.192ZM30.7867 99.9498C30.9989 99.5818 30.9989 99.1846 30.7867 99.062C30.5744 98.9393 30.2303 99.1385 30.0181 99.5064C29.8058 99.8733 29.8058 100.271 30.018 100.393C30.2303 100.516 30.5744 100.318 30.7867 99.9498ZM32.9132 98.7221C33.1254 98.3542 33.1255 97.9569 32.9133 97.8343C32.7011 97.7116 32.3569 97.9108 32.1446 98.2776C31.9323 98.6456 31.9323 99.0428 32.1446 99.1655C32.3569 99.2881 32.701 99.089 32.9132 98.7221ZM35.0584 97.4911C35.2706 97.1231 35.2706 96.7259 35.0584 96.6032C34.8462 96.4806 34.5021 96.6798 34.2897 97.0466C34.0775 97.4146 34.0775 97.8118 34.2897 97.9344C34.502 98.0571 34.8462 97.8579 35.0584 97.4911ZM39.2036 93.008C39.4158 92.6389 39.415 92.2406 39.2018 92.1179C38.9886 91.9953 38.6436 92.1956 38.4314 92.5647C38.2192 92.9337 38.22 93.3321 38.4332 93.4547C38.6464 93.5774 38.9913 93.3771 39.2036 93.008ZM41.3442 91.7691C41.5564 91.4 41.5556 91.0005 41.3424 90.8779C41.1291 90.7563 40.7842 90.9555 40.572 91.3257C40.3597 91.6948 40.3604 92.0932 40.5737 92.2158C40.7869 92.3385 41.1318 92.1382 41.3442 91.7691ZM41.4581 93.7889C41.6704 93.421 41.6704 93.0238 41.4581 92.9011C41.2459 92.7785 40.9018 92.9765 40.6896 93.3445C40.4772 93.7124 40.4772 94.1097 40.6895 94.2323C40.9018 94.355 41.2459 94.1558 41.4581 93.7889ZM43.5971 92.5534C43.8094 92.1866 43.8094 91.7882 43.5972 91.6656C43.3849 91.544 43.0407 91.7421 42.8285 92.1101C42.6163 92.478 42.6163 92.8752 42.8285 92.9979C43.0407 93.1205 43.3848 92.9214 43.5971 92.5534ZM45.7313 91.3291C45.9437 90.9623 45.9437 90.5639 45.7313 90.4424C45.5191 90.3197 45.175 90.5178 44.9628 90.8858C44.7506 91.2537 44.7506 91.6509 44.9628 91.7736C45.175 91.8963 45.5191 91.6971 45.7313 91.3291ZM47.8704 90.0868C48.0826 89.7189 48.0826 89.3216 47.8704 89.199C47.6581 89.0763 47.3139 89.2755 47.1017 89.6423C46.8895 90.0103 46.8895 90.4075 47.1017 90.5302C47.3139 90.6528 47.658 90.4548 47.8704 90.0868ZM50.0031 88.8625C50.2153 88.4946 50.2153 88.0973 50.0031 87.9747C49.7909 87.8532 49.4468 88.0512 49.2344 88.4192C49.0222 88.7871 49.0222 89.1843 49.2344 89.307C49.4467 89.4285 49.7909 89.2305 50.0031 88.8625ZM52.142 87.6202C52.3542 87.2523 52.3542 86.855 52.142 86.7324C51.9298 86.6097 51.5857 86.8089 51.3734 87.1758C51.1611 87.5437 51.1611 87.9409 51.3734 88.0636C51.5857 88.1862 51.9298 87.9871 52.142 87.6202ZM54.2687 86.3926C54.481 86.0246 54.481 85.6274 54.2687 85.5047C54.0564 85.3821 53.7123 85.5812 53.5 85.9481C53.2878 86.316 53.2878 86.7133 53.5 86.8359C53.7122 86.9586 54.0564 86.7594 54.2687 86.3926ZM56.4152 85.1615C56.6276 84.7936 56.6276 84.3963 56.4153 84.2737C56.203 84.151 55.8589 84.3491 55.6467 84.717C55.4344 85.085 55.4344 85.4822 55.6467 85.6049C55.8589 85.7275 56.203 85.5284 56.4152 85.1615ZM58.5419 83.926C58.7541 83.558 58.7541 83.1608 58.5419 83.0381C58.3296 82.9155 57.9855 83.1146 57.7733 83.4815C57.561 83.8494 57.561 84.2467 57.7732 84.3693C57.9854 84.492 58.3296 84.2928 58.5419 83.926ZM60.687 82.6938C60.8992 82.327 60.8992 81.9297 60.687 81.8071C60.4747 81.6844 60.1306 81.8825 59.9184 82.2504C59.7061 82.6184 59.7061 83.0156 59.9183 83.1383C60.1306 83.2609 60.4747 83.0618 60.687 82.6938ZM64.7734 78.1106C64.9856 77.7404 64.9849 77.342 64.7717 77.2194C64.5584 77.0967 64.2134 77.297 64.0012 77.6661C63.789 78.0352 63.7898 78.4347 64.003 78.5573C64.2163 78.68 64.5611 78.4797 64.7734 78.1106ZM64.9525 80.2238C65.1647 79.8559 65.1647 79.4587 64.9525 79.336C64.7402 79.2133 64.3961 79.4125 64.1838 79.7805C63.9716 80.1473 63.9716 80.5445 64.1838 80.6672C64.3961 80.7898 64.7402 80.5918 64.9525 80.2238ZM67.0868 78.9917C67.299 78.6237 67.299 78.2265 67.0868 78.1038C66.8746 77.9812 66.5304 78.1803 66.3181 78.5483C66.1059 78.9151 66.1059 79.3135 66.3181 79.4361C66.5304 79.5577 66.8745 79.3596 67.0868 78.9917ZM69.226 77.7572C69.4375 77.3893 69.4375 76.9921 69.226 76.8694C69.0133 76.7467 68.6689 76.9459 68.4571 77.3139C68.2448 77.6807 68.2448 78.078 68.4571 78.2006C68.6689 78.3233 69.0133 78.1252 69.226 77.7572ZM71.3583 76.533C71.571 76.1661 71.571 75.7678 71.3583 75.6462C71.1457 75.5236 70.8025 75.7216 70.5898 76.0896C70.3771 76.4576 70.3771 76.8548 70.5898 76.9774C70.8025 77.1001 71.1457 76.9009 71.3583 76.533ZM73.4975 75.2907C73.7101 74.9227 73.7101 74.5255 73.4975 74.4028C73.2848 74.2802 72.9416 74.4793 72.7289 74.8462C72.5162 75.2141 72.5162 75.6114 72.7289 75.734C72.9416 75.8567 73.2848 75.6575 73.4975 75.2907ZM75.6242 74.0619C75.8358 73.6947 75.8358 73.2974 75.6242 73.1748C75.4116 73.0523 75.0672 73.251 74.8557 73.6186C74.643 73.9865 74.643 74.3837 74.8557 74.5063C75.0672 74.629 75.4116 74.4298 75.6242 74.0619ZM77.7712 72.8233C77.9828 72.4557 77.9828 72.0583 77.7712 71.9358C77.5586 71.8132 77.2142 72.012 77.0016 72.3796C76.79 72.7472 76.79 73.1447 77.0016 73.2672C77.2142 73.3897 77.5586 73.1909 77.7712 72.8233ZM79.8969 71.5956C80.1095 71.228 80.1095 70.8307 79.8969 70.7081C79.6853 70.5856 79.341 70.7843 79.1283 71.1519C78.9168 71.5195 78.9168 71.9169 79.1283 72.0394C79.341 72.162 79.6853 71.9634 79.8969 71.5956ZM82.0428 70.3648C82.2543 69.9972 82.2543 69.5997 82.0428 69.4772C81.8301 69.3546 81.4857 69.5535 81.2742 69.9211C81.0615 70.2887 81.0615 70.6861 81.2742 70.8086C81.4857 70.9311 81.8301 70.7325 82.0428 70.3648ZM86.0802 65.6954C86.2929 65.3261 86.2918 64.9274 86.0791 64.8048C85.8653 64.6823 85.521 64.8824 85.3083 65.2517C85.0967 65.621 85.0967 66.0197 85.3105 66.1422C85.5232 66.2648 85.8687 66.0648 86.0802 65.6954ZM86.3154 67.8982C86.5281 67.5306 86.5281 67.1331 86.3154 67.0106C86.1039 66.888 85.7595 67.0868 85.5469 67.4544C85.3342 67.8221 85.3342 68.2195 85.5469 68.342C85.7595 68.4646 86.1039 68.2658 86.3154 67.8982ZM15.8372 223.745C16.0496 223.377 16.0496 222.98 15.8373 222.857C15.625 222.735 15.2809 222.933 15.0687 223.301C14.8564 223.669 14.8563 224.066 15.0687 224.188C15.2809 224.311 15.625 224.112 15.8372 223.745ZM17.9747 222.514C18.1869 222.146 18.1869 221.749 17.9747 221.626C17.7625 221.504 17.4183 221.703 17.206 222.07C16.9938 222.438 16.9938 222.835 17.206 222.957C17.4182 223.08 17.7623 222.881 17.9747 222.514ZM20.1106 221.286C20.3228 220.918 20.3228 220.521 20.1106 220.399C19.8983 220.276 19.5541 220.475 19.3419 220.842C19.1297 221.21 19.1297 221.607 19.3419 221.73C19.5541 221.852 19.8982 221.653 20.1106 221.286ZM22.2479 220.047C22.4601 219.68 22.4602 219.282 22.2479 219.16C22.0357 219.037 21.6916 219.236 21.4793 219.603C21.267 219.971 21.267 220.368 21.4792 220.491C21.6916 220.613 22.0357 220.414 22.2479 220.047ZM24.3822 218.82C24.5944 218.452 24.5945 218.055 24.3822 217.932C24.17 217.809 23.8259 218.009 23.6136 218.375C23.4013 218.743 23.4013 219.141 23.6136 219.263C23.8259 219.386 24.17 219.187 24.3822 218.82ZM26.5134 217.576C26.7257 217.208 26.7257 216.811 26.5134 216.689C26.3012 216.566 25.9571 216.765 25.7448 217.133C25.5326 217.5 25.5326 217.898 25.7448 218.02C25.957 218.142 26.3012 217.944 26.5134 217.576ZM31.143 213.139C31.3554 212.77 31.3546 212.372 31.1413 212.249C30.9281 212.127 30.5832 212.327 30.371 212.696C30.1586 213.065 30.1594 213.464 30.3727 213.586C30.5859 213.709 30.9308 213.509 31.143 213.139ZM30.7867 215.118C30.9989 214.75 30.9989 214.353 30.7867 214.23C30.5744 214.107 30.2303 214.306 30.0181 214.674C29.8058 215.041 29.8058 215.438 30.018 215.561C30.2303 215.684 30.5744 215.486 30.7867 215.118ZM32.9194 213.886C33.1316 213.518 33.1317 213.12 32.9195 212.998C32.7073 212.875 32.363 213.074 32.1508 213.442C31.9385 213.809 31.9385 214.207 32.1508 214.33C32.363 214.452 32.7072 214.253 32.9194 213.886ZM35.0584 212.651C35.2706 212.283 35.2706 211.886 35.0584 211.763C34.8462 211.641 34.5021 211.84 34.2897 212.207C34.0775 212.575 34.0775 212.972 34.2897 213.094C34.502 213.217 34.8462 213.019 35.0584 212.651ZM37.1849 211.416C37.3972 211.048 37.3972 210.65 37.1849 210.528C36.9727 210.405 36.6286 210.604 36.4163 210.971C36.204 211.339 36.204 211.736 36.4163 211.859C36.6285 211.982 36.9726 211.782 37.1849 211.416ZM39.3316 210.185C39.5439 209.817 39.5439 209.419 39.3316 209.297C39.1194 209.174 38.7753 209.373 38.563 209.74C38.3507 210.108 38.3507 210.505 38.5629 210.628C38.7752 210.751 39.1194 210.551 39.3316 210.185ZM43.9241 205.692C44.1364 205.323 44.1356 204.924 43.9224 204.802C43.7091 204.68 43.3642 204.879 43.1519 205.249C42.9397 205.618 42.9405 206.016 43.1537 206.139C43.3669 206.262 43.7118 206.062 43.9241 205.692ZM43.6032 207.718C43.8156 207.35 43.8156 206.953 43.6034 206.83C43.3911 206.707 43.0469 206.907 42.8347 207.273C42.6225 207.641 42.6225 208.039 42.8347 208.161C43.0469 208.284 43.391 208.085 43.6032 207.718ZM45.7299 206.489C45.9421 206.122 45.9421 205.725 45.7299 205.602C45.5175 205.48 45.1734 205.678 44.9612 206.046C44.749 206.414 44.749 206.811 44.9612 206.934C45.1734 207.056 45.5175 206.857 45.7299 206.489ZM47.8688 205.247C48.0811 204.879 48.0811 204.482 47.8689 204.359C47.6567 204.236 47.3125 204.436 47.1001 204.803C46.8879 205.17 46.8879 205.568 47.1002 205.69C47.3125 205.813 47.6566 205.615 47.8688 205.247ZM52.4489 200.725C52.6612 200.355 52.6604 199.957 52.4472 199.834C52.2339 199.712 51.889 199.912 51.6768 200.281C51.4645 200.651 51.4653 201.05 51.6785 201.172C51.8917 201.295 52.2366 201.095 52.4489 200.725ZM52.142 202.788C52.3542 202.42 52.3542 202.023 52.142 201.9C51.9298 201.778 51.5857 201.977 51.3734 202.344C51.1611 202.712 51.1611 203.109 51.3734 203.231C51.5857 203.354 51.9298 203.155 52.142 202.788ZM54.2748 201.556C54.4871 201.188 54.4871 200.791 54.2748 200.668C54.0626 200.547 53.7185 200.745 53.5062 201.113C53.2939 201.479 53.2939 201.878 53.5062 202C53.7184 202.122 54.0626 201.924 54.2748 201.556ZM56.4137 200.322C56.626 199.954 56.626 199.556 56.4137 199.434C56.2015 199.311 55.8574 199.51 55.6451 199.877C55.4329 200.245 55.4329 200.642 55.6451 200.765C55.8573 200.888 56.2014 200.688 56.4137 200.322ZM58.5403 199.085C58.7526 198.718 58.7526 198.32 58.5403 198.198C58.3281 198.075 57.984 198.274 57.7717 198.641C57.5595 199.009 57.5594 199.407 57.7716 199.529C57.984 199.652 58.3281 199.453 58.5403 199.085ZM60.687 197.855C60.8992 197.487 60.8992 197.09 60.687 196.967C60.4747 196.844 60.1306 197.042 59.9184 197.41C59.7061 197.778 59.7061 198.176 59.9183 198.298C60.1306 198.421 60.4747 198.222 60.687 197.855ZM62.8135 196.627C63.0258 196.259 63.0258 195.862 62.8136 195.739C62.6014 195.617 62.2572 195.815 62.0449 196.183C61.8326 196.551 61.8326 196.948 62.0449 197.071C62.2572 197.193 62.6013 196.994 62.8135 196.627ZM64.9587 195.387C65.1709 195.02 65.1709 194.623 64.9587 194.501C64.7465 194.378 64.4023 194.576 64.19 194.944C63.9778 195.312 63.9778 195.709 64.19 195.832C64.4023 195.954 64.7464 195.755 64.9587 195.387ZM67.0868 194.16C67.299 193.792 67.2991 193.394 67.0868 193.272C66.8746 193.149 66.5304 193.348 66.3181 193.716C66.1059 194.083 66.1059 194.481 66.3181 194.604C66.5305 194.726 66.8746 194.527 67.0868 194.16ZM69.2237 192.917C69.4364 192.549 69.4364 192.152 69.2237 192.029C69.0121 191.907 68.6678 192.106 68.4556 192.473C68.2432 192.841 68.2432 193.238 68.4556 193.361C68.6678 193.483 69.0121 193.284 69.2237 192.917ZM73.7563 188.31C73.969 187.941 73.9678 187.543 73.754 187.42C73.5414 187.298 73.1959 187.498 72.9844 187.867C72.7717 188.236 72.7728 188.634 72.9855 188.757C73.1993 188.88 73.5436 188.679 73.7563 188.31ZM75.8909 187.067C76.1025 186.698 76.1025 186.3 75.8887 186.177C75.676 186.054 75.3305 186.255 75.119 186.624C74.9063 186.993 74.9074 187.391 75.1201 187.514C75.3339 187.636 75.6782 187.436 75.8909 187.067ZM75.6321 189.226C75.8437 188.858 75.8437 188.461 75.6321 188.339C75.4194 188.216 75.0751 188.415 74.8635 188.783C74.6509 189.15 74.6509 189.547 74.8635 189.67C75.0751 189.792 75.4194 189.594 75.6321 189.226ZM77.769 187.992C77.9817 187.624 77.9817 187.227 77.769 187.104C77.5574 186.981 77.2131 187.181 77.0004 187.547C76.7878 187.915 76.7878 188.313 77.0004 188.435C77.2131 188.558 77.5574 188.359 77.769 187.992ZM79.8969 186.755C80.1095 186.387 80.1095 185.99 79.8969 185.867C79.6853 185.745 79.341 185.944 79.1283 186.312C78.9168 186.679 78.9168 187.077 79.1283 187.199C79.341 187.321 79.6853 187.123 79.8969 186.755ZM82.0428 185.525C82.2543 185.157 82.2543 184.76 82.0428 184.638C81.8301 184.515 81.4857 184.714 81.2742 185.081C81.0615 185.449 81.0615 185.846 81.2742 185.969C81.4857 186.091 81.8301 185.892 82.0428 185.525ZM84.1684 184.297C84.3811 183.93 84.3811 183.531 84.1684 183.41C83.9568 183.287 83.6125 183.485 83.3998 183.853C83.1883 184.221 83.1883 184.618 83.3998 184.741C83.6125 184.864 83.9568 184.665 84.1684 184.297ZM86.3154 183.058C86.5281 182.691 86.5281 182.292 86.3154 182.17C86.1039 182.048 85.7595 182.246 85.5469 182.614C85.3342 182.982 85.3353 183.379 85.5469 183.502C85.7595 183.625 86.1039 183.426 86.3154 183.058ZM5.94342 55.3556C5.87085 55.3572 5.79934 55.338 5.73738 55.3001L1.06988 52.5187C0.979356 52.4643 0.913744 52.3766 0.887095 52.2744C0.860447 52.1722 0.87488 52.0636 0.927308 51.9719C0.983109 51.8829 1.07137 51.819 1.17342 51.7939C1.27547 51.7687 1.38329 51.7843 1.47408 51.8372L6.14147 54.6187C6.23199 54.6731 6.29761 54.7608 6.32428 54.863C6.35094 54.9652 6.33654 55.0737 6.28415 55.1654C6.24748 55.2228 6.19716 55.2702 6.13771 55.3034C6.07825 55.3366 6.0115 55.3545 5.94342 55.3556Z" fill="black"/>
<path d="M181.132 119.648L57.1782 191.185C53.7746 193.149 49.1389 193.439 46.2919 190.731C45.0847 189.582 44.3865 188.154 44.3865 185.614V108.2C44.3865 102.394 47.8997 95.7018 52.2403 93.197L179.941 19.4784C182.09 18.4014 183.765 17.9263 186.495 18.9774C189.624 20.1826 191.193 23.578 191.193 26.9316V107.018C191.163 112.803 185.465 117.157 181.132 119.648Z" fill="url(#paint0_linear_110_2008)"/>
<path d="M51.5872 194.818C51.5118 194.819 51.438 194.796 51.3766 194.752C50.5057 194.12 49.6708 193.591 48.9377 193.126C45.9763 191.239 44.0237 189.997 44.0237 185.657V108.2C44.0237 102.313 47.653 95.4395 52.059 92.884L179.76 19.151C183.041 17.5032 185.248 17.1766 191.374 21.2487C191.424 21.2807 191.464 21.3249 191.492 21.3769C191.52 21.429 191.535 21.4873 191.534 21.5463V107.017C191.534 112.824 185.966 117.273 181.292 119.974L51.7977 194.767C51.7349 194.806 51.661 194.823 51.5872 194.818ZM183.698 18.7411C183.696 18.7344 183.689 18.7301 183.682 18.7304C182.409 18.7854 181.167 19.149 180.065 19.7898L52.4219 93.5153C48.1901 95.9616 44.7495 102.552 44.7495 108.207V185.664C44.7495 189.605 46.4698 190.701 49.3298 192.523C50.7355 193.42 52.5326 193.5 53.9768 192.666L180.951 119.349C185.458 116.751 190.829 112.497 190.829 107.009V25.1314C190.829 23.0143 189.804 20.9712 187.922 20.0025C186.191 19.1121 184.871 18.754 183.713 18.7517C183.706 18.7517 183.7 18.7475 183.698 18.7411Z" fill="url(#paint1_linear_110_2008)"/>
<path d="M185.408 119.517L56.5162 193.932C52.161 196.436 48.6624 193.772 48.6624 187.994V110.937C48.6624 105.13 52.1828 98.4306 56.5162 95.9257L185.408 21.5104C189.763 19.0063 193.262 21.6701 193.262 27.448V104.521C193.262 110.291 189.748 117.012 185.408 119.517Z" fill="white"/>
<path d="M53.3945 195.231C52.631 195.234 51.8801 195.036 51.2169 194.658C49.3805 193.598 48.3135 191.166 48.3135 187.994V110.937C48.3135 105.043 51.9428 98.1683 56.3488 95.6139L185.24 21.198C187.244 20.0366 189.203 19.8914 190.743 20.7843C192.586 21.844 193.646 24.2756 193.646 27.4476V104.519C193.646 110.413 190.017 117.288 185.61 119.843L56.6972 194.244C55.7027 194.858 54.5632 195.199 53.3945 195.231ZM188.528 20.9294C187.487 20.9633 186.473 21.2713 185.589 21.8222L56.6972 96.2306C52.4727 98.669 49.0248 105.26 49.0248 110.922V187.994C49.0248 190.897 49.9539 193.076 51.5581 194.027C52.8718 194.788 54.5631 194.635 56.3343 193.612L185.225 119.197C189.458 116.758 192.899 110.167 192.899 104.506V27.4622C192.899 24.5587 191.976 22.3811 190.365 21.4302C189.808 21.1028 189.174 20.9299 188.528 20.9294Z" fill="black"/>
<path d="M82.6325 150.714L62.6281 162.27C61.3579 162.996 60.3271 162.218 60.3271 160.527V158.017C60.3396 157.155 60.5544 156.307 60.9541 155.543C61.3537 154.779 61.9271 154.12 62.6281 153.618L82.6325 142.062C83.9108 141.336 84.9415 142.105 84.9415 143.803V146.315C84.9289 147.178 84.7134 148.026 84.3125 148.791C83.9116 149.555 83.336 150.214 82.6325 150.714ZM114.222 132.488L94.2171 144.043C92.9467 144.77 91.9159 144 91.9159 142.301V139.79C91.9294 138.928 92.1432 138.08 92.5438 137.317C92.943 136.553 93.5162 135.893 94.2171 135.391L114.222 123.836C115.499 123.11 116.53 123.879 116.53 125.577V128.089C116.518 128.952 116.303 129.799 115.902 130.565C115.501 131.329 114.925 131.987 114.222 132.488ZM145.769 114.261L125.764 125.817C124.494 126.543 123.463 125.773 123.463 124.074V121.563C123.475 120.701 123.69 119.854 124.09 119.09C124.49 118.326 125.063 117.667 125.764 117.164L145.769 105.608C147.039 104.883 148.07 105.659 148.07 107.35V109.862C148.058 110.724 147.843 111.571 147.443 112.335C147.043 113.099 146.47 113.759 145.769 114.261ZM177.372 96.0414L157.367 107.59C156.097 108.316 155.066 107.546 155.066 105.848V103.337C155.08 102.475 155.294 101.627 155.694 100.863C156.093 100.099 156.666 99.4397 157.367 98.9379L177.372 87.3892C178.643 86.6634 179.673 87.4331 179.673 89.1244V91.6428C179.659 92.5046 179.444 93.3511 179.044 94.115C178.645 94.8788 178.072 95.5385 177.372 96.0414ZM77.1378 126.724L66.3803 132.931C64.522 134.005 63.0123 132.865 63.0123 130.382V119.168C63.0123 116.686 64.522 113.804 66.3803 112.73L77.1378 106.523C78.9956 105.45 80.5057 106.589 80.5057 109.071V120.286C80.5057 122.769 78.9956 125.651 77.1378 126.724Z" fill="url(#paint2_linear_110_2008)"/>
<path d="M63.0127 130.187C62.949 130.188 62.8862 130.172 62.8313 130.139C62.7763 130.108 62.7312 130.061 62.7006 130.006C62.653 129.923 62.64 129.825 62.6644 129.732C62.6764 129.686 62.6972 129.643 62.7259 129.605C62.7545 129.567 62.7903 129.536 62.8313 129.512L80.3247 119.415C80.4067 119.378 80.4994 119.372 80.585 119.4C80.6706 119.427 80.743 119.485 80.7883 119.563C80.8333 119.641 80.8479 119.733 80.8288 119.821C80.8108 119.909 80.7602 119.986 80.687 120.039L63.1942 130.143C63.138 130.172 63.0758 130.187 63.0127 130.187ZM63.0132 125.142C62.9499 125.142 62.8878 125.125 62.833 125.093C62.7783 125.061 62.7328 125.016 62.7011 124.961C62.6531 124.877 62.64 124.778 62.6644 124.684C62.6888 124.59 62.7489 124.51 62.8317 124.46L80.3247 114.363C80.3656 114.339 80.4109 114.323 80.458 114.316C80.5052 114.309 80.5532 114.312 80.5993 114.324C80.6454 114.336 80.6882 114.358 80.7264 114.387C80.7635 114.416 80.7951 114.452 80.8187 114.494C80.8671 114.578 80.8795 114.677 80.8558 114.771C80.8311 114.865 80.7714 114.945 80.6882 114.995L63.1947 125.092C63.1405 125.126 63.0774 125.143 63.0132 125.142ZM63.013 120.09C62.9337 120.089 62.8568 120.062 62.7944 120.013C62.7318 119.965 62.6867 119.897 62.6662 119.821C62.6456 119.744 62.6506 119.663 62.6805 119.59C62.7104 119.517 62.7634 119.455 62.8315 119.415L80.3247 109.311C80.3652 109.286 80.4113 109.27 80.4586 109.264C80.5047 109.257 80.5531 109.259 80.5993 109.271C80.6454 109.284 80.6882 109.305 80.7264 109.334C80.7635 109.364 80.7951 109.4 80.8187 109.441C80.866 109.526 80.8795 109.625 80.8547 109.718C80.8311 109.812 80.7703 109.893 80.6882 109.942L63.1945 120.039C63.1403 120.073 63.0771 120.091 63.013 120.09Z" fill="black"/>
<path d="M71.7602 127.697C70.3075 128.525 69.1541 127.646 69.1541 125.723V116.743C69.1541 114.82 70.3221 112.592 71.7602 111.757C73.2118 110.929 74.3652 111.808 74.3652 113.732V122.711C74.3652 124.634 73.2039 126.863 71.7602 127.697Z" fill="url(#paint3_linear_110_2008)"/>
<path d="M70.7215 128.357C70.4233 128.36 70.1296 128.283 69.8719 128.132C69.4956 127.858 69.1976 127.489 69.0077 127.064C68.8178 126.639 68.7429 126.171 68.7905 125.708V116.743C68.7905 114.675 70.0171 112.344 71.5778 111.445C71.8774 111.236 72.2283 111.113 72.5927 111.089C72.9571 111.064 73.3214 111.14 73.6461 111.307C74.023 111.581 74.3212 111.949 74.5103 112.375C74.7004 112.8 74.7758 113.268 74.7286 113.732V122.71C74.7286 124.779 73.5088 127.109 71.9413 128.009C71.5722 128.23 71.1515 128.35 70.7215 128.357ZM72.7976 111.793C72.4949 111.809 72.2012 111.899 71.9413 112.054C71.2009 112.591 70.5963 113.293 70.1757 114.105C69.7541 114.917 69.5283 115.815 69.5163 116.73V125.708C69.4751 126.045 69.5201 126.387 69.647 126.702C69.774 127.017 69.9787 127.294 70.2421 127.509C70.4593 127.603 70.6967 127.64 70.9319 127.615C71.1671 127.592 71.3922 127.507 71.5846 127.37C72.3246 126.833 72.9292 126.131 73.3502 125.32C73.7712 124.508 73.997 123.61 74.0095 122.696V113.717C74.0512 113.38 74.0064 113.038 73.8794 112.723C73.7524 112.408 73.5475 112.131 73.2837 111.917C73.1333 111.841 72.9662 111.803 72.7976 111.808V111.793ZM87.6118 113.76C87.5161 113.82 87.4047 113.848 87.2922 113.84C86.9951 113.804 86.8927 113.411 87.075 112.969C87.2348 112.584 87.3203 112.173 87.3282 111.757C87.344 111.433 87.2573 111.113 87.0818 110.842C86.8927 110.61 86.9873 110.116 87.2855 109.725C87.5825 109.332 87.9674 109.231 88.1485 109.47C88.4636 109.927 88.62 110.476 88.5919 111.031C88.5773 111.74 88.4265 112.44 88.1485 113.093C88.0484 113.368 87.8593 113.602 87.6118 113.76ZM89.9208 114.029C89.8274 114.092 89.7138 114.12 89.6013 114.109C89.3042 114.109 89.2029 113.688 89.3841 113.246C89.7853 112.281 90.0021 111.249 90.0232 110.204C90.0604 109.388 89.8364 108.583 89.3841 107.903C89.3076 107.716 89.2872 107.51 89.3256 107.311C89.3647 107.113 89.4605 106.93 89.6013 106.786C89.8994 106.407 90.2843 106.298 90.4587 106.538C91.0291 107.396 91.3161 108.411 91.279 109.441C91.2505 110.776 90.9722 112.093 90.4587 113.326C90.3653 113.615 90.1751 113.862 89.9208 114.029ZM92.2209 114.312C92.1241 114.374 92.0093 114.404 91.8945 114.392C91.5975 114.355 91.503 113.964 91.6841 113.52C92.3334 111.978 92.6856 110.325 92.7216 108.65C92.7826 107.344 92.4186 106.053 91.6841 104.971C91.6057 104.784 91.5839 104.578 91.6213 104.38C91.6587 104.181 91.7537 103.997 91.8945 103.852C92.1916 103.467 92.5765 103.359 92.7588 103.591C93.6273 104.872 94.0551 106.4 93.9774 107.946C93.938 109.915 93.5251 111.859 92.7588 113.673C92.6508 113.937 92.4627 114.161 92.2209 114.312Z" fill="black"/>
<path d="M94.5288 114.566C94.4309 114.626 94.3172 114.654 94.2025 114.646C93.9054 114.646 93.8109 114.218 93.992 113.775C94.893 111.653 95.3855 109.38 95.4436 107.075C95.5191 105.269 95.0101 103.488 93.992 101.994C93.9135 101.808 93.8916 101.602 93.929 101.404C93.9664 101.205 94.0615 101.021 94.2025 100.876C94.5007 100.499 94.8844 100.383 95.0667 100.623C96.1947 102.308 96.7542 104.309 96.6634 106.335C96.6094 108.929 96.067 111.491 95.0667 113.884C94.9654 114.164 94.7775 114.403 94.5288 114.566ZM94.261 163.315L61.6337 182.188C60.9078 182.609 60.3271 182.188 60.3271 181.201V180.62C60.3339 180.132 60.4557 179.652 60.6827 179.219C60.9097 178.786 61.2355 178.413 61.6337 178.13L94.261 159.258C94.9868 158.844 95.5674 159.258 95.5674 160.245V160.796C95.564 161.29 95.4438 161.775 95.2167 162.213C94.9897 162.65 94.6621 163.028 94.261 163.315ZM257.777 40.62L253.712 38.6185C253.24 38.3608 252.706 38.2415 252.17 38.2744C251.634 38.3073 251.119 38.4907 250.682 38.8035L123.87 112.018C121.382 113.459 119.36 117.317 119.36 120.635V177.392C119.36 179.25 119.997 180.545 120.992 181.073L124.748 182.89L257.777 40.62Z" fill="black"/>
<path d="M124.775 183.253C124.725 183.251 124.676 183.24 124.631 183.218L120.868 181.402C119.675 180.772 119.017 179.346 119.017 177.4V120.642C119.017 117.215 121.114 113.219 123.699 111.731L250.511 38.516C250.992 38.1781 251.557 37.9795 252.143 37.9421C252.73 37.9046 253.315 38.0297 253.835 38.3036L257.907 40.2982C257.955 40.323 257.995 40.3579 258.028 40.4006C258.06 40.4433 258.082 40.4927 258.092 40.545C258.101 40.5977 258.098 40.6517 258.082 40.7027C258.066 40.7538 258.039 40.8008 258.003 40.8398L125.021 183.13C124.991 183.166 124.953 183.195 124.911 183.216C124.868 183.238 124.822 183.25 124.775 183.253ZM252.465 38.6189C251.894 38.6388 251.339 38.8065 250.853 39.1055L124.041 112.321C121.649 113.692 119.702 117.434 119.702 120.642V177.4C119.702 179.058 120.23 180.292 121.149 180.779L124.699 182.493L257.215 40.7301L253.616 38.9616L253.527 38.9273C253.211 38.7224 252.841 38.6152 252.465 38.6189Z" fill="black"/>
<path d="M254.72 109.565L127.908 182.787C125.42 184.22 123.398 182.699 123.398 179.36V122.609C123.398 119.285 125.455 115.425 127.908 113.993L254.72 40.7714C257.209 39.3387 259.231 40.8606 259.231 44.1988V100.956C259.231 104.273 257.209 108.133 254.72 109.565Z" fill="white"/>
<path d="M126.111 183.664C125.645 183.671 125.186 183.552 124.782 183.322C123.678 182.684 123.047 181.265 123.047 179.373V122.622C123.047 119.196 125.152 115.199 127.729 113.712L254.541 40.4969C255.018 40.1652 255.575 39.968 256.154 39.926C256.732 39.8838 257.311 39.9982 257.831 40.257C258.935 40.8944 259.565 42.3133 259.565 44.2052V100.955C259.565 104.383 257.461 108.379 254.883 109.866L128.072 183.082C127.481 183.445 126.804 183.646 126.111 183.664ZM256.508 40.5929C255.935 40.613 255.377 40.7832 254.891 41.0864L128.079 114.301C125.687 115.673 123.74 119.415 123.74 122.622V179.373C123.74 180.998 124.246 182.218 125.11 182.725C125.527 182.922 125.987 183.003 126.446 182.962C126.904 182.919 127.342 182.755 127.715 182.486L254.521 109.277C256.913 107.906 258.86 104.164 258.86 100.955V44.2052C258.86 42.5807 258.352 41.3606 257.488 40.8534C257.19 40.681 256.852 40.591 256.508 40.5929Z" fill="black"/>
<path d="M245.431 51.6157L137.188 114.075C137.188 119.861 133.13 126.888 128.126 129.78V166.7C133.13 163.807 137.188 166.151 137.188 171.93L245.431 109.441C245.431 103.656 249.488 96.6303 254.493 93.7384V56.8184C249.488 59.7385 245.431 57.3942 245.431 51.6157Z" fill="url(#paint4_linear_110_2008)"/>
<path d="M202.992 118.497C209.447 107.316 209.447 95.2317 202.991 91.5048C196.536 87.7779 186.07 93.8194 179.615 104.999C173.16 116.18 173.162 128.264 179.616 131.991C186.072 135.718 196.538 129.676 202.992 118.497Z" fill="#E2E2E7"/>
<path d="M171.74 222.503C179.613 208.869 179.613 194.133 171.741 189.588C163.87 185.044 151.108 192.412 143.237 206.046C135.365 219.681 135.365 234.417 143.236 238.961C151.107 243.506 163.869 236.137 171.74 222.503Z" fill="#467CFD"/>
<path d="M148.522 240.538C146.649 240.562 144.804 240.087 143.175 239.162C139.303 236.929 137.172 232.232 137.172 225.944C137.172 213.038 146.258 197.312 157.426 190.863C162.874 187.735 168.004 187.214 171.877 189.451C175.749 191.688 177.875 196.377 177.875 202.67C177.875 215.575 168.791 231.301 157.622 237.75C154.415 239.604 151.318 240.538 148.522 240.538ZM166.511 188.467C163.773 188.467 160.754 189.385 157.606 191.203C146.547 197.59 137.548 213.174 137.548 225.947C137.548 232.091 139.608 236.667 143.355 238.826C147.101 240.984 152.092 240.488 157.411 237.413C168.47 231.031 177.469 215.443 177.469 202.674C177.469 196.53 175.408 191.955 171.665 189.792C170.1 188.903 168.327 188.446 166.527 188.467H166.511Z" fill="#272F3F"/>
<path d="M174.05 223.802C181.922 210.168 181.923 195.432 174.051 190.887C166.18 186.343 153.419 193.711 145.546 207.346C137.675 220.98 137.675 235.717 145.545 240.261C153.416 244.805 166.179 237.437 174.05 223.802Z" fill="#C2D6FE"/>
<path d="M150.828 241.837C148.955 241.862 147.108 241.388 145.478 240.464C141.61 238.227 139.479 233.535 139.479 227.246C139.479 214.34 148.564 198.611 159.732 192.162C165.181 189.034 170.292 188.517 174.18 190.75C178.066 192.984 180.183 197.681 180.183 203.969C180.183 216.874 171.098 232.603 159.928 239.052C156.721 240.902 153.625 241.837 150.828 241.837ZM168.818 189.769C166.08 189.769 163.058 190.684 159.913 192.507C148.853 198.892 139.855 214.477 139.855 227.25C139.855 233.394 141.915 237.965 145.658 240.128C149.4 242.291 154.394 241.787 159.737 238.717C170.796 232.33 179.795 216.746 179.795 203.973C179.795 197.829 177.735 193.257 173.987 191.094C172.418 190.203 170.639 189.745 168.834 189.769H168.818Z" fill="black"/>
<path d="M172.765 203.957L163.441 209.339V198.576C163.441 197.403 162.609 196.906 161.58 197.5L158.084 199.519C157.541 199.873 157.089 200.35 156.765 200.911C156.441 201.472 156.254 202.102 156.218 202.749V213.512L146.899 218.893C146.356 219.247 145.905 219.724 145.58 220.285C145.256 220.846 145.069 221.476 145.033 222.124V226.159C145.033 227.332 145.87 227.829 146.899 227.235L156.218 221.853V232.616C156.218 233.789 157.056 234.285 158.084 233.691L161.58 231.674C162.123 231.319 162.574 230.842 162.897 230.281C163.221 229.72 163.408 229.09 163.441 228.443V217.681L172.765 212.299C173.308 211.946 173.759 211.469 174.083 210.909C174.407 210.348 174.595 209.719 174.631 209.073V205.037C174.638 203.859 173.794 203.374 172.765 203.957Z" fill="url(#paint5_linear_110_2008)"/>
<path d="M148.119 48.7221C156.227 34.6757 156.229 19.4933 148.119 14.8112C140.009 10.1292 126.86 17.7205 118.751 31.7668C110.642 45.8132 110.642 60.9956 118.75 65.6776C126.86 70.3597 140.009 62.7685 148.119 48.7221Z" fill="black"/>
<path d="M124.2 67.2997C122.269 67.3236 120.367 66.8345 118.687 65.8825C114.703 63.5808 112.506 58.7434 112.506 52.2625C112.506 38.9778 121.866 22.7655 133.373 16.1232C138.983 12.8929 144.276 12.3639 148.257 14.6696C152.238 16.9752 154.439 21.8045 154.439 28.2854C154.439 41.5701 145.079 57.7823 133.576 64.4248C130.268 66.3347 127.078 67.2997 124.2 67.2997ZM142.745 13.656C139.939 13.656 136.814 14.6009 133.576 16.4826C122.18 23.0644 112.909 39.1191 112.909 52.2747C112.909 58.6061 115.033 63.3183 118.89 65.5432C122.746 67.7681 127.89 67.2553 133.373 64.0896C144.769 57.5118 154.035 41.453 154.035 28.2975C154.035 21.9701 151.912 17.2579 148.056 15.029C146.438 14.1089 144.606 13.6351 142.745 13.656Z" fill="black"/>
<path d="M150.398 49.6962C158.508 35.6498 158.508 20.4673 150.4 15.7853C142.29 11.1033 129.141 18.6946 121.031 32.741C112.922 46.7874 112.921 61.9697 121.031 66.6517C129.141 71.3338 142.29 63.7425 150.398 49.6962Z" fill="url(#paint6_linear_110_2008)"/>
<path d="M126.481 68.2687C124.552 68.2947 122.651 67.8055 120.974 66.8514C116.984 64.5498 114.792 59.7124 114.792 53.2356C114.792 39.9468 124.151 23.7345 135.655 17.0922C141.268 13.8618 146.558 13.3369 150.542 15.6385C154.528 17.9402 156.725 22.7776 156.725 29.2544C156.725 42.5431 147.365 58.7553 135.857 65.3978C132.554 67.3037 129.364 68.2687 126.481 68.2687ZM145.031 14.625C142.204 14.625 139.1 15.5699 135.857 17.4516C124.462 24.0293 115.194 40.0841 115.194 53.2437C115.194 59.5711 117.319 64.2833 121.175 66.5082C125.031 68.7331 130.175 68.2202 135.655 65.0545C147.05 58.4767 156.321 42.4221 156.321 29.2625C156.321 22.935 154.197 18.2228 150.341 15.9979C148.724 15.0768 146.891 14.6029 145.031 14.625Z" fill="black"/>
<path d="M142.124 41.1864C141.772 40.6206 141.287 40.1493 140.711 39.8136C140.147 39.4873 139.56 39.2038 138.955 38.9656L137.485 38.3237C136.746 38.0705 136.032 37.7488 135.353 37.3626C135.122 37.2447 134.927 37.0656 134.791 36.8449C134.656 36.6239 134.583 36.37 134.582 36.1108C134.583 35.6895 134.701 35.2768 134.925 34.9196C135.145 34.5454 135.459 34.2362 135.838 34.0232C136.012 33.9022 136.213 33.8248 136.424 33.7974C136.634 33.77 136.849 33.7935 137.048 33.8658C137.435 34.0237 137.765 34.2937 137.997 34.641C138.261 35.0113 138.466 35.4198 138.607 35.8523L142.371 31.6974C141.913 30.0015 141.105 28.9462 139.948 28.5317C139.182 28.283 138.356 28.283 137.59 28.5317V23.9971L133.923 26.117V30.6556C133.428 31.0829 132.965 31.5444 132.534 32.0366C131.567 33.132 130.774 34.3701 130.184 35.7071C129.62 36.9451 129.321 38.2876 129.308 39.648C129.308 41.1394 129.624 42.204 130.257 42.8421C131.003 43.5525 131.887 44.1022 132.853 44.4572L134.359 45.0387C135.14 45.3003 135.891 45.6427 136.6 46.0602C136.814 46.217 136.984 46.4259 137.093 46.667C137.203 46.9081 137.248 47.1733 137.226 47.4372C137.224 47.8312 137.106 48.2158 136.887 48.5436C136.623 48.9259 136.273 49.2412 135.866 49.4642C135.618 49.6385 135.324 49.7364 135.022 49.7457C134.719 49.7549 134.42 49.6754 134.161 49.5167C133.551 49.0708 133.085 48.4559 132.821 47.7481L128.844 52.0687C129.608 53.7511 130.594 54.7135 131.799 54.9558C132.509 55.0743 133.237 55.0231 133.923 54.8064V58.4849L137.59 56.369V52.8924C138.251 52.3876 138.867 51.8255 139.431 51.2126C140.398 50.1557 141.19 48.9506 141.777 47.6431C142.361 46.3767 142.667 44.9998 142.674 43.6052C142.721 42.7634 142.531 41.9253 142.124 41.1864Z" fill="white"/>
</g>
<defs>
<linearGradient id="paint0_linear_110_2008" x1="191.193" y1="113.507" x2="44.3865" y2="113.507" gradientUnits="userSpaceOnUse">
<stop stop-color="#555DFD"/>
<stop offset="1" stop-color="#379FFE"/>
</linearGradient>
<linearGradient id="paint1_linear_110_2008" x1="191.534" y1="113.549" x2="44.0237" y2="113.549" gradientUnits="userSpaceOnUse">
<stop stop-color="#555DFD"/>
<stop offset="1" stop-color="#379FFE"/>
</linearGradient>
<linearGradient id="paint2_linear_110_2008" x1="179.673" y1="127.874" x2="60.3271" y2="127.874" gradientUnits="userSpaceOnUse">
<stop stop-color="#555DFD"/>
<stop offset="1" stop-color="#379FFE"/>
</linearGradient>
<linearGradient id="paint3_linear_110_2008" x1="74.3652" y1="120.396" x2="69.1541" y2="120.396" gradientUnits="userSpaceOnUse">
<stop stop-color="#555DFD"/>
<stop offset="1" stop-color="#379FFE"/>
</linearGradient>
<linearGradient id="paint4_linear_110_2008" x1="254.493" y1="116.63" x2="128.126" y2="116.63" gradientUnits="userSpaceOnUse">
<stop stop-color="#555DFD"/>
<stop offset="1" stop-color="#379FFE"/>
</linearGradient>
<linearGradient id="paint5_linear_110_2008" x1="174.631" y1="217.077" x2="145.033" y2="217.077" gradientUnits="userSpaceOnUse">
<stop stop-color="#555DFD"/>
<stop offset="1" stop-color="#379FFE"/>
</linearGradient>
<linearGradient id="paint6_linear_110_2008" x1="156.481" y1="43.3838" x2="114.949" y2="43.3838" gradientUnits="userSpaceOnUse">
<stop stop-color="#555DFD"/>
<stop offset="1" stop-color="#379FFE"/>
</linearGradient>
<clipPath id="clip0_110_2008">
<rect width="260" height="260" fill="white"/>
</clipPath>
</defs>
</svg>
