<svg width="222" height="260" viewBox="0 0 222 260" fill="none" xmlns="http://www.w3.org/2000/svg">
<path d="M108.623 69.0718L20.5927 119.877C17.7023 117.8 15.6997 117.444 15.6997 113.898V61.2932C15.6997 57.3472 18.087 52.7995 21.0366 51.0978L107.814 1.0033C109.959 -0.0719988 111.41 -0.264323 115.459 2.41895V60.4892C115.44 64.4205 111.568 67.3799 108.623 69.0718Z" fill="#545FFD"/>
<path d="M20.5926 120.152C20.5414 120.153 20.4912 120.137 20.4495 120.108C19.8576 119.679 19.2904 119.318 18.7922 119.002C16.7798 117.72 15.4529 116.876 15.4529 113.928V61.2927C15.4529 57.2923 17.9191 52.6213 20.9131 50.885L107.69 0.780823C109.92 -0.338866 111.42 -0.560915 115.582 2.20622C115.617 2.22797 115.644 2.25799 115.663 2.29333C115.682 2.32876 115.691 2.36833 115.691 2.40849V60.4887C115.691 64.4347 111.908 67.4582 108.732 69.2931L20.7356 120.118C20.693 120.144 20.6427 120.157 20.5926 120.152ZM110.364 0.4947C109.495 0.530742 108.649 0.777942 107.898 1.21488L21.1598 51.3142C18.2841 52.9765 15.9461 57.4551 15.9461 61.2976V113.933C15.9461 116.611 17.1151 117.356 19.0585 118.593C19.5222 118.889 20.045 119.225 20.6073 119.62L108.499 68.869C111.562 67.1032 115.212 64.2127 115.212 60.4838V2.54166C112.973 1.05208 111.548 0.509463 110.369 0.509463L110.364 0.4947Z" fill="black"/>
<path d="M111.528 68.9826L23.9419 119.551C20.9825 121.252 18.605 119.442 18.605 115.516V63.1523C18.605 59.2063 20.9972 54.6537 23.9419 52.952L111.528 2.384C114.488 0.68232 116.866 2.49246 116.866 6.41876V58.792C116.866 62.7133 114.478 67.2809 111.528 68.9826Z" fill="white"/>
<path d="M21.8207 120.433C21.3018 120.435 20.7916 120.301 20.341 120.044C19.093 119.323 18.3679 117.671 18.3679 115.515V63.1522C18.3679 59.1469 20.8342 54.4759 23.8282 52.7396L111.415 2.17173C112.776 1.38255 114.108 1.28393 115.153 1.89063C116.406 2.61071 117.126 4.26308 117.126 6.41859V58.7918C117.126 62.7969 114.66 67.4681 111.666 69.2044L24.065 119.762C23.3893 120.18 22.615 120.412 21.8207 120.433ZM113.649 1.98925C112.941 2.01233 112.252 2.22159 111.651 2.59594L24.065 53.1589C21.1942 54.8162 18.8513 59.295 18.8513 63.1423V115.515C18.8513 117.489 19.4827 118.968 20.5728 119.615C21.4656 120.132 22.6148 120.029 23.8183 119.333L111.405 68.7653C114.28 67.108 116.618 62.6292 116.618 58.7819V6.42844C116.618 4.4555 115.992 2.97567 114.897 2.32951C114.519 2.10702 114.088 1.98956 113.649 1.98925Z" fill="black"/>
<path d="M41.6893 90.1826L28.0953 98.035C27.2321 98.5281 26.5317 98.0005 26.5317 96.8509V95.1452C26.5401 94.5592 26.686 93.9834 26.9577 93.4641C27.229 92.9448 27.6187 92.4967 28.0953 92.156L41.6893 84.3027C42.5574 83.8095 43.2578 84.3332 43.2578 85.4867V87.1934C43.2494 87.7799 43.1031 88.3561 42.8306 88.8755C42.5583 89.3949 42.1673 89.8428 41.6893 90.1826ZM63.1548 77.7973L49.5614 85.6501C48.6982 86.1432 47.9978 85.6206 47.9978 84.466V82.7593C48.0062 82.1737 48.1521 81.5982 48.4237 81.0792C48.6952 80.5599 49.0849 80.1115 49.5614 79.7704L63.1548 71.9179C64.0229 71.4246 64.7237 71.9474 64.7237 73.1016V74.8082C64.7157 75.3947 64.5693 75.9709 64.2965 76.4901C64.024 77.0095 63.6328 77.4574 63.1548 77.7973ZM84.5919 65.4115L70.9983 73.264C70.1351 73.7573 69.4344 73.2345 69.4344 72.0804V70.3736C69.4432 69.7877 69.5889 69.2122 69.8605 68.693C70.1322 68.1738 70.5219 67.7257 70.9983 67.3846L84.5919 59.532C85.4551 59.0387 86.1559 59.5665 86.1559 60.7159V62.4225C86.1472 63.0083 86.0012 63.5839 85.7297 64.1031C85.458 64.6222 85.0683 65.0704 84.5919 65.4115ZM106.068 53.0309L92.4738 60.8785C91.6106 61.3717 90.9108 60.8489 90.9108 59.6947V57.9881C90.9192 57.4023 91.0648 56.8267 91.336 56.3075C91.6077 55.7883 91.9974 55.3401 92.4738 54.9989L106.068 47.1514C106.932 46.6581 107.631 47.181 107.631 48.3302V50.0418C107.622 50.6274 107.475 51.2026 107.204 51.7216C106.933 52.2406 106.544 52.6889 106.068 53.0309ZM37.955 73.8809L30.645 78.0982C29.3823 78.8282 28.3564 78.0538 28.3564 76.3669V68.7462C28.3564 67.0593 29.3823 65.101 30.645 64.371L37.955 60.1538C39.2177 59.4237 40.2437 60.1981 40.2437 61.8851V69.5058C40.2437 71.1927 39.2177 73.1508 37.955 73.8809Z" fill="url(#paint0_linear_110_2111)"/>
<path d="M28.3565 76.2335C28.3133 76.2343 28.2706 76.2232 28.2332 76.2015C28.1958 76.1798 28.1651 76.1482 28.1444 76.1102C28.112 76.0539 28.1032 75.9871 28.1198 75.9243C28.1364 75.8614 28.1772 75.8077 28.2332 75.7749L40.1205 68.9137C40.1621 68.8951 40.2079 68.8882 40.2531 68.894C40.2982 68.8998 40.3409 68.918 40.3764 68.9465C40.4118 68.975 40.4387 69.0128 40.4541 69.0556C40.4694 69.0985 40.4727 69.1447 40.4634 69.1893C40.4508 69.2491 40.4165 69.302 40.3671 69.3379L28.4798 76.2039C28.4417 76.2236 28.3993 76.2337 28.3565 76.2335ZM28.3568 72.8057C28.3138 72.8053 28.2716 72.7938 28.2344 72.7722C28.1972 72.7506 28.1663 72.7196 28.1447 72.6824C28.1121 72.6253 28.1032 72.5577 28.1198 72.4941C28.1364 72.4305 28.1772 72.3759 28.2335 72.342L40.1208 65.4809C40.1486 65.4643 40.1794 65.4533 40.2114 65.4487C40.2434 65.4442 40.276 65.446 40.3073 65.4542C40.3386 65.4625 40.3679 65.477 40.3935 65.4968C40.4191 65.5166 40.4404 65.5414 40.4563 65.5696C40.4888 65.6267 40.4978 65.6943 40.4812 65.7579C40.4646 65.8215 40.4238 65.8761 40.3675 65.9101L28.4801 72.7711C28.4433 72.7945 28.4004 72.8065 28.3568 72.8057ZM28.3567 69.3722C28.3029 69.3716 28.2507 69.3535 28.2082 69.3205C28.1656 69.2875 28.135 69.2416 28.1211 69.1896C28.1071 69.1376 28.1105 69.0825 28.1308 69.0326C28.1511 68.9827 28.1871 68.9409 28.2334 68.9134L40.1207 62.0473C40.1484 62.0306 40.1792 62.0197 40.2112 62.0151C40.2433 62.0105 40.2759 62.0125 40.3071 62.0208C40.3384 62.0291 40.3677 62.0436 40.3933 62.0634C40.4189 62.0832 40.4402 62.1079 40.4561 62.1361C40.4886 62.1932 40.4976 62.2608 40.481 62.3244C40.4644 62.388 40.4236 62.4426 40.3673 62.4765L28.48 69.3376C28.4432 69.361 28.4003 69.373 28.3567 69.3722Z" fill="black"/>
<path d="M34.3003 74.5413C33.3138 75.1037 32.5295 74.5069 32.5295 73.1998V67.0982C32.5295 65.7911 33.3236 64.2767 34.3003 63.7095C35.2868 63.1472 36.0711 63.7442 36.0711 65.0513V71.1527C36.0711 72.4598 35.2819 73.9741 34.3003 74.5413Z" fill="url(#paint1_linear_110_2111)"/>
<path d="M33.5949 74.9903C33.3922 74.9923 33.1928 74.9394 33.0178 74.8373C32.7619 74.651 32.5594 74.4008 32.4305 74.1118C32.3015 73.8227 32.2506 73.5049 32.2828 73.19V67.0982C32.2828 65.6925 33.1164 64.1092 34.177 63.4975C34.3806 63.3557 34.6191 63.272 34.8668 63.2555C35.1145 63.239 35.3619 63.2903 35.5827 63.4038C35.8385 63.5903 36.041 63.8405 36.1699 64.1296C36.2989 64.4186 36.3498 64.7365 36.3176 65.0514V71.1528C36.3176 72.5585 35.489 74.1419 34.4235 74.7535C34.1728 74.9037 33.8871 74.9854 33.5949 74.9903ZM35.0056 63.7343C34.8 63.7452 34.6002 63.8062 34.4235 63.9119C33.9206 64.2766 33.5098 64.7537 33.2238 65.3052C32.9378 65.8566 32.7845 66.4672 32.7761 67.0884V73.19C32.748 73.419 32.7785 73.6513 32.8648 73.8653C32.9511 74.0793 33.0903 74.2678 33.2694 74.4132C33.4166 74.4776 33.5781 74.5028 33.738 74.4864C33.8978 74.4699 34.0508 74.4124 34.1819 74.3194C34.6847 73.9547 35.0955 73.4776 35.3815 72.9261C35.6675 72.3747 35.8208 71.7641 35.8293 71.1429V65.0414C35.8575 64.8125 35.827 64.5801 35.7407 64.3661C35.6544 64.1521 35.5151 63.9636 35.336 63.8182C35.2338 63.7663 35.1202 63.7409 35.0056 63.7442V63.7343ZM45.0725 65.0709C45.0076 65.1112 44.9317 65.1302 44.8554 65.1251C44.6533 65.1005 44.5842 64.8342 44.7075 64.5333C44.816 64.2719 44.8745 63.9924 44.8801 63.7095C44.8903 63.4899 44.8316 63.2727 44.7124 63.0881C44.5842 62.9302 44.6482 62.5948 44.8505 62.3284C45.0528 62.0621 45.3142 61.993 45.4375 62.1558C45.6517 62.4666 45.7574 62.8393 45.7384 63.2162C45.7285 63.6981 45.6263 64.1737 45.4375 64.6171C45.3693 64.8046 45.2409 64.9641 45.0725 65.0709ZM46.6419 65.2537C46.578 65.2966 46.5013 65.3158 46.4248 65.3081C46.2226 65.3081 46.1536 65.0219 46.2769 64.7211C46.5496 64.0654 46.6969 63.3643 46.711 62.6543C46.7361 62.1002 46.5841 61.5526 46.2769 61.0907C46.2249 60.9635 46.2112 60.8238 46.2375 60.6889C46.2637 60.5539 46.3289 60.4296 46.4248 60.3312C46.6271 60.0747 46.8885 60.0006 47.0068 60.1634C47.3949 60.7463 47.5899 61.4366 47.5642 62.1364C47.5452 63.0432 47.3561 63.9383 47.0068 64.7753C46.9435 64.9719 46.8147 65.1408 46.6419 65.2537ZM48.2049 65.4459C48.1392 65.4886 48.0609 65.5077 47.9829 65.5001C47.7806 65.4755 47.7166 65.2092 47.8398 64.9083C48.2812 63.8593 48.5205 62.7364 48.5452 61.5986C48.5864 60.7107 48.3389 59.8333 47.8398 59.0978C47.7865 58.9711 47.7717 58.8315 47.7971 58.6964C47.8225 58.5614 47.8871 58.4367 47.9829 58.3382C48.1851 58.0768 48.4465 58.0027 48.5698 58.1605C49.1603 59.0308 49.4512 60.0697 49.3985 61.1201C49.3717 62.4582 49.0905 63.7789 48.5698 65.0118C48.4971 65.1914 48.3693 65.3434 48.2049 65.4459Z" fill="black"/>
<path d="M49.7732 65.6184C49.7065 65.6589 49.629 65.6779 49.5512 65.6728C49.3489 65.6728 49.2849 65.3816 49.4081 65.0807C50.0203 63.6387 50.355 62.0942 50.3946 60.5281C50.4459 59.301 50.0999 58.0901 49.4081 57.0753C49.3549 56.9486 49.3401 56.8091 49.3655 56.674C49.3909 56.539 49.4555 56.4144 49.5512 56.3158C49.7534 56.0593 50.0148 55.9804 50.1381 56.1431C50.9048 57.2881 51.2851 58.6484 51.2233 60.025C51.1864 61.7879 50.8183 63.5281 50.1381 65.1549C50.0699 65.3448 49.9418 65.5075 49.7732 65.6184ZM49.5911 98.7452L27.4195 111.569C26.9263 111.856 26.5317 111.569 26.5317 110.899V110.504C26.5363 110.172 26.619 109.846 26.7733 109.552C26.9276 109.258 27.149 109.005 27.4195 108.812L49.5911 95.9874C50.0844 95.7068 50.479 95.9874 50.479 96.6586V97.0336C50.4763 97.3683 50.3945 97.698 50.2402 97.9962C50.0859 98.2936 49.8635 98.5503 49.5911 98.7452ZM147.531 24.2003L143.762 22.2487C143.383 22.0987 142.973 22.0447 142.567 22.0916C142.162 22.1386 141.775 22.2849 141.44 22.5174L70.4137 63.514C68.328 64.717 66.6391 67.9484 66.6391 70.7253V254.413C66.6391 255.879 67.1184 256.922 67.8674 257.408L71.5279 259.327L147.531 24.2003Z" fill="black"/>
<path d="M71.5476 259.616C71.4954 259.616 71.4452 259.602 71.3999 259.578L67.7404 257.69C66.832 257.107 66.3389 255.949 66.3389 254.413V70.7191C66.3389 67.8397 68.1046 64.4867 70.2739 63.2326L141.3 22.236C141.679 21.9778 142.117 21.8171 142.573 21.768C143.03 21.7189 143.491 21.7829 143.917 21.9545L147.698 23.9125C147.765 23.948 147.817 24.0061 147.846 24.0764C147.874 24.1466 147.877 24.2246 147.852 24.2964L71.8477 259.392C71.8349 259.436 71.8123 259.477 71.7808 259.512C71.7503 259.546 71.7119 259.573 71.6686 259.59C71.6312 259.608 71.5899 259.616 71.5476 259.616ZM142.932 22.3896C142.461 22.4068 142.002 22.5456 141.601 22.7927L70.5751 63.7957C68.5849 64.9411 66.9599 68.0508 66.9599 70.7255V254.413C66.9599 255.693 67.3566 256.698 68.0406 257.14L71.3359 258.841L147.161 24.3604L143.635 22.5304C143.414 22.432 143.174 22.3839 142.932 22.3896Z" fill="black"/>
<path d="M145.24 218.229L74.2148 259.225C72.135 260.428 70.4451 259.149 70.4451 256.372V72.6837C70.4451 69.9066 72.135 66.6817 74.2148 65.4787L145.24 24.4821C147.319 23.2792 149.009 24.5525 149.009 27.3296V211.018C148.984 213.794 147.294 217.026 145.24 218.229Z" fill="url(#paint2_linear_110_2111)"/>
<path d="M72.7051 260C72.3094 260.002 71.9206 259.898 71.5781 259.699C70.644 259.162 70.1135 257.952 70.1135 256.371V72.6837C70.1135 69.8106 71.8793 66.4513 74.0417 65.2035L145.068 24.2005C145.472 23.9198 145.944 23.7532 146.435 23.7183C146.927 23.6834 147.418 23.7815 147.858 24.0022C148.785 24.5397 149.317 25.7554 149.317 27.3295V211.018C149.317 213.897 147.557 217.25 145.387 218.504L74.3616 259.481C73.8653 259.798 73.2935 259.977 72.7051 260ZM146.712 24.3477C146.239 24.3656 145.777 24.5067 145.375 24.7572L74.3488 65.7538C72.3586 66.9056 70.7405 70.0153 70.7405 72.6837V256.371C70.7405 257.716 71.1559 258.726 71.8852 259.149C72.2281 259.309 72.6077 259.375 72.9846 259.34C73.3612 259.305 73.7217 259.17 74.0289 258.95L145.055 217.948C147.045 216.802 148.664 213.692 148.664 211.018V27.3295C148.664 25.9858 148.248 24.9748 147.525 24.5589C147.278 24.4178 146.997 24.3449 146.712 24.3477Z" fill="black"/>
<path d="M140.332 101.266L79.084 136.625C77.0427 137.803 75.3921 136.548 75.3921 133.829V83.9774C75.3921 81.2579 77.0427 78.0965 79.084 76.9383L140.332 41.5791C142.374 40.4017 144.031 41.6494 144.031 44.3753V94.2344C144.031 96.9539 142.374 100.089 140.332 101.266Z" fill="#C2D6FE"/>
<path d="M77.6124 137.394C77.2236 137.397 76.8407 137.296 76.5051 137.1C75.5907 136.575 75.072 135.384 75.072 133.836V83.9777C75.072 81.1558 76.7994 77.8667 78.9116 76.6381L140.173 41.2851C140.568 41.0076 141.032 40.8427 141.514 40.8078C141.996 40.7728 142.48 40.8693 142.911 41.0868C143.826 41.6179 144.351 42.8081 144.351 44.3566V94.215C144.351 97.0309 142.617 100.326 140.511 101.549L79.263 136.914C78.7644 137.216 78.1952 137.382 77.6124 137.394ZM141.805 41.4132C141.351 41.4358 140.911 41.5722 140.524 41.8098L79.2758 77.1756C77.324 78.3017 75.7443 81.3409 75.7443 83.958V133.817C75.7443 135.128 76.1468 136.121 76.8575 136.53C77.1929 136.687 77.5645 136.752 77.9333 136.716C78.3024 136.682 78.6557 136.549 78.9559 136.331L140.204 100.973C142.124 99.8459 143.743 96.8006 143.743 94.1894V44.3502C143.743 43.032 143.333 42.0467 142.623 41.6371C142.376 41.4921 142.091 41.4211 141.805 41.4324V41.4132Z" fill="black"/>
<path d="M88.7454 168.126L78.6932 173.936C76.8763 174.986 75.4048 173.872 75.4048 171.447V170.75C75.4048 168.325 76.8763 165.503 78.6932 164.453L88.7582 158.643C90.5761 157.594 92.0535 158.707 92.0535 161.132V161.83C92.0407 164.255 90.5633 167.077 88.7454 168.126ZM140.762 138.111L130.697 143.921C128.879 144.97 127.402 143.857 127.402 141.431V140.734C127.402 138.308 128.879 135.487 130.697 134.437L140.762 128.627C142.579 127.578 144.058 128.691 144.058 131.122V131.814C144.032 134.238 142.554 137.06 140.762 138.111ZM114.739 153.116L104.68 158.926C102.856 159.975 101.384 158.862 101.384 156.436V155.739C101.384 153.313 102.856 150.498 104.68 149.449L114.739 143.665C116.562 142.615 118.034 143.729 118.034 146.154V146.851C118.034 149.25 116.562 152.066 114.739 153.116ZM88.7454 184.681L78.6932 190.491C76.8763 191.54 75.4048 190.427 75.4048 188.001V187.304C75.4048 184.878 76.8763 182.063 78.6932 181.013L88.7582 175.203C90.5761 174.154 92.0535 175.267 92.0535 177.692V178.39C92.0407 180.815 90.5633 183.63 88.7454 184.681ZM140.762 154.664L130.697 160.474C128.879 161.53 127.402 160.41 127.402 157.985V157.294C127.402 154.862 128.879 152.047 130.697 150.997L140.762 145.187C142.579 144.138 144.058 145.251 144.058 147.677V148.373C144.032 150.799 142.554 153.615 140.762 154.664ZM114.739 169.675L104.68 175.485C102.856 176.535 101.384 175.421 101.384 172.996V172.299C101.384 169.873 102.856 167.052 104.68 166.002L114.739 160.192C116.562 159.143 118.034 160.256 118.034 162.687V163.378C118.034 165.804 116.562 168.62 114.739 169.675ZM88.7454 201.252L78.6932 207.05C76.8763 208.099 75.4048 206.986 75.4048 204.561V203.864C75.4048 201.439 76.8763 198.617 78.6932 197.567L88.7582 191.757C90.5761 190.708 92.0535 191.821 92.0535 194.252V194.943C92.0407 197.369 90.5633 200.19 88.7454 201.252ZM140.762 171.224L130.697 177.034C128.879 178.083 127.402 176.97 127.402 174.545V173.847C127.402 171.422 128.879 168.607 130.697 167.551L140.762 161.741C142.579 160.691 144.058 161.811 144.058 164.237V164.928C144.032 167.34 142.554 170.175 140.762 171.224ZM114.739 186.229L104.68 192.039C102.856 193.094 101.384 191.975 101.384 189.55V188.859C101.384 186.427 102.856 183.612 104.68 182.562L114.739 176.752C116.562 175.703 118.034 176.816 118.034 179.242V179.938C118.034 182.364 116.562 185.18 114.739 186.229ZM88.7454 217.794L78.6932 223.604C76.8763 224.659 75.4048 223.54 75.4048 221.115V220.449C75.4048 218.017 76.8763 215.202 78.6932 214.152L88.7454 208.291C90.5633 207.242 92.0407 208.355 92.0407 210.78V211.491C92.0407 213.929 90.5633 216.744 88.7454 217.794ZM140.762 187.815L130.672 193.574C128.855 194.624 127.376 193.503 127.376 191.079V190.387C127.376 187.962 128.855 185.141 130.672 184.091L140.762 178.301C142.58 177.251 144.058 178.365 144.058 180.79V181.487C144.032 183.912 142.555 186.728 140.762 187.815ZM114.739 202.789L104.68 208.598C102.856 209.648 101.384 208.534 101.384 206.11V205.412C101.384 202.987 102.856 200.172 104.68 199.116L114.739 193.306C116.562 192.256 118.034 193.376 118.034 195.801V196.492C118.034 198.917 116.562 201.739 114.739 202.789Z" fill="white"/>
<path d="M140.652 101.081L78.771 136.811C76.9019 137.886 75.3921 136.748 75.3921 134.252V133.158L144.031 93.5239V94.6243C144.031 97.1135 142.514 100.006 140.652 101.081Z" fill="black"/>
<path d="M137.23 215.068L82.2012 246.838C81.7236 247.179 81.3329 247.628 81.0605 248.148C80.7883 248.668 80.642 249.245 80.6333 249.832V255.514L138.798 221.934V216.252C138.792 215.094 138.094 214.562 137.23 215.068Z" fill="#C2D6FE"/>
<path d="M80.6134 255.841C80.5573 255.839 80.5021 255.823 80.4529 255.795C80.4047 255.768 80.3643 255.727 80.3368 255.679C80.3082 255.631 80.2935 255.577 80.2935 255.521V249.832C80.3004 249.189 80.4608 248.556 80.761 247.988C81.0613 247.419 81.4932 246.93 82.0208 246.562L137.05 214.786C137.245 214.652 137.473 214.574 137.71 214.559C137.947 214.544 138.183 214.594 138.394 214.703C138.634 214.879 138.824 215.114 138.947 215.386C139.069 215.657 139.119 215.956 139.091 216.252V221.934C139.092 221.99 139.078 222.045 139.05 222.093C139.021 222.142 138.981 222.182 138.931 222.209L80.7669 255.795C80.7197 255.821 80.6675 255.837 80.6134 255.841ZM137.837 215.196C137.673 215.203 137.514 215.254 137.376 215.343L82.3476 247.112C81.9209 247.428 81.5722 247.837 81.3283 248.309C81.0843 248.78 80.9515 249.301 80.9401 249.832V254.951L138.471 221.729V216.232C138.494 216.049 138.473 215.862 138.407 215.689C138.341 215.516 138.233 215.362 138.093 215.241C138.017 215.205 137.933 215.189 137.85 215.196H137.837ZM79.4736 69.1643C79.361 69.1647 79.2503 69.1353 79.1527 69.0792C79.0548 69.0232 78.9736 68.9421 78.9175 68.8443C78.834 68.6974 78.812 68.5235 78.8565 68.3605C78.9005 68.1974 79.0074 68.0584 79.1537 67.974L139.628 33.0563C139.774 32.9798 139.944 32.9628 140.103 33.0087C140.261 33.0547 140.396 33.1602 140.479 33.303C140.561 33.446 140.585 33.6151 140.547 33.7755C140.507 33.9357 140.407 34.0746 140.268 34.1633L79.7935 69.081C79.696 69.1363 79.5857 69.165 79.4736 69.1643Z" fill="black"/>
<path d="M210.323 58.9632L206.739 56.8399C199.95 52.9156 190.568 53.4876 180.213 59.4681L126.777 90.3203C123.614 92.1451 121.059 96.5743 121.059 100.225V111.286C121.059 113.251 121.667 114.327 122.981 115.106L126.431 117.169L179.738 84.0053C188.627 78.8761 196.286 82.3262 196.718 92.3282C197.187 103.011 189.6 116.488 180.213 121.908L126.777 152.76C123.614 154.585 121.059 159.02 121.059 162.665V173.677C121.059 175.368 121.612 176.579 122.512 177.23L126.163 179.42L180.183 146.129C200.904 134.161 217.691 105.086 217.691 81.1579C217.733 71.1312 210.323 58.9632 210.323 58.9632Z" fill="#545FFD"/>
<path d="M126.207 179.705C126.154 179.706 126.101 179.692 126.056 179.663L122.369 177.473C121.328 176.724 120.768 175.374 120.768 173.658V162.646C120.768 158.911 123.396 154.348 126.639 152.48L180.075 121.627C189.401 116.244 196.892 102.822 196.429 92.3212C196.234 87.8556 194.543 84.5278 191.671 82.9461C188.575 81.2483 184.285 81.7286 179.904 84.2473L126.609 117.406C126.562 117.435 126.507 117.451 126.45 117.451C126.394 117.451 126.34 117.435 126.293 117.406L122.843 115.343C121.382 114.431 120.768 113.214 120.768 111.26V100.237C120.768 96.4944 123.396 91.9383 126.639 90.0702L180.075 59.2182C190.193 53.3715 199.72 52.4406 206.905 56.5839L210.495 58.7132C210.538 58.7379 210.574 58.7736 210.598 58.8166C210.671 58.9383 218.039 71.1245 218.039 81.1331C218.039 105.11 201.144 134.373 180.38 146.366L126.366 179.663C126.318 179.691 126.263 179.705 126.207 179.705ZM187.51 81.3339C189.062 81.3096 190.595 81.6822 191.963 82.4166C195.005 84.1017 196.831 87.6125 197.037 92.2966C197.506 102.992 189.883 116.67 180.38 122.151L126.974 153.003C123.932 154.779 121.407 159.087 121.407 162.646V173.658C121.407 175.173 121.876 176.347 122.734 176.962L126.238 179.049L180.099 145.848C200.706 133.954 217.462 104.928 217.462 81.1391C217.462 71.6782 210.72 60.1672 210.16 59.2364L206.638 57.1496C199.653 53.1159 190.345 54.0528 180.422 59.7779L126.974 90.5997C123.932 92.3694 121.407 96.6834 121.407 100.242V111.285C121.407 113.044 121.906 114.041 123.19 114.844L126.475 116.809L179.625 83.7493C181.999 82.2729 184.716 81.4404 187.51 81.3339Z" fill="black"/>
<path d="M155.378 140.435V164.648L130.372 179.086C127.215 180.911 124.654 179.433 124.654 175.782V164.77C124.654 161.12 127.215 156.691 130.372 154.866L155.378 140.435Z" fill="#C2D6FE"/>
<path d="M127.818 180.175C127.244 180.182 126.679 180.035 126.182 179.749C125.001 179.068 124.357 177.662 124.357 175.782V164.77C124.357 161.034 126.992 156.471 130.228 154.604L155.233 140.166C155.279 140.139 155.331 140.125 155.385 140.125C155.438 140.125 155.491 140.139 155.537 140.166C155.583 140.194 155.622 140.234 155.648 140.28C155.675 140.327 155.689 140.38 155.689 140.434V164.648C155.689 164.702 155.675 164.755 155.648 164.802C155.622 164.849 155.583 164.887 155.537 164.916L130.532 179.347C129.716 179.856 128.78 180.142 127.818 180.175ZM155.074 140.957L130.526 155.132C127.484 156.903 124.959 161.217 124.959 164.77V175.776C124.959 177.431 125.5 178.647 126.486 179.219C127.472 179.791 128.792 179.639 130.222 178.818L155.074 164.465V140.957Z" fill="black"/>
<path d="M155.378 78.0249V102.257L130.372 116.695C127.215 118.52 124.654 117.042 124.654 113.391V102.367C124.654 98.7161 127.215 94.287 130.372 92.4622L155.378 78.0249Z" fill="#C2D6FE"/>
<path d="M127.818 117.783C127.244 117.788 126.681 117.641 126.182 117.357C125.001 116.676 124.357 115.27 124.357 113.39V102.367C124.357 98.6303 126.992 94.0673 130.228 92.2002L155.233 77.7624C155.279 77.7357 155.331 77.7217 155.385 77.7217C155.438 77.7217 155.491 77.7357 155.537 77.7624C155.582 77.7899 155.62 77.8282 155.646 77.8738C155.673 77.9195 155.688 77.9712 155.689 78.024V102.256C155.689 102.309 155.675 102.362 155.648 102.408C155.622 102.453 155.583 102.492 155.537 102.518L130.532 116.955C129.716 117.465 128.78 117.751 127.818 117.783ZM155.074 78.5533L130.526 92.7228C127.484 94.4994 124.959 98.8065 124.959 102.367V113.39C124.959 115.039 125.5 116.262 126.486 116.828C127.472 117.393 128.792 117.253 130.222 116.427L155.074 102.08V78.5533Z" fill="black"/>
<path d="M221.322 83.2622C221.322 107.19 204.537 136.272 183.809 148.233L155.378 164.66V140.445L183.809 124.019C193.202 118.598 200.79 105.122 200.315 94.4443C199.889 84.4423 192.229 80.9866 183.34 86.1214L155.354 102.262V78.0301L183.785 61.6032C194.128 55.6227 203.521 55.0568 210.311 58.975C217.101 62.8931 221.322 71.3072 221.322 83.2622Z" fill="white"/>
<path d="M155.378 164.952C155.325 164.952 155.273 164.94 155.227 164.916C155.18 164.889 155.141 164.85 155.114 164.803C155.087 164.755 155.073 164.702 155.074 164.648V140.433C155.073 140.379 155.087 140.326 155.114 140.279C155.141 140.233 155.18 140.193 155.227 140.166L183.657 123.739C192.99 118.355 200.479 104.933 200.01 94.4391C199.822 89.9667 198.131 86.6389 195.254 85.0631C192.162 83.3594 187.874 83.8466 183.493 86.3653L155.506 102.506C155.46 102.533 155.408 102.546 155.354 102.546C155.301 102.546 155.248 102.533 155.202 102.506C155.155 102.481 155.116 102.443 155.089 102.397C155.062 102.351 155.049 102.297 155.05 102.244V78.012C155.051 77.9589 155.064 77.9068 155.091 77.8609C155.118 77.8151 155.156 77.7769 155.202 77.7503L183.632 61.3236C193.757 55.4829 203.284 54.546 210.463 58.6953C217.642 62.8445 221.603 71.5569 221.603 83.2383C221.603 107.222 204.707 136.486 183.937 148.471L155.506 164.897C155.468 164.925 155.425 164.942 155.378 164.952ZM155.683 140.616V164.131L183.669 147.978C204.269 136.084 221.031 107.057 221.031 83.2688C221.031 71.8123 217.18 63.2825 210.196 59.2489C203.211 55.2152 193.896 56.1522 183.973 61.8772L155.695 78.2066V101.733L183.2 85.8545C187.769 83.2196 192.272 82.7393 195.558 84.5464C198.63 86.2314 200.425 89.7423 200.632 94.4263C201.106 105.128 193.477 118.799 183.973 124.287L155.683 140.616ZM42.3651 134.488L40.3196 133.241C39.8671 132.952 39.4109 133.009 38.7837 133.369C38.0078 133.866 37.3993 134.585 37.0376 135.432L6.72465 203.275C6.1152 204.64 6.27563 205.795 6.89571 206.233L8.93401 207.462L42.3651 134.488Z" fill="white"/>
<path d="M8.93366 207.641C8.90099 207.642 8.8689 207.633 8.84104 207.616L6.80255 206.387C6.04349 205.848 5.95088 204.573 6.56377 203.205L36.8624 135.351C37.239 134.472 37.8725 133.726 38.6799 133.213C39.3927 132.807 39.9024 132.767 40.4013 133.088L42.4432 134.332C42.4804 134.355 42.5081 134.39 42.5212 134.431C42.5343 134.472 42.5319 134.517 42.5144 134.557L9.08327 207.534C9.07293 207.557 9.05778 207.578 9.03878 207.594C9.01969 207.611 8.99724 207.623 8.97293 207.631C8.96053 207.636 8.94715 207.64 8.93366 207.641ZM39.7134 133.235C39.4113 133.257 39.1202 133.357 38.8688 133.526C38.1239 134.003 37.5411 134.694 37.1974 135.509L6.88454 203.35C6.26446 204.737 6.50679 205.742 6.99498 206.088L8.85167 207.21L42.1332 134.557L40.223 133.395C40.0734 133.291 39.8956 133.236 39.7134 133.235ZM21.9699 155.664C21.9699 148.708 17.0876 145.889 11.065 149.367C5.04231 152.845 0.159912 161.299 0.159912 168.255C0.159912 175.211 5.04231 178.026 11.065 174.548C17.0876 171.071 21.9699 162.625 21.9699 155.664ZM3.9803 166.049C3.9803 161.53 7.15196 156.035 11.065 153.775C14.9779 151.516 18.1497 153.348 18.1497 157.867C18.1497 162.386 14.9779 167.881 11.065 170.141C7.15196 172.399 3.9803 170.575 3.9803 166.056V166.049Z" fill="white"/>
<path d="M6.21508 176.227C5.18919 176.241 4.17813 175.981 3.28564 175.475C1.1688 174.253 0 171.691 0 168.263C0 161.264 4.9322 152.721 10.994 149.221C13.9662 147.508 16.7672 147.236 18.884 148.455C21.0009 149.674 22.1661 152.24 22.1661 155.672C22.1661 162.667 17.2341 171.21 11.1723 174.709C9.42247 175.717 7.71892 176.227 6.21508 176.227ZM15.951 148.074C14.4899 148.074 12.865 148.57 11.1723 149.542C5.21016 152.985 0.356399 161.388 0.356399 168.276C0.356399 171.573 1.46103 174.024 3.46379 175.179C5.46665 176.335 8.1395 176.063 10.994 174.417C16.9562 170.974 21.8098 162.571 21.8098 155.686C21.8098 152.39 20.705 149.934 18.7058 148.779C17.8624 148.296 16.9051 148.048 15.9333 148.06L15.951 148.074ZM7.91843 171.309C7.241 171.318 6.57329 171.147 5.98348 170.814C4.58653 170.005 3.82019 168.32 3.82019 166.071C3.82019 161.502 7.02768 155.928 10.994 153.644C12.9435 152.518 14.7894 152.343 16.1828 153.148C17.5762 153.954 18.3459 155.644 18.3459 157.889C18.3459 162.457 15.1386 168.03 11.1723 170.315C10.1868 170.923 9.05842 171.261 7.90072 171.295L7.91843 171.309ZM14.2477 153.006C13.1579 153.048 12.0979 153.374 11.1723 153.951C7.31637 156.181 4.17659 161.616 4.17659 166.067C4.17659 168.188 4.88939 169.759 6.16163 170.5C7.43388 171.242 9.15879 171.064 10.994 170.005C14.8536 167.777 17.9895 162.339 17.9895 157.889C17.9895 155.768 17.2769 154.197 16.0047 153.456C15.4655 153.144 14.8524 152.984 14.23 152.992L14.2477 153.006ZM37.0954 164.399C31.0727 167.878 26.1904 176.335 26.1904 183.287C26.1904 190.24 31.0727 193.059 37.0954 189.581C43.1181 186.102 47.9969 177.649 47.9969 170.693C47.9969 163.736 43.1145 160.925 37.0954 164.399ZM37.0954 185.172C33.1753 187.431 30.0072 185.599 30.0072 181.081C30.0072 176.562 33.179 171.071 37.0954 168.811C41.012 166.552 44.18 168.38 44.18 172.898C44.18 177.417 41.0084 182.912 37.0954 185.172Z" fill="white"/>
<path d="M32.2307 191.252C31.2048 191.265 30.1939 191.005 29.3012 190.5C27.1844 189.277 26.019 186.715 26.019 183.287C26.019 176.288 30.9513 167.746 37.0096 164.246C39.9818 162.532 42.7828 162.26 44.8996 163.483C47.0165 164.705 48.1817 167.268 48.1817 170.696C48.1817 177.695 43.2497 186.238 37.1879 189.737C35.4381 190.746 33.7488 191.252 32.2307 191.252ZM37.1807 164.573C31.2187 168.016 26.3684 176.42 26.3684 183.305C26.3684 186.601 27.4695 189.053 29.4723 190.207C31.4751 191.362 34.148 191.095 37.0025 189.444C42.9682 186.003 47.8184 177.599 47.8184 170.714C47.8184 167.418 46.717 164.966 44.7143 163.808C42.7114 162.649 40.0388 162.906 37.1807 164.573ZM33.9269 186.313C33.2504 186.319 32.584 186.147 31.9954 185.814C30.5985 185.007 29.8287 183.318 29.8287 181.07C29.8287 176.504 33.0361 170.928 37.0025 168.643C38.9554 167.517 40.7978 167.343 42.1948 168.148C43.5917 168.953 44.3579 170.642 44.3579 172.887C44.3579 177.456 41.1507 183.03 37.1807 185.315C36.2018 185.926 35.08 186.27 33.9269 186.313ZM40.2562 168.005C39.1659 168.048 38.1057 168.375 37.1807 168.953C33.3248 171.181 30.185 176.616 30.185 181.07C30.185 183.191 30.8978 184.765 32.1736 185.503C33.4494 186.241 35.1708 186.066 37.0025 185.007C40.862 182.78 44.0015 177.342 44.0015 172.891C44.0015 170.774 43.2889 169.199 42.0166 168.461C41.4798 168.159 40.8721 168.005 40.2562 168.016V168.005Z" fill="white"/>
<path d="M42.6399 137.507L12.327 205.349C11.9651 206.201 11.3538 206.922 10.5737 207.42C8.85961 208.4 7.85823 206.754 8.83471 204.569L39.1476 136.727C39.5091 135.879 40.1176 135.16 40.8938 134.664C42.6115 133.666 43.6342 135.311 42.6399 137.507Z" fill="#545FFD"/>
<path d="M9.62501 207.887C9.31648 207.891 9.01751 207.78 8.78771 207.574C8.14263 206.989 8.09627 205.791 8.67353 204.491L39.0007 136.648C39.3773 135.769 40.0108 135.024 40.8182 134.511C41.5524 134.086 42.2436 134.086 42.6998 134.511C43.3484 135.095 43.3947 136.292 42.8175 137.593L12.5045 205.439C12.1254 206.321 11.4864 207.067 10.6728 207.577C10.3572 207.771 9.99559 207.878 9.62501 207.887ZM41.8517 134.539C41.5441 134.554 41.2456 134.648 40.9857 134.814C40.2417 135.289 39.659 135.978 39.3143 136.791L9.00139 204.637C8.42048 205.938 8.59519 206.917 9.02993 207.31C9.38633 207.62 9.89243 207.605 10.4876 207.264C11.2364 206.788 11.8229 206.095 12.1696 205.279L42.4825 137.436C43.0633 136.132 42.8853 135.152 42.4504 134.76C42.2854 134.614 42.0718 134.535 41.8517 134.539Z" fill="black"/>
<path d="M13.1753 150.675C7.15261 154.153 2.27051 162.606 2.27051 169.563C2.27051 176.52 7.15261 179.334 13.1753 175.856C19.1979 172.378 24.0802 163.925 24.0802 156.968C24.0802 150.013 19.1979 147.183 13.1753 150.675ZM13.1753 171.448C9.25518 173.708 6.0907 171.876 6.0907 167.357C6.0907 162.838 9.26236 157.343 13.1753 155.083C17.0883 152.825 20.26 154.656 20.26 159.175C20.26 163.694 17.0883 169.174 13.1753 171.434V171.448Z" fill="#545FFD"/>
<path d="M8.30737 177.514C7.28041 177.527 6.26835 177.267 5.37438 176.762C3.26109 175.539 2.09229 172.977 2.09229 169.549C2.09229 162.546 7.02429 154.008 13.0861 150.508C16.0583 148.794 18.8594 148.519 20.9762 149.742C23.093 150.964 24.2584 153.526 24.2584 156.955C24.2584 163.954 19.3262 172.496 13.2643 175.996C11.5181 177.004 9.82903 177.514 8.30737 177.514ZM18.0433 149.36C16.5822 149.36 14.9571 149.852 13.2643 150.829C7.30225 154.271 2.44859 162.674 2.44859 169.563C2.44859 172.859 3.55332 175.311 5.55263 176.465C7.55185 177.621 10.2316 177.349 13.0861 175.704C19.0483 172.257 23.902 163.857 23.902 156.969C23.902 153.672 22.7973 151.22 20.7981 150.066C19.9598 149.586 19.0091 149.338 18.0433 149.346V149.36ZM10.0107 172.595C9.33267 172.605 8.66441 172.433 8.07567 172.096C6.67872 171.291 5.91248 169.602 5.91248 167.357C5.91248 162.788 9.11977 157.214 13.0861 154.93C15.0354 153.804 16.878 153.626 18.2749 154.435C19.6719 155.244 20.4382 156.93 20.4382 159.175C20.4382 163.744 17.2307 169.317 13.2643 171.601C12.2841 172.207 11.1623 172.545 10.0107 172.582V172.595ZM16.34 154.292C15.2501 154.335 14.19 154.66 13.2643 155.237C9.40836 157.467 6.26878 162.902 6.26878 167.353C6.26878 169.492 6.98167 171.045 8.25392 171.786C9.52617 172.528 11.2508 172.35 13.0861 171.291C16.9456 169.064 20.0818 163.626 20.0818 159.175C20.0818 157.054 19.3689 155.483 18.0968 154.742C17.5627 154.434 16.9563 154.274 16.34 154.278V154.292Z" fill="black"/>
<path d="M39.2006 165.685C33.1815 169.164 28.2993 177.62 28.2993 184.573C28.2993 191.526 33.1815 194.345 39.2006 190.867C45.2198 187.388 50.1056 178.935 50.1056 171.979C50.1056 165.022 45.2233 162.211 39.2006 165.685ZM39.2006 186.458C35.2805 188.718 32.1161 186.886 32.1161 182.367C32.1161 177.848 35.2877 172.353 39.2006 170.094C43.1136 167.834 46.2889 169.666 46.2889 174.184C46.2889 178.703 43.1172 184.199 39.2006 186.458Z" fill="#545FFD"/>
<path d="M34.3328 192.538C33.3071 192.551 32.2963 192.291 31.4035 191.786C29.2867 190.564 28.1213 188.002 28.1213 184.572C28.1213 177.573 33.0534 169.032 39.1117 165.532C42.0839 163.817 44.885 163.547 47.0018 164.769C49.1187 165.992 50.284 168.554 50.284 171.982C50.284 178.982 45.3518 187.523 39.2899 191.023C37.5437 192.013 35.858 192.538 34.3328 192.538ZM44.0724 164.384C42.6077 164.384 40.9827 164.879 39.2899 165.856C33.3279 169.299 28.4777 177.702 28.4777 184.587C28.4777 187.883 29.5789 190.335 31.5817 191.49C33.5844 192.644 36.2572 192.378 39.1117 190.727C45.0774 187.285 49.9276 178.881 49.9276 171.997C49.9276 168.7 48.8264 166.249 46.8237 165.09C45.9866 164.61 45.0371 164.362 44.0724 164.371V164.384ZM36.0363 187.624C35.3586 187.63 34.6911 187.458 34.1012 187.125C32.7078 186.319 31.9381 184.629 31.9381 182.381C31.9381 177.813 35.1454 172.239 39.1117 169.954C41.0647 168.828 42.907 168.654 44.304 169.459C45.7009 170.264 46.4673 171.954 46.4673 174.199C46.4673 178.767 43.2599 184.345 39.2899 186.629C38.3092 187.234 37.1876 187.571 36.0363 187.609V187.624ZM42.3654 169.316C41.2751 169.359 40.2148 169.686 39.2899 170.264C35.434 172.492 32.2944 177.927 32.2944 182.381C32.2944 184.502 33.0071 186.076 34.2793 186.815C35.5516 187.552 37.28 187.378 39.1117 186.319C42.9712 184.092 46.1109 178.653 46.1109 174.202C46.1109 172.085 45.3981 170.51 44.1258 169.773C43.5915 169.462 42.9837 169.3 42.3654 169.303V169.316Z" fill="black"/>
<path d="M170.59 215.239C177.009 204.123 177.009 192.108 170.59 188.402C164.173 184.698 153.767 190.705 147.35 201.822C140.932 212.938 140.932 224.953 147.349 228.658C153.767 232.363 164.173 226.355 170.59 215.239Z" fill="#C2D6FE"/>
<path d="M151.66 229.94C150.132 229.961 148.626 229.573 147.298 228.818C144.144 226.997 142.406 223.168 142.406 218.043C142.406 207.529 149.814 194.715 158.921 189.44C163.359 186.883 167.549 186.467 170.699 188.289C173.85 190.11 175.592 193.939 175.592 199.068C175.592 209.581 168.185 222.396 159.08 227.668C156.463 229.176 153.939 229.94 151.66 229.94ZM166.337 187.487C164.117 187.487 161.643 188.238 159.08 189.723C150.063 194.929 142.725 207.638 142.725 218.049C142.725 223.057 144.406 226.786 147.458 228.55C150.509 230.314 154.581 229.902 158.921 227.397C167.939 222.191 175.272 209.501 175.272 199.074C175.272 194.063 173.591 190.334 170.54 188.574C169.261 187.843 167.81 187.468 166.337 187.487Z" fill="black"/>
<path d="M172.394 216.008C178.812 204.892 178.812 192.877 172.394 189.172C165.977 185.466 155.571 191.474 149.153 202.59C142.736 213.706 142.736 225.721 149.153 229.427C155.57 233.132 165.976 227.125 172.394 216.008Z" fill="#C2D6FE"/>
<path d="M153.466 230.71C151.939 230.728 150.435 230.341 149.107 229.589C145.949 227.767 144.214 223.939 144.214 218.81C144.214 208.296 151.622 195.482 160.726 190.21C165.168 187.653 169.354 187.238 172.508 189.059C175.662 190.881 177.4 194.718 177.4 199.832C177.4 210.344 169.993 223.159 160.885 228.432C158.272 229.947 155.744 230.71 153.466 230.71ZM168.146 188.257C165.909 188.257 163.451 189.005 160.885 190.494C151.868 195.703 144.534 208.408 144.534 218.82C144.534 223.83 146.215 227.559 149.267 229.32C152.318 231.081 156.389 230.672 160.726 228.169C169.744 222.965 177.081 210.255 177.081 199.844C177.081 194.837 175.4 191.107 172.348 189.343C171.069 188.615 169.619 188.24 168.146 188.257Z" fill="black"/>
<path d="M165.846 209.277C165.567 208.829 165.183 208.455 164.727 208.188C164.281 207.93 163.817 207.705 163.337 207.516L162.174 207.011C161.589 206.811 161.024 206.555 160.487 206.248C160.304 206.155 160.15 206.013 160.042 205.839C159.935 205.664 159.877 205.463 159.877 205.257C159.878 204.925 159.972 204.599 160.148 204.318C160.322 204.021 160.571 203.776 160.871 203.605C161.009 203.51 161.169 203.45 161.335 203.43C161.502 203.408 161.671 203.427 161.829 203.484C162.135 203.609 162.396 203.823 162.579 204.097C162.788 204.39 162.951 204.714 163.063 205.056L166.041 201.764C165.679 200.423 165.039 199.588 164.124 199.262C163.518 199.063 162.863 199.063 162.257 199.262V195.677L159.356 197.351V200.946C158.965 201.284 158.597 201.648 158.256 202.036C157.49 202.904 156.863 203.885 156.396 204.944C155.949 205.923 155.713 206.984 155.703 208.06C155.703 209.238 155.953 210.081 156.454 210.59C157.044 211.153 157.743 211.588 158.508 211.869L159.7 212.325C160.318 212.534 160.913 212.806 161.474 213.137C161.643 213.261 161.777 213.427 161.864 213.618C161.95 213.809 161.987 214.018 161.969 214.227C161.967 214.539 161.874 214.843 161.701 215.103C161.492 215.405 161.215 215.655 160.892 215.831C160.696 215.969 160.464 216.046 160.224 216.053C159.985 216.06 159.748 215.996 159.544 215.87C159.061 215.517 158.692 215.03 158.483 214.47L155.335 217.892C155.941 219.226 156.72 219.988 157.675 220.178C158.237 220.271 158.813 220.231 159.356 220.059V222.97L162.257 221.293V218.541C162.781 218.142 163.269 217.698 163.714 217.212C164.48 216.377 165.107 215.424 165.57 214.39C166.033 213.388 166.275 212.298 166.28 211.195C166.319 210.527 166.169 209.863 165.846 209.277Z" fill="url(#paint3_linear_110_2111)"/>
<defs>
<linearGradient id="paint0_linear_110_2111" x1="107.631" y1="74.662" x2="26.5317" y2="74.662" gradientUnits="userSpaceOnUse">
<stop stop-color="#555DFD"/>
<stop offset="1" stop-color="#379FFE"/>
</linearGradient>
<linearGradient id="paint1_linear_110_2111" x1="36.0711" y1="69.5798" x2="32.5295" y2="69.5798" gradientUnits="userSpaceOnUse">
<stop stop-color="#555DFD"/>
<stop offset="1" stop-color="#379FFE"/>
</linearGradient>
<linearGradient id="paint2_linear_110_2111" x1="149.009" y1="151.367" x2="70.4451" y2="151.367" gradientUnits="userSpaceOnUse">
<stop stop-color="#555DFD"/>
<stop offset="1" stop-color="#379FFE"/>
</linearGradient>
<linearGradient id="paint3_linear_110_2111" x1="166.286" y1="210.425" x2="155.335" y2="210.425" gradientUnits="userSpaceOnUse">
<stop stop-color="#555DFD"/>
<stop offset="1" stop-color="#379FFE"/>
</linearGradient>
</defs>
</svg>
