<svg width="216" height="151" viewBox="0 0 216 151" fill="none" xmlns="http://www.w3.org/2000/svg">
<path d="M131.554 60.5212C123.892 68.2274 113.52 72.6258 102.659 72.7751C91.7499 73.0528 80.8541 72.828 69.9186 72.8941C68.2668 72.8941 67.8769 72.3585 68.2007 70.811C68.7425 68.1658 69.0993 65.5206 69.6015 62.8755C70.6653 57.3206 73.7444 54.7283 79.3806 54.7151C92.0582 54.7151 104.738 54.7151 117.42 54.7151C118.203 54.7394 118.986 54.7173 119.766 54.6489C122.673 54.2984 124.854 52.2087 125.587 49.0544C127.662 40.1445 129.726 31.2324 131.778 22.3181C132.882 17.4576 131.051 15.1761 126.129 15.1629H116.165V15.0372H84.6402C83.8224 15.0372 83.0145 14.8586 82.2727 14.5139C81.531 14.1693 80.8733 13.6668 80.3455 13.0416C79.8177 12.4164 79.4325 11.6836 79.2168 10.8941C79.0011 10.1046 78.96 9.27756 79.0965 8.47058L80.2065 1.94357C80.4444 0.574686 81.0523 0.0787182 82.4069 0.0787182C93.7123 0.118396 105.038 -0.205642 116.323 0.230814C125.276 0.574688 133.371 3.61005 139.165 11.0033C142.587 15.3612 144.515 20.7061 144.663 26.2462C145.178 39.5317 141.102 51.1374 131.554 60.5212Z" fill="url(#paint0_linear_356_7934)"/>
<g opacity="0.5">
<path d="M147.083 27.5698C148.145 30.5838 148.572 33.7853 148.335 36.9723C147.63 47.976 144.091 57.8595 136.402 65.9969C128.713 74.1343 119.363 77.6264 108.386 79.4845C96.7495 80.4136 80.3165 79.7613 68.654 79.9655C66.9408 79.9655 66.7168 79.2144 66.9935 77.7714C67.5536 74.8788 67.5141 74.8591 70.4989 74.8591C79.1371 74.8591 92.5259 74.7866 101.171 74.7602C112.201 74.722 122.841 70.6787 131.113 63.3823C139.385 56.086 144.726 46.0334 146.141 35.0945L147.083 27.5698Z" fill="black"/>
</g>
<path d="M101.125 27.6899L76.5325 27.7923L73.6343 42.3236C73.6343 42.3418 73.638 42.3598 73.6454 42.3766C73.6527 42.3933 73.6635 42.4084 73.677 42.421C73.6905 42.4335 73.7065 42.4433 73.724 42.4497C73.7415 42.456 73.7602 42.4588 73.7789 42.458H101.125C103.136 42.458 105.065 41.68 106.487 40.2953C107.91 38.9105 108.709 37.0323 108.709 35.074C108.709 33.1156 107.91 31.2374 106.487 29.8527C105.065 28.4679 103.136 27.6899 101.125 27.6899ZM100.086 39.2075C99.2477 39.2087 98.4275 38.9678 97.7295 38.515C97.0316 38.0623 96.4873 37.4182 96.1654 36.6642C95.8436 35.9102 95.7587 35.0801 95.9215 34.2791C96.0843 33.4781 96.4875 32.7422 97.0801 32.1643C97.6726 31.5865 98.4279 31.1928 99.2504 31.033C100.073 30.8733 100.925 30.9546 101.7 31.2668C102.475 31.579 103.138 32.108 103.604 32.7868C104.07 33.4656 104.319 34.2638 104.319 35.0804C104.317 36.1672 103.875 37.2095 103.089 37.9811C102.303 38.7526 101.235 39.191 100.119 39.2011L100.086 39.2075Z" fill="url(#paint1_linear_356_7934)"/>
<path d="M6.36667 129.036L5.8419 128.99L5.31713 129.036L4.70747 128.952L4.22129 128.99L3.89717 128.952H3.53447L2.9634 128.875L2.71645 128.829H2.39232L2.11451 128.875H0.895195L0.32412 128.79L0 128.713V127.784V127.415L0.208367 126.931L0.285538 126.371L0.331839 126.125L0.447597 125.564L0.532487 125.157L0.609657 124.834V124.512L0.694547 123.943V123.621L0.779436 123.175L1.02639 122.853L1.10356 122.453V122.131L1.22703 121.562L1.3042 121.24L1.35051 120.717V120.471L1.51257 120.195V119.304L1.63604 118.735V118.413L1.75951 117.852V117.568L1.83669 117.038L1.92158 116.761L2.04505 116.277L2.08364 116.032L2.2457 115.548V114.741L2.33059 114.457L2.40776 114.211L2.53123 113.65L2.60841 113.405L2.81677 112.275L2.93253 111.991L3.01742 111.715V111.43V111.185V110.9L3.10231 110.416V110.14L3.22578 109.656V109.41L3.31067 108.926L3.47273 108.442V107.874L3.51132 107.551L3.58849 106.706L3.67338 106.222L3.87402 105.454L3.95891 105.17V104.932V104.648L4.08239 104.125L4.15956 103.557L4.24444 103.073L4.3602 102.827L4.4065 102.551V102.067L4.48368 101.783L4.60715 101.376L4.69204 101.253L4.81552 100.815L5.21681 100.692H5.50235L5.98853 100.73L6.27407 100.769L6.9223 100.692H7.24642L8.14162 100.73L8.91334 100.692H10.287L10.7346 100.73L10.9738 100.692H11.6298L11.9539 100.73L12.3166 100.769L12.9263 100.853H13.2118L13.5359 100.976L14.0993 101.137H14.1456L14.3848 101.214L15.0794 101.414L15.28 101.537L15.4421 101.621L15.8511 101.859L16.1289 102.067L16.3758 102.267L16.9855 103.073L17.3096 103.557L17.4717 103.757L17.6723 104.125L17.8344 104.686L18.0813 105.293L18.2434 105.577L18.3592 106.261V106.545L18.5675 107.114L18.5212 107.39L18.6061 108.204V108.727L18.4826 108.965L18.6061 109.533L18.6524 109.779L18.6061 110.055L18.691 110.34L18.6524 110.624V110.862L18.5289 111.515V111.791L18.444 112.483V112.767V113.896L18.2434 114.541V114.826L18.0813 115.594L17.9965 116.201L17.9193 117.13L17.8344 117.453L17.7109 117.775V118.182L17.4717 119.027L17.4254 119.557L17.3482 120.041L17.2247 120.325L16.9392 120.848L16.862 121.086L16.8157 121.531L16.5765 122.061L16.5379 122.3L16.3758 122.868L16.0903 123.429L15.8048 124.197L15.6041 124.604L15.28 124.927L15.2337 125.172L15.033 125.449L14.8324 125.695L14.5469 126.179L13.9758 126.862L13.4124 127.308L13.0497 127.63L12.8028 127.792L12.278 128.038L11.8304 128.23L11.4214 128.506L10.8581 128.667L10.4491 128.752L9.80081 128.829L9.35322 128.99H8.09532L7.80978 129.036H7.60913L7.3236 129.075L6.36667 129.036ZM8.3577 123.582L8.76671 123.459L9.09083 123.298L9.53071 123.06L9.73907 122.899L10.0632 122.576L10.3487 122.253L10.4645 122.008L10.6265 121.723L10.7886 121.324L10.997 120.917L11.1976 120.395L11.4446 119.626L11.5603 119.181L11.6838 118.613L11.8459 118.09V117.852L11.9308 117.645L12.0079 117.407L12.1314 116.923L12.17 116.638L12.2549 116.116L12.332 115.548L12.4169 114.941L12.4555 114.657L12.5404 114.334L12.741 113.773V113.205L12.8645 112.36L12.9031 112.114L12.988 111.269L12.9417 110.416L12.988 109.249L12.9031 108.158L12.8645 107.836L12.6176 107.152L12.332 106.622L12.0928 106.422L11.8922 106.261L11.1976 106.061L10.5494 105.977H10.0246H9.6619L9.53843 106.299L9.41495 106.584V106.829L9.33006 107.106L9.21431 107.713L9.05225 108.281L8.96736 108.803L8.89019 109.372L8.8053 110.255V110.501L8.72041 110.785V111.069V111.392L8.59693 111.63V111.876L8.48118 112.437L8.39629 113.082V113.366L8.27281 113.935L8.19564 114.173L8.07216 114.741V114.979L7.94869 115.548L7.87152 115.832L7.9101 116.07L7.82521 116.354L7.66315 117.407V117.929V118.175L7.4625 118.735V119.012L7.33903 119.619L7.17697 120.341L7.13838 120.625L6.97632 121.193L6.89144 121.793V122.399L6.76796 123.091L6.69079 123.452L7.25414 123.613L8.3577 123.582Z" fill="url(#paint2_linear_356_7934)"/>
<path d="M24.0551 129.013H22.9964L22.7105 128.975H20.5623L20.1991 128.898L20.0754 128.53L20.1991 128.169L20.2764 127.808L20.3614 127.202L20.4386 126.557L20.6009 125.951L20.6395 125.306L20.7632 124.984V124.615L20.8482 124.339V124.055L20.9255 123.733L20.9641 123.449L21.0105 122.881L21.0877 122.359L21.25 122.036L21.335 121.392V121.108L21.4123 120.785L21.4973 120.263V120.056L21.6596 119.573V119.335L21.7755 118.813L21.8991 118.529V118.245L22.0228 117.639L22.1078 117.355L22.2701 116.51V115.904L22.4323 115.336L22.5096 114.737L22.6333 114.453V114.131L22.6719 113.847V113.563L22.8342 113.325L23.0815 112.112L23.2051 111.79L23.2824 111.506V111.268L23.406 110.7L23.5683 110.094L23.6069 108.966L23.7306 108.682L23.7692 107.837L23.9315 107.592L24.0165 107.269L24.0551 106.985L24.0165 106.748L24.0551 106.464L24.2174 105.942L24.2947 105.374L24.4183 105.136V104.852L24.542 104.568L24.5033 104.322L24.5806 104.046L24.627 103.516L24.7042 103.278L24.7429 103.033L24.7892 102.511L24.8279 102.265L24.7429 101.981L24.8665 101.498L24.9902 101.26L25.0288 101.014L25.3533 100.776H26.0488L26.2884 100.738L26.5743 100.776L27.0611 100.738H27.347L27.6716 100.776H28.0734L28.9698 100.738L32.0145 100.692L32.9495 100.738L33.2741 100.776L34.4564 100.738H35.3451L35.716 100.692L36.1178 100.738L36.481 100.776L36.6897 101.06L36.566 101.498V101.743L36.481 102.749V102.994L36.3651 103.278L36.3187 103.562V103.8L36.1951 104.407V104.729L36.0328 105.289L35.9942 105.535L35.8705 106.057L35.4687 106.103H33.7609L33.2741 106.141H30.6313L29.6576 106.18L29.5339 106.663L29.4953 106.947V107.523L29.3717 107.761V108.083L29.2558 108.851L29.1707 109.419L29.0471 109.979L28.9698 110.263L29.0085 110.585L28.8848 110.992L28.8076 111.713H29.5339L30.9558 111.759L31.7286 111.675H32.7872L33.1118 111.759L33.3514 112.082L33.2741 112.565V112.895L33.1891 113.34L33.0732 113.901L32.9882 114.185L32.8645 114.791V115.075L32.7486 115.397L32.6636 115.958L32.54 116.602L32.4627 117.17L32.3777 117.247H31.9759L31.3654 117.293H31.0022L29.9821 117.332L29.2944 117.293H28.8462L28.3207 117.332H27.9498L27.7875 117.777L27.6716 118.299L27.5016 119.427L27.3857 119.834L27.3007 120.194V120.601L27.2157 120.885L27.0998 121.607L26.9375 122.658V122.98L27.0998 123.142L27.6639 123.218H30.0594L30.6313 123.264H31.5277H32.6636L32.9495 123.38L32.9032 123.71L32.8645 123.871L32.7872 124.308L32.7409 124.631L32.5786 125.521V126.043L32.5013 126.327L32.4163 126.572L32.3777 126.856L32.254 127.455L32.2154 128.146L32.1304 128.507L32.0145 128.952H28.1507L27.5016 128.99L26.9761 128.952L26.7289 128.99H25.8788L25.2297 129.028L24.9052 129.075L24.0551 129.013Z" fill="url(#paint3_linear_356_7934)"/>
<path d="M35.9442 129.005L35.4649 128.929L35.3052 128.522V128.084L35.4649 127.762L35.4269 127.194L35.4649 126.949V126.672L35.5486 126.227L35.7084 125.905V125.659L35.754 125.375L35.792 124.853V124.531L35.9518 123.963L36.1115 123.564V123.195L36.1952 122.957L36.2333 122.389L36.355 122.029V121.706L36.431 121.461V121.184L36.5908 120.701V120.133L36.6745 119.611L36.8723 119.043L36.994 118.398L36.9483 118.114L37.032 117.508L37.1537 117.224V116.664L37.3135 115.536L37.4732 115.006V114.73L37.595 114.162L37.633 113.64L37.7927 113.11L37.9525 112.627L38.0286 112.343L38.1503 111.859V111.353L38.234 110.792L38.3481 110.508L38.4318 109.94L38.5078 109.664L38.5915 109.135V108.897V108.613V108.329L38.6295 108.045L38.8349 107.4V107.116L38.949 106.878L38.9947 106.31L39.1088 105.788L39.1925 105.543L39.2305 105.22L39.2685 104.698L39.3142 104.253L39.4739 103.969V103.678L39.6337 102.956L39.7098 102.426L39.7934 102.227L39.7478 101.743L39.7934 101.459L39.8695 100.976L40.3488 100.776L42.3114 100.692L43.7492 100.738L44.7914 100.776H49.4699L50.1089 100.815H50.5881L51.1054 100.976L51.2271 101.298L51.1511 101.582V102.027L51.0674 102.549V102.749L50.9457 103.44L50.8316 103.962L50.7859 104.207V104.445L50.6262 105.213L50.5044 106.057L50.1469 106.264L49.7894 106.218L49.1504 106.302L48.3896 106.218L47.8267 106.18L46.7921 106.218L45.149 106.264H44.7534L44.6697 106.586L44.6317 107.032L44.586 107.308L44.4719 107.914L44.3502 108.482V108.682L44.1904 109.649L44.0307 109.971V110.293L43.947 110.577V110.823V111.107L43.8709 111.591L43.7492 111.99L44.1904 112.028L45.9477 112.074L46.427 112.028L46.9899 111.99H47.4235L47.9865 112.028L48.1082 112.473L48.0701 112.796L47.9484 113.118V113.44L47.7887 114.008V114.208L47.6669 114.691V114.937L47.6213 115.221L47.5072 115.743V116.226L47.3474 116.748L47.2257 117.316L46.9823 117.8H46.5867L46.1455 117.761H44.7077L43.7872 117.838L42.8287 117.761L42.707 118.406L42.6233 118.813L42.5473 119.335L42.4256 119.895V120.102L42.243 120.563L42.281 120.801L42.1593 121.323L42.0452 121.929L41.9235 122.413L41.7637 122.942V123.218L41.6877 123.502L41.642 124.07V124.308L41.5659 124.876L41.4823 125.36L41.4442 125.644L41.2008 126.127L41.1628 126.411V126.649V126.933V127.217L41.041 127.701L40.965 128.184L40.8052 128.706L40.402 128.99L40.1206 128.952L39.8467 128.99L38.8882 129.075L38.0818 129.028L37.846 129.075H36.2865L35.9442 129.005Z" fill="url(#paint4_linear_356_7934)"/>
<path d="M53.8702 129.036H52.7172L52.156 128.952H51.8374L51.5567 128.99L51.1244 128.952L50.8437 128.913L50.5252 128.952L50.2066 128.875L49.888 128.591L49.8425 127.984L50.0473 127.415L50.0852 126.816L50.1611 126.532L50.2445 125.964V125.641L50.3659 125.034L50.4038 124.75L50.4872 124.427V124.151L50.6465 123.621L50.6086 123.383L50.73 122.653L50.8437 122.207L50.9272 121.846L51.0485 121.485L51.1244 121.117L51.2078 120.633V120.356L51.2837 120.072V119.826L51.3671 119.542L51.3292 119.265L51.6098 118.374L51.6857 117.768V117.529L51.7691 117.245V116.961L51.807 116.715L51.8905 116.154V115.586L52.0498 115.025V114.741L52.1256 114.173L52.2849 113.85V113.328L52.3683 112.844L52.4821 112.314L52.6869 111.753L52.8007 110.9V110.34L52.922 110.055L53.0055 109.487V109.249V108.965L53.1648 108.481L53.2027 108.243L53.3241 107.713L53.362 107.428L53.5213 106.906V106.622V106.299L53.5592 105.777L53.6426 105.577L53.7185 105.009L53.8398 104.486V104.241L53.9233 104.003V103.519L54.0067 103.073L54.166 102.628L54.2418 102.021L54.3253 101.775L54.3632 101.498L54.6438 101.091L54.9245 100.968L55.1596 100.807L55.4403 100.769L56.0395 100.73L56.396 100.769H56.9573L57.2303 100.73H59.3466L59.6272 100.692L60.0671 100.807L60.2264 101.214L60.1809 101.452V101.982L60.1051 102.105V102.543V102.789L59.9837 102.95V103.311L59.8623 103.519L59.7865 104.079L59.6272 104.44V104.763V105.009V105.293L59.5817 105.531L59.3845 106.584L59.3086 107.029L59.2252 107.267L59.1493 107.751L59.1038 108.035V108.519L59.0659 108.803L58.9825 109.326L58.8611 109.817L58.7473 110.34L58.7018 110.539L58.5881 111.108L58.4667 111.469V111.83L58.4288 112.114L58.3833 112.437V112.721L58.3074 113.243L58.1861 113.65L57.9888 114.864L57.8296 115.425L57.7082 115.709V116.032L57.5868 116.554L57.511 117.084L57.4276 117.568L57.2683 118.129V118.451L57.109 119.02V119.342L57.0331 119.911L56.9876 120.11V120.679L56.7904 121.078L56.8283 121.524L56.7146 122.131L56.669 122.453L56.5098 122.976V123.298L56.396 123.867L56.3126 124.427L56.2291 124.957V125.242L56.1153 125.679L55.9561 126.655L55.8347 127.177L55.7513 127.746L55.6375 128.268L55.592 128.591L55.4782 128.952L55.0383 129.075H53.9991L53.8702 129.036Z" fill="url(#paint5_linear_356_7934)"/>
<path d="M71.1733 129.705L70.6442 129.744L70.3563 129.705L69.9905 129.658L69.049 129.379L68.7222 129.34L68.1074 129.169L67.8195 129.006L67.2515 128.641L66.5122 128.027L65.9364 127.375L65.8197 127.173L65.6096 126.971L65.4929 126.722L65.2828 126.435L64.9559 125.906V125.658L64.8314 125.378L64.7925 125.13L64.7147 124.928L64.6291 124.679V124.392L64.5435 124.151V123.576L64.5046 123.335L64.3801 122.52L64.4657 122.232V121.455L64.5824 121.044V120.717V120.438L64.668 119.537L64.8314 118.962V118.636L64.9093 118.068V117.781L65.0727 117.206L64.9949 117.004L65.0727 116.476L65.1583 116.189L65.275 115.451L65.3995 114.961V114.417L65.524 113.928V113.641L65.6485 113.392L65.7263 113.112V112.864L65.8119 112.576V112.336L66.0531 111.924L66.1387 111.637V111.069L66.2165 110.58L66.341 110.293L66.3799 110.044L66.4655 109.477L66.629 108.452L66.8313 108.172L66.9091 107.636L67.1581 107.108L67.2826 106.82L67.446 106.331L67.6483 105.756L67.8973 105.267L68.0607 104.987L68.4265 104.451L68.4654 104.164L68.6288 103.923L68.9556 103.395L69.2824 102.897L69.5703 102.696L69.7727 102.455L70.3485 101.841L70.8776 101.468L71.2044 101.352L71.4924 101.142L71.9826 100.862L72.4728 100.614L73.0875 100.451L73.3366 100.412L73.9513 100.249L74.3559 100.202L75.0952 100.085L75.6632 100.039L76.1534 100L76.8927 100.039L77.1417 100.085L77.5852 100.124L78.2466 100.202L78.5735 100.326L78.9003 100.365L79.1415 100.451L79.7562 100.738L80.5344 101.227L80.8612 101.429L81.0635 101.678L81.5148 102.043L81.9662 102.455L82.1685 102.696L82.293 102.983L82.5342 103.511L82.6587 103.76L82.7443 104.001L82.8221 104.288L82.9466 104.902L83.0244 105.678L83.0711 106.005V106.292L83.0244 106.82L82.9855 107.069L83.0244 107.597V107.885L82.9855 108.413L82.9077 108.7L82.861 108.941L82.9077 109.228V109.64L82.861 109.881L82.7832 110.456L82.7443 111.069L82.6976 111.722L82.6198 112.009L82.5342 112.662L82.5809 113.066L82.3708 113.516L82.4097 114.006L82.2463 114.542L82.1685 115.07L82.044 115.598L82.0051 116.088L81.8806 116.624L81.7561 116.864L81.6393 117.602V117.967L81.5537 118.255L81.4759 118.83L81.3514 119.071L80.939 120.5L80.9857 120.748L80.7756 121.238L80.6511 121.479V121.929L80.4488 122.38L80.3243 122.869V123.157L80.1998 123.607L79.9975 123.887L79.9585 124.298L79.6706 124.866L79.3438 125.603L79.1415 125.891L78.768 126.419L78.6046 126.668L78.4023 126.908L78.3245 127.157L77.8264 127.646L77.5852 127.848L77.3829 128.097L76.8927 128.462L76.4024 128.788L76.2312 128.913L75.2975 129.278L75.0096 129.324L74.6827 129.402L74.1069 129.526H73.819L73.3677 129.651L72.4728 129.767L71.1733 129.705ZM72.4417 124.267L73.0175 124.104L73.3832 123.941L73.9591 123.529L74.2392 122.955L74.4882 122.387L74.566 122.1V121.774L74.6905 121.16L74.7761 120.873L74.8539 120.306L74.9784 119.979L75.0173 119.405L75.1418 119.117L75.2663 118.589V118.263L75.3908 118.014V117.688L75.3519 117.571L75.4687 117.198L75.5932 116.585L75.6788 115.645L75.7955 115.28L75.92 114.953L76.0056 114.177L76.1301 113.936L76.0834 113.237L76.2468 112.631L76.3324 112.134L76.4102 111.807L76.4958 111.528L76.4569 111.24L76.4958 110.704L76.5736 110.378L76.6981 109.811L76.7837 109.438V108.91L76.8615 108.18L76.9004 107.644L76.986 107.077L76.8226 106.253L76.6592 106.012L76.3713 105.647L75.7177 105.36H74.9395L74.6127 105.445L73.9591 105.686L73.5467 106.051L73.2665 106.502L73.0953 106.991L72.9397 107.279L72.6907 107.807L72.6051 108.094L72.5273 108.421L72.2783 109.283V109.36V109.757L72.1538 110.331L72.1149 110.572L71.9515 111.147L71.827 111.722L71.7102 112.374L71.6635 112.662L71.5857 112.942L71.5001 113.555L71.3756 113.881L71.2122 114.534L71.1344 114.821L71.0488 115.396V115.676V115.963V116.29L70.9321 116.577L70.722 117.152L70.7687 117.478L70.6831 117.766L70.722 117.929L70.6442 118.294V118.62L70.5586 118.907V119.234L70.4419 119.847V120.127L70.3174 120.414L70.4419 120.702L70.3952 121.191L70.2318 121.603L70.3563 121.883V123.032L70.4808 123.312L70.5586 123.475L70.8076 123.848L71.0099 124.05L71.3367 124.174L71.6635 124.252L71.9125 124.298L72.4417 124.267Z" fill="white"/>
<path d="M84.3512 129.036L84.0606 128.998L83.3224 129.036L83.071 128.836V128.067L83.1967 127.828V127.544L83.3224 126.975V126.729L83.4402 126.159L83.5658 125.552L83.6915 125.029V124.744L83.8172 124.259V123.975L83.8564 123.736L84.0214 122.806L84.147 122.56V122.037L84.1941 121.752L84.2727 121.514L84.4376 120.983L84.4847 120.744L84.524 120.26V120.052L84.7282 119.652V119.206L84.8146 118.968V118.683L84.9324 118.437L84.9795 117.829L85.0973 116.983L85.223 116.698L85.2623 116.375L85.3094 115.806L85.3879 115.529V115.283L85.4743 114.999L85.5136 114.76L85.6392 114.191V113.868L85.7256 113.26L85.8434 112.614L85.9691 112.091V111.607L86.0162 111.083L86.0948 110.799L86.2204 110.514L86.2597 109.991V109.745L86.4246 109.099L86.4718 108.653L86.4246 108.491L86.5503 107.968L86.5896 107.722L86.6367 106.999L86.7152 106.668L86.8409 106.107L86.9665 105.745L87.0058 105.253L87.0844 104.976V104.653L87.1707 104.369L87.21 104.084V103.846L87.2964 103.561L87.4613 102.915L87.5006 102.63V102.307L87.6263 101.738L87.6655 101.415L87.8305 100.892L88.1603 100.73H90.3123L90.8463 100.692L91.3804 100.73L91.6317 100.692H94.3963L94.6869 100.73L95.3073 100.692H96.132L96.7524 100.769H97.0823L97.6242 100.853L98.4881 100.969L99.1478 101.092L99.4384 101.176L99.729 101.376L100.012 101.5L100.554 101.776L100.923 102.107L101.088 102.307L101.339 102.63L101.583 102.915L101.708 103.238L101.96 103.761L102.038 104.046L102.203 104.492L102.242 104.938L102.289 105.215L102.407 105.661V106.068V106.668V106.953L102.454 107.399L102.407 107.845L102.329 108.291V108.576L102.242 109.461L102.164 110.03L102.038 110.314L101.999 110.637L101.873 110.914L101.834 111.16L101.747 111.407L101.622 111.968L101.496 112.291L101.292 112.86L100.962 113.629L100.758 114.068L100.467 114.56L100.059 115.191L99.8075 115.437L99.517 115.922L99.1478 116.245L98.8572 116.652L98.653 116.929L98.119 117.337L97.9069 117.583L97.3336 117.86L96.9173 117.983L96.3833 118.229L95.7236 118.429L95.2288 118.506L94.6869 118.552L94.1135 118.629L92.959 118.714L92.1736 118.668H91.2626L90.6421 118.629V118.714L90.6029 118.998L90.4772 119.321V119.844L90.3908 120.044V120.575L90.3515 120.814L90.3123 121.098L90.2259 121.337L90.1866 121.621V121.867L90.061 122.429L89.9353 122.798L89.8568 123.283L89.7704 123.567L89.6526 124.052L89.6054 124.329L89.4876 124.613V125.021L89.362 125.629V126.19L89.197 126.436V126.729L89.1499 127.013L89.0714 127.252L89.0321 127.536L88.9064 127.859V128.221L88.8593 128.544L88.7415 129.028L88.4509 129.075H85.1445L84.3512 129.036ZM92.5663 113.514L93.0218 113.429L93.8072 113.353L94.0978 113.229L94.7575 112.745L95.2131 112.337L95.5037 111.899L95.6686 111.653L95.8728 111.091L95.9513 110.722L96.1163 110.36L96.2812 109.676L96.4461 108.538L96.5325 107.491V106.799L96.3676 106.315L96.132 105.961L95.6843 105.638L95.3073 105.553L94.1921 105.515L93.2418 105.553L92.959 105.638L92.747 106.122L92.6684 106.322L92.6292 106.73L92.5428 107.415L92.4642 107.699L92.3386 108.184L92.2129 108.991L92.1265 109.399L92.0087 110.045L91.9616 110.53V110.853L91.883 111.214L91.6788 112.23V112.591L91.5532 113.16V113.522L92.5663 113.514Z" fill="white"/>
<path d="M105.726 128.99H105.446L105.091 128.668L105.174 128.071V127.22L105.454 126.377L105.529 126.094L105.567 125.488L105.65 125.251L105.688 124.684V124.393L105.885 123.833L105.93 123.55L105.885 123.228L106.089 122.377V122.094L106.21 121.611L106.323 121.006L106.406 120.73L106.444 120.446L106.527 119.918L106.603 119.68V119.113L106.807 118.715L106.724 118.308L106.762 118.025L106.845 117.749L107.042 117.182L107.2 116.577L107.284 116.293L107.2 116.017L107.397 115.527L107.48 115.289V114.722L107.601 114.324V113.956L107.677 113.68L107.836 113.435V113.151L107.994 112.899L108.115 112.293L108.07 112.01L108.274 111.565V111.167L108.35 110.96V110.6L108.388 110.324L108.471 110.04L108.667 109.397L108.705 109.151V108.914L108.751 108.63V108.385L108.864 107.864L108.947 107.581L109.03 106.975V106.332H106.883L106.323 106.293L106.043 106.332H105.726L105.333 106.293H105.015L104.652 106.171L104.531 105.811L104.614 105.328L104.735 105.006V104.684L104.69 104.401L104.856 103.834L104.932 103.596L104.97 103.029L105.128 102.508L105.249 102.263V101.703V101.458L105.454 101.014L105.809 100.738L106.089 100.692H107.117L107.321 100.738H107.601L107.873 100.692H110.815L111.095 100.738H111.972L114.513 100.692L115.11 100.738L115.942 100.692L116.305 100.738H118.77L119.322 100.776L119.678 100.853L119.761 101.175V101.405L119.723 101.688L119.64 102.01V102.293L119.602 102.531L119.519 102.814V103.052L119.443 103.542L119.36 103.818L119.322 104.063V104.546L119.163 105.067L119.08 105.351L119.042 105.918L118.884 106.278L118.49 106.316L118.127 106.278H117.651L117.296 106.316H116.895L115.231 106.278L114.868 106.316L114.793 106.6L114.83 106.845L114.709 107.121V107.366L114.634 107.604L114.551 108.132L114.513 108.416L114.354 109.136L114.195 109.458L114.271 109.665L114.074 110.224L113.915 110.745V110.991L113.878 111.473V111.719V111.994L113.673 112.485L113.598 113.082L113.515 113.366L113.394 113.933L113.28 114.171V114.454L113.235 114.975L113.121 115.458L112.963 115.741L112.917 116.308L112.842 116.546V116.791L112.721 117.358L112.6 117.956L112.524 118.324V118.722L112.486 118.967L112.403 119.205V119.488L112.244 119.971L112.199 120.255V120.5V120.776L112.085 121.343L111.964 121.987L111.806 122.508L111.768 122.791L111.647 123.312L111.45 124.163L111.367 124.485L111.246 125.052L111.291 125.373L111.087 126.255L110.853 127.381L110.77 127.948L110.656 128.515L110.573 128.753L110.097 128.952H106.641L106.157 129.075L105.726 128.99Z" fill="white"/>
<path d="M121.882 129.036H120.661L120.07 128.952H119.735L119.448 128.99L118.985 128.952L118.69 128.913L118.354 128.952L118.019 128.875L117.684 128.591V127.984L117.892 127.415L117.931 126.816L118.019 126.532L118.099 125.964L118.139 125.641L118.267 125.034L118.315 124.75L118.394 124.427L118.434 124.151L118.602 123.621L118.562 123.383L118.69 122.653L118.817 122.207L118.897 121.846L119.025 121.485L119.105 121.117L119.192 120.633V120.356L119.272 120.072L119.32 119.826L119.4 119.542L119.36 119.265L119.655 118.374L119.735 117.768V117.529L119.823 117.245V116.961L119.863 116.715L119.95 116.154V115.586L120.118 115.025V114.741L120.198 114.173L120.365 113.85V113.328L120.453 112.844L120.581 112.314L120.788 111.753L120.916 110.9V110.34L121.036 110.055L121.123 109.487L121.163 109.249L121.123 108.965L121.291 108.481L121.331 108.243L121.459 107.713L121.498 107.428L121.666 106.906L121.626 106.622L121.666 106.299L121.706 105.777L121.794 105.577L121.882 105.009L122.001 104.486L122.049 104.241L122.129 104.003V103.519L122.217 103.073L122.384 102.628L122.464 102.021L122.552 101.775L122.592 101.498L122.887 101.091L123.182 100.968L123.43 100.807L123.725 100.769L124.355 100.73L124.73 100.769H125.321L125.616 100.73H127.835L128.13 100.692L128.593 100.807L128.76 101.214V101.452V101.982L128.672 102.105L128.633 102.543L128.672 102.789L128.545 102.95V103.311L128.425 103.519L128.337 104.079L128.17 104.44V104.763L128.13 105.009V105.293L128.082 105.531L127.874 106.584L127.795 107.029L127.707 107.267L127.627 107.751L127.579 108.035L127.539 108.519L127.499 108.803L127.412 109.326L127.292 109.817L127.164 110.34L127.124 110.539L126.997 111.108L126.869 111.469V111.83L126.829 112.114L126.789 112.437V112.721L126.701 113.243L126.574 113.65L126.39 114.864L126.223 115.425L126.095 115.709V116.032L125.967 116.554L125.887 117.084L125.8 117.568L125.632 118.129V118.451L125.465 119.02V119.342L125.385 119.911V120.11V120.679L125.169 121.078L125.217 121.524L125.089 122.131L125.05 122.453L124.882 122.976V123.298L124.754 123.867L124.667 124.427L124.587 124.957V125.242L124.459 125.679L124.291 126.655L124.164 127.177L124.084 127.746L123.956 128.268L123.916 128.591L123.789 128.952L123.326 129.075H122.233L121.882 129.036Z" fill="white"/>
<path d="M130.812 128.96H129.704L129.135 128.921L128.971 128.799L128.76 128.561V128.277L128.807 127.672L128.846 127.434L128.76 127.066L128.885 126.706L128.924 126.423L128.971 125.901L129.088 125.457L129.174 124.974L129.252 124.69L129.377 124.131L129.416 123.809V123.525L129.54 123.242L129.587 122.92L129.626 122.353L129.751 121.793L129.829 121.471L129.868 121.149L129.915 120.904L129.954 120.344L130.032 120.099L130.118 119.494L130.157 118.85L130.321 118.244V117.922L130.406 117.363L130.609 116.55V116.19L130.648 115.952L130.773 115.462L130.734 115.224L130.851 114.864L130.937 114.542L131.023 114.052V113.569V113.293L131.101 113.047L131.147 112.764L131.225 112.243V111.997L131.35 111.722L131.475 111.239V110.71L131.561 110.189L131.639 109.943L131.725 109.384L131.764 109.138L131.842 108.579L131.889 108.257L132.006 107.728L132.091 107.445L132.169 107.207V106.923L132.216 106.678L132.458 105.475V105.199L132.505 104.678L132.583 104.195L132.708 103.75V103.467L132.833 102.945L132.794 102.623L132.872 102.34L132.911 101.895L133.074 101.535V101.251L133.324 100.769L133.737 100.73H134.307L135.087 100.692L135.781 100.73H136.483L137.217 100.692L138.036 100.73H138.574L138.816 101.09L138.941 102.217L139.027 102.501L139.105 103.068V103.306L139.23 103.873L139.269 104.555L139.393 105.199L139.479 105.728L139.518 106.287L139.596 106.571V106.893L139.76 107.736L139.807 107.981L139.885 108.548V108.824L139.924 109.108L140.049 109.353L140.095 109.874V110.12L140.135 110.641L140.259 111.208V111.484L140.376 112.051L140.54 113.423L140.704 113.983V114.228L140.751 114.511V114.787L140.829 115.033L140.915 115.554L141.078 116.32H141.195L141.734 115.316L141.859 115.109L142.022 114.872L142.35 114.228L142.467 113.944L142.756 113.377L143.005 112.979L143.294 112.618V112.373L143.575 111.767L143.824 111.407L143.988 111.001L144.277 110.48L144.519 110.235L144.854 109.798L145.229 109.276L145.393 109.031L145.432 108.794L145.837 108.188L146.664 106.578L146.828 106.333L147.397 105.206L147.647 104.685L147.975 104.118L148.263 103.673L148.505 103.191L148.669 102.953L148.794 102.746L148.872 102.585L148.919 102.347L149.083 102.102L149.285 101.619L149.574 101.221L149.777 100.815L150.76 100.738L151.743 100.776L152.406 100.738L153.794 100.815L154.614 100.776L154.988 101.014L155.066 101.297L154.941 101.819L154.863 102.064L154.824 102.631L154.777 102.792V103.068L154.738 103.313L154.699 103.597L154.653 103.719V104.279L154.575 104.524V104.8L154.364 105.329V105.651L154.239 106.211L154.161 106.456L154.122 106.939L154.161 107.184L153.997 107.46V108.15L153.873 108.387L153.67 108.916L153.631 109.154L153.545 109.721V110.365L153.381 110.687V111.047V111.292L153.334 111.576L153.256 111.813L153.131 112.335L153.053 112.902L152.929 113.385L152.882 113.63L152.843 113.906L152.726 114.389L152.679 114.833L152.64 115.439L152.476 115.723V116.006L152.515 116.29L152.476 116.527L152.437 116.811L152.398 117.048L152.273 117.577L152.063 117.861L152.187 118.183L152.109 118.788L151.985 119.348V119.593L151.899 120.114L151.696 120.72L151.657 121.004L151.532 121.609L151.493 121.885L151.454 122.207L151.368 122.774L151.29 123.012L151.204 123.579L151.165 123.901L151.041 124.422L151.002 124.706L150.916 124.951L150.877 125.472L150.838 125.756V126.039L150.713 126.56L150.674 126.882L150.549 127.45L150.424 127.971L150.346 128.492L150.222 128.86L149.644 129.021H149.192L147.967 128.975H146.157L145.588 129.021L145.385 128.975H145.096L144.807 128.776L144.722 128.331L144.683 128.055L144.722 127.81L144.846 127.243L144.885 126.967L144.971 126.361L145.049 126.039L145.135 125.472L145.221 124.867L145.338 124.307L145.502 123.778L145.549 123.257L145.712 122.774L145.829 122.253V121.686L145.915 121.164L146.04 120.881L146.079 120.398L146.118 120.153V119.869L146.243 119.432L146.282 119.149V118.903L146.368 118.62L146.695 117.048L146.82 116.328L146.945 115.761L146.984 115.523L147.062 115.24L147.226 114.274H147.109L145.876 116.65L144.932 118.704L144.402 119.915L143.497 121.563L142.389 123.939L142.1 124.422L141.898 124.828L141.445 124.913H141.203L140.829 124.828L139.932 124.913L139.152 124.79L138.777 124.744L138.286 124.506L138.247 124.223L138.044 123.541L138.005 123.219L137.919 122.935L137.88 122.613V122.33L137.794 122.046L137.716 121.364L137.63 120.521L137.552 120.275L137.427 119.708L137.342 119.187L137.1 117.493L137.014 116.65L136.936 116.044L136.889 115.761L136.85 115.523L136.686 113.668H136.523L136.32 115.316V115.799L136.156 116.451L135.992 117.938L135.953 118.221L135.867 118.459V119.225V119.509L135.781 120.03L135.742 120.275L135.664 120.559L135.579 121.118L135.501 121.609V121.885L135.454 122.452L135.376 123.012V123.257L135.212 123.74L135.165 124.062L135.126 124.422L135.048 125.074L134.962 125.633L134.713 125.894L134.588 126.377V126.898L134.549 127.419L134.424 127.703L134.385 127.948V128.346L134.135 128.791L133.644 128.99H132.372L132.169 129.036L131.881 129.075L130.812 128.96Z" fill="white"/>
<path d="M158.59 129.051H157.383L156.795 128.967H156.462L156.168 129.005L155.708 128.967L155.414 128.929L155.08 128.967L154.747 128.89L154.413 128.606L154.374 127.999L154.58 127.43L154.628 126.83L154.707 126.546L154.795 125.977V125.654L154.922 125.047L154.961 124.763L155.041 124.44L155.088 124.163L155.311 123.633L155.263 123.395L155.39 122.665L155.517 122.219L155.597 121.858L155.724 121.497L155.811 121.128L155.89 120.643V120.367L155.978 120.082L156.017 119.837L156.105 119.552L156.057 119.275L156.351 118.384L156.438 117.777V117.539L156.518 117.254L156.557 116.97L156.605 116.724L156.684 116.163V115.594L156.851 115.033V114.749L156.938 114.18L157.105 113.857V113.335L157.184 112.85L157.312 112.32L157.518 111.759L157.645 110.906V110.345L157.772 110.061L157.851 109.492L157.899 109.254L157.851 108.969L158.018 108.485L158.066 108.247L158.185 107.716L158.233 107.432L158.399 106.909L158.352 106.625L158.399 106.302L158.439 105.78L158.518 105.58L158.606 105.011L158.733 104.489V104.243L158.82 104.004L158.86 103.52L158.939 103.074L159.106 102.629L159.193 102.021L159.273 101.776L159.32 101.499L159.606 101.092L159.9 100.969L160.154 100.807L160.448 100.769L161.067 100.73L161.448 100.769H162.028L162.322 100.73H164.537L164.823 100.692L165.283 100.807L165.45 101.215L165.41 101.453V101.983L165.331 102.106L165.283 102.544L165.331 102.79L165.204 102.951V103.313L165.077 103.52L164.997 104.081L164.839 104.419V104.742L164.799 104.988V105.272V105.511L164.592 106.564L164.505 107.009L164.426 107.248L164.338 107.732L164.299 108.016V108.5L164.251 108.785L164.172 109.307L164.045 109.799L163.918 110.322L163.878 110.522L163.751 111.09L163.632 111.452V111.813L163.584 112.097L163.544 112.42V112.704L163.457 113.227L163.251 113.642L163.036 114.856L162.869 115.417L162.75 115.702V116.025L162.623 116.547L162.536 117.077L162.457 117.562L162.29 118.123V118.445L162.123 119.014V119.337L162.036 119.906L161.996 120.106V120.674L161.79 121.074L161.829 121.52L161.702 122.127L161.663 122.45L161.496 122.972V123.295L161.369 123.864L161.289 124.425L161.202 124.955V125.239L161.075 125.678L160.908 126.654L160.789 127.176L160.702 127.745L160.575 128.268V128.59L160.448 128.952L159.987 129.075H158.884L158.59 129.051Z" fill="white"/>
<path d="M172.732 128.974H167.605L167.117 128.851L166.59 128.974H166.304L166.017 129.013L165.731 128.974H165.165L164.716 128.936L164.391 128.897L164.189 128.489L164.065 128.126L164.189 127.271L164.228 127.032V126.099L164.352 125.652L164.468 125.128L165.041 124.272L165.289 123.871L165.452 123.625L165.529 123.424L165.692 123.224L165.94 122.815L166.342 122.129L166.544 121.721L166.753 121.235L166.916 120.911L167.078 120.672L167.202 120.387L167.481 119.901L167.644 119.693L167.729 119.454L168.581 118.159L168.867 117.627L169.192 117.18L169.278 116.98L169.479 116.417L169.68 116.047L170.091 115.361L171.268 113.295L171.516 112.81L171.64 112.609L171.841 112.116L171.965 111.877L172.329 111.468L172.407 111.229L172.778 110.536L173.018 110.135L173.142 109.888L173.39 109.441L173.553 109.202L173.793 108.716L173.917 108.516L174.079 108.146L174.319 107.861L174.443 107.622L174.769 107.136L175.14 106.527V106.165L174.815 106.08L174.319 106.119H171.593L170.943 106.08H170.617L169.967 106.042L169.192 106.08L168.867 106.042L168.542 106.08L167.969 106.042L167.853 105.756L167.93 105.556V105.032V104.747L168.015 104.5V104.261L168.054 103.976L168.178 103.452V103.205L168.263 102.92L168.302 102.681V102.395L168.464 101.864L168.627 101.216L168.875 100.815L169.115 100.692H170.827L171.516 100.777H175.504L175.876 100.854H177.789L179.09 100.777L179.415 100.815H180.027H180.314H180.554L181.127 100.892L181.452 100.939L181.692 101.054L181.94 101.216L182.025 101.91L182.064 102.234L181.94 102.596L181.902 102.958V103.49L181.816 104.014L181.778 104.338L181.692 104.747V105.124L181.654 105.409L181.414 105.895L180.926 106.913L180.802 107.398L180.678 107.676L180.554 107.884L180.229 108.37L180.151 108.608L179.903 109.056L179.779 109.302L179.741 109.587L179.539 109.911L179.454 110.15L178.842 111.368L178.517 111.854L178.44 112.093L178.277 112.301L177.867 113.025L177.75 113.272L177.588 113.511L177.503 113.758L177.262 114.282L177.092 114.567L177.015 114.814L176.852 115.053L176.728 115.299L176.604 115.662L176.403 115.986L176.24 116.232L176.039 116.433L175.915 116.672L175.752 116.918L175.628 117.157L175.466 117.404L175.342 117.651L175.264 117.89L175.063 118.136L174.978 118.375L174.575 119.107L174.203 119.832L173.917 120.325L173.754 120.564L173.429 121.011L173.351 121.25L173.065 121.736L172.941 121.983L172.817 122.268L172.577 122.754L172.414 122.993L172.252 123.363L172.538 123.486L173.429 123.563L173.715 123.601H174.575L174.854 123.524L175.14 123.601H175.427L176 123.648H176.325L176.929 123.601H177.216L177.503 123.648L178.114 123.686L178.401 123.725H179.175L179.539 123.925V124.457L179.415 125.182V125.467L179.338 125.714V125.953L179.253 126.238L179.214 126.723L179.129 127.248L179.051 127.533L179.005 127.779L178.928 128.018V128.304L178.842 128.627L178.804 128.913L178.393 128.951H173.39L173.104 129.075L172.732 128.974Z" fill="white"/>
<path d="M185.381 129.013H184.312L184.032 128.975H181.863L181.497 128.898L181.372 128.53L181.497 128.169L181.575 127.808L181.66 127.202L181.738 126.558L181.863 125.944V125.299L181.988 124.977V124.609L182.074 124.333V124.049L182.152 123.726L182.191 123.442L182.238 122.875L182.316 122.353L182.479 122.031L182.565 121.386V121.102L182.643 120.78L182.729 120.258V120.051L182.893 119.568L182.854 119.33L182.971 118.808L183.096 118.524L183.135 118.24L183.259 117.634L183.345 117.35L183.509 116.506V115.9L183.673 115.332L183.751 114.734L183.876 114.45L183.915 114.127L183.961 113.844V113.56L184.125 113.322L184.367 112.109L184.492 111.787L184.57 111.503L184.531 111.265L184.656 110.698L184.819 110.091L184.858 108.963L184.983 108.68L185.022 107.836L185.186 107.59L185.272 107.268L185.311 106.984L185.272 106.746L185.311 106.462L185.475 105.94L185.56 105.372L185.677 105.135V104.851L185.802 104.567L185.763 104.321L185.841 104.045L185.888 103.516L185.966 103.278V103.032L186.013 102.51L186.052 102.265L185.966 101.981L186.091 101.498L186.216 101.26V101.014L186.543 100.776H187.245L187.487 100.738L187.776 100.776L188.267 100.738H188.556L188.883 100.776H189.289L190.194 100.738L193.267 100.692L194.211 100.738L194.538 100.776L195.732 100.738H196.629L197.003 100.692L197.409 100.738L197.775 100.776L197.986 101.06L197.861 101.498V101.743L197.775 102.748V102.994L197.658 103.278L197.612 103.562L197.573 103.799L197.448 104.406V104.728L197.284 105.288V105.534L197.159 106.055L196.754 106.101H195.123L194.632 106.14H192.003L191.021 106.178L190.896 106.662L190.857 106.945V107.529L190.732 107.766V108.089L190.615 108.856L190.529 109.424L190.404 109.984L190.326 110.268L190.365 110.59L190.241 110.997L190.163 111.718H190.896L192.331 111.764L193.111 111.68H194.18L194.507 111.764L194.757 112.086L194.671 112.57V112.9L194.585 113.345L194.468 113.905L194.382 114.189L194.258 114.795V115.079L194.141 115.401L194.055 115.961L193.93 116.606L193.852 117.174L193.766 117.25H193.361L192.744 117.296H192.378L191.348 117.335L190.654 117.296H190.202L189.671 117.335H189.297L189.133 117.78L189.016 118.302L188.852 119.43L188.727 119.836L188.642 120.197L188.603 120.603L188.517 120.887L188.4 121.609L188.236 122.66V122.982L188.4 123.143L188.969 123.22H191.387L191.964 123.266H192.869H194.016L194.304 123.381L194.258 123.711L194.219 123.872L194.141 124.31L194.094 124.632L193.93 125.522V126.044L193.852 126.328L193.766 126.573L193.727 126.857L193.602 127.456V128.146L193.524 128.507L193.4 128.952H189.5L188.844 128.99L188.314 128.952L188.064 128.99H187.206L186.551 129.028L186.223 129.075L185.381 129.013Z" fill="white"/>
<path d="M203.016 129.075L202.48 129.028L201.952 129.075L201.338 128.99L200.849 129.028L200.523 128.99H200.158L199.583 128.913L199.335 128.867H199.009L198.729 128.913H197.502L196.928 128.828L196.602 128.751V127.821L196.64 127.452L196.85 126.967L196.928 126.405L196.967 126.159L197.091 125.598L197.161 125.19L197.238 124.867V124.544L197.324 123.975V123.652L197.409 123.206L197.572 122.883L197.65 122.483V122.16L197.774 121.59L197.852 121.267L197.898 120.744L197.937 120.498L198.1 120.221V119.329L198.224 118.76L198.263 118.437L198.388 117.875L198.426 117.591L198.504 117.06L198.589 116.783L198.714 116.298L198.753 116.052L198.916 115.568V114.76L199.001 114.476L199.079 114.229L199.203 113.668L199.281 113.422L199.49 112.291L199.607 112.006L199.692 111.73L199.731 111.445V111.199L199.77 110.914L199.855 110.43V110.153L199.979 109.668V109.422L200.065 108.937L200.228 108.453V107.884L200.267 107.561L200.344 106.715L200.43 106.23L200.632 105.461L200.717 105.176V104.938L200.756 104.653L200.88 104.13L200.958 103.561L201.043 103.076L201.16 102.83L201.206 102.553L201.245 102.069L201.323 101.784L201.447 101.376L201.533 101.253L201.657 100.815L202.061 100.692H202.348L202.837 100.73L203.124 100.769L203.777 100.692H204.103L205.004 100.73L205.78 100.692H206.797L207.248 100.73L207.488 100.692H208.149L208.475 100.73L208.84 100.769L209.453 100.853H209.74L210.067 100.976L210.633 101.138H210.719L210.96 101.215L211.658 101.415L211.86 101.538L212.023 101.623L212.427 101.861L212.714 102.069L212.963 102.269L213.576 103.076L213.903 103.561L214.066 103.761L214.268 104.13L214.431 104.692L214.679 105.299L214.842 105.584L214.959 106.268V106.553L215.168 107.122L215.122 107.399L215.207 108.214V108.737L215.083 108.976L215.207 109.545L215.246 109.791L215.207 110.068L215.293 110.353L215.246 110.637V110.876L215.129 111.53V111.807L215.044 112.499L215.005 112.783V113.914L214.803 114.56V114.845L214.64 115.614L214.555 116.222L214.477 117.152L214.392 117.475L214.268 117.798L214.229 118.206L213.988 119.052L213.941 119.583L213.864 120.067L213.74 120.352L213.452 120.875L213.375 121.114L213.328 121.56L213.087 122.09L213.048 122.329L212.885 122.898L212.598 123.46L212.311 124.229L212.109 124.636L211.783 124.959L211.736 125.206L211.534 125.482L211.332 125.729L211.045 126.213L210.47 126.898L209.903 127.344L209.538 127.667L209.29 127.828L208.762 128.075L208.312 128.198L207.9 128.475L207.333 128.636L206.922 128.721L206.269 128.798L205.819 128.959H204.553L204.266 129.005H204.064L203.777 129.044L203.016 129.075ZM205.011 123.613L205.423 123.49L205.749 123.329L206.192 123.09L206.401 122.929L206.727 122.606L207.015 122.283L207.131 122.037L207.294 121.752L207.457 121.352L207.667 120.944L207.869 120.421L208.117 119.652L208.234 119.206L208.358 118.637L208.521 118.114L208.56 117.875L208.645 117.668L208.723 117.429L208.847 116.945L208.886 116.66L208.972 116.137L209.049 115.568L209.135 114.96L209.174 114.676L209.259 114.352L209.461 113.791V113.222L209.585 112.376L209.624 112.13L209.709 111.283L209.663 110.43L209.709 109.261L209.624 108.168L209.585 107.845L209.337 107.161L209.049 106.63L208.809 106.43L208.607 106.268L207.908 106.068L207.256 105.961H206.727H206.355L206.238 106.284L206.114 106.568V106.815L206.029 107.091L205.912 107.699L205.749 108.268L205.664 108.791L205.586 109.361L205.501 110.245L205.462 110.491L205.376 110.776V111.06L205.337 111.383L205.213 111.622V111.868L205.097 112.43L205.011 113.076V113.36L204.887 113.929L204.809 114.168L204.685 114.737V114.976L204.561 115.545L204.483 115.829L204.522 116.068L204.437 116.352L204.274 117.406V117.929L204.235 118.175L204.033 118.737V119.037L203.909 119.644L203.746 120.367L203.707 120.652L203.544 121.221L203.458 121.821L203.419 122.429L203.295 123.121L203.218 123.483L203.784 123.644L205.011 123.613Z" fill="white"/>
<path d="M12.8276 137.25L6.45185 146.395L5.67653 150.95H2.33984L3.13593 146.395L0 137.25H3.78666L5.455 142.83L9.06167 137.25H12.8276Z" fill="#FEAD05"/>
<path d="M51.594 137.25L49.1919 150.95H45.876L48.2781 137.25H51.594Z" fill="#FEAD05"/>
<path d="M90.9073 139.888L90.4227 142.754H95.0332L94.5901 145.253H89.952L89.4328 148.299H94.6455L94.1817 150.95H85.6531L88.0552 137.25H96.5839L96.12 139.888H90.9073Z" fill="#FEAD05"/>
<path d="M133.994 148.402H138.41L137.967 150.936H130.235L132.637 137.236H135.953L133.994 148.402Z" fill="#FEAD05"/>
<path d="M185.719 147.648C184.964 148.684 183.966 149.519 182.812 150.078C181.575 150.672 180.217 150.97 178.845 150.95H173.674L176.076 137.251H181.247C182.381 137.222 183.507 137.446 184.543 137.908C185.41 138.304 186.135 138.956 186.619 139.777C187.1 140.644 187.339 141.625 187.312 142.616C187.312 143.103 187.266 143.59 187.173 144.069C186.97 145.358 186.472 146.583 185.719 147.648ZM182.258 146.956C183.126 146.22 183.693 145.19 183.85 144.062C183.908 143.756 183.941 143.446 183.947 143.135C183.973 142.721 183.903 142.308 183.745 141.925C183.587 141.543 183.343 141.201 183.033 140.926C182.296 140.367 181.382 140.092 180.458 140.151H178.887L177.502 147.981H179.074C180.222 148.03 181.351 147.669 182.258 146.963V146.956Z" fill="#FEAD05"/>
<defs>
<linearGradient id="paint0_linear_356_7934" x1="144.706" y1="39.4029" x2="68.0962" y2="39.4029" gradientUnits="userSpaceOnUse">
<stop stop-color="#555DFD"/>
<stop offset="1" stop-color="#379FFE"/>
</linearGradient>
<linearGradient id="paint1_linear_356_7934" x1="73.3673" y1="34.7704" x2="107.351" y2="34.7704" gradientUnits="userSpaceOnUse">
<stop stop-color="#FEB74D"/>
<stop offset="1" stop-color="#FE9A05"/>
</linearGradient>
<linearGradient id="paint2_linear_356_7934" x1="18.691" y1="116.029" x2="0" y2="116.029" gradientUnits="userSpaceOnUse">
<stop stop-color="#555DFD"/>
<stop offset="1" stop-color="#379FFE"/>
</linearGradient>
<linearGradient id="paint3_linear_356_7934" x1="36.6897" y1="116.029" x2="20.0754" y2="116.029" gradientUnits="userSpaceOnUse">
<stop stop-color="#555DFD"/>
<stop offset="1" stop-color="#379FFE"/>
</linearGradient>
<linearGradient id="paint4_linear_356_7934" x1="51.2271" y1="116.029" x2="35.3052" y2="116.029" gradientUnits="userSpaceOnUse">
<stop stop-color="#555DFD"/>
<stop offset="1" stop-color="#379FFE"/>
</linearGradient>
<linearGradient id="paint5_linear_356_7934" x1="60.2264" y1="116.029" x2="49.8425" y2="116.029" gradientUnits="userSpaceOnUse">
<stop stop-color="#555DFD"/>
<stop offset="1" stop-color="#379FFE"/>
</linearGradient>
</defs>
</svg>
