<svg width="24" height="24" viewBox="0 0 24 24" fill="none" xmlns="http://www.w3.org/2000/svg">
<g clip-path="url(#clip0_201_4802)">
<path d="M18 24C17.9 24 17.8 23.98 17.706 23.94C17.474 23.841 12 21.457 12 16.554V12.536C12 12.3793 12.0492 12.2266 12.1405 12.0993C12.2317 11.9719 12.3606 11.8764 12.509 11.826L17.759 10.04C17.9153 9.98699 18.0847 9.98699 18.241 10.04L23.491 11.826C23.6394 11.8764 23.7683 11.9719 23.8595 12.0993C23.9508 12.2266 24 12.3793 24 12.536V16.554C24 21.457 18.526 23.841 18.294 23.941C18.2008 23.9798 18.1009 23.9999 18 24ZM13.5 13.073V16.553C13.5 19.886 16.956 21.89 18 22.418C19.044 21.89 22.5 19.886 22.5 16.553V13.073L18 11.542L13.5 13.073Z" fill="#131212"/>
<path d="M17.75 19.5C17.6515 19.5002 17.5539 19.4809 17.4629 19.4432C17.372 19.4054 17.2894 19.3499 17.22 19.28L15.22 17.28C15.1503 17.2103 15.0951 17.1276 15.0574 17.0366C15.0197 16.9456 15.0003 16.848 15.0003 16.7495C15.0003 16.651 15.0197 16.5534 15.0574 16.4624C15.0951 16.3714 15.1503 16.2887 15.22 16.219C15.2897 16.1493 15.3724 16.0941 15.4634 16.0564C15.5544 16.0187 15.652 15.9993 15.7505 15.9993C15.849 15.9993 15.9466 16.0187 16.0376 16.0564C16.1286 16.0941 16.2113 16.1493 16.281 16.219L17.67 17.608L20.15 14.3C20.2085 14.2195 20.2824 14.1514 20.3675 14.0997C20.4525 14.0481 20.547 14.0138 20.6454 13.999C20.7438 13.9843 20.8442 13.9892 20.9407 14.0136C21.0372 14.038 21.1278 14.0814 21.2074 14.1411C21.287 14.2009 21.3538 14.276 21.4041 14.3618C21.4544 14.4477 21.4871 14.5428 21.5002 14.6414C21.5134 14.7401 21.5068 14.8403 21.4809 14.9364C21.4549 15.0325 21.4101 15.1224 21.349 15.201L18.349 19.201C18.2845 19.287 18.2023 19.3581 18.1079 19.4095C18.0135 19.4609 17.9092 19.4914 17.802 19.499L17.75 19.5ZM10.59 21H2.75C2.02082 20.9995 1.32165 20.7096 0.806041 20.194C0.290431 19.6783 0.000529737 18.9792 0 18.25L0 2.75C0.000529737 2.02082 0.290431 1.32165 0.806041 0.806041C1.32165 0.290431 2.02082 0.000529737 2.75 0L14.25 0C14.9792 0.000529737 15.6783 0.290431 16.194 0.806041C16.7096 1.32165 16.9995 2.02082 17 2.75V8.18C17 8.37891 16.921 8.56968 16.7803 8.71033C16.6397 8.85098 16.4489 8.93 16.25 8.93C16.0511 8.93 15.8603 8.85098 15.7197 8.71033C15.579 8.56968 15.5 8.37891 15.5 8.18V2.75C15.5 2.061 14.939 1.5 14.25 1.5H2.75C2.061 1.5 1.5 2.061 1.5 2.75V18.25C1.5 18.939 2.061 19.5 2.75 19.5H10.59C10.7889 19.5 10.9797 19.579 11.1203 19.7197C11.261 19.8603 11.34 20.0511 11.34 20.25C11.34 20.4489 11.261 20.6397 11.1203 20.7803C10.9797 20.921 10.7889 21 10.59 21Z" fill="#131212"/>
<path d="M13.25 9.5H3.75C3.55109 9.5 3.36032 9.42098 3.21967 9.28033C3.07902 9.13968 3 8.94891 3 8.75C3 8.55109 3.07902 8.36032 3.21967 8.21967C3.36032 8.07902 3.55109 8 3.75 8H13.25C13.4489 8 13.6397 8.07902 13.7803 8.21967C13.921 8.36032 14 8.55109 14 8.75C14 8.94891 13.921 9.13968 13.7803 9.28033C13.6397 9.42098 13.4489 9.5 13.25 9.5ZM9.25 13.5H3.75C3.55109 13.5 3.36032 13.421 3.21967 13.2803C3.07902 13.1397 3 12.9489 3 12.75C3 12.5511 3.07902 12.3603 3.21967 12.2197C3.36032 12.079 3.55109 12 3.75 12H9.25C9.44891 12 9.63968 12.079 9.78033 12.2197C9.92098 12.3603 10 12.5511 10 12.75C10 12.9489 9.92098 13.1397 9.78033 13.2803C9.63968 13.421 9.44891 13.5 9.25 13.5ZM8.25 5.5H3.75C3.55109 5.5 3.36032 5.42098 3.21967 5.28033C3.07902 5.13968 3 4.94891 3 4.75C3 4.55109 3.07902 4.36032 3.21967 4.21967C3.36032 4.07902 3.55109 4 3.75 4H8.25C8.44891 4 8.63968 4.07902 8.78033 4.21967C8.92098 4.36032 9 4.55109 9 4.75C9 4.94891 8.92098 5.13968 8.78033 5.28033C8.63968 5.42098 8.44891 5.5 8.25 5.5Z" fill="#131212"/>
</g>
<defs>
<clipPath id="clip0_201_4802">
<rect width="24" height="24" fill="white"/>
</clipPath>
</defs>
</svg>
