<svg width="24" height="24" viewBox="0 0 24 24" fill="none" xmlns="http://www.w3.org/2000/svg">
<g clip-path="url(#clip0_201_4745)">
<path d="M22.0574 6.17957C22.0451 5.53161 22.0333 4.91948 22.0333 4.32729C22.0333 4.1045 21.9448 3.89082 21.7873 3.73328C21.6297 3.57574 21.4161 3.48723 21.1933 3.48723C17.6006 3.48723 14.8653 2.45474 12.5852 0.237875C12.4284 0.085343 12.2183 0 11.9996 0C11.7808 0 11.5707 0.085343 11.4139 0.237875C9.13413 2.45474 6.39922 3.48723 2.80678 3.48723C2.58399 3.48723 2.37031 3.57574 2.21277 3.73328C2.05523 3.89082 1.96672 4.1045 1.96672 4.32729C1.96672 4.91959 1.95507 5.53194 1.94264 6.18002C1.8275 12.2101 1.66979 20.4686 11.7244 23.9537C11.9026 24.0155 12.0964 24.0155 12.2746 23.9537C22.33 20.4685 22.1726 12.2098 22.0574 6.17957ZM11.9996 22.2685C3.37646 19.136 3.50684 12.2738 3.62254 6.21206C3.62949 5.84825 3.63621 5.49565 3.64091 5.15C7.00564 5.00797 9.6963 3.98836 11.9996 1.98184C14.3032 3.98836 16.9943 5.00808 20.3593 5.15C20.364 5.49554 20.3707 5.84792 20.3776 6.2115C20.4932 12.2735 20.6235 19.1359 11.9996 22.2685Z" fill="black"/>
<path d="M14.8925 9.0819L10.8379 13.1363L9.1077 11.4061C8.94926 11.2529 8.73699 11.1681 8.51663 11.17C8.29627 11.1719 8.08546 11.2602 7.92965 11.4161C7.77383 11.5719 7.68548 11.7827 7.68362 12.0031C7.68177 12.2234 7.76657 12.4357 7.91974 12.5941L10.2439 14.9183C10.3218 14.9964 10.4144 15.0583 10.5164 15.1006C10.6183 15.1428 10.7276 15.1644 10.8379 15.1643C10.9482 15.1644 11.0575 15.1428 11.1594 15.1006C11.2614 15.0583 11.3539 14.9964 11.4319 14.9183L16.0803 10.27C16.1584 10.192 16.2203 10.0994 16.2625 9.99748C16.3047 9.89557 16.3265 9.78633 16.3265 9.67601C16.3265 9.56569 16.3048 9.45645 16.2626 9.35453C16.2203 9.25261 16.1585 9.16001 16.0804 9.08201C15.9229 8.92447 15.7093 8.83596 15.4865 8.83594C15.2637 8.83592 15.05 8.92439 14.8925 9.0819Z" fill="black"/>
</g>
<defs>
<clipPath id="clip0_201_4745">
<rect width="24" height="24" fill="white"/>
</clipPath>
</defs>
</svg>
