<svg width="20" height="20" viewBox="0 0 20 20" fill="none" xmlns="http://www.w3.org/2000/svg">
<path d="M18.9741 8.92956C18.7858 8.54061 18.4717 8.22656 18.0828 8.03818L3.59133 1.02586C2.63671 0.563361 1.48795 0.962348 1.02545 1.91698C0.908921 2.15753 0.843883 2.41975 0.834498 2.68688C0.825112 2.95401 0.871585 3.22015 0.970945 3.46829L3.49084 9.76678L0.970945 16.0659C0.578447 17.054 1.06131 18.1733 2.04944 18.5657C2.27288 18.6545 2.51096 18.7006 2.75138 18.7017C3.04226 18.7017 3.32938 18.636 3.59133 18.5096L18.0827 11.4954C19.0374 11.033 19.4365 9.88423 18.9741 8.92956ZM3.0337 17.3553C2.71544 17.5094 2.33255 17.3763 2.17848 17.058C2.13966 16.9778 2.118 16.8904 2.1149 16.8014C2.11179 16.7123 2.1273 16.6236 2.16044 16.5409L4.61375 10.407H17.3932L3.0337 17.3553ZM4.61378 9.12654L2.16048 2.99258C2.11066 2.87328 2.09911 2.74145 2.12744 2.6153C2.15576 2.48915 2.22255 2.37491 2.3186 2.28835C2.41151 2.19781 2.53048 2.13867 2.65875 2.11927C2.78703 2.09986 2.91816 2.12116 3.0337 2.18017L17.3932 9.12654H4.61378Z" fill="white"/>
</svg>
