<svg width="24" height="24" viewBox="0 0 24 24" fill="none" xmlns="http://www.w3.org/2000/svg">
<path d="M8.60289 15.4429C9.08126 14.9745 9.37891 14.3223 9.37891 13.6016C9.37891 12.18 8.22236 11.0234 6.80078 11.0234C5.3792 11.0234 4.22266 12.18 4.22266 13.6016C4.22266 14.3223 4.5203 14.9745 4.99867 15.4429C4.14218 16.0227 3.57812 17.0034 3.57812 18.1133V19.4023C3.57812 19.7583 3.8667 20.0469 4.22266 20.0469H9.37891C9.73486 20.0469 10.0234 19.7583 10.0234 19.4023V18.1133C10.0234 17.0034 9.45939 16.0227 8.60289 15.4429ZM6.80078 12.3125C7.51157 12.3125 8.08984 12.8908 8.08984 13.6016C8.08984 14.3124 7.51157 14.8906 6.80078 14.8906C6.08999 14.8906 5.51172 14.3124 5.51172 13.6016C5.51172 12.8908 6.08999 12.3125 6.80078 12.3125ZM8.73438 18.7578H4.86719V18.1133C4.86719 17.0471 5.7346 16.1797 6.80078 16.1797C7.86696 16.1797 8.73438 17.0471 8.73438 18.1133V18.7578Z" fill="white"/>
<path d="M15.9102 14.8906C16.2661 14.8906 16.5547 14.6021 16.5547 14.2461C16.5547 13.8901 16.2661 13.6016 15.9102 13.6016C15.5542 13.6016 15.2656 13.8901 15.2656 14.2461C15.2656 14.6021 15.5542 14.8906 15.9102 14.8906Z" fill="white"/>
<path d="M18.4883 14.8906C18.8442 14.8906 19.1328 14.6021 19.1328 14.2461C19.1328 13.8901 18.8442 13.6016 18.4883 13.6016C18.1323 13.6016 17.8438 13.8901 17.8438 14.2461C17.8438 14.6021 18.1323 14.8906 18.4883 14.8906Z" fill="white"/>
<path d="M13.332 14.8906C13.688 14.8906 13.9766 14.6021 13.9766 14.2461C13.9766 13.8901 13.688 13.6016 13.332 13.6016C12.9761 13.6016 12.6875 13.8901 12.6875 14.2461C12.6875 14.6021 12.9761 14.8906 13.332 14.8906Z" fill="white"/>
<path d="M18.4883 16.1797H13.332C12.9761 16.1797 12.6875 16.4683 12.6875 16.8242C12.6875 17.1802 12.9761 17.4688 13.332 17.4688H18.4883C18.8442 17.4688 19.1328 17.1802 19.1328 16.8242C19.1328 16.4683 18.8442 16.1797 18.4883 16.1797ZM18.4883 18.7578H13.332C12.9761 18.7578 12.6875 19.0464 12.6875 19.4024C12.6875 19.7583 12.9761 20.0469 13.332 20.0469H18.4883C18.8442 20.0469 19.1328 19.7583 19.1328 19.4024C19.1328 19.0464 18.8442 18.7578 18.4883 18.7578ZM20.2331 5.41148C19.9814 5.15972 19.5733 5.15972 19.3216 5.41143L17.1992 7.53383L16.3659 6.7005C16.1142 6.44879 15.7061 6.44879 15.4544 6.7005C15.2027 6.95221 15.2027 7.36028 15.4544 7.61199L16.7434 8.90106C16.8693 9.02695 17.0343 9.08986 17.1992 9.08986C17.3642 9.08986 17.5291 9.02695 17.6549 8.9011L20.2331 6.32297C20.4848 6.07126 20.4848 5.66319 20.2331 5.41148Z" fill="white"/>
<path d="M17.8438 2C15.0006 2 12.6875 4.31309 12.6875 7.15625H2.93359C1.86741 7.15625 1 8.02366 1 9.08984V20.6914C1 21.7576 1.86741 22.625 2.93359 22.625H19.7773C20.8435 22.625 21.7109 21.7576 21.7109 20.6914V10.5628C22.5127 9.65364 23 8.46087 23 7.15625C23 4.31309 20.6869 2 17.8438 2ZM20.4219 20.6914C20.4219 21.0468 20.1327 21.3359 19.7773 21.3359H2.93359C2.5782 21.3359 2.28906 21.0468 2.28906 20.6914V9.08984C2.28906 8.73445 2.5782 8.44531 2.93359 8.44531H12.8507C13.4245 10.6668 15.4455 12.3125 17.8438 12.3125C18.7823 12.3125 19.663 12.0603 20.4219 11.6203V20.6914ZM17.8438 11.0234C15.7114 11.0234 13.9766 9.28862 13.9766 7.15625C13.9766 5.02388 15.7114 3.28906 17.8438 3.28906C19.9761 3.28906 21.7109 5.02388 21.7109 7.15625C21.7109 9.28862 19.9761 11.0234 17.8438 11.0234Z" fill="white"/>
</svg>
