<svg width="24" height="24" viewBox="0 0 24 24" fill="none" xmlns="http://www.w3.org/2000/svg">
<path d="M16.372 9.93721C16.1266 8.94312 15.3456 7.87478 13.7183 7.87478C12.4066 7.87478 11.8628 8.95481 11.5095 9.93721H9.05449C9.35423 9.32948 10.0348 9.25386 10.2851 9.24973C10.4674 9.24919 10.6421 9.17623 10.7706 9.04692C10.8991 8.9176 10.971 8.74252 10.9705 8.56019C10.9699 8.37786 10.897 8.20322 10.7677 8.07468C10.6384 7.94614 10.4633 7.87423 10.281 7.87478C9.31161 7.87478 7.92909 8.43851 7.60254 9.93721H7.1873C7.00497 9.93721 6.83011 10.0096 6.70118 10.1386C6.57225 10.2675 6.49982 10.4424 6.49982 10.6247C6.49982 10.807 6.57225 10.9819 6.70118 11.1108C6.83011 11.2397 7.00497 11.3122 7.1873 11.3122H7.60254C7.92909 12.8109 9.31161 13.3746 10.281 13.3746C11.5927 13.3746 12.1365 12.2946 12.4898 11.3122H14.9352C14.7695 11.6593 14.4319 11.9996 13.7183 11.9996C13.536 11.9996 13.3611 12.0721 13.2322 12.201C13.1033 12.3299 13.0309 12.5048 13.0309 12.6871C13.0309 12.8695 13.1033 13.0443 13.2322 13.1732C13.3611 13.3022 13.536 13.3746 13.7183 13.3746C15.3456 13.3746 16.1273 12.3063 16.372 11.3122H16.812C16.9943 11.3122 17.1692 11.2397 17.2981 11.1108C17.427 10.9819 17.4995 10.807 17.4995 10.6247C17.4995 10.4424 17.427 10.2675 17.2981 10.1386C17.1692 10.0096 16.9943 9.93721 16.812 9.93721H16.372ZM10.281 11.9996C10.1022 11.9996 9.3721 11.9508 9.05655 11.3122H11.0104C10.8041 11.7728 10.5993 11.9996 10.281 11.9996ZM12.9882 9.93721C13.1945 9.4766 13.4 9.24973 13.7183 9.24973C14.4271 9.24973 14.7654 9.5866 14.9324 9.93721H12.9882ZM20.2494 11.9996V3.06243C20.2494 1.54929 19.016 1 18.1869 1H5.81234C4.29921 1 3.74991 2.23334 3.74991 3.06243V11.9996H1V16.1245H22.9993V11.9996H20.2494ZM3.74991 14.7496H2.37496V13.3746H3.74991V14.7496ZM5.12487 3.07068C5.13312 2.75307 5.25892 2.37496 5.81234 2.37496H6.37333C6.27075 2.66256 6.10552 2.92377 5.8896 3.13969C5.67368 3.35561 5.41247 3.52083 5.12487 3.62342V3.07068ZM18.8744 14.7496H5.12487V5.05543C5.78465 4.91931 6.3901 4.59291 6.86646 4.11655C7.34282 3.64019 7.66922 3.03473 7.80534 2.37496H16.1939C16.3301 3.03473 16.6565 3.64019 17.1328 4.11655C17.6092 4.59291 18.2146 4.91931 18.8744 5.05543V14.7496ZM18.8744 3.62342C18.5868 3.52083 18.3256 3.35561 18.1097 3.13969C17.8938 2.92377 17.7285 2.66256 17.626 2.37496H18.1787C18.4963 2.38321 18.8744 2.50901 18.8744 3.06243V3.62342ZM21.6243 14.7496H20.2494V13.3746H21.6243V14.7496ZM15.2356 19.0759C15.2995 19.1396 15.3502 19.2154 15.3848 19.2988C15.4194 19.3822 15.4372 19.4716 15.4372 19.5619C15.4372 19.6522 15.4194 19.7416 15.3848 19.825C15.3502 19.9084 15.2995 19.9842 15.2356 20.0479L12.4857 22.7979C12.422 22.8619 12.3463 22.9128 12.2628 22.9475C12.1794 22.9821 12.09 23 11.9996 23C11.9093 23 11.8199 22.9821 11.7364 22.9475C11.653 22.9128 11.5773 22.8619 11.5136 22.7979L8.76369 20.0479C8.69986 19.9841 8.64923 19.9083 8.61468 19.8249C8.58014 19.7416 8.56236 19.6522 8.56236 19.5619C8.56236 19.4716 8.58014 19.3822 8.61468 19.2989C8.64923 19.2155 8.69986 19.1397 8.76369 19.0759C8.89259 18.9469 9.06743 18.8745 9.24973 18.8745C9.34 18.8745 9.42938 18.8923 9.51278 18.9268C9.59618 18.9614 9.67195 19.012 9.73578 19.0759L11.3122 20.6522V17.4995C11.3122 17.3171 11.3846 17.1423 11.5135 17.0133C11.6425 16.8844 11.8173 16.812 11.9996 16.812C12.182 16.812 12.3568 16.8844 12.4858 17.0133C12.6147 17.1423 12.6871 17.3171 12.6871 17.4995V20.6522L14.2635 19.0759C14.3273 19.012 14.4031 18.9613 14.4865 18.9267C14.5699 18.8921 14.6593 18.8743 14.7496 18.8743C14.8398 18.8743 14.9292 18.8921 15.0126 18.9267C15.0961 18.9613 15.1718 19.012 15.2356 19.0759Z" fill="#00BF71"/>
</svg>
