<svg width="24" height="24" viewBox="0 0 24 24" fill="none" xmlns="http://www.w3.org/2000/svg">
<path d="M4.86987 6.92212C4.77103 6.92212 4.67317 6.94165 4.5819 6.97959C4.49063 7.01753 4.40775 7.07313 4.33804 7.14319C4.26832 7.21326 4.21314 7.29641 4.17566 7.38787C4.13818 7.47933 4.11914 7.57729 4.11964 7.67613C4.12014 7.87478 4.1994 8.06512 4.34004 8.20541C4.48069 8.3457 4.67123 8.42448 4.86987 8.42448H17.8903C18.7029 8.42448 19.2642 8.97251 19.2642 9.5848V10.8944C19.264 10.9929 19.2831 11.0905 19.3206 11.1816C19.3581 11.2728 19.4131 11.3556 19.4826 11.4255C19.5521 11.4953 19.6347 11.5508 19.7256 11.5887C19.8165 11.6266 19.914 11.6463 20.0126 11.6465C20.1112 11.6465 20.2089 11.6271 20.3001 11.5892C20.3912 11.5514 20.474 11.496 20.5437 11.4261C20.6134 11.3563 20.6686 11.2733 20.7062 11.1821C20.7438 11.0908 20.763 10.9931 20.7628 10.8944V9.5848C20.7628 8.07865 19.4286 6.92212 17.8903 6.92212H4.86987Z" fill="#131212"/>
<path d="M17.9131 10.144C16.817 10.144 15.9099 11.0511 15.9099 12.1491V13.6514C15.9099 14.7475 16.817 15.6546 17.9131 15.6546H19.9975C21.0935 15.6546 22.0006 14.7475 22.0006 13.6514V12.1491C22.0006 11.053 21.0935 10.1459 19.9975 10.1459L17.9131 10.144ZM17.9131 11.6464H19.9975C20.0639 11.6449 20.13 11.6568 20.1917 11.6815C20.2533 11.7062 20.3094 11.7432 20.3564 11.7902C20.4034 11.8372 20.4403 11.8932 20.465 11.9549C20.4898 12.0166 20.5017 12.0826 20.5001 12.1491V13.6514C20.5017 13.7179 20.4898 13.7839 20.465 13.8456C20.4403 13.9073 20.4034 13.9634 20.3564 14.0103C20.3094 14.0573 20.2533 14.0943 20.1917 14.119C20.13 14.1437 20.0639 14.1557 19.9975 14.1541H17.915C17.8485 14.1557 17.7825 14.1437 17.7208 14.119C17.6591 14.0943 17.603 14.0573 17.5561 14.0103C17.5091 13.9634 17.4721 13.9073 17.4474 13.8456C17.4227 13.7839 17.4107 13.7179 17.4123 13.6514V12.1491C17.4107 12.0826 17.4227 12.0166 17.4474 11.9549C17.4721 11.8932 17.5091 11.8372 17.5561 11.7902C17.603 11.7432 17.6591 11.7062 17.7208 11.6815C17.7825 11.6568 17.8466 11.6449 17.9131 11.6464Z" fill="#131212"/>
<path d="M2.75146 5.01538C2.55281 5.01538 2.36227 5.09416 2.22163 5.23445C2.08098 5.37474 2.00172 5.56508 2.00122 5.76373V16.2708C2.00122 17.7751 3.33161 18.9278 4.86988 18.9278H6.99965C7.19829 18.9273 7.38863 18.8481 7.52892 18.7074C7.66921 18.5668 7.74799 18.3762 7.74799 18.1776C7.74749 17.9793 7.66849 17.7892 7.52826 17.649C7.38802 17.5087 7.19797 17.4297 6.99965 17.4292H4.86988C4.05728 17.4292 3.4998 16.8812 3.4998 16.2708V5.76373C3.4993 5.56541 3.4203 5.37535 3.28007 5.23512C3.13983 5.09488 2.94978 5.01588 2.75146 5.01538ZM20.0126 14.1543C19.914 14.1545 19.8165 14.1742 19.7256 14.2121C19.6347 14.25 19.5521 14.3055 19.4826 14.3754C19.4131 14.4452 19.3581 14.528 19.3206 14.6192C19.2831 14.7103 19.264 14.8079 19.2642 14.9064V16.267C19.2642 16.8793 18.703 17.4274 17.8904 17.4274H16.0006C15.9021 17.4271 15.8045 17.4463 15.7133 17.4837C15.6222 17.5212 15.5394 17.5763 15.4695 17.6458C15.3997 17.7152 15.3442 17.7978 15.3063 17.8887C15.2684 17.9797 15.2487 18.0772 15.2485 18.1757C15.2485 18.2744 15.2679 18.3721 15.3058 18.4632C15.3436 18.5544 15.399 18.6372 15.4689 18.7069C15.5387 18.7766 15.6217 18.8318 15.7129 18.8694C15.8041 18.907 15.9019 18.9262 16.0006 18.9259H17.8904C19.4286 18.9259 20.7628 17.7732 20.7628 16.2689V14.9064C20.763 14.8077 20.7438 14.71 20.7062 14.6187C20.6686 14.5275 20.6134 14.4446 20.5437 14.3747C20.474 14.3048 20.3912 14.2494 20.3001 14.2116C20.209 14.1737 20.1112 14.1543 20.0126 14.1543Z" fill="#131212"/>
<path d="M4.86988 3.10669C3.3335 3.10669 2.00122 4.25945 2.00122 5.7637C2.00122 7.26795 3.3335 8.42448 4.86988 8.42448C4.9684 8.42473 5.06601 8.40557 5.15713 8.3681C5.24825 8.33063 5.33109 8.27557 5.40093 8.20608C5.47077 8.13659 5.52624 8.05403 5.56418 7.9631C5.60211 7.87217 5.62176 7.77466 5.62201 7.67614C5.62251 7.57714 5.60341 7.47902 5.56581 7.38744C5.52821 7.29585 5.47286 7.21262 5.40294 7.14252C5.33303 7.07243 5.24993 7.01687 5.15844 6.97905C5.06695 6.94122 4.96888 6.92187 4.86988 6.92212C4.06295 6.92212 3.4998 6.36842 3.4998 5.7637C3.4998 5.15897 4.06295 4.60527 4.86988 4.60527H16.2141C16.7357 4.60527 17.1439 5.01346 17.1439 5.53504V7.67614C17.1444 7.87446 17.2234 8.06451 17.3636 8.20475C17.5039 8.34498 17.6939 8.42399 17.8922 8.42448C18.0909 8.42449 18.2814 8.3457 18.4221 8.20541C18.5627 8.06513 18.642 7.87478 18.6425 7.67614V5.53504C18.64 4.89176 18.3833 4.27555 17.9285 3.82068C17.4736 3.36582 16.8574 3.10918 16.2141 3.10669H4.86988Z" fill="#131212"/>
<path d="M11.7328 21.436C11.6339 21.4365 11.536 21.4175 11.4445 21.38C11.3531 21.3425 11.2699 21.2873 11.1998 21.2176C11.1298 21.1479 11.0742 21.065 11.0362 20.9738C10.9983 20.8825 10.9788 20.7846 10.9788 20.6858V16.7513C10.9788 16.6525 10.9983 16.5546 11.0362 16.4633C11.0742 16.3721 11.1298 16.2892 11.1998 16.2195C11.2699 16.1497 11.3531 16.0946 11.4445 16.0571C11.536 16.0196 11.6339 16.0006 11.7328 16.0011C11.9314 16.0016 12.1218 16.0808 12.2621 16.2215C12.4023 16.3621 12.4811 16.5527 12.4811 16.7513V20.6858C12.4806 20.8841 12.4016 21.0742 12.2614 21.2144C12.1212 21.3546 11.9311 21.4355 11.7328 21.436Z" fill="#131212"/>
<path d="M9.75035 19.4896C9.55219 19.4898 9.36197 19.4117 9.22122 19.2722C9.08027 19.1321 9.00071 18.9417 9 18.7429C8.9993 18.5442 9.0775 18.3532 9.21744 18.2121L11.2017 16.2222C11.3418 16.0818 11.5317 16.0026 11.73 16.0019C11.9284 16.0012 12.1189 16.079 12.26 16.2184C12.4003 16.3585 12.4795 16.5484 12.4802 16.7467C12.4809 16.945 12.4031 17.1356 12.2637 17.2767L10.2814 19.2704C10.2118 19.3403 10.129 19.3959 10.0379 19.4338C9.94677 19.4718 9.84906 19.4913 9.75035 19.4915V19.4896Z" fill="#131212"/>
<path d="M13.7094 19.4895C13.5107 19.4888 13.3204 19.4093 13.1802 19.2684L11.1979 17.2785C11.058 17.1379 10.9795 16.9477 10.9795 16.7493C10.9795 16.551 11.058 16.3608 11.1979 16.2202C11.2677 16.1502 11.3507 16.0947 11.4421 16.0569C11.5334 16.0191 11.6314 15.9998 11.7302 15.9999C11.8291 16.0001 11.927 16.0198 12.0182 16.058C12.1094 16.0961 12.1922 16.1519 12.2618 16.2221L14.2404 18.212C14.3798 18.3531 14.4576 18.5436 14.4569 18.7419C14.4562 18.9402 14.377 19.1302 14.2366 19.2703C14.0962 19.4105 13.9078 19.4893 13.7094 19.4895Z" fill="#131212"/>
</svg>
