<svg width="24" height="24" viewBox="0 0 24 24" fill="none" xmlns="http://www.w3.org/2000/svg">
<path fill-rule="evenodd" clip-rule="evenodd" d="M3.60205 16.11C4.01626 16.11 4.35205 16.4458 4.35205 16.86C4.35205 18.0206 5.45438 19.05 7.18205 19.05C8.89643 19.05 10.0021 18.0133 10.0021 16.86C10.0021 16.4458 10.3378 16.11 10.7521 16.11C11.1663 16.11 11.5021 16.4458 11.5021 16.86V18.89C11.5021 21.1186 9.46513 22.75 7.18205 22.75C4.90186 22.75 2.85205 21.1211 2.85205 18.89V16.86C2.85205 16.4458 3.18784 16.11 3.60205 16.11ZM4.60562 19.8556C5.03597 20.6471 5.98078 21.25 7.18205 21.25C8.38402 21.25 9.32612 20.6456 9.75285 19.8512C9.01324 20.3031 8.10903 20.55 7.18205 20.55C6.25269 20.55 5.34666 20.3055 4.60562 19.8556Z" fill="#00BF71"/>
<path fill-rule="evenodd" clip-rule="evenodd" d="M7.16009 11.76C6.34171 11.76 5.63021 12.0405 5.12458 12.4839L5.12397 12.4844C4.62393 12.922 4.34009 13.4948 4.34009 14.11C4.34009 14.4644 4.43798 14.7908 4.61114 15.0807C5.03859 15.7729 5.97639 16.3 7.17009 16.3C8.36856 16.3 9.30275 15.7796 9.7281 15.0822C9.90184 14.792 10.0001 14.465 10.0001 14.11C10.0001 13.493 9.71528 12.9173 9.20995 12.4962L9.20055 12.4882C8.68877 12.0473 7.97317 11.76 7.16009 11.76ZM4.1359 11.3558C4.93024 10.6594 5.99862 10.26 7.16009 10.26C8.32471 10.26 9.38722 10.6711 10.175 11.3478C10.9869 12.0265 11.5001 13.0091 11.5001 14.11C11.5001 14.7542 11.3188 15.3466 11.0132 15.8559L11.0109 15.8598L11.0109 15.8597C10.2557 17.1014 8.77048 17.8 7.17009 17.8C5.56573 17.8 4.08463 17.0888 3.33112 15.8627L3.32693 15.8559L3.32697 15.8559C3.02141 15.3466 2.84009 14.7542 2.84009 14.11C2.84009 13.0053 3.35611 12.0383 4.1359 11.3558Z" fill="#00BF71"/>
<path fill-rule="evenodd" clip-rule="evenodd" d="M18.9201 10.7C18.561 10.7 18.2452 10.8392 18.0174 11.0732C18.013 11.0778 18.0085 11.0822 18.004 11.0867C17.7379 11.3464 17.5893 11.7162 17.6267 12.1089L17.6275 12.1177L17.6275 12.1177C17.6804 12.7527 18.291 13.3 19.0401 13.3H20.9828C21.1444 13.2896 21.2501 13.1632 21.2501 13.03V10.97C21.2501 10.8368 21.1444 10.7104 20.9828 10.7H18.9201ZM16.9493 10.02C17.461 9.49818 18.1624 9.2 18.9201 9.2H21.0001C21.009 9.2 21.0179 9.20016 21.0268 9.20047C21.9798 9.23451 22.7501 10.0058 22.7501 10.97V13.03C22.7501 13.9942 21.9798 14.7655 21.0268 14.7995C21.0179 14.7998 21.009 14.8 21.0001 14.8H19.0401C17.6305 14.8 16.2623 13.7693 16.133 12.2466C16.0523 11.3845 16.3806 10.579 16.9493 10.02ZM7.18205 11.75C5.51369 11.75 4.35205 12.8998 4.35205 14.11V16.86C4.35205 18.0109 5.46473 19.05 7.18205 19.05C8.89826 19.05 10.0021 18.0218 10.0021 16.86V14.11C10.0021 13.493 9.71673 12.9116 9.22034 12.4763C8.7087 12.0365 7.99398 11.75 7.18205 11.75ZM2.85205 14.11C2.85205 11.8802 4.89042 10.25 7.18205 10.25C8.34897 10.25 9.41337 10.6627 10.2016 11.3418L10.2059 11.3455L10.2059 11.3456C10.9882 12.0301 11.5021 13.0079 11.5021 14.11V16.86C11.5021 19.1382 9.40585 20.55 7.18205 20.55C4.95937 20.55 2.85205 19.1291 2.85205 16.86V14.11Z" fill="#00BF71"/>
<path fill-rule="evenodd" clip-rule="evenodd" d="M7 4.25C6.75575 4.25 6.52398 4.26744 6.30404 4.30128C6.29717 4.30234 6.29028 4.3033 6.28339 4.30416C5.17606 4.44312 4.30559 4.91721 3.70955 5.61651C3.11197 6.31761 2.75 7.29286 2.75 8.5V10.5C2.75 10.9142 2.41421 11.25 2 11.25C1.58579 11.25 1.25 10.9142 1.25 10.5V8.5C1.25 6.98713 1.70803 5.65239 2.56796 4.64349C3.42737 3.63519 4.64812 2.9999 6.08633 2.81714C6.38312 2.77204 6.68789 2.75 7 2.75H16C16.2697 2.75 16.5608 2.75977 16.8545 2.80712C18.305 2.97976 19.5395 3.61091 20.4103 4.62C21.2833 5.63163 21.75 6.9753 21.75 8.5V9.95C21.75 10.3642 21.4142 10.7 21 10.7H18.92C18.561 10.7 18.2452 10.8392 18.0174 11.0732C18.0129 11.0778 18.0084 11.0822 18.0039 11.0867C17.7378 11.3464 17.5892 11.7162 17.6266 12.1089L17.6275 12.1177L17.6274 12.1177C17.6803 12.7527 18.2909 13.3 19.04 13.3H21C21.4142 13.3 21.75 13.6358 21.75 14.05V15.5C21.75 17.1704 21.1899 18.6207 20.1553 19.6553C19.1207 20.6899 17.6704 21.25 16 21.25H13.5C13.0858 21.25 12.75 20.9142 12.75 20.5C12.75 20.0858 13.0858 19.75 13.5 19.75H16C17.3296 19.75 18.3793 19.3101 19.0947 18.5947C19.8101 17.8793 20.25 16.8296 20.25 15.5V14.8H19.04C17.6305 14.8 16.2624 13.7693 16.133 12.2468C16.0522 11.3846 16.3805 10.5791 16.9493 10.02C17.4609 9.49818 18.1623 9.2 18.92 9.2H20.25V8.5C20.25 7.2847 19.8817 6.30337 19.2747 5.6C18.6691 4.89823 17.7851 4.42542 16.6634 4.29498C16.6511 4.29355 16.6389 4.29183 16.6267 4.2898C16.4468 4.25981 16.2445 4.25 16 4.25H7Z" fill="#00BF71"/>
</svg>
