<svg width="24" height="24" viewBox="0 0 24 24" fill="none" xmlns="http://www.w3.org/2000/svg">
<g clip-path="url(#clip0_379_4226)">
<path d="M22.0572 6.17957C22.0448 5.53161 22.0331 4.91948 22.0331 4.32729C22.0331 4.1045 21.9446 3.89082 21.787 3.73328C21.6295 3.57574 21.4158 3.48723 21.193 3.48723C17.6004 3.48723 14.865 2.45474 12.585 0.237875C12.4282 0.085343 12.2181 0 11.9993 0C11.7806 0 11.5705 0.085343 11.4137 0.237875C9.13388 2.45474 6.39898 3.48723 2.80654 3.48723C2.58374 3.48723 2.37007 3.57574 2.21253 3.73328C2.05499 3.89082 1.96648 4.1045 1.96648 4.32729C1.96648 4.91959 1.95483 5.53194 1.9424 6.18002C1.82725 12.2101 1.66955 20.4686 11.7242 23.9537C11.9024 24.0155 12.0962 24.0155 12.2744 23.9537C22.3298 20.4685 22.1723 12.2098 22.0572 6.17957ZM11.9994 22.2685C3.37621 19.136 3.50659 12.2738 3.6223 6.21206C3.62924 5.84825 3.63596 5.49565 3.64067 5.15C7.00539 5.00797 9.69605 3.98836 11.9994 1.98184C14.303 3.98836 16.9941 5.00808 20.359 5.15C20.3637 5.49554 20.3704 5.84792 20.3774 6.2115C20.493 12.2735 20.6232 19.1359 11.9994 22.2685Z" fill="white"/>
<path d="M14.892 9.0819L10.8374 13.1363L9.10721 11.4061C8.94877 11.2529 8.7365 11.1681 8.51614 11.17C8.29578 11.1719 8.08498 11.2602 7.92916 11.4161C7.77334 11.5719 7.68499 11.7827 7.68314 12.0031C7.68128 12.2234 7.76608 12.4357 7.91926 12.5941L10.2434 14.9183C10.3214 14.9964 10.4139 15.0583 10.5159 15.1006C10.6178 15.1428 10.7271 15.1644 10.8374 15.1643C10.9477 15.1644 11.057 15.1428 11.1589 15.1006C11.2609 15.0583 11.3535 14.9964 11.4314 14.9183L16.0798 10.27C16.1579 10.192 16.2198 10.0994 16.262 9.99748C16.3042 9.89557 16.326 9.78633 16.326 9.67601C16.326 9.56569 16.3043 9.45645 16.2621 9.35453C16.2199 9.25261 16.158 9.16001 16.08 9.08201C15.9224 8.92447 15.7088 8.83596 15.486 8.83594C15.2632 8.83592 15.0495 8.92439 14.892 9.0819Z" fill="white"/>
</g>
<defs>
<clipPath id="clip0_379_4226">
<rect width="24" height="24" fill="white"/>
</clipPath>
</defs>
</svg>
