<svg width="24" height="24" viewBox="0 0 24 24" fill="none" xmlns="http://www.w3.org/2000/svg">
<path d="M4.87036 6.92212C4.77152 6.92212 4.67365 6.94165 4.58238 6.97959C4.49111 7.01753 4.40824 7.07313 4.33853 7.14319C4.26881 7.21326 4.21363 7.29641 4.17615 7.38787C4.13867 7.47933 4.11963 7.57729 4.12013 7.67613C4.12063 7.87478 4.19989 8.06512 4.34053 8.20541C4.48118 8.3457 4.67171 8.42448 4.87036 8.42448H17.8908C18.7034 8.42448 19.2647 8.97251 19.2647 9.5848V10.8944C19.2644 10.9929 19.2836 11.0905 19.3211 11.1816C19.3586 11.2728 19.4136 11.3556 19.4831 11.4255C19.5526 11.4953 19.6352 11.5508 19.7261 11.5887C19.817 11.6266 19.9145 11.6463 20.013 11.6465C20.1117 11.6465 20.2094 11.6271 20.3006 11.5892C20.3917 11.5514 20.4745 11.496 20.5442 11.4261C20.6139 11.3563 20.6691 11.2733 20.7067 11.1821C20.7443 11.0908 20.7635 10.9931 20.7633 10.8944V9.5848C20.7633 8.07865 19.4291 6.92212 17.8908 6.92212H4.87036Z" fill="white"/>
<path d="M17.9133 10.144C16.8172 10.144 15.9102 11.0511 15.9102 12.1491V13.6514C15.9102 14.7475 16.8172 15.6546 17.9133 15.6546H19.9977C21.0938 15.6546 22.0009 14.7475 22.0009 13.6514V12.1491C22.0009 11.053 21.0938 10.1459 19.9977 10.1459L17.9133 10.144ZM17.9133 11.6464H19.9977C20.0642 11.6449 20.1302 11.6568 20.1919 11.6815C20.2536 11.7062 20.3096 11.7432 20.3566 11.7902C20.4036 11.8372 20.4406 11.8932 20.4653 11.9549C20.49 12.0166 20.5019 12.0826 20.5004 12.1491V13.6514C20.5019 13.7179 20.49 13.7839 20.4653 13.8456C20.4406 13.9073 20.4036 13.9634 20.3566 14.0103C20.3096 14.0573 20.2536 14.0943 20.1919 14.119C20.1302 14.1437 20.0642 14.1557 19.9977 14.1541H17.9152C17.8488 14.1557 17.7827 14.1437 17.721 14.119C17.6593 14.0943 17.6033 14.0573 17.5563 14.0103C17.5093 13.9634 17.4723 13.9073 17.4476 13.8456C17.4229 13.7839 17.411 13.7179 17.4125 13.6514V12.1491C17.411 12.0826 17.4229 12.0166 17.4476 11.9549C17.4723 11.8932 17.5093 11.8372 17.5563 11.7902C17.6033 11.7432 17.6593 11.7062 17.721 11.6815C17.7827 11.6568 17.8469 11.6449 17.9133 11.6464Z" fill="white"/>
<path d="M2.7517 5.01538C2.55305 5.01538 2.36251 5.09416 2.22187 5.23445C2.08123 5.37474 2.00197 5.56508 2.00146 5.76373V16.2708C2.00146 17.7751 3.33186 18.9278 4.87013 18.9278H6.99989C7.19854 18.9273 7.38888 18.8481 7.52917 18.7074C7.66945 18.5668 7.74824 18.3762 7.74824 18.1776C7.74774 17.9793 7.66873 17.7892 7.5285 17.649C7.38827 17.5087 7.19821 17.4297 6.99989 17.4292H4.87013C4.05753 17.4292 3.50005 16.8812 3.50005 16.2708V5.76373C3.49955 5.56541 3.42055 5.37535 3.28031 5.23512C3.14008 5.09488 2.95002 5.01588 2.7517 5.01538ZM20.0128 14.1543C19.9143 14.1545 19.8168 14.1742 19.7258 14.2121C19.6349 14.25 19.5524 14.3055 19.4829 14.3754C19.4134 14.4452 19.3583 14.528 19.3208 14.6192C19.2834 14.7103 19.2642 14.8079 19.2645 14.9064V16.267C19.2645 16.8793 18.7032 17.4274 17.8906 17.4274H16.0008C15.9023 17.4271 15.8047 17.4463 15.7136 17.4837C15.6225 17.5212 15.5396 17.5763 15.4698 17.6458C15.3999 17.7152 15.3445 17.7978 15.3065 17.8887C15.2686 17.9797 15.249 18.0772 15.2487 18.1757C15.2487 18.2744 15.2682 18.3721 15.306 18.4632C15.3438 18.5544 15.3993 18.6372 15.4691 18.7069C15.539 18.7766 15.6219 18.8318 15.7132 18.8694C15.8044 18.907 15.9022 18.9262 16.0008 18.9259H17.8906C19.4289 18.9259 20.763 17.7732 20.763 16.2689V14.9064C20.7633 14.8077 20.7441 14.71 20.7065 14.6187C20.6689 14.5275 20.6137 14.4446 20.544 14.3747C20.4743 14.3048 20.3915 14.2494 20.3003 14.2116C20.2092 14.1737 20.1115 14.1543 20.0128 14.1543Z" fill="white"/>
<path d="M4.87013 3.10669C3.33375 3.10669 2.00146 4.25945 2.00146 5.7637C2.00146 7.26795 3.33375 8.42448 4.87013 8.42448C4.96865 8.42473 5.06625 8.40557 5.15737 8.3681C5.24849 8.33063 5.33134 8.27557 5.40118 8.20608C5.47102 8.13659 5.52649 8.05403 5.56442 7.9631C5.60235 7.87217 5.622 7.77466 5.62225 7.67614C5.62275 7.57714 5.60365 7.47902 5.56605 7.38744C5.52846 7.29585 5.4731 7.21262 5.40319 7.14252C5.33327 7.07243 5.25017 7.01687 5.15869 6.97905C5.0672 6.94122 4.96913 6.92187 4.87013 6.92212C4.0632 6.92212 3.50005 6.36842 3.50005 5.7637C3.50005 5.15897 4.0632 4.60527 4.87013 4.60527H16.2144C16.736 4.60527 17.1441 5.01346 17.1441 5.53504V7.67614C17.1446 7.87446 17.2236 8.06451 17.3639 8.20475C17.5041 8.34498 17.6942 8.42399 17.8925 8.42448C18.0911 8.42449 18.2817 8.3457 18.4223 8.20541C18.563 8.06513 18.6422 7.87478 18.6427 7.67614V5.53504C18.6402 4.89176 18.3836 4.27555 17.9287 3.82068C17.4739 3.36582 16.8576 3.10918 16.2144 3.10669H4.87013Z" fill="white"/>
<path d="M11.7325 21.436C11.6337 21.4365 11.5357 21.4175 11.4443 21.38C11.3528 21.3425 11.2697 21.2873 11.1996 21.2176C11.1295 21.1479 11.0739 21.065 11.036 20.9738C10.998 20.8825 10.9785 20.7846 10.9785 20.6858V16.7513C10.9785 16.6525 10.998 16.5546 11.036 16.4633C11.0739 16.3721 11.1295 16.2892 11.1996 16.2195C11.2697 16.1497 11.3528 16.0946 11.4443 16.0571C11.5357 16.0196 11.6337 16.0006 11.7325 16.0011C11.9312 16.0016 12.1215 16.0808 12.2618 16.2215C12.4021 16.3621 12.4809 16.5527 12.4809 16.7513V20.6858C12.4804 20.8841 12.4014 21.0742 12.2611 21.2144C12.1209 21.3546 11.9309 21.4355 11.7325 21.436Z" fill="white"/>
<path d="M9.75035 19.4896C9.55219 19.4898 9.36197 19.4117 9.22122 19.2722C9.08027 19.1321 9.00071 18.9417 9 18.7429C8.9993 18.5442 9.0775 18.3532 9.21744 18.2121L11.2017 16.2222C11.3418 16.0818 11.5317 16.0026 11.73 16.0019C11.9284 16.0012 12.1189 16.079 12.26 16.2184C12.4003 16.3585 12.4795 16.5484 12.4802 16.7467C12.4809 16.945 12.4031 17.1356 12.2637 17.2767L10.2814 19.2704C10.2118 19.3403 10.129 19.3959 10.0379 19.4338C9.94677 19.4718 9.84906 19.4913 9.75035 19.4915V19.4896Z" fill="white"/>
<path d="M13.7094 19.4895C13.5107 19.4888 13.3204 19.4093 13.1802 19.2684L11.1979 17.2785C11.058 17.1379 10.9795 16.9477 10.9795 16.7493C10.9795 16.551 11.058 16.3608 11.1979 16.2202C11.2677 16.1502 11.3507 16.0947 11.4421 16.0569C11.5334 16.0191 11.6314 15.9998 11.7302 15.9999C11.8291 16.0001 11.927 16.0198 12.0182 16.058C12.1094 16.0961 12.1922 16.1519 12.2618 16.2221L14.2404 18.212C14.3798 18.3531 14.4576 18.5436 14.4569 18.7419C14.4562 18.9402 14.377 19.1302 14.2366 19.2703C14.0962 19.4105 13.9078 19.4893 13.7094 19.4895Z" fill="white"/>
</svg>
