<svg width="24" height="24" viewBox="0 0 24 24" fill="none" xmlns="http://www.w3.org/2000/svg">
<path fill-rule="evenodd" clip-rule="evenodd" d="M4.25747 8.41C4.25747 4.31579 7.57326 1 11.6675 1C15.7421 1 19.0763 4.33574 19.0875 8.40795L19.0875 8.41L19.0875 10.51C19.0875 10.7564 19.1417 11.1114 19.2444 11.4849C19.3472 11.8589 19.482 12.191 19.6096 12.4025L19.6109 12.4046L20.8802 14.5235C20.8803 14.5236 20.8804 14.5238 20.8805 14.524C21.1096 14.9051 21.2502 15.3329 21.2919 15.7757C21.3336 16.2187 21.2752 16.6654 21.1211 17.0828C20.967 17.5002 20.7211 17.8776 20.4015 18.1872C20.0819 18.4968 19.6969 18.7307 19.2748 18.8715L19.2741 18.8717C14.3392 20.5128 9.00573 20.5128 4.07081 18.8717L4.0703 18.8715C3.15419 18.5661 2.47478 17.9273 2.17144 17.1061C1.86822 16.2854 1.9683 15.3572 2.46305 14.5263L2.46408 14.5246L3.73408 12.4046L3.73533 12.4025C3.8635 12.1901 3.99821 11.8598 4.10071 11.4881C4.20309 11.1169 4.25747 10.7618 4.25747 10.51V8.41ZM11.6675 2.5C8.40168 2.5 5.75747 5.14421 5.75747 8.41V10.51C5.75747 10.9382 5.67185 11.4331 5.54673 11.8869C5.42185 12.3397 5.24178 12.809 5.02025 13.1764C5.02004 13.1768 5.01982 13.1771 5.01961 13.1775L3.75189 15.2937C3.75171 15.294 3.75154 15.2943 3.75137 15.2946C3.46662 15.7733 3.4468 16.2299 3.5785 16.5863C3.71016 16.9427 4.02075 17.2739 4.54464 17.4485C9.17192 18.9871 14.1729 18.9872 18.8001 17.4485C19.009 17.3789 19.1996 17.2631 19.3578 17.1099C19.516 16.9567 19.6377 16.7698 19.714 16.5632C19.7903 16.3567 19.8191 16.1356 19.7985 15.9163C19.7779 15.6971 19.7082 15.4852 19.5947 15.2965L19.5941 15.2954L18.3253 13.1775C18.3251 13.1772 18.325 13.1769 18.3248 13.1766C18.1026 12.8082 17.9226 12.3357 17.7981 11.8826C17.6733 11.4286 17.5875 10.9336 17.5875 10.51V8.41103C17.578 5.16371 14.9125 2.5 11.6675 2.5ZM11.6475 5.44C12.0617 5.44 12.3975 5.77579 12.3975 6.19V9.52C12.3975 9.93421 12.0617 10.27 11.6475 10.27C11.2333 10.27 10.8975 9.93421 10.8975 9.52V6.19C10.8975 5.77579 11.2333 5.44 11.6475 5.44Z" fill="white"/>
<path fill-rule="evenodd" clip-rule="evenodd" d="M9.06738 18.5701C9.06738 19.2701 9.36038 19.9224 9.82771 20.3897C10.295 20.8571 10.9473 21.1501 11.6474 21.1501C13.0632 21.1501 14.2274 19.9859 14.2274 18.5701H15.7274C15.7274 20.8143 13.8916 22.6501 11.6474 22.6501C10.5275 22.6501 9.49972 22.1831 8.76705 21.4504C8.03438 20.7177 7.56738 19.69 7.56738 18.5701H9.06738Z" fill="white"/>
</svg>
