<svg width="24" height="24" viewBox="0 0 24 24" fill="none" xmlns="http://www.w3.org/2000/svg">
<path d="M12.0015 2.25073C9.41638 2.25373 6.93797 3.28201 5.10999 5.10999C3.28201 6.93797 2.25373 9.41638 2.25073 12.0015C2.25373 14.5867 3.28201 17.0651 5.10999 18.8931C6.93797 20.721 9.41638 21.7493 12.0015 21.7523C14.5867 21.7493 17.0651 20.721 18.8931 18.8931C20.721 17.0651 21.7493 14.5867 21.7523 12.0015C21.7493 9.41638 20.721 6.93797 18.8931 5.10999C17.0651 3.28201 14.5867 2.25373 12.0015 2.25073ZM12.7527 3.78422C14.803 3.96846 16.7099 4.914 18.0977 6.43448C19.4854 7.95497 20.2533 9.94012 20.25 11.9987C20.2533 14.0573 19.4854 16.0424 18.0977 17.5629C16.7099 19.0834 14.803 20.0289 12.7527 20.2132V3.78422Z" fill="black"/>
</svg>
