<svg width="100" height="100" viewBox="0 0 100 100" fill="none" xmlns="http://www.w3.org/2000/svg">
<g clip-path="url(#clip0_333_6508)">
<path d="M49.9998 88.16C71.075 88.16 88.1599 71.0752 88.1599 50C88.1599 28.9248 71.075 11.84 49.9998 11.84C28.9247 11.84 11.8398 28.9248 11.8398 50C11.8398 71.0752 28.9247 88.16 49.9998 88.16Z" fill="#40485B"/>
<path fill-rule="evenodd" clip-rule="evenodd" d="M82.4798 28.7267L82.3998 29.8267L81.9398 36.4067L75.4532 35.9533L72.4132 80.8867C66.1198 85.46 58.3732 88.16 49.9998 88.16C40.2798 88.16 31.4065 84.5267 24.6665 78.54C25.5465 65.4133 27.1132 42.0733 27.8798 31.2C27.9998 29.5333 28.7732 27.98 30.0332 26.8867C31.2932 25.7933 32.9398 25.24 34.6065 25.36L75.9932 28.26V28.2733L81.6532 28.6733L82.4798 28.7267Z" fill="#4FB4F3"/>
<path d="M30.9377 65.2495L30.5986 70.0979L53.0514 71.6679L53.3904 66.8196L30.9377 65.2495Z" fill="#3594DC"/>
<path d="M31.6701 55.4285L31.3311 60.2769L42.7303 61.074L43.0694 56.2256L31.6701 55.4285Z" fill="#3594DC"/>
<path d="M32.3317 45.2466L31.9927 50.095L43.3388 50.8884L43.6778 46.04L32.3317 45.2466Z" fill="#3594DC"/>
<path d="M30.2428 75.1731L29.9038 80.0215L60.0847 82.1319L60.4237 77.2836L30.2428 75.1731Z" fill="#3594DC"/>
<path fill-rule="evenodd" clip-rule="evenodd" d="M74.1465 54.5866L48.6998 52.8C48.2931 52.7733 47.9398 52.5066 47.8065 52.12C47.6731 51.7333 47.7731 51.3066 48.0731 51.0266C51.1531 48.1266 57.6198 42.04 60.8465 39.0133C61.1531 38.7266 61.6065 38.6533 61.9865 38.8333C62.3665 39.0133 62.5998 39.4066 62.5731 39.8333L62.1065 46.48L74.6598 47.36L74.1465 54.5866ZM75.5265 34.4C75.6398 32.7733 76.3998 31.2533 77.6265 30.1866C78.8598 29.1133 80.4665 28.58 82.0932 28.6933C85.0998 28.9066 87.3731 31.5066 87.1798 34.5133C86.9465 38.1066 86.6798 42.1533 86.6798 42.1533L75.0398 41.3333C75.0398 41.3333 75.2932 37.7933 75.5265 34.4Z" fill="#3594DC"/>
<path fill-rule="evenodd" clip-rule="evenodd" d="M48.7867 51.5667C48.3801 51.54 48.0267 51.2733 47.8934 50.8867C47.7601 50.5 47.8601 50.0733 48.1601 49.7933C51.2401 46.8933 57.7067 40.8067 60.9334 37.78C61.2401 37.4933 61.6934 37.42 62.0734 37.6C62.4534 37.78 62.6867 38.18 62.6601 38.6L62.1934 45.2467L80.5067 46.5333C80.7001 46.5467 80.8801 46.6333 81.0067 46.78C81.1334 46.9267 81.2001 47.1133 81.1867 47.3067C81.0867 48.6933 80.8801 51.6867 80.7801 53.0733C80.7667 53.2667 80.6734 53.4467 80.5334 53.5733C80.3867 53.7 80.2001 53.7667 80.0001 53.7533L48.7867 51.5667Z" fill="white"/>
<path fill-rule="evenodd" clip-rule="evenodd" d="M65.9599 64.8933L47.6465 63.6066C47.4532 63.5933 47.2732 63.5 47.1465 63.36C47.0199 63.2133 46.9532 63.02 46.9665 62.8266C47.0665 61.44 47.2732 58.4466 47.3732 57.06C47.3865 56.8666 47.4732 56.6866 47.6199 56.56C47.7665 56.4333 47.9532 56.3666 48.1532 56.38L73.8932 58.1866L73.2999 66.6333L67.2132 72.3533C66.9065 72.64 66.4532 72.7133 66.0732 72.5333C65.6932 72.3533 65.4599 71.9533 65.4865 71.5333L65.9599 64.8933Z" fill="#3594DC"/>
<path fill-rule="evenodd" clip-rule="evenodd" d="M66.0331 63.7867L47.7198 62.5C47.5264 62.4867 47.3464 62.3933 47.2198 62.2533C47.0931 62.1067 47.0264 61.9133 47.0398 61.7267C47.1398 60.34 47.3464 57.3467 47.4464 55.96C47.4598 55.7667 47.5531 55.5867 47.6998 55.46C47.8464 55.3333 48.0398 55.2667 48.2331 55.28L79.4398 57.4667C79.8464 57.4933 80.1998 57.76 80.3331 58.1467C80.4731 58.5333 80.3664 58.96 80.0731 59.24C76.9931 62.14 70.5264 68.2267 67.2998 71.2533C66.9931 71.54 66.5398 71.6133 66.1598 71.4333C65.7798 71.2533 65.5464 70.86 65.5798 70.4333L66.0331 63.7867Z" fill="white"/>
</g>
<defs>
<clipPath id="clip0_333_6508">
<rect width="100" height="100" fill="white"/>
</clipPath>
</defs>
</svg>
