<svg width="21" height="22" viewBox="0 0 21 22" fill="none" xmlns="http://www.w3.org/2000/svg">
<path d="M15.3908 11.4492C14.4962 9.64956 13.2198 8.06668 11.6508 6.81083V4.785C12.2053 4.15379 12.5115 3.34265 12.5125 2.50251V0.0366745L10.175 0.614179L8.41499 0L6.65501 0.614179L4.31749 0.0366745V2.50251C4.31851 3.34265 4.62473 4.15379 5.17916 4.785V6.81083C3.56345 8.09878 2.25881 9.73431 1.36216 11.5959C0.465508 13.4574 -9.04113e-05 15.4971 1.31686e-08 17.5633C1.31686e-08 18.74 0.467433 19.8685 1.29947 20.7005C2.13151 21.5326 3.25999 22 4.43666 22H12.3842C13.5609 22 14.6893 21.5326 15.5214 20.7005C16.3534 19.8685 16.8208 18.74 16.8208 17.5633C16.8182 15.4427 16.329 13.351 15.3908 11.4492ZM5.60085 1.68666L6.71918 1.96168L8.41499 1.36582L10.1108 1.96168L11.22 1.68666V2.50251C11.2208 3.0074 11.0458 3.49681 10.725 3.88666H6.14168C5.81822 3.49768 5.63998 3.0084 5.63749 2.50251L5.60085 1.68666ZM10.3584 5.17916V6.47166H6.47166V5.17916H10.3584ZM12.3842 20.7167H4.47334C3.63861 20.7142 2.83889 20.381 2.24951 19.7899C1.66013 19.1987 1.32917 18.3981 1.32918 17.5633C1.33758 15.6547 1.78283 13.7733 2.63083 12.0633C3.45411 10.4075 4.63067 8.95247 6.0775 7.80084H10.8167C12.297 8.96995 13.4939 10.4586 14.3177 12.1555C15.1416 13.8525 15.5711 15.7137 15.5742 17.6C15.5694 18.0141 15.4831 18.4232 15.3202 18.804C15.1572 19.1847 14.9209 19.5297 14.6247 19.8191C14.3285 20.1085 13.9782 20.3367 13.5937 20.4907C13.2093 20.6447 12.7983 20.7215 12.3842 20.7167Z" fill="#00BF71"/>
<path d="M19.4423 3.82252H18.7915V0.916672C18.7915 0.72218 18.7142 0.535664 18.5767 0.398137C18.4392 0.260611 18.2527 0.18335 18.0582 0.18335H16.014C15.8195 0.18335 15.633 0.260611 15.4954 0.398137C15.3579 0.535664 15.2807 0.72218 15.2807 0.916672V3.82252H14.6298C14.4604 3.82489 14.2985 3.89325 14.1787 4.01308C14.0589 4.13291 13.9905 4.29472 13.9882 4.46417C13.9865 4.54976 14.0028 4.63477 14.036 4.7137C14.0691 4.79263 14.1184 4.86374 14.1806 4.9225L16.5182 7.26917C16.6568 7.40411 16.8426 7.47964 17.0361 7.47964C17.2295 7.47964 17.4153 7.40411 17.554 7.26917L19.9006 4.9225C19.9923 4.83274 20.0549 4.7176 20.0805 4.5919C20.106 4.4662 20.0933 4.33572 20.044 4.21732C19.9946 4.09892 19.9109 3.99802 19.8037 3.92765C19.6964 3.85727 19.5706 3.82065 19.4423 3.82252ZM18.4615 5.06L17.169 6.33418L17.0406 6.46252L16.9123 6.33418L15.6198 5.04167L15.3082 4.73001H16.2248V1.06334H17.8932V4.73001H18.8098L18.4615 5.06ZM8.77232 13.7775H8.05732C7.83609 13.7775 7.62392 13.6896 7.46748 13.5332C7.31104 13.3767 7.22315 13.1646 7.22315 12.9433C7.22315 12.7221 7.31104 12.5099 7.46748 12.3535C7.62392 12.1971 7.83609 12.1092 8.05732 12.1092H8.754C8.94287 12.1119 9.12546 12.1774 9.27312 12.2952C9.42078 12.413 9.52515 12.5765 9.56982 12.76H10.4865C10.4424 12.3779 10.2757 12.0204 10.0113 11.7411C9.74682 11.4618 9.39893 11.2757 9.01981 11.2108H8.86399V10.3767H7.94733V11.2108H7.79148C7.36219 11.2866 6.9763 11.5191 6.70856 11.8631C6.44082 12.2071 6.31029 12.6383 6.34224 13.073C6.37419 13.5078 6.56634 13.9152 6.8815 14.2164C7.19666 14.5176 7.61238 14.6911 8.04815 14.7033H8.76315C8.87269 14.7033 8.98116 14.7249 9.08236 14.7668C9.18357 14.8088 9.27553 14.8702 9.35299 14.9477C9.43045 15.0251 9.49189 15.1171 9.53381 15.2183C9.57573 15.3195 9.59732 15.428 9.59732 15.5375C9.59732 15.6471 9.57573 15.7555 9.53381 15.8567C9.49189 15.9579 9.43045 16.0499 9.35299 16.1274C9.27553 16.2048 9.18357 16.2663 9.08236 16.3082C8.98116 16.3501 8.87269 16.3717 8.76315 16.3717H8.039C7.85563 16.3702 7.67809 16.307 7.53507 16.1922C7.39204 16.0774 7.29185 15.9179 7.25065 15.7392H6.33398C6.37443 16.1207 6.54039 16.4781 6.80583 16.7551C7.07127 17.0322 7.42118 17.2133 7.80066 17.27H7.96565V18.1042H8.88232V17.3342H9.03816C9.46746 17.2584 9.85334 17.026 10.1211 16.6819C10.3888 16.3379 10.5194 15.9068 10.4874 15.472C10.4555 15.0372 10.2633 14.6298 9.94814 14.3286C9.63299 14.0274 9.21726 13.8539 8.7815 13.8417L8.77232 13.7775Z" fill="#00BF71"/>
</svg>
