<svg width="51" height="50" viewBox="0 0 51 50" fill="none" xmlns="http://www.w3.org/2000/svg">
<g clip-path="url(#clip0_379_5380)">
<path d="M40.2462 30.8594C41.0666 30.8594 41.711 30.2147 41.711 29.3945V27.5488L34.3868 11.8164L21.7375 14.9787C22.3253 14.0658 22.6681 12.9808 22.6681 11.8164C22.6681 8.58486 20.0388 5.95703 16.8087 5.95703C13.5786 5.95703 10.9493 8.58486 10.9493 11.8164C10.9493 14.0086 12.1601 15.9218 13.9468 16.9265L10.9493 17.6758L0.792969 36.748C1.379 38.4472 2.99023 39.6484 4.89463 39.6484H31.4571C32.2775 39.6484 32.922 39.0038 32.922 38.1836C32.922 34.1406 36.2032 30.8594 40.2462 30.8594ZM45.2358 36.1223L42.412 33.3099C41.8781 32.6438 41.0214 32.3328 40.2462 32.3328C39.3395 32.3328 38.4987 32.7775 38.1862 33.1926L35.2851 36.0951C34.0633 37.2497 34.1303 39.1842 35.2307 40.2179C35.7686 40.7871 36.5297 41.1133 37.3165 41.1133C37.3165 42.7555 38.604 44.043 40.2462 44.043C41.8884 44.043 43.1759 42.7555 43.1759 41.1133C43.9913 41.1133 44.7637 40.7757 45.2072 40.2722C46.4106 39.1349 46.3879 37.2106 45.2358 36.1223Z" fill="white"/>
<path d="M32.6011 16.1744L41.7109 27.5488V5.95703C41.7109 3.52998 39.7435 1.5625 37.3164 1.5625H4.89453C2.46748 1.5625 0.5 3.52998 0.5 5.95703V35.2539C0.5 35.7812 0.587988 36.2792 0.792871 36.748L12.7353 22.0376C13.3214 21.3036 14.437 21.3031 15.0237 22.0366L19.1804 27.2323C19.7668 27.9653 20.8816 27.9653 21.4681 27.2323L30.3138 16.1751C30.9 15.4423 32.0145 15.442 32.6011 16.1744ZM16.8086 16.2109C14.3769 16.2109 12.4141 14.2479 12.4141 11.8164C12.4141 9.38467 14.3769 7.42188 16.8086 7.42188C19.2403 7.42188 21.2031 9.38467 21.2031 11.8164C21.2031 14.2479 19.2403 16.2109 16.8086 16.2109ZM40.2461 27.9297C34.5918 27.9297 29.9922 32.5293 29.9922 38.1836C29.9922 43.8379 34.5918 48.4375 40.2461 48.4375C45.9004 48.4375 50.5 43.8379 50.5 38.1836C50.5 32.5293 45.9004 27.9297 40.2461 27.9297ZM44.2011 39.2089C43.6741 39.7948 42.6776 39.795 42.1504 39.2089L41.7108 38.7987V41.1133C41.7108 41.9335 41.0664 42.5781 40.246 42.5781C39.4256 42.5781 38.7812 41.9335 38.7812 41.1133V38.7987L38.3416 39.2089C37.785 39.7948 36.8477 39.7948 36.2909 39.2089C35.705 38.6522 35.705 37.7147 36.2909 37.1581L39.2206 34.2284C39.6565 33.6833 40.7959 33.634 41.2713 34.2284L44.201 37.1581C44.7871 37.7147 44.7871 38.6522 44.2011 39.2089Z" fill="#676767"/>
</g>
<defs>
<clipPath id="clip0_379_5380">
<rect width="50" height="50" fill="white" transform="translate(0.5)"/>
</clipPath>
</defs>
</svg>
